<svg xmlns="http://www.w3.org/2000/svg" xmlns:xlink="http://www.w3.org/1999/xlink" version="1.1" class="marks" width="482" height="884" viewBox="0 0 482 884"><rect width="482" height="884" fill="white"/><g fill="none" stroke-miterlimit="10" transform="translate(55,5)"><g class="mark-group role-frame root" role="graphics-object" aria-roledescription="group mark container"><g transform="translate(0,0)"><path class="background" aria-hidden="true" d="M0.5,0.5h320v800h-320Z" stroke="#ddd"/><g><g class="mark-rect role-mark marks" role="graphics-object" aria-roledescription="rect mark container"><path aria-label="trip_date: 2021-11-13; location: C05; duets_per_hour: 0.1215" role="graphics-symbol" aria-roledescription="rect mark" d="M0,80h20v20h-20Z" fill="rgb(42, 152, 190)"/><path aria-label="trip_date: 2021-11-13; location: G05; duets_per_hour: 0.0054" role="graphics-symbol" aria-roledescription="rect mark" d="M0,260h20v20h-20Z" fill="rgb(233, 247, 187)"/><path aria-label="trip_date: 2021-11-13; location: M05; duets_per_hour: 0" role="graphics-symbol" aria-roledescription="rect mark" d="M0,540h20v20h-20Z" fill="rgb(239, 249, 189)"/><path aria-label="trip_date: 2021-11-25; location: C05; duets_per_hour: 0.0928" role="graphics-symbol" aria-roledescription="rect mark" d="M20,80h20v20h-20Z" fill="rgb(78, 184, 193)"/><path aria-label="trip_date: 2021-11-25; location: CB11; duets_per_hour: 0" role="graphics-symbol" aria-roledescription="rect mark" d="M20,100h20v20h-20Z" fill="rgb(239, 249, 189)"/><path aria-label="trip_date: 2021-11-25; location: M02; duets_per_hour: 0.0252" role="graphics-symbol" aria-roledescription="rect mark" d="M20,500h20v20h-20Z" fill="rgb(210, 238, 180)"/><path aria-label="trip_date: 2021-12-18; location: C05; duets_per_hour: 0.1046" role="graphics-symbol" aria-roledescription="rect mark" d="M40,80h20v20h-20Z" fill="rgb(60, 172, 193)"/><path aria-label="trip_date: 2021-12-18; location: N14; duets_per_hour: 0.0184" role="graphics-symbol" aria-roledescription="rect mark" d="M40,580h20v20h-20Z" fill="rgb(220, 241, 181)"/><path aria-label="trip_date: 2021-12-18; location: WD07; duets_per_hour: 0.0038" role="graphics-symbol" aria-roledescription="rect mark" d="M40,780h20v20h-20Z" fill="rgb(235, 247, 187)"/><path aria-label="trip_date: 2022-01-17; location: C05; duets_per_hour: 0.0429" role="graphics-symbol" aria-roledescription="rect mark" d="M60,80h20v20h-20Z" fill="rgb(181, 226, 182)"/><path aria-label="trip_date: 2022-01-17; location: H07; duets_per_hour: 0.0571" role="graphics-symbol" aria-roledescription="rect mark" d="M60,320h20v20h-20Z" fill="rgb(151, 214, 185)"/><path aria-label="trip_date: 2022-01-17; location: H15; duets_per_hour: 0" role="graphics-symbol" aria-roledescription="rect mark" d="M60,380h20v20h-20Z" fill="rgb(239, 249, 189)"/><path aria-label="trip_date: 2022-01-17; location: K09; duets_per_hour: 0.0095" role="graphics-symbol" aria-roledescription="rect mark" d="M60,440h20v20h-20Z" fill="rgb(229, 245, 185)"/><path aria-label="trip_date: 2022-01-17; location: N14; duets_per_hour: 0.0048" role="graphics-symbol" aria-roledescription="rect mark" d="M60,580h20v20h-20Z" fill="rgb(234, 247, 187)"/><path aria-label="trip_date: 2022-02-12; location: C01; duets_per_hour: 0" role="graphics-symbol" aria-roledescription="rect mark" d="M80,60h20v20h-20Z" fill="rgb(239, 249, 189)"/><path aria-label="trip_date: 2022-02-12; location: C05; duets_per_hour: 0.04" role="graphics-symbol" aria-roledescription="rect mark" d="M80,80h20v20h-20Z" fill="rgb(187, 228, 181)"/><path aria-label="trip_date: 2022-02-12; location: H05; duets_per_hour: 0.1086" role="graphics-symbol" aria-roledescription="rect mark" d="M80,300h20v20h-20Z" fill="rgb(55, 168, 193)"/><path aria-label="trip_date: 2022-02-12; location: H15; duets_per_hour: 0.0114" role="graphics-symbol" aria-roledescription="rect mark" d="M80,380h20v20h-20Z" fill="rgb(227, 244, 184)"/><path aria-label="trip_date: 2022-02-12; location: K09; duets_per_hour: 0" role="graphics-symbol" aria-roledescription="rect mark" d="M80,440h20v20h-20Z" fill="rgb(239, 249, 189)"/><path aria-label="trip_date: 2022-02-12; location: N14; duets_per_hour: 0" role="graphics-symbol" aria-roledescription="rect mark" d="M80,580h20v20h-20Z" fill="rgb(239, 249, 189)"/><path aria-label="trip_date: 2022-03-23; location: N14; duets_per_hour: 0.0245" role="graphics-symbol" aria-roledescription="rect mark" d="M100,580h20v20h-20Z" fill="rgb(211, 238, 180)"/><path aria-label="trip_date: 2022-04-27; location: A11; duets_per_hour: 0.0283" role="graphics-symbol" aria-roledescription="rect mark" d="M120,20h20v20h-20Z" fill="rgb(206, 236, 180)"/><path aria-label="trip_date: 2022-04-27; location: B12M; duets_per_hour: 0.0017" role="graphics-symbol" aria-roledescription="rect mark" d="M120,40h20v20h-20Z" fill="rgb(237, 248, 188)"/><path aria-label="trip_date: 2022-04-27; location: C05; duets_per_hour: 0.0691" role="graphics-symbol" aria-roledescription="rect mark" d="M120,80h20v20h-20Z" fill="rgb(125, 204, 188)"/><path aria-label="trip_date: 2022-04-27; location: D03; duets_per_hour: 0.0034" role="graphics-symbol" aria-roledescription="rect mark" d="M120,120h20v20h-20Z" fill="rgb(236, 248, 187)"/><path aria-label="trip_date: 2022-04-27; location: D09; duets_per_hour: 0.0118" role="graphics-symbol" aria-roledescription="rect mark" d="M120,160h20v20h-20Z" fill="rgb(227, 244, 184)"/><path aria-label="trip_date: 2022-04-27; location: F09; duets_per_hour: 0.1366" role="graphics-symbol" aria-roledescription="rect mark" d="M120,240h20v20h-20Z" fill="rgb(33, 130, 184)"/><path aria-label="trip_date: 2022-04-27; location: H04; duets_per_hour: 0.1012" role="graphics-symbol" aria-roledescription="rect mark" d="M120,280h20v20h-20Z" fill="rgb(64, 176, 194)"/><path aria-label="trip_date: 2022-04-27; location: H09; duets_per_hour: 0.0784" role="graphics-symbol" aria-roledescription="rect mark" d="M120,340h20v20h-20Z" fill="rgb(104, 197, 190)"/><path aria-label="trip_date: 2022-04-27; location: H14; duets_per_hour: 0" role="graphics-symbol" aria-roledescription="rect mark" d="M120,360h20v20h-20Z" fill="rgb(239, 249, 189)"/><path aria-label="trip_date: 2022-04-27; location: J07; duets_per_hour: 0.0033" role="graphics-symbol" aria-roledescription="rect mark" d="M120,400h20v20h-20Z" fill="rgb(236, 248, 187)"/><path aria-label="trip_date: 2022-04-27; location: J11; duets_per_hour: 0" role="graphics-symbol" aria-roledescription="rect mark" d="M120,420h20v20h-20Z" fill="rgb(239, 249, 189)"/><path aria-label="trip_date: 2022-04-27; location: K09; duets_per_hour: 0.0081" role="graphics-symbol" aria-roledescription="rect mark" d="M120,440h20v20h-20Z" fill="rgb(231, 246, 185)"/><path aria-label="trip_date: 2022-04-27; location: M01; duets_per_hour: 0.0273" role="graphics-symbol" aria-roledescription="rect mark" d="M120,480h20v20h-20Z" fill="rgb(207, 236, 180)"/><path aria-label="trip_date: 2022-04-27; location: M04; duets_per_hour: 0.032" role="graphics-symbol" aria-roledescription="rect mark" d="M120,520h20v20h-20Z" fill="rgb(200, 233, 181)"/><path aria-label="trip_date: 2022-04-27; location: N20; duets_per_hour: 0.1653" role="graphics-symbol" aria-roledescription="rect mark" d="M120,600h20v20h-20Z" fill="rgb(34, 86, 163)"/><path aria-label="trip_date: 2022-04-27; location: WD05; duets_per_hour: 0.0219" role="graphics-symbol" aria-roledescription="rect mark" d="M120,760h20v20h-20Z" fill="rgb(215, 240, 180)"/><path aria-label="trip_date: 2022-05-27; location: A01; duets_per_hour: 0" role="graphics-symbol" aria-roledescription="rect mark" d="M140,0h20v20h-20Z" fill="rgb(239, 249, 189)"/><path aria-label="trip_date: 2022-05-27; location: A11; duets_per_hour: 0" role="graphics-symbol" aria-roledescription="rect mark" d="M140,20h20v20h-20Z" fill="rgb(239, 249, 189)"/><path aria-label="trip_date: 2022-05-27; location: B12M; duets_per_hour: 0.0262" role="graphics-symbol" aria-roledescription="rect mark" d="M140,40h20v20h-20Z" fill="rgb(209, 237, 180)"/><path aria-label="trip_date: 2022-05-27; location: C05; duets_per_hour: 0.069" role="graphics-symbol" aria-roledescription="rect mark" d="M140,80h20v20h-20Z" fill="rgb(125, 204, 188)"/><path aria-label="trip_date: 2022-05-27; location: M01; duets_per_hour: 0.0389" role="graphics-symbol" aria-roledescription="rect mark" d="M140,480h20v20h-20Z" fill="rgb(189, 229, 181)"/><path aria-label="trip_date: 2022-05-27; location: M04; duets_per_hour: 0.0404" role="graphics-symbol" aria-roledescription="rect mark" d="M140,520h20v20h-20Z" fill="rgb(186, 228, 181)"/><path aria-label="trip_date: 2022-05-27; location: N20; duets_per_hour: 0.096" role="graphics-symbol" aria-roledescription="rect mark" d="M140,600h20v20h-20Z" fill="rgb(72, 181, 194)"/><path aria-label="trip_date: 2022-05-27; location: WD05; duets_per_hour: 0.0238" role="graphics-symbol" aria-roledescription="rect mark" d="M140,760h20v20h-20Z" fill="rgb(212, 238, 180)"/><path aria-label="trip_date: 2022-06-18; location: C05; duets_per_hour: 0.0136" role="graphics-symbol" aria-roledescription="rect mark" d="M160,80h20v20h-20Z" fill="rgb(225, 243, 183)"/><path aria-label="trip_date: 2022-06-18; location: D03; duets_per_hour: 0.0034" role="graphics-symbol" aria-roledescription="rect mark" d="M160,120h20v20h-20Z" fill="rgb(236, 248, 187)"/><path aria-label="trip_date: 2022-06-18; location: D09; duets_per_hour: 0.0304" role="graphics-symbol" aria-roledescription="rect mark" d="M160,160h20v20h-20Z" fill="rgb(202, 234, 181)"/><path aria-label="trip_date: 2022-06-18; location: E04; duets_per_hour: 0" role="graphics-symbol" aria-roledescription="rect mark" d="M160,180h20v20h-20Z" fill="rgb(239, 249, 189)"/><path aria-label="trip_date: 2022-06-18; location: E07; duets_per_hour: 0" role="graphics-symbol" aria-roledescription="rect mark" d="M160,200h20v20h-20Z" fill="rgb(239, 249, 189)"/><path aria-label="trip_date: 2022-06-18; location: F09; duets_per_hour: 0.0523" role="graphics-symbol" aria-roledescription="rect mark" d="M160,240h20v20h-20Z" fill="rgb(161, 218, 184)"/><path aria-label="trip_date: 2022-06-18; location: H04; duets_per_hour: 0.0489" role="graphics-symbol" aria-roledescription="rect mark" d="M160,280h20v20h-20Z" fill="rgb(168, 221, 183)"/><path aria-label="trip_date: 2022-06-18; location: H09; duets_per_hour: 0.0324" role="graphics-symbol" aria-roledescription="rect mark" d="M160,340h20v20h-20Z" fill="rgb(199, 233, 181)"/><path aria-label="trip_date: 2022-06-18; location: J07; duets_per_hour: 0" role="graphics-symbol" aria-roledescription="rect mark" d="M160,400h20v20h-20Z" fill="rgb(239, 249, 189)"/><path aria-label="trip_date: 2022-06-18; location: J11; duets_per_hour: 0.0118" role="graphics-symbol" aria-roledescription="rect mark" d="M160,420h20v20h-20Z" fill="rgb(227, 244, 184)"/><path aria-label="trip_date: 2022-06-18; location: K09; duets_per_hour: 0.0117" role="graphics-symbol" aria-roledescription="rect mark" d="M160,440h20v20h-20Z" fill="rgb(227, 244, 184)"/><path aria-label="trip_date: 2022-06-18; location: M04; duets_per_hour: 0.0552" role="graphics-symbol" aria-roledescription="rect mark" d="M160,520h20v20h-20Z" fill="rgb(155, 216, 184)"/><path aria-label="trip_date: 2022-06-18; location: N20; duets_per_hour: 0.0866" role="graphics-symbol" aria-roledescription="rect mark" d="M160,600h20v20h-20Z" fill="rgb(89, 190, 192)"/><path aria-label="trip_date: 2022-06-18; location: T10; duets_per_hour: 0.0041" role="graphics-symbol" aria-roledescription="rect mark" d="M160,680h20v20h-20Z" fill="rgb(235, 247, 187)"/><path aria-label="trip_date: 2022-06-18; location: WB09; duets_per_hour: 0.017" role="graphics-symbol" aria-roledescription="rect mark" d="M160,740h20v20h-20Z" fill="rgb(222, 242, 181)"/><path aria-label="trip_date: 2022-06-18; location: WD05; duets_per_hour: 0.0195" role="graphics-symbol" aria-roledescription="rect mark" d="M160,760h20v20h-20Z" fill="rgb(219, 241, 180)"/><path aria-label="trip_date: 2022-08-27; location: C05; duets_per_hour: 0.0388" role="graphics-symbol" aria-roledescription="rect mark" d="M180,80h20v20h-20Z" fill="rgb(189, 229, 181)"/><path aria-label="trip_date: 2022-08-27; location: D03; duets_per_hour: 0.0051" role="graphics-symbol" aria-roledescription="rect mark" d="M180,120h20v20h-20Z" fill="rgb(234, 247, 187)"/><path aria-label="trip_date: 2022-08-27; location: D09; duets_per_hour: 0.0472" role="graphics-symbol" aria-roledescription="rect mark" d="M180,160h20v20h-20Z" fill="rgb(172, 222, 183)"/><path aria-label="trip_date: 2022-08-27; location: E07; duets_per_hour: 0" role="graphics-symbol" aria-roledescription="rect mark" d="M180,200h20v20h-20Z" fill="rgb(239, 249, 189)"/><path aria-label="trip_date: 2022-08-27; location: F09; duets_per_hour: 0.0438" role="graphics-symbol" aria-roledescription="rect mark" d="M180,240h20v20h-20Z" fill="rgb(179, 225, 182)"/><path aria-label="trip_date: 2022-08-27; location: H04; duets_per_hour: 0.0422" role="graphics-symbol" aria-roledescription="rect mark" d="M180,280h20v20h-20Z" fill="rgb(182, 226, 182)"/><path aria-label="trip_date: 2022-08-27; location: H15; duets_per_hour: 0.0072" role="graphics-symbol" aria-roledescription="rect mark" d="M180,380h20v20h-20Z" fill="rgb(232, 246, 186)"/><path aria-label="trip_date: 2022-08-27; location: J11; duets_per_hour: 0.0169" role="graphics-symbol" aria-roledescription="rect mark" d="M180,420h20v20h-20Z" fill="rgb(222, 242, 181)"/><path aria-label="trip_date: 2022-08-27; location: K09; duets_per_hour: 0.0159" role="graphics-symbol" aria-roledescription="rect mark" d="M180,440h20v20h-20Z" fill="rgb(223, 242, 182)"/><path aria-label="trip_date: 2022-08-27; location: M04; duets_per_hour: 0.0084" role="graphics-symbol" aria-roledescription="rect mark" d="M180,520h20v20h-20Z" fill="rgb(230, 246, 185)"/><path aria-label="trip_date: 2022-08-27; location: N14; duets_per_hour: 0.0244" role="graphics-symbol" aria-roledescription="rect mark" d="M180,580h20v20h-20Z" fill="rgb(212, 238, 180)"/><path aria-label="trip_date: 2022-08-27; location: S13T; duets_per_hour: 0.0206" role="graphics-symbol" aria-roledescription="rect mark" d="M180,660h20v20h-20Z" fill="rgb(217, 240, 180)"/><path aria-label="trip_date: 2022-08-27; location: T10; duets_per_hour: 0.0754" role="graphics-symbol" aria-roledescription="rect mark" d="M180,680h20v20h-20Z" fill="rgb(111, 199, 189)"/><path aria-label="trip_date: 2022-08-27; location: WB09; duets_per_hour: 0.0135" role="graphics-symbol" aria-roledescription="rect mark" d="M180,740h20v20h-20Z" fill="rgb(225, 243, 183)"/><path aria-label="trip_date: 2022-08-27; location: WD05; duets_per_hour: 0.0118" role="graphics-symbol" aria-roledescription="rect mark" d="M180,760h20v20h-20Z" fill="rgb(227, 244, 184)"/><path aria-label="trip_date: 2022-10-08; location: A11; duets_per_hour: 0" role="graphics-symbol" aria-roledescription="rect mark" d="M200,20h20v20h-20Z" fill="rgb(239, 249, 189)"/><path aria-label="trip_date: 2022-10-08; location: C05; duets_per_hour: 0.1214" role="graphics-symbol" aria-roledescription="rect mark" d="M200,80h20v20h-20Z" fill="rgb(42, 152, 190)"/><path aria-label="trip_date: 2022-10-08; location: D03; duets_per_hour: 0.0223" role="graphics-symbol" aria-roledescription="rect mark" d="M200,120h20v20h-20Z" fill="rgb(215, 239, 180)"/><path aria-label="trip_date: 2022-10-08; location: D09; duets_per_hour: 0.0455" role="graphics-symbol" aria-roledescription="rect mark" d="M200,160h20v20h-20Z" fill="rgb(175, 224, 182)"/><path aria-label="trip_date: 2022-10-08; location: E07; duets_per_hour: 0.0034" role="graphics-symbol" aria-roledescription="rect mark" d="M200,200h20v20h-20Z" fill="rgb(236, 248, 187)"/><path aria-label="trip_date: 2022-10-08; location: F09; duets_per_hour: 0.1409" role="graphics-symbol" aria-roledescription="rect mark" d="M200,240h20v20h-20Z" fill="rgb(33, 123, 181)"/><path aria-label="trip_date: 2022-10-08; location: H04; duets_per_hour: 0.0152" role="graphics-symbol" aria-roledescription="rect mark" d="M200,280h20v20h-20Z" fill="rgb(223, 243, 182)"/><path aria-label="trip_date: 2022-10-08; location: J11; duets_per_hour: 0" role="graphics-symbol" aria-roledescription="rect mark" d="M200,420h20v20h-20Z" fill="rgb(239, 249, 189)"/><path aria-label="trip_date: 2022-10-08; location: K09; duets_per_hour: 0" role="graphics-symbol" aria-roledescription="rect mark" d="M200,440h20v20h-20Z" fill="rgb(239, 249, 189)"/><path aria-label="trip_date: 2022-10-08; location: KS06; duets_per_hour: 0" role="graphics-symbol" aria-roledescription="rect mark" d="M200,460h20v20h-20Z" fill="rgb(239, 249, 189)"/><path aria-label="trip_date: 2022-10-08; location: M04; duets_per_hour: 0.0152" role="graphics-symbol" aria-roledescription="rect mark" d="M200,520h20v20h-20Z" fill="rgb(223, 243, 182)"/><path aria-label="trip_date: 2022-10-08; location: N14; duets_per_hour: 0" role="graphics-symbol" aria-roledescription="rect mark" d="M200,580h20v20h-20Z" fill="rgb(239, 249, 189)"/><path aria-label="trip_date: 2022-10-08; location: N20; duets_per_hour: 0.1952" role="graphics-symbol" aria-roledescription="rect mark" d="M200,600h20v20h-20Z" fill="rgb(28, 49, 133)"/><path aria-label="trip_date: 2022-10-08; location: S13T; duets_per_hour: 0.0483" role="graphics-symbol" aria-roledescription="rect mark" d="M200,660h20v20h-20Z" fill="rgb(170, 221, 183)"/><path aria-label="trip_date: 2022-10-08; location: T10; duets_per_hour: 0.004" role="graphics-symbol" aria-roledescription="rect mark" d="M200,680h20v20h-20Z" fill="rgb(235, 247, 187)"/><path aria-label="trip_date: 2022-10-08; location: WB09; duets_per_hour: 0.0067" role="graphics-symbol" aria-roledescription="rect mark" d="M200,740h20v20h-20Z" fill="rgb(232, 246, 186)"/><path aria-label="trip_date: 2022-10-08; location: WD05; duets_per_hour: 0.0101" role="graphics-symbol" aria-roledescription="rect mark" d="M200,760h20v20h-20Z" fill="rgb(229, 245, 184)"/><path aria-label="trip_date: 2022-12-17; location: A11; duets_per_hour: 0" role="graphics-symbol" aria-roledescription="rect mark" d="M220,20h20v20h-20Z" fill="rgb(239, 249, 189)"/><path aria-label="trip_date: 2022-12-17; location: C05; duets_per_hour: 0.0891" role="graphics-symbol" aria-roledescription="rect mark" d="M220,80h20v20h-20Z" fill="rgb(85, 187, 192)"/><path aria-label="trip_date: 2022-12-17; location: D03; duets_per_hour: 0.0843" role="graphics-symbol" aria-roledescription="rect mark" d="M220,120h20v20h-20Z" fill="rgb(94, 192, 191)"/><path aria-label="trip_date: 2022-12-17; location: D09; duets_per_hour: 0.02" role="graphics-symbol" aria-roledescription="rect mark" d="M220,160h20v20h-20Z" fill="rgb(218, 241, 180)"/><path aria-label="trip_date: 2022-12-17; location: E07; duets_per_hour: 0.0073" role="graphics-symbol" aria-roledescription="rect mark" d="M220,200h20v20h-20Z" fill="rgb(232, 246, 186)"/><path aria-label="trip_date: 2022-12-17; location: F05; duets_per_hour: 0.0037" role="graphics-symbol" aria-roledescription="rect mark" d="M220,220h20v20h-20Z" fill="rgb(235, 247, 187)"/><path aria-label="trip_date: 2022-12-17; location: F09; duets_per_hour: 0.1655" role="graphics-symbol" aria-roledescription="rect mark" d="M220,240h20v20h-20Z" fill="rgb(34, 86, 163)"/><path aria-label="trip_date: 2022-12-17; location: H04; duets_per_hour: 0.0873" role="graphics-symbol" aria-roledescription="rect mark" d="M220,280h20v20h-20Z" fill="rgb(88, 189, 192)"/><path aria-label="trip_date: 2022-12-17; location: J11; duets_per_hour: 0.0055" role="graphics-symbol" aria-roledescription="rect mark" d="M220,420h20v20h-20Z" fill="rgb(233, 247, 186)"/><path aria-label="trip_date: 2022-12-17; location: K09; duets_per_hour: 0.0372" role="graphics-symbol" aria-roledescription="rect mark" d="M220,440h20v20h-20Z" fill="rgb(192, 230, 181)"/><path aria-label="trip_date: 2022-12-17; location: KS06; duets_per_hour: 0.0385" role="graphics-symbol" aria-roledescription="rect mark" d="M220,460h20v20h-20Z" fill="rgb(190, 229, 181)"/><path aria-label="trip_date: 2022-12-17; location: M04; duets_per_hour: 0.0745" role="graphics-symbol" aria-roledescription="rect mark" d="M220,520h20v20h-20Z" fill="rgb(113, 200, 189)"/><path aria-label="trip_date: 2022-12-17; location: N14; duets_per_hour: 0.1932" role="graphics-symbol" aria-roledescription="rect mark" d="M220,580h20v20h-20Z" fill="rgb(29, 51, 135)"/><path aria-label="trip_date: 2022-12-17; location: N20; duets_per_hour: 0.1933" role="graphics-symbol" aria-roledescription="rect mark" d="M220,600h20v20h-20Z" fill="rgb(29, 51, 135)"/><path aria-label="trip_date: 2022-12-17; location: S13T; duets_per_hour: 0.0036" role="graphics-symbol" aria-roledescription="rect mark" d="M220,660h20v20h-20Z" fill="rgb(235, 248, 187)"/><path aria-label="trip_date: 2022-12-17; location: T10; duets_per_hour: 0.0622" role="graphics-symbol" aria-roledescription="rect mark" d="M220,680h20v20h-20Z" fill="rgb(140, 210, 186)"/><path aria-label="trip_date: 2022-12-17; location: WD05; duets_per_hour: 0.0018" role="graphics-symbol" aria-roledescription="rect mark" d="M220,760h20v20h-20Z" fill="rgb(237, 248, 188)"/><path aria-label="trip_date: 2023-02-17; location: C05; duets_per_hour: 0.0906" role="graphics-symbol" aria-roledescription="rect mark" d="M240,80h20v20h-20Z" fill="rgb(82, 186, 193)"/><path aria-label="trip_date: 2023-02-17; location: CB11; duets_per_hour: 0.0127" role="graphics-symbol" aria-roledescription="rect mark" d="M240,100h20v20h-20Z" fill="rgb(226, 244, 183)"/><path aria-label="trip_date: 2023-02-17; location: D05; duets_per_hour: 0.0235" role="graphics-symbol" aria-roledescription="rect mark" d="M240,140h20v20h-20Z" fill="rgb(213, 239, 180)"/><path aria-label="trip_date: 2023-02-17; location: D09; duets_per_hour: 0.0399" role="graphics-symbol" aria-roledescription="rect mark" d="M240,160h20v20h-20Z" fill="rgb(187, 228, 181)"/><path aria-label="trip_date: 2023-02-17; location: F05; duets_per_hour: 0.0181" role="graphics-symbol" aria-roledescription="rect mark" d="M240,220h20v20h-20Z" fill="rgb(220, 242, 181)"/><path aria-label="trip_date: 2023-02-17; location: F09; duets_per_hour: 0.1397" role="graphics-symbol" aria-roledescription="rect mark" d="M240,240h20v20h-20Z" fill="rgb(33, 125, 182)"/><path aria-label="trip_date: 2023-02-17; location: G05; duets_per_hour: 0.1368" role="graphics-symbol" aria-roledescription="rect mark" d="M240,260h20v20h-20Z" fill="rgb(33, 130, 184)"/><path aria-label="trip_date: 2023-02-17; location: H04; duets_per_hour: 0.1294" role="graphics-symbol" aria-roledescription="rect mark" d="M240,280h20v20h-20Z" fill="rgb(37, 140, 187)"/><path aria-label="trip_date: 2023-02-17; location: K09; duets_per_hour: 0.0125" role="graphics-symbol" aria-roledescription="rect mark" d="M240,440h20v20h-20Z" fill="rgb(226, 244, 183)"/><path aria-label="trip_date: 2023-02-17; location: KS06; duets_per_hour: 0.0455" role="graphics-symbol" aria-roledescription="rect mark" d="M240,460h20v20h-20Z" fill="rgb(175, 224, 182)"/><path aria-label="trip_date: 2023-02-17; location: M04; duets_per_hour: 0.1071" role="graphics-symbol" aria-roledescription="rect mark" d="M240,520h20v20h-20Z" fill="rgb(57, 169, 193)"/><path aria-label="trip_date: 2023-02-17; location: N14; duets_per_hour: 0.0244" role="graphics-symbol" aria-roledescription="rect mark" d="M240,580h20v20h-20Z" fill="rgb(212, 238, 180)"/><path aria-label="trip_date: 2023-02-17; location: N20; duets_per_hour: 0.0894" role="graphics-symbol" aria-roledescription="rect mark" d="M240,600h20v20h-20Z" fill="rgb(84, 187, 192)"/><path aria-label="trip_date: 2023-02-17; location: NB14; duets_per_hour: 0.0214" role="graphics-symbol" aria-roledescription="rect mark" d="M240,620h20v20h-20Z" fill="rgb(216, 240, 180)"/><path aria-label="trip_date: 2023-02-17; location: NB5T; duets_per_hour: 0.0984" role="graphics-symbol" aria-roledescription="rect mark" d="M240,640h20v20h-20Z" fill="rgb(68, 179, 194)"/><path aria-label="trip_date: 2023-02-17; location: S13T; duets_per_hour: 0.0529" role="graphics-symbol" aria-roledescription="rect mark" d="M240,660h20v20h-20Z" fill="rgb(160, 218, 184)"/><path aria-label="trip_date: 2023-02-17; location: V05; duets_per_hour: 0.1236" role="graphics-symbol" aria-roledescription="rect mark" d="M240,700h20v20h-20Z" fill="rgb(40, 149, 189)"/><path aria-label="trip_date: 2023-02-17; location: V23; duets_per_hour: 0.0507" role="graphics-symbol" aria-roledescription="rect mark" d="M240,720h20v20h-20Z" fill="rgb(165, 219, 183)"/><path aria-label="trip_date: 2023-04-15; location: C05; duets_per_hour: 0.0833" role="graphics-symbol" aria-roledescription="rect mark" d="M260,80h20v20h-20Z" fill="rgb(95, 192, 191)"/><path aria-label="trip_date: 2023-04-15; location: CB11; duets_per_hour: 0.004" role="graphics-symbol" aria-roledescription="rect mark" d="M260,100h20v20h-20Z" fill="rgb(235, 247, 187)"/><path aria-label="trip_date: 2023-04-15; location: D05; duets_per_hour: 0" role="graphics-symbol" aria-roledescription="rect mark" d="M260,140h20v20h-20Z" fill="rgb(239, 249, 189)"/><path aria-label="trip_date: 2023-04-15; location: D09; duets_per_hour: 0.0516" role="graphics-symbol" aria-roledescription="rect mark" d="M260,160h20v20h-20Z" fill="rgb(163, 219, 184)"/><path aria-label="trip_date: 2023-04-15; location: F05; duets_per_hour: 0.0258" role="graphics-symbol" aria-roledescription="rect mark" d="M260,220h20v20h-20Z" fill="rgb(209, 237, 180)"/><path aria-label="trip_date: 2023-04-15; location: F09; duets_per_hour: 0.121" role="graphics-symbol" aria-roledescription="rect mark" d="M260,240h20v20h-20Z" fill="rgb(42, 152, 190)"/><path aria-label="trip_date: 2023-04-15; location: G05; duets_per_hour: 0.033" role="graphics-symbol" aria-roledescription="rect mark" d="M260,260h20v20h-20Z" fill="rgb(198, 233, 181)"/><path aria-label="trip_date: 2023-04-15; location: H04; duets_per_hour: 0.0565" role="graphics-symbol" aria-roledescription="rect mark" d="M260,280h20v20h-20Z" fill="rgb(152, 215, 185)"/><path aria-label="trip_date: 2023-04-15; location: K09; duets_per_hour: 0.0042" role="graphics-symbol" aria-roledescription="rect mark" d="M260,440h20v20h-20Z" fill="rgb(235, 247, 187)"/><path aria-label="trip_date: 2023-04-15; location: KS06; duets_per_hour: 0.0036" role="graphics-symbol" aria-roledescription="rect mark" d="M260,460h20v20h-20Z" fill="rgb(235, 248, 187)"/><path aria-label="trip_date: 2023-04-15; location: M04; duets_per_hour: 0.0694" role="graphics-symbol" aria-roledescription="rect mark" d="M260,520h20v20h-20Z" fill="rgb(124, 204, 188)"/><path aria-label="trip_date: 2023-04-15; location: N08M; duets_per_hour: 0.0055" role="graphics-symbol" aria-roledescription="rect mark" d="M260,560h20v20h-20Z" fill="rgb(233, 247, 186)"/><path aria-label="trip_date: 2023-04-15; location: N14; duets_per_hour: 0.0083" role="graphics-symbol" aria-roledescription="rect mark" d="M260,580h20v20h-20Z" fill="rgb(230, 246, 185)"/><path aria-label="trip_date: 2023-04-15; location: N20; duets_per_hour: 0.0791" role="graphics-symbol" aria-roledescription="rect mark" d="M260,600h20v20h-20Z" fill="rgb(103, 196, 190)"/><path aria-label="trip_date: 2023-04-15; location: NB14; duets_per_hour: 0.0159" role="graphics-symbol" aria-roledescription="rect mark" d="M260,620h20v20h-20Z" fill="rgb(223, 242, 182)"/><path aria-label="trip_date: 2023-04-15; location: NB5T; duets_per_hour: 0.0181" role="graphics-symbol" aria-roledescription="rect mark" d="M260,640h20v20h-20Z" fill="rgb(220, 242, 181)"/><path aria-label="trip_date: 2023-04-15; location: S13T; duets_per_hour: 0.0085" role="graphics-symbol" aria-roledescription="rect mark" d="M260,660h20v20h-20Z" fill="rgb(230, 246, 185)"/><path aria-label="trip_date: 2023-04-15; location: V05; duets_per_hour: 0.0073" role="graphics-symbol" aria-roledescription="rect mark" d="M260,700h20v20h-20Z" fill="rgb(232, 246, 186)"/><path aria-label="trip_date: 2023-06-10; location: C05; duets_per_hour: 0.0725" role="graphics-symbol" aria-roledescription="rect mark" d="M280,80h20v20h-20Z" fill="rgb(117, 202, 189)"/><path aria-label="trip_date: 2023-06-10; location: D03; duets_per_hour: 0.0189" role="graphics-symbol" aria-roledescription="rect mark" d="M280,120h20v20h-20Z" fill="rgb(220, 241, 180)"/><path aria-label="trip_date: 2023-06-10; location: D09; duets_per_hour: 0.0388" role="graphics-symbol" aria-roledescription="rect mark" d="M280,160h20v20h-20Z" fill="rgb(189, 229, 181)"/><path aria-label="trip_date: 2023-06-10; location: F09; duets_per_hour: 0.0877" role="graphics-symbol" aria-roledescription="rect mark" d="M280,240h20v20h-20Z" fill="rgb(87, 189, 192)"/><path aria-label="trip_date: 2023-06-10; location: G05; duets_per_hour: 0.0219" role="graphics-symbol" aria-roledescription="rect mark" d="M280,260h20v20h-20Z" fill="rgb(215, 240, 180)"/><path aria-label="trip_date: 2023-06-10; location: H04; duets_per_hour: 0.0354" role="graphics-symbol" aria-roledescription="rect mark" d="M280,280h20v20h-20Z" fill="rgb(195, 231, 181)"/><path aria-label="trip_date: 2023-06-10; location: M04; duets_per_hour: 0.0725" role="graphics-symbol" aria-roledescription="rect mark" d="M280,520h20v20h-20Z" fill="rgb(117, 202, 189)"/><path aria-label="trip_date: 2023-06-10; location: N14; duets_per_hour: 0" role="graphics-symbol" aria-roledescription="rect mark" d="M280,580h20v20h-20Z" fill="rgb(239, 249, 189)"/><path aria-label="trip_date: 2023-06-10; location: N20; duets_per_hour: 0.0793" role="graphics-symbol" aria-roledescription="rect mark" d="M280,600h20v20h-20Z" fill="rgb(103, 196, 190)"/><path aria-label="trip_date: 2023-06-10; location: NB14; duets_per_hour: 0.0067" role="graphics-symbol" aria-roledescription="rect mark" d="M280,620h20v20h-20Z" fill="rgb(232, 246, 186)"/><path aria-label="trip_date: 2023-07-22; location: C05; duets_per_hour: 0.1135" role="graphics-symbol" aria-roledescription="rect mark" d="M300,80h20v20h-20Z" fill="rgb(49, 162, 192)"/><path aria-label="trip_date: 2023-07-22; location: D03; duets_per_hour: 0.0384" role="graphics-symbol" aria-roledescription="rect mark" d="M300,120h20v20h-20Z" fill="rgb(190, 229, 181)"/><path aria-label="trip_date: 2023-07-22; location: D09; duets_per_hour: 0.0152" role="graphics-symbol" aria-roledescription="rect mark" d="M300,160h20v20h-20Z" fill="rgb(223, 243, 182)"/><path aria-label="trip_date: 2023-07-22; location: H04; duets_per_hour: 0.0206" role="graphics-symbol" aria-roledescription="rect mark" d="M300,280h20v20h-20Z" fill="rgb(217, 240, 180)"/><path aria-label="trip_date: 2023-07-22; location: M04; duets_per_hour: 0.0725" role="graphics-symbol" aria-roledescription="rect mark" d="M300,520h20v20h-20Z" fill="rgb(117, 202, 189)"/><path aria-label="trip_date: 2023-07-22; location: N14; duets_per_hour: 0.0117" role="graphics-symbol" aria-roledescription="rect mark" d="M300,580h20v20h-20Z" fill="rgb(227, 244, 184)"/><path aria-label="trip_date: 2023-07-22; location: N20; duets_per_hour: 0.0651" role="graphics-symbol" aria-roledescription="rect mark" d="M300,600h20v20h-20Z" fill="rgb(134, 208, 187)"/><path aria-label="trip_date: 2023-07-22; location: NB14; duets_per_hour: 0.0189" role="graphics-symbol" aria-roledescription="rect mark" d="M300,620h20v20h-20Z" fill="rgb(220, 241, 180)"/></g><g class="mark-group role-legend" role="graphics-symbol" aria-roledescription="legend" aria-label="Gradient legend titled 'duets_per_hour' for fill color with values from 0.00 to 0.20"><g transform="translate(338,0)"><path class="background" aria-hidden="true" d="M0,0h84v216h-84Z" pointer-events="none"/><g><g class="mark-group role-legend-entry"><g transform="translate(0,16)"><path class="background" aria-hidden="true" d="M0,0h0v0h0Z" pointer-events="none"/><g><g class="mark-rect role-legend-gradient" pointer-events="none"><path d="M0,0h16v200h-16Z" fill="url(#gradient_0)" stroke="#ddd" stroke-width="0" opacity="1"/></g><g class="mark-text role-legend-label" pointer-events="none"><text text-anchor="start" transform="translate(18,198)" font-family="sans-serif" font-size="10px" fill="#000" opacity="1">0.00</text><text text-anchor="start" transform="translate(18,151.7704918032787)" font-family="sans-serif" font-size="10px" fill="#000" opacity="1">0.05</text><text text-anchor="start" transform="translate(18,100.54098360655739)" font-family="sans-serif" font-size="10px" fill="#000" opacity="1">0.10</text><text text-anchor="start" transform="translate(18,49.31147540983609)" font-family="sans-serif" font-size="10px" fill="#000" opacity="1">0.15</text></g></g><path class="foreground" aria-hidden="true" d="" pointer-events="none" display="none"/></g></g><g class="mark-text role-legend-title" pointer-events="none"><text text-anchor="start" transform="translate(0,9)" font-family="sans-serif" font-size="11px" font-weight="bold" fill="#000" opacity="1">duets_per_hour</text></g></g><path class="foreground" aria-hidden="true" d="" pointer-events="none" display="none"/></g></g><g class="mark-group role-axis" role="graphics-symbol" aria-roledescription="axis" aria-label="X-axis titled 'trip_date' for a discrete scale with 16 values: 2021-11-13, 2021-11-25, 2021-12-18, 2022-01-17, 2022-02-12, ending with 2023-07-22"><g transform="translate(0.5,800.5)"><path class="background" aria-hidden="true" d="M0,0h0v0h0Z" pointer-events="none"/><g><g class="mark-rule role-axis-tick" pointer-events="none"><line transform="translate(10,0)" x2="0" y2="5" stroke="#888" stroke-width="1" opacity="1"/><line transform="translate(30,0)" x2="0" y2="5" stroke="#888" stroke-width="1" opacity="1"/><line transform="translate(50,0)" x2="0" y2="5" stroke="#888" stroke-width="1" opacity="1"/><line transform="translate(70,0)" x2="0" y2="5" stroke="#888" stroke-width="1" opacity="1"/><line transform="translate(90,0)" x2="0" y2="5" stroke="#888" stroke-width="1" opacity="1"/><line transform="translate(110,0)" x2="0" y2="5" stroke="#888" stroke-width="1" opacity="1"/><line transform="translate(130,0)" x2="0" y2="5" stroke="#888" stroke-width="1" opacity="1"/><line transform="translate(150,0)" x2="0" y2="5" stroke="#888" stroke-width="1" opacity="1"/><line transform="translate(170,0)" x2="0" y2="5" stroke="#888" stroke-width="1" opacity="1"/><line transform="translate(190,0)" x2="0" y2="5" stroke="#888" stroke-width="1" opacity="1"/><line transform="translate(210,0)" x2="0" y2="5" stroke="#888" stroke-width="1" opacity="1"/><line transform="translate(230,0)" x2="0" y2="5" stroke="#888" stroke-width="1" opacity="1"/><line transform="translate(250,0)" x2="0" y2="5" stroke="#888" stroke-width="1" opacity="1"/><line transform="translate(270,0)" x2="0" y2="5" stroke="#888" stroke-width="1" opacity="1"/><line transform="translate(290,0)" x2="0" y2="5" stroke="#888" stroke-width="1" opacity="1"/><line transform="translate(310,0)" x2="0" y2="5" stroke="#888" stroke-width="1" opacity="1"/></g><g class="mark-text role-axis-label" pointer-events="none"><text text-anchor="end" transform="translate(9.5,7) rotate(270) translate(0,3)" font-family="sans-serif" font-size="10px" fill="#000" opacity="1">2021-11-13</text><text text-anchor="end" transform="translate(29.5,7) rotate(270) translate(0,3)" font-family="sans-serif" font-size="10px" fill="#000" opacity="1">2021-11-25</text><text text-anchor="end" transform="translate(49.5,7) rotate(270) translate(0,3)" font-family="sans-serif" font-size="10px" fill="#000" opacity="1">2021-12-18</text><text text-anchor="end" transform="translate(69.5,7) rotate(270) translate(0,3)" font-family="sans-serif" font-size="10px" fill="#000" opacity="1">2022-01-17</text><text text-anchor="end" transform="translate(89.5,7) rotate(270) translate(0,3)" font-family="sans-serif" font-size="10px" fill="#000" opacity="1">2022-02-12</text><text text-anchor="end" transform="translate(109.5,7) rotate(270) translate(0,3)" font-family="sans-serif" font-size="10px" fill="#000" opacity="1">2022-03-23</text><text text-anchor="end" transform="translate(129.5,7) rotate(270) translate(0,3)" font-family="sans-serif" font-size="10px" fill="#000" opacity="1">2022-04-27</text><text text-anchor="end" transform="translate(149.5,7) rotate(270) translate(0,3)" font-family="sans-serif" font-size="10px" fill="#000" opacity="1">2022-05-27</text><text text-anchor="end" transform="translate(169.5,7) rotate(270) translate(0,3)" font-family="sans-serif" font-size="10px" fill="#000" opacity="1">2022-06-18</text><text text-anchor="end" transform="translate(189.5,7) rotate(270) translate(0,3)" font-family="sans-serif" font-size="10px" fill="#000" opacity="1">2022-08-27</text><text text-anchor="end" transform="translate(209.5,7) rotate(270) translate(0,3)" font-family="sans-serif" font-size="10px" fill="#000" opacity="1">2022-10-08</text><text text-anchor="end" transform="translate(229.5,7) rotate(270) translate(0,3)" font-family="sans-serif" font-size="10px" fill="#000" opacity="1">2022-12-17</text><text text-anchor="end" transform="translate(249.5,7) rotate(270) translate(0,3)" font-family="sans-serif" font-size="10px" fill="#000" opacity="1">2023-02-17</text><text text-anchor="end" transform="translate(269.5,7) rotate(270) translate(0,3)" font-family="sans-serif" font-size="10px" fill="#000" opacity="1">2023-04-15</text><text text-anchor="end" transform="translate(289.5,7) rotate(270) translate(0,3)" font-family="sans-serif" font-size="10px" fill="#000" opacity="1">2023-06-10</text><text text-anchor="end" transform="translate(309.5,7) rotate(270) translate(0,3)" font-family="sans-serif" font-size="10px" fill="#000" opacity="1">2023-07-22</text></g><g class="mark-rule role-axis-domain" pointer-events="none"><line transform="translate(0,0)" x2="320" y2="0" stroke="#888" stroke-width="1" opacity="1"/></g><g class="mark-text role-axis-title" pointer-events="none"><text text-anchor="middle" transform="translate(160,71.15234375)" font-family="sans-serif" font-size="11px" font-weight="bold" fill="#000" opacity="1">trip_date</text></g></g><path class="foreground" aria-hidden="true" d="" pointer-events="none" display="none"/></g></g><g class="mark-group role-axis" role="graphics-symbol" aria-roledescription="axis" aria-label="Y-axis titled 'location' for a discrete scale with 40 values: A01, A11, B12M, C01, C05, ending with WD07"><g transform="translate(0.5,0.5)"><path class="background" aria-hidden="true" d="M0,0h0v0h0Z" pointer-events="none"/><g><g class="mark-rule role-axis-tick" pointer-events="none"><line transform="translate(0,10)" x2="-5" y2="0" stroke="#888" stroke-width="1" opacity="1"/><line transform="translate(0,30)" x2="-5" y2="0" stroke="#888" stroke-width="1" opacity="1"/><line transform="translate(0,50)" x2="-5" y2="0" stroke="#888" stroke-width="1" opacity="1"/><line transform="translate(0,70)" x2="-5" y2="0" stroke="#888" stroke-width="1" opacity="1"/><line transform="translate(0,90)" x2="-5" y2="0" stroke="#888" stroke-width="1" opacity="1"/><line transform="translate(0,110)" x2="-5" y2="0" stroke="#888" stroke-width="1" opacity="1"/><line transform="translate(0,130)" x2="-5" y2="0" stroke="#888" stroke-width="1" opacity="1"/><line transform="translate(0,150)" x2="-5" y2="0" stroke="#888" stroke-width="1" opacity="1"/><line transform="translate(0,170)" x2="-5" y2="0" stroke="#888" stroke-width="1" opacity="1"/><line transform="translate(0,190)" x2="-5" y2="0" stroke="#888" stroke-width="1" opacity="1"/><line transform="translate(0,210)" x2="-5" y2="0" stroke="#888" stroke-width="1" opacity="1"/><line transform="translate(0,230)" x2="-5" y2="0" stroke="#888" stroke-width="1" opacity="1"/><line transform="translate(0,250)" x2="-5" y2="0" stroke="#888" stroke-width="1" opacity="1"/><line transform="translate(0,270)" x2="-5" y2="0" stroke="#888" stroke-width="1" opacity="1"/><line transform="translate(0,290)" x2="-5" y2="0" stroke="#888" stroke-width="1" opacity="1"/><line transform="translate(0,310)" x2="-5" y2="0" stroke="#888" stroke-width="1" opacity="1"/><line transform="translate(0,330)" x2="-5" y2="0" stroke="#888" stroke-width="1" opacity="1"/><line transform="translate(0,350)" x2="-5" y2="0" stroke="#888" stroke-width="1" opacity="1"/><line transform="translate(0,370)" x2="-5" y2="0" stroke="#888" stroke-width="1" opacity="1"/><line transform="translate(0,390)" x2="-5" y2="0" stroke="#888" stroke-width="1" opacity="1"/><line transform="translate(0,410)" x2="-5" y2="0" stroke="#888" stroke-width="1" opacity="1"/><line transform="translate(0,430)" x2="-5" y2="0" stroke="#888" stroke-width="1" opacity="1"/><line transform="translate(0,450)" x2="-5" y2="0" stroke="#888" stroke-width="1" opacity="1"/><line transform="translate(0,470)" x2="-5" y2="0" stroke="#888" stroke-width="1" opacity="1"/><line transform="translate(0,490)" x2="-5" y2="0" stroke="#888" stroke-width="1" opacity="1"/><line transform="translate(0,510)" x2="-5" y2="0" stroke="#888" stroke-width="1" opacity="1"/><line transform="translate(0,530)" x2="-5" y2="0" stroke="#888" stroke-width="1" opacity="1"/><line transform="translate(0,550)" x2="-5" y2="0" stroke="#888" stroke-width="1" opacity="1"/><line transform="translate(0,570)" x2="-5" y2="0" stroke="#888" stroke-width="1" opacity="1"/><line transform="translate(0,590)" x2="-5" y2="0" stroke="#888" stroke-width="1" opacity="1"/><line transform="translate(0,610)" x2="-5" y2="0" stroke="#888" stroke-width="1" opacity="1"/><line transform="translate(0,630)" x2="-5" y2="0" stroke="#888" stroke-width="1" opacity="1"/><line transform="translate(0,650)" x2="-5" y2="0" stroke="#888" stroke-width="1" opacity="1"/><line transform="translate(0,670)" x2="-5" y2="0" stroke="#888" stroke-width="1" opacity="1"/><line transform="translate(0,690)" x2="-5" y2="0" stroke="#888" stroke-width="1" opacity="1"/><line transform="translate(0,710)" x2="-5" y2="0" stroke="#888" stroke-width="1" opacity="1"/><line transform="translate(0,730)" x2="-5" y2="0" stroke="#888" stroke-width="1" opacity="1"/><line transform="translate(0,750)" x2="-5" y2="0" stroke="#888" stroke-width="1" opacity="1"/><line transform="translate(0,770)" x2="-5" y2="0" stroke="#888" stroke-width="1" opacity="1"/><line transform="translate(0,790)" x2="-5" y2="0" stroke="#888" stroke-width="1" opacity="1"/></g><g class="mark-text role-axis-label" pointer-events="none"><text text-anchor="end" transform="translate(-7,12.5)" font-family="sans-serif" font-size="10px" fill="#000" opacity="1">A01</text><text text-anchor="end" transform="translate(-7,32.5)" font-family="sans-serif" font-size="10px" fill="#000" opacity="1">A11</text><text text-anchor="end" transform="translate(-7,52.5)" font-family="sans-serif" font-size="10px" fill="#000" opacity="1">B12M</text><text text-anchor="end" transform="translate(-7,72.5)" font-family="sans-serif" font-size="10px" fill="#000" opacity="1">C01</text><text text-anchor="end" transform="translate(-7,92.5)" font-family="sans-serif" font-size="10px" fill="#000" opacity="1">C05</text><text text-anchor="end" transform="translate(-7,112.5)" font-family="sans-serif" font-size="10px" fill="#000" opacity="1">CB11</text><text text-anchor="end" transform="translate(-7,132.5)" font-family="sans-serif" font-size="10px" fill="#000" opacity="1">D03</text><text text-anchor="end" transform="translate(-7,152.5)" font-family="sans-serif" font-size="10px" fill="#000" opacity="1">D05</text><text text-anchor="end" transform="translate(-7,172.5)" font-family="sans-serif" font-size="10px" fill="#000" opacity="1">D09</text><text text-anchor="end" transform="translate(-7,192.5)" font-family="sans-serif" font-size="10px" fill="#000" opacity="1">E04</text><text text-anchor="end" transform="translate(-7,212.5)" font-family="sans-serif" font-size="10px" fill="#000" opacity="1">E07</text><text text-anchor="end" transform="translate(-7,232.5)" font-family="sans-serif" font-size="10px" fill="#000" opacity="1">F05</text><text text-anchor="end" transform="translate(-7,252.5)" font-family="sans-serif" font-size="10px" fill="#000" opacity="1">F09</text><text text-anchor="end" transform="translate(-7,272.5)" font-family="sans-serif" font-size="10px" fill="#000" opacity="1">G05</text><text text-anchor="end" transform="translate(-7,292.5)" font-family="sans-serif" font-size="10px" fill="#000" opacity="1">H04</text><text text-anchor="end" transform="translate(-7,312.5)" font-family="sans-serif" font-size="10px" fill="#000" opacity="1">H05</text><text text-anchor="end" transform="translate(-7,332.5)" font-family="sans-serif" font-size="10px" fill="#000" opacity="1">H07</text><text text-anchor="end" transform="translate(-7,352.5)" font-family="sans-serif" font-size="10px" fill="#000" opacity="1">H09</text><text text-anchor="end" transform="translate(-7,372.5)" font-family="sans-serif" font-size="10px" fill="#000" opacity="1">H14</text><text text-anchor="end" transform="translate(-7,392.5)" font-family="sans-serif" font-size="10px" fill="#000" opacity="1">H15</text><text text-anchor="end" transform="translate(-7,412.5)" font-family="sans-serif" font-size="10px" fill="#000" opacity="1">J07</text><text text-anchor="end" transform="translate(-7,432.5)" font-family="sans-serif" font-size="10px" fill="#000" opacity="1">J11</text><text text-anchor="end" transform="translate(-7,452.5)" font-family="sans-serif" font-size="10px" fill="#000" opacity="1">K09</text><text text-anchor="end" transform="translate(-7,472.5)" font-family="sans-serif" font-size="10px" fill="#000" opacity="1">KS06</text><text text-anchor="end" transform="translate(-7,492.5)" font-family="sans-serif" font-size="10px" fill="#000" opacity="1">M01</text><text text-anchor="end" transform="translate(-7,512.5)" font-family="sans-serif" font-size="10px" fill="#000" opacity="1">M02</text><text text-anchor="end" transform="translate(-7,532.5)" font-family="sans-serif" font-size="10px" fill="#000" opacity="1">M04</text><text text-anchor="end" transform="translate(-7,552.5)" font-family="sans-serif" font-size="10px" fill="#000" opacity="1">M05</text><text text-anchor="end" transform="translate(-7,572.5)" font-family="sans-serif" font-size="10px" fill="#000" opacity="1">N08M</text><text text-anchor="end" transform="translate(-7,592.5)" font-family="sans-serif" font-size="10px" fill="#000" opacity="1">N14</text><text text-anchor="end" transform="translate(-7,612.5)" font-family="sans-serif" font-size="10px" fill="#000" opacity="1">N20</text><text text-anchor="end" transform="translate(-7,632.5)" font-family="sans-serif" font-size="10px" fill="#000" opacity="1">NB14</text><text text-anchor="end" transform="translate(-7,652.5)" font-family="sans-serif" font-size="10px" fill="#000" opacity="1">NB5T</text><text text-anchor="end" transform="translate(-7,672.5)" font-family="sans-serif" font-size="10px" fill="#000" opacity="1">S13T</text><text text-anchor="end" transform="translate(-7,692.5)" font-family="sans-serif" font-size="10px" fill="#000" opacity="1">T10</text><text text-anchor="end" transform="translate(-7,712.5)" font-family="sans-serif" font-size="10px" fill="#000" opacity="1">V05</text><text text-anchor="end" transform="translate(-7,732.5)" font-family="sans-serif" font-size="10px" fill="#000" opacity="1">V23</text><text text-anchor="end" transform="translate(-7,752.5)" font-family="sans-serif" font-size="10px" fill="#000" opacity="1">WB09</text><text text-anchor="end" transform="translate(-7,772.5)" font-family="sans-serif" font-size="10px" fill="#000" opacity="1">WD05</text><text text-anchor="end" transform="translate(-7,792.5)" font-family="sans-serif" font-size="10px" fill="#000" opacity="1">WD07</text></g><g class="mark-rule role-axis-domain" pointer-events="none"><line transform="translate(0,0)" x2="0" y2="800" stroke="#888" stroke-width="1" opacity="1"/></g><g class="mark-text role-axis-title" pointer-events="none"><text text-anchor="middle" transform="translate(-38.783203125,400) rotate(-90) translate(0,-2)" font-family="sans-serif" font-size="11px" font-weight="bold" fill="#000" opacity="1">location</text></g></g><path class="foreground" aria-hidden="true" d="" pointer-events="none" display="none"/></g></g></g><path class="foreground" aria-hidden="true" d="" display="none"/></g></g></g><defs><linearGradient id="gradient_0" x1="0" x2="0" y1="1" y2="0"><stop offset="0" stop-color="rgb(239, 249, 189)"/><stop offset="0.051229508196721306" stop-color="rgb(229, 245, 184)"/><stop offset="0.10245901639344261" stop-color="rgb(218, 241, 180)"/><stop offset="0.1536885245901639" stop-color="rgb(203, 235, 181)"/><stop offset="0.20491803278688522" stop-color="rgb(187, 228, 181)"/><stop offset="0.25614754098360654" stop-color="rgb(166, 220, 183)"/><stop offset="0.3073770491803278" stop-color="rgb(145, 212, 185)"/><stop offset="0.3586065573770492" stop-color="rgb(123, 204, 188)"/><stop offset="0.40983606557377045" stop-color="rgb(101, 195, 190)"/><stop offset="0.46106557377049173" stop-color="rgb(83, 187, 192)"/><stop offset="0.5122950819672131" stop-color="rgb(66, 177, 194)"/><stop offset="0.5635245901639344" stop-color="rgb(53, 166, 193)"/><stop offset="0.6147540983606556" stop-color="rgb(42, 154, 191)"/><stop offset="0.665983606557377" stop-color="rgb(37, 140, 187)"/><stop offset="0.7172131147540984" stop-color="rgb(33, 125, 182)"/><stop offset="0.7684426229508196" stop-color="rgb(33, 109, 174)"/><stop offset="0.8196721311475409" stop-color="rgb(33, 93, 167)"/><stop offset="0.8709016393442623" stop-color="rgb(34, 79, 160)"/><stop offset="0.9221311475409835" stop-color="rgb(33, 66, 151)"/><stop offset="0.9733606557377049" stop-color="rgb(30, 55, 139)"/><stop offset="1" stop-color="rgb(28, 49, 133)"/></linearGradient></defs></svg>