<svg xmlns="http://www.w3.org/2000/svg" xmlns:xlink="http://www.w3.org/1999/xlink" version="1.1" class="marks" width="511" height="447" viewBox="0 0 511 447"><rect width="511" height="447" fill="white"/><g fill="none" stroke-miterlimit="10" transform="translate(41,10)"><g class="mark-group role-frame root" role="graphics-object" aria-roledescription="group mark container"><g transform="translate(0,0)"><path class="background" aria-hidden="true" d="M0.5,0.5h400v400h-400Z" stroke="#ddd"/><g><g class="mark-group role-axis" aria-hidden="true"><g transform="translate(0.5,400.5)"><path class="background" aria-hidden="true" d="M0,0h0v0h0Z" pointer-events="none"/><g><g class="mark-rule role-axis-grid" pointer-events="none"><line transform="translate(0,-400)" x2="0" y2="400" stroke="#ddd" stroke-width="1" opacity="1"/><line transform="translate(50,-400)" x2="0" y2="400" stroke="#ddd" stroke-width="1" opacity="1"/><line transform="translate(100,-400)" x2="0" y2="400" stroke="#ddd" stroke-width="1" opacity="1"/><line transform="translate(150,-400)" x2="0" y2="400" stroke="#ddd" stroke-width="1" opacity="1"/><line transform="translate(200,-400)" x2="0" y2="400" stroke="#ddd" stroke-width="1" opacity="1"/><line transform="translate(250,-400)" x2="0" y2="400" stroke="#ddd" stroke-width="1" opacity="1"/><line transform="translate(300,-400)" x2="0" y2="400" stroke="#ddd" stroke-width="1" opacity="1"/><line transform="translate(350,-400)" x2="0" y2="400" stroke="#ddd" stroke-width="1" opacity="1"/><line transform="translate(400,-400)" x2="0" y2="400" stroke="#ddd" stroke-width="1" opacity="1"/></g></g><path class="foreground" aria-hidden="true" d="" pointer-events="none" display="none"/></g></g><g class="mark-group role-axis" aria-hidden="true"><g transform="translate(0.5,0.5)"><path class="background" aria-hidden="true" d="M0,0h0v0h0Z" pointer-events="none"/><g><g class="mark-rule role-axis-grid" pointer-events="none"><line transform="translate(0,400)" x2="400" y2="0" stroke="#ddd" stroke-width="1" opacity="1"/><line transform="translate(0,364)" x2="400" y2="0" stroke="#ddd" stroke-width="1" opacity="1"/><line transform="translate(0,327)" x2="400" y2="0" stroke="#ddd" stroke-width="1" opacity="1"/><line transform="translate(0,291)" x2="400" y2="0" stroke="#ddd" stroke-width="1" opacity="1"/><line transform="translate(0,255)" x2="400" y2="0" stroke="#ddd" stroke-width="1" opacity="1"/><line transform="translate(0,218)" x2="400" y2="0" stroke="#ddd" stroke-width="1" opacity="1"/><line transform="translate(0,182)" x2="400" y2="0" stroke="#ddd" stroke-width="1" opacity="1"/><line transform="translate(0,145)" x2="400" y2="0" stroke="#ddd" stroke-width="1" opacity="1"/><line transform="translate(0,109)" x2="400" y2="0" stroke="#ddd" stroke-width="1" opacity="1"/><line transform="translate(0,73)" x2="400" y2="0" stroke="#ddd" stroke-width="1" opacity="1"/><line transform="translate(0,36)" x2="400" y2="0" stroke="#ddd" stroke-width="1" opacity="1"/><line transform="translate(0,0)" x2="400" y2="0" stroke="#ddd" stroke-width="1" opacity="1"/></g></g><path class="foreground" aria-hidden="true" d="" pointer-events="none" display="none"/></g></g><g class="mark-group role-axis" role="graphics-symbol" aria-roledescription="axis" aria-label="X-axis titled 'hour_bucket' for a linear scale with values from 4 to 20"><g transform="translate(0.5,400.5)"><path class="background" aria-hidden="true" d="M0,0h0v0h0Z" pointer-events="none"/><g><g class="mark-rule role-axis-tick" pointer-events="none"><line transform="translate(0,0)" x2="0" y2="5" stroke="#888" stroke-width="1" opacity="1"/><line transform="translate(50,0)" x2="0" y2="5" stroke="#888" stroke-width="1" opacity="1"/><line transform="translate(100,0)" x2="0" y2="5" stroke="#888" stroke-width="1" opacity="1"/><line transform="translate(150,0)" x2="0" y2="5" stroke="#888" stroke-width="1" opacity="1"/><line transform="translate(200,0)" x2="0" y2="5" stroke="#888" stroke-width="1" opacity="1"/><line transform="translate(250,0)" x2="0" y2="5" stroke="#888" stroke-width="1" opacity="1"/><line transform="translate(300,0)" x2="0" y2="5" stroke="#888" stroke-width="1" opacity="1"/><line transform="translate(350,0)" x2="0" y2="5" stroke="#888" stroke-width="1" opacity="1"/><line transform="translate(400,0)" x2="0" y2="5" stroke="#888" stroke-width="1" opacity="1"/></g><g class="mark-text role-axis-label" pointer-events="none"><text text-anchor="start" transform="translate(0,15)" font-family="sans-serif" font-size="10px" fill="#000" opacity="1">4</text><text text-anchor="middle" transform="translate(50,15)" font-family="sans-serif" font-size="10px" fill="#000" opacity="1">6</text><text text-anchor="middle" transform="translate(100,15)" font-family="sans-serif" font-size="10px" fill="#000" opacity="1">8</text><text text-anchor="middle" transform="translate(150,15)" font-family="sans-serif" font-size="10px" fill="#000" opacity="1">10</text><text text-anchor="middle" transform="translate(200,15)" font-family="sans-serif" font-size="10px" fill="#000" opacity="1">12</text><text text-anchor="middle" transform="translate(250,15)" font-family="sans-serif" font-size="10px" fill="#000" opacity="1">14</text><text text-anchor="middle" transform="translate(300,15)" font-family="sans-serif" font-size="10px" fill="#000" opacity="1">16</text><text text-anchor="middle" transform="translate(350,15)" font-family="sans-serif" font-size="10px" fill="#000" opacity="1">18</text><text text-anchor="end" transform="translate(400,15)" font-family="sans-serif" font-size="10px" fill="#000" opacity="1">20</text></g><g class="mark-rule role-axis-domain" pointer-events="none"><line transform="translate(0,0)" x2="400" y2="0" stroke="#888" stroke-width="1" opacity="1"/></g><g class="mark-text role-axis-title" pointer-events="none"><text text-anchor="middle" transform="translate(200,30)" font-family="sans-serif" font-size="11px" font-weight="bold" fill="#000" opacity="1">hour_bucket</text></g></g><path class="foreground" aria-hidden="true" d="" pointer-events="none" display="none"/></g></g><g class="mark-group role-axis" role="graphics-symbol" aria-roledescription="axis" aria-label="Y-axis titled 'mean' for a linear scale with values from 0 to 6"><g transform="translate(0.5,0.5)"><path class="background" aria-hidden="true" d="M0,0h0v0h0Z" pointer-events="none"/><g><g class="mark-rule role-axis-tick" pointer-events="none"><line transform="translate(0,400)" x2="-5" y2="0" stroke="#888" stroke-width="1" opacity="1"/><line transform="translate(0,364)" x2="-5" y2="0" stroke="#888" stroke-width="1" opacity="1"/><line transform="translate(0,327)" x2="-5" y2="0" stroke="#888" stroke-width="1" opacity="1"/><line transform="translate(0,291)" x2="-5" y2="0" stroke="#888" stroke-width="1" opacity="1"/><line transform="translate(0,255)" x2="-5" y2="0" stroke="#888" stroke-width="1" opacity="1"/><line transform="translate(0,218)" x2="-5" y2="0" stroke="#888" stroke-width="1" opacity="1"/><line transform="translate(0,182)" x2="-5" y2="0" stroke="#888" stroke-width="1" opacity="1"/><line transform="translate(0,145)" x2="-5" y2="0" stroke="#888" stroke-width="1" opacity="1"/><line transform="translate(0,109)" x2="-5" y2="0" stroke="#888" stroke-width="1" opacity="1"/><line transform="translate(0,73)" x2="-5" y2="0" stroke="#888" stroke-width="1" opacity="1"/><line transform="translate(0,36)" x2="-5" y2="0" stroke="#888" stroke-width="1" opacity="1"/><line transform="translate(0,0)" x2="-5" y2="0" stroke="#888" stroke-width="1" opacity="1"/></g><g class="mark-text role-axis-label" pointer-events="none"><text text-anchor="end" transform="translate(-7,403)" font-family="sans-serif" font-size="10px" fill="#000" opacity="1">0.0</text><text text-anchor="end" transform="translate(-7,366.6363636363636)" font-family="sans-serif" font-size="10px" fill="#000" opacity="1">0.5</text><text text-anchor="end" transform="translate(-7,330.27272727272725)" font-family="sans-serif" font-size="10px" fill="#000" opacity="1">1.0</text><text text-anchor="end" transform="translate(-7,293.90909090909093)" font-family="sans-serif" font-size="10px" fill="#000" opacity="1">1.5</text><text text-anchor="end" transform="translate(-7,257.5454545454545)" font-family="sans-serif" font-size="10px" fill="#000" opacity="1">2.0</text><text text-anchor="end" transform="translate(-7,221.18181818181816)" font-family="sans-serif" font-size="10px" fill="#000" opacity="1">2.5</text><text text-anchor="end" transform="translate(-7,184.81818181818184)" font-family="sans-serif" font-size="10px" fill="#000" opacity="1">3.0</text><text text-anchor="end" transform="translate(-7,148.45454545454547)" font-family="sans-serif" font-size="10px" fill="#000" opacity="1">3.5</text><text text-anchor="end" transform="translate(-7,112.09090909090908)" font-family="sans-serif" font-size="10px" fill="#000" opacity="1">4.0</text><text text-anchor="end" transform="translate(-7,75.7272727272727)" font-family="sans-serif" font-size="10px" fill="#000" opacity="1">4.5</text><text text-anchor="end" transform="translate(-7,39.363636363636374)" font-family="sans-serif" font-size="10px" fill="#000" opacity="1">5.0</text><text text-anchor="end" transform="translate(-7,3)" font-family="sans-serif" font-size="10px" fill="#000" opacity="1">5.5</text></g><g class="mark-rule role-axis-domain" pointer-events="none"><line transform="translate(0,400)" x2="0" y2="-400" stroke="#888" stroke-width="1" opacity="1"/></g><g class="mark-text role-axis-title" pointer-events="none"><text text-anchor="middle" transform="translate(-24.9013671875,200) rotate(-90) translate(0,-2)" font-family="sans-serif" font-size="11px" font-weight="bold" fill="#000" opacity="1">mean</text></g></g><path class="foreground" aria-hidden="true" d="" pointer-events="none" display="none"/></g></g><g class="mark-rect role-mark marks" role="graphics-object" aria-roledescription="rect mark container"><path aria-label="hour_bucket: 5; mean: 2.03745318352; type: male" role="graphics-symbol" aria-roledescription="bar" d="M22.5,251.82158665304732h5v148.17841334695268h-5Z" fill="#f58518"/><path aria-label="hour_bucket: 6; mean: 4.10263157895; type: male" role="graphics-symbol" aria-roledescription="bar" d="M47.5,101.62679425837315h5v298.37320574162686h-5Z" fill="#f58518"/><path aria-label="hour_bucket: 7; mean: 3.27027027027; type: male" role="graphics-symbol" aria-roledescription="bar" d="M72.5,162.16216216216216h5v237.83783783783784h-5Z" fill="#f58518"/><path aria-label="hour_bucket: 8; mean: 3.86923076923; type: male" role="graphics-symbol" aria-roledescription="bar" d="M97.5,118.6013986013986h5v281.3986013986014h-5Z" fill="#f58518"/><path aria-label="hour_bucket: 9; mean: 4.23755186722; type: male" role="graphics-symbol" aria-roledescription="bar" d="M122.5,91.8144096567333h5v308.1855903432667h-5Z" fill="#f58518"/><path aria-label="hour_bucket: 10; mean: 4.02502606882; type: male" role="graphics-symbol" aria-roledescription="bar" d="M147.5,107.27083135842261h5v292.7291686415774h-5Z" fill="#f58518"/><path aria-label="hour_bucket: 11; mean: 3.8488008342; type: male" role="graphics-symbol" aria-roledescription="bar" d="M172.5,120.08721205801498h5v279.912787941985h-5Z" fill="#f58518"/><path aria-label="hour_bucket: 12; mean: 3.89885297185; type: male" role="graphics-symbol" aria-roledescription="bar" d="M197.5,116.44705659304199h5v283.552943406958h-5Z" fill="#f58518"/><path aria-label="hour_bucket: 13; mean: 3.66423357664; type: male" role="graphics-symbol" aria-roledescription="bar" d="M222.5,133.51028533510285h5v266.4897146648972h-5Z" fill="#f58518"/><path aria-label="hour_bucket: 14; mean: 3.60729166667; type: male" role="graphics-symbol" aria-roledescription="bar" d="M247.5,137.65151515151516h5v262.3484848484849h-5Z" fill="#f58518"/><path aria-label="hour_bucket: 15; mean: 3.66840458811; type: male" role="graphics-symbol" aria-roledescription="bar" d="M272.5,133.2069390463551h5v266.7930609536449h-5Z" fill="#f58518"/><path aria-label="hour_bucket: 16; mean: 3.58490566038; type: male" role="graphics-symbol" aria-roledescription="bar" d="M297.5,139.2795883361921h5v260.7204116638079h-5Z" fill="#f58518"/><path aria-label="hour_bucket: 17; mean: 2.57556270096; type: male" role="graphics-symbol" aria-roledescription="bar" d="M322.5,212.6863490207542h5v187.3136509792458h-5Z" fill="#f58518"/><path aria-label="hour_bucket: 18; mean: 1.59827213823; type: male" role="graphics-symbol" aria-roledescription="bar" d="M347.5,283.76202631062245h5v116.23797368937755h-5Z" fill="#f58518"/><path aria-label="hour_bucket: 5; mean: 0.486891385768; type: female" role="graphics-symbol" aria-roledescription="bar" d="M22.5,216.41130405175346h5v35.41028260129386h-5Z" fill="#4c78a8"/><path aria-label="hour_bucket: 6; mean: 1.31315789474; type: female" role="graphics-symbol" aria-roledescription="bar" d="M47.5,6.124401913875532h5v95.50239234449762h-5Z" fill="#4c78a8"/><path aria-label="hour_bucket: 7; mean: 0.873873873874; type: female" role="graphics-symbol" aria-roledescription="bar" d="M72.5,98.60769860769861h5v63.55446355446355h-5Z" fill="#4c78a8"/><path aria-label="hour_bucket: 8; mean: 0.908791208791; type: female" role="graphics-symbol" aria-roledescription="bar" d="M97.5,52.507492507492515h5v66.09390609390609h-5Z" fill="#4c78a8"/><path aria-label="hour_bucket: 9; mean: 1.05497925311; type: female" role="graphics-symbol" aria-roledescription="bar" d="M122.5,15.088645794040012h5v76.7257638626933h-5Z" fill="#4c78a8"/><path aria-label="hour_bucket: 10; mean: 0.908237747654; type: female" role="graphics-symbol" aria-roledescription="bar" d="M147.5,41.217176983600325h5v66.05365437482229h-5Z" fill="#4c78a8"/><path aria-label="hour_bucket: 11; mean: 0.915537017727; type: female" role="graphics-symbol" aria-roledescription="bar" d="M172.5,53.50270167788413h5v66.58451038013085h-5Z" fill="#4c78a8"/><path aria-label="hour_bucket: 12; mean: 0.915537017727; type: female" role="graphics-symbol" aria-roledescription="bar" d="M197.5,49.8625462129112h5v66.5845103801308h-5Z" fill="#4c78a8"/><path aria-label="hour_bucket: 13; mean: 0.897810218978; type: female" role="graphics-symbol" aria-roledescription="bar" d="M222.5,68.21499668214996h5v65.29528865295289h-5Z" fill="#4c78a8"/><path aria-label="hour_bucket: 14; mean: 0.933333333333; type: female" role="graphics-symbol" aria-roledescription="bar" d="M247.5,69.77272727272722h5v67.87878787878793h-5Z" fill="#4c78a8"/><path aria-label="hour_bucket: 15; mean: 1.02398331595; type: female" role="graphics-symbol" aria-roledescription="bar" d="M272.5,58.73542515878283h5v74.47151388757227h-5Z" fill="#4c78a8"/><path aria-label="hour_bucket: 16; mean: 0.937846836848; type: female" role="graphics-symbol" aria-roledescription="bar" d="M297.5,71.07254565634148h5v68.20704267985062h-5Z" fill="#4c78a8"/><path aria-label="hour_bucket: 17; mean: 0.789389067524; type: female" role="graphics-symbol" aria-roledescription="bar" d="M322.5,155.27623501900027h5v57.410114001753925h-5Z" fill="#4c78a8"/><path aria-label="hour_bucket: 18; mean: 0.488120950324; type: female" role="graphics-symbol" aria-roledescription="bar" d="M347.5,248.2623208325152h5v35.499705478107245h-5Z" fill="#4c78a8"/></g><g class="mark-group role-legend" role="graphics-symbol" aria-roledescription="legend" aria-label="Symbol legend titled 'type' for fill color with 2 values: female, male"><g transform="translate(418,0)"><path class="background" aria-hidden="true" d="M0,0h47v40h-47Z" pointer-events="none"/><g><g class="mark-group role-legend-entry"><g transform="translate(0,16)"><path class="background" aria-hidden="true" d="M0,0h0v0h0Z" pointer-events="none"/><g><g class="mark-group role-scope" role="graphics-object" aria-roledescription="group mark container"><g transform="translate(0,0)"><path class="background" aria-hidden="true" d="M0,0h46.0146484375v11h-46.0146484375Z" pointer-events="none" opacity="1"/><g><g class="mark-symbol role-legend-symbol" pointer-events="none"><path transform="translate(6,6)" d="M-5,-5h10v10h-10Z" fill="#4c78a8" stroke-width="1.5" opacity="1"/></g><g class="mark-text role-legend-label" pointer-events="none"><text text-anchor="start" transform="translate(16,9)" font-family="sans-serif" font-size="10px" fill="#000" opacity="1">female</text></g></g><path class="foreground" aria-hidden="true" d="" pointer-events="none" display="none"/></g><g transform="translate(0,13)"><path class="background" aria-hidden="true" d="M0,0h46.0146484375v11h-46.0146484375Z" pointer-events="none" opacity="1"/><g><g class="mark-symbol role-legend-symbol" pointer-events="none"><path transform="translate(6,6)" d="M-5,-5h10v10h-10Z" fill="#f58518" stroke-width="1.5" opacity="1"/></g><g class="mark-text role-legend-label" pointer-events="none"><text text-anchor="start" transform="translate(16,9)" font-family="sans-serif" font-size="10px" fill="#000" opacity="1">male</text></g></g><path class="foreground" aria-hidden="true" d="" pointer-events="none" display="none"/></g></g></g><path class="foreground" aria-hidden="true" d="" pointer-events="none" display="none"/></g></g><g class="mark-text role-legend-title" pointer-events="none"><text text-anchor="start" transform="translate(0,9)" font-family="sans-serif" font-size="11px" font-weight="bold" fill="#000" opacity="1">type</text></g></g><path class="foreground" aria-hidden="true" d="" pointer-events="none" display="none"/></g></g></g><path class="foreground" aria-hidden="true" d="" display="none"/></g></g></g></svg>