<svg xmlns="http://www.w3.org/2000/svg" xmlns:xlink="http://www.w3.org/1999/xlink" version="1.1" class="marks" width="450" height="447" viewBox="0 0 450 447"><rect width="450" height="447" fill="white"/><g fill="none" stroke-miterlimit="10" transform="translate(44,10)"><g class="mark-group role-frame root" role="graphics-object" aria-roledescription="group mark container"><g transform="translate(0,0)"><path class="background" aria-hidden="true" d="M0.5,0.5h400v400h-400Z" stroke="#ddd"/><g><g class="mark-group role-axis" aria-hidden="true"><g transform="translate(0.5,400.5)"><path class="background" aria-hidden="true" d="M0,0h0v0h0Z" pointer-events="none"/><g><g class="mark-rule role-axis-grid" pointer-events="none"><line transform="translate(0,-400)" x2="0" y2="400" stroke="#ddd" stroke-width="1" opacity="1"/><line transform="translate(57,-400)" x2="0" y2="400" stroke="#ddd" stroke-width="1" opacity="1"/><line transform="translate(114,-400)" x2="0" y2="400" stroke="#ddd" stroke-width="1" opacity="1"/><line transform="translate(171,-400)" x2="0" y2="400" stroke="#ddd" stroke-width="1" opacity="1"/><line transform="translate(229,-400)" x2="0" y2="400" stroke="#ddd" stroke-width="1" opacity="1"/><line transform="translate(286,-400)" x2="0" y2="400" stroke="#ddd" stroke-width="1" opacity="1"/><line transform="translate(343,-400)" x2="0" y2="400" stroke="#ddd" stroke-width="1" opacity="1"/><line transform="translate(400,-400)" x2="0" y2="400" stroke="#ddd" stroke-width="1" opacity="1"/></g></g><path class="foreground" aria-hidden="true" d="" pointer-events="none" display="none"/></g></g><g class="mark-group role-axis" aria-hidden="true"><g transform="translate(0.5,0.5)"><path class="background" aria-hidden="true" d="M0,0h0v0h0Z" pointer-events="none"/><g><g class="mark-rule role-axis-grid" pointer-events="none"><line transform="translate(0,400)" x2="400" y2="0" stroke="#ddd" stroke-width="1" opacity="1"/><line transform="translate(0,356)" x2="400" y2="0" stroke="#ddd" stroke-width="1" opacity="1"/><line transform="translate(0,311)" x2="400" y2="0" stroke="#ddd" stroke-width="1" opacity="1"/><line transform="translate(0,267)" x2="400" y2="0" stroke="#ddd" stroke-width="1" opacity="1"/><line transform="translate(0,222)" x2="400" y2="0" stroke="#ddd" stroke-width="1" opacity="1"/><line transform="translate(0,178)" x2="400" y2="0" stroke="#ddd" stroke-width="1" opacity="1"/><line transform="translate(0,133)" x2="400" y2="0" stroke="#ddd" stroke-width="1" opacity="1"/><line transform="translate(0,89)" x2="400" y2="0" stroke="#ddd" stroke-width="1" opacity="1"/><line transform="translate(0,44)" x2="400" y2="0" stroke="#ddd" stroke-width="1" opacity="1"/><line transform="translate(0,0)" x2="400" y2="0" stroke="#ddd" stroke-width="1" opacity="1"/></g></g><path class="foreground" aria-hidden="true" d="" pointer-events="none" display="none"/></g></g><g class="mark-group role-axis" role="graphics-symbol" aria-roledescription="axis" aria-label="X-axis titled 'calls_per_hour' for a linear scale with values from −5 to 30"><g transform="translate(0.5,400.5)"><path class="background" aria-hidden="true" d="M0,0h0v0h0Z" pointer-events="none"/><g><g class="mark-rule role-axis-tick" pointer-events="none"><line transform="translate(0,0)" x2="0" y2="5" stroke="#888" stroke-width="1" opacity="1"/><line transform="translate(57,0)" x2="0" y2="5" stroke="#888" stroke-width="1" opacity="1"/><line transform="translate(114,0)" x2="0" y2="5" stroke="#888" stroke-width="1" opacity="1"/><line transform="translate(171,0)" x2="0" y2="5" stroke="#888" stroke-width="1" opacity="1"/><line transform="translate(229,0)" x2="0" y2="5" stroke="#888" stroke-width="1" opacity="1"/><line transform="translate(286,0)" x2="0" y2="5" stroke="#888" stroke-width="1" opacity="1"/><line transform="translate(343,0)" x2="0" y2="5" stroke="#888" stroke-width="1" opacity="1"/><line transform="translate(400,0)" x2="0" y2="5" stroke="#888" stroke-width="1" opacity="1"/></g><g class="mark-text role-axis-label" pointer-events="none"><text text-anchor="start" transform="translate(0,15)" font-family="sans-serif" font-size="10px" fill="#000" opacity="1">−5</text><text text-anchor="middle" transform="translate(57.14285714285714,15)" font-family="sans-serif" font-size="10px" fill="#000" opacity="1">0</text><text text-anchor="middle" transform="translate(114.28571428571428,15)" font-family="sans-serif" font-size="10px" fill="#000" opacity="1">5</text><text text-anchor="middle" transform="translate(171.42857142857142,15)" font-family="sans-serif" font-size="10px" fill="#000" opacity="1">10</text><text text-anchor="middle" transform="translate(228.57142857142856,15)" font-family="sans-serif" font-size="10px" fill="#000" opacity="1">15</text><text text-anchor="middle" transform="translate(285.7142857142857,15)" font-family="sans-serif" font-size="10px" fill="#000" opacity="1">20</text><text text-anchor="middle" transform="translate(342.85714285714283,15)" font-family="sans-serif" font-size="10px" fill="#000" opacity="1">25</text><text text-anchor="end" transform="translate(400,15)" font-family="sans-serif" font-size="10px" fill="#000" opacity="1">30</text></g><g class="mark-rule role-axis-domain" pointer-events="none"><line transform="translate(0,0)" x2="400" y2="0" stroke="#888" stroke-width="1" opacity="1"/></g><g class="mark-text role-axis-title" pointer-events="none"><text text-anchor="middle" transform="translate(200,30)" font-family="sans-serif" font-size="11px" font-weight="bold" fill="#000" opacity="1">calls_per_hour</text></g></g><path class="foreground" aria-hidden="true" d="" pointer-events="none" display="none"/></g></g><g class="mark-group role-axis" role="graphics-symbol" aria-roledescription="axis" aria-label="Y-axis titled 'frequency' for a linear scale with values from 0 to 900"><g transform="translate(0.5,0.5)"><path class="background" aria-hidden="true" d="M0,0h0v0h0Z" pointer-events="none"/><g><g class="mark-rule role-axis-tick" pointer-events="none"><line transform="translate(0,400)" x2="-5" y2="0" stroke="#888" stroke-width="1" opacity="1"/><line transform="translate(0,356)" x2="-5" y2="0" stroke="#888" stroke-width="1" opacity="1"/><line transform="translate(0,311)" x2="-5" y2="0" stroke="#888" stroke-width="1" opacity="1"/><line transform="translate(0,267)" x2="-5" y2="0" stroke="#888" stroke-width="1" opacity="1"/><line transform="translate(0,222)" x2="-5" y2="0" stroke="#888" stroke-width="1" opacity="1"/><line transform="translate(0,178)" x2="-5" y2="0" stroke="#888" stroke-width="1" opacity="1"/><line transform="translate(0,133)" x2="-5" y2="0" stroke="#888" stroke-width="1" opacity="1"/><line transform="translate(0,89)" x2="-5" y2="0" stroke="#888" stroke-width="1" opacity="1"/><line transform="translate(0,44)" x2="-5" y2="0" stroke="#888" stroke-width="1" opacity="1"/><line transform="translate(0,0)" x2="-5" y2="0" stroke="#888" stroke-width="1" opacity="1"/></g><g class="mark-text role-axis-label" pointer-events="none"><text text-anchor="end" transform="translate(-7,403)" font-family="sans-serif" font-size="10px" fill="#000" opacity="1">0</text><text text-anchor="end" transform="translate(-7,358.55555555555554)" font-family="sans-serif" font-size="10px" fill="#000" opacity="1">100</text><text text-anchor="end" transform="translate(-7,314.11111111111114)" font-family="sans-serif" font-size="10px" fill="#000" opacity="1">200</text><text text-anchor="end" transform="translate(-7,269.6666666666667)" font-family="sans-serif" font-size="10px" fill="#000" opacity="1">300</text><text text-anchor="end" transform="translate(-7,225.22222222222223)" font-family="sans-serif" font-size="10px" fill="#000" opacity="1">400</text><text text-anchor="end" transform="translate(-7,180.77777777777777)" font-family="sans-serif" font-size="10px" fill="#000" opacity="1">500</text><text text-anchor="end" transform="translate(-7,136.33333333333334)" font-family="sans-serif" font-size="10px" fill="#000" opacity="1">600</text><text text-anchor="end" transform="translate(-7,91.88888888888889)" font-family="sans-serif" font-size="10px" fill="#000" opacity="1">700</text><text text-anchor="end" transform="translate(-7,47.444444444444464)" font-family="sans-serif" font-size="10px" fill="#000" opacity="1">800</text><text text-anchor="end" transform="translate(-7,3)" font-family="sans-serif" font-size="10px" fill="#000" opacity="1">900</text></g><g class="mark-rule role-axis-domain" pointer-events="none"><line transform="translate(0,400)" x2="0" y2="-400" stroke="#888" stroke-width="1" opacity="1"/></g><g class="mark-text role-axis-title" pointer-events="none"><text text-anchor="middle" transform="translate(-27.6845703125,200) rotate(-90) translate(0,-2)" font-family="sans-serif" font-size="11px" font-weight="bold" fill="#000" opacity="1">frequency</text></g></g><path class="foreground" aria-hidden="true" d="" pointer-events="none" display="none"/></g></g><g class="mark-rect role-mark marks" role="graphics-object" aria-roledescription="rect mark container"><path aria-label="calls_per_hour: 0; frequency: 853" role="graphics-symbol" aria-roledescription="bar" d="M54.64285714285714,20.888888888888868h5v379.11111111111114h-5Z" fill="#4c78a8"/><path aria-label="calls_per_hour: 1; frequency: 723" role="graphics-symbol" aria-roledescription="bar" d="M66.07142857142857,78.66666666666666h5v321.33333333333337h-5Z" fill="#4c78a8"/><path aria-label="calls_per_hour: 2; frequency: 748" role="graphics-symbol" aria-roledescription="bar" d="M77.5,67.55555555555554h5v332.44444444444446h-5Z" fill="#4c78a8"/><path aria-label="calls_per_hour: 3; frequency: 645" role="graphics-symbol" aria-roledescription="bar" d="M88.92857142857143,113.33333333333333h5v286.6666666666667h-5Z" fill="#4c78a8"/><path aria-label="calls_per_hour: 4; frequency: 578" role="graphics-symbol" aria-roledescription="bar" d="M100.35714285714285,143.1111111111111h5v256.8888888888889h-5Z" fill="#4c78a8"/><path aria-label="calls_per_hour: 5; frequency: 508" role="graphics-symbol" aria-roledescription="bar" d="M111.78571428571428,174.22222222222223h5v225.77777777777777h-5Z" fill="#4c78a8"/><path aria-label="calls_per_hour: 6; frequency: 425" role="graphics-symbol" aria-roledescription="bar" d="M123.21428571428571,211.11111111111111h5v188.88888888888889h-5Z" fill="#4c78a8"/><path aria-label="calls_per_hour: 7; frequency: 367" role="graphics-symbol" aria-roledescription="bar" d="M134.64285714285714,236.88888888888889h5v163.11111111111111h-5Z" fill="#4c78a8"/><path aria-label="calls_per_hour: 8; frequency: 267" role="graphics-symbol" aria-roledescription="bar" d="M146.07142857142858,281.33333333333337h5v118.66666666666663h-5Z" fill="#4c78a8"/><path aria-label="calls_per_hour: 9; frequency: 241" role="graphics-symbol" aria-roledescription="bar" d="M157.5,292.8888888888889h5v107.11111111111109h-5Z" fill="#4c78a8"/><path aria-label="calls_per_hour: 10; frequency: 177" role="graphics-symbol" aria-roledescription="bar" d="M168.92857142857142,321.3333333333333h5v78.66666666666669h-5Z" fill="#4c78a8"/><path aria-label="calls_per_hour: 11; frequency: 136" role="graphics-symbol" aria-roledescription="bar" d="M180.35714285714286,339.55555555555554h5v60.44444444444446h-5Z" fill="#4c78a8"/><path aria-label="calls_per_hour: 12; frequency: 108" role="graphics-symbol" aria-roledescription="bar" d="M191.78571428571428,352h5v48h-5Z" fill="#4c78a8"/><path aria-label="calls_per_hour: 13; frequency: 80" role="graphics-symbol" aria-roledescription="bar" d="M203.2142857142857,364.44444444444446h5v35.55555555555554h-5Z" fill="#4c78a8"/><path aria-label="calls_per_hour: 14; frequency: 62" role="graphics-symbol" aria-roledescription="bar" d="M214.64285714285714,372.44444444444446h5v27.555555555555543h-5Z" fill="#4c78a8"/><path aria-label="calls_per_hour: 15; frequency: 47" role="graphics-symbol" aria-roledescription="bar" d="M226.07142857142856,379.11111111111114h5v20.888888888888857h-5Z" fill="#4c78a8"/><path aria-label="calls_per_hour: 16; frequency: 38" role="graphics-symbol" aria-roledescription="bar" d="M237.5,383.1111111111111h5v16.888888888888914h-5Z" fill="#4c78a8"/><path aria-label="calls_per_hour: 17; frequency: 27" role="graphics-symbol" aria-roledescription="bar" d="M248.92857142857142,388h5v12h-5Z" fill="#4c78a8"/><path aria-label="calls_per_hour: 18; frequency: 18" role="graphics-symbol" aria-roledescription="bar" d="M260.35714285714283,392h5v8h-5Z" fill="#4c78a8"/><path aria-label="calls_per_hour: 19; frequency: 25" role="graphics-symbol" aria-roledescription="bar" d="M271.7857142857143,388.88888888888886h5v11.111111111111143h-5Z" fill="#4c78a8"/><path aria-label="calls_per_hour: 20; frequency: 11" role="graphics-symbol" aria-roledescription="bar" d="M283.2142857142857,395.1111111111111h5v4.888888888888914h-5Z" fill="#4c78a8"/><path aria-label="calls_per_hour: 21; frequency: 10" role="graphics-symbol" aria-roledescription="bar" d="M294.64285714285717,395.55555555555554h5v4.444444444444457h-5Z" fill="#4c78a8"/><path aria-label="calls_per_hour: 22; frequency: 5" role="graphics-symbol" aria-roledescription="bar" d="M306.0714285714286,397.77777777777777h5v2.2222222222222285h-5Z" fill="#4c78a8"/><path aria-label="calls_per_hour: 23; frequency: 7" role="graphics-symbol" aria-roledescription="bar" d="M317.5,396.8888888888889h5v3.111111111111086h-5Z" fill="#4c78a8"/><path aria-label="calls_per_hour: 24; frequency: 8" role="graphics-symbol" aria-roledescription="bar" d="M328.92857142857144,396.44444444444446h5v3.555555555555543h-5Z" fill="#4c78a8"/><path aria-label="calls_per_hour: 25; frequency: 3" role="graphics-symbol" aria-roledescription="bar" d="M340.35714285714283,398.6666666666667h5v1.3333333333333144h-5Z" fill="#4c78a8"/><path aria-label="calls_per_hour: 26; frequency: 1" role="graphics-symbol" aria-roledescription="bar" d="M351.7857142857143,399.5555555555556h5v0.44444444444440023h-5Z" fill="#4c78a8"/><path aria-label="calls_per_hour: 27; frequency: 1" role="graphics-symbol" aria-roledescription="bar" d="M363.2142857142857,399.5555555555556h5v0.44444444444440023h-5Z" fill="#4c78a8"/><path aria-label="calls_per_hour: 28; frequency: 2" role="graphics-symbol" aria-roledescription="bar" d="M374.6428571428571,399.1111111111111h5v0.8888888888889142h-5Z" fill="#4c78a8"/><path aria-label="calls_per_hour: 29; frequency: 1" role="graphics-symbol" aria-roledescription="bar" d="M386.07142857142856,399.5555555555556h5v0.44444444444440023h-5Z" fill="#4c78a8"/></g></g><path class="foreground" aria-hidden="true" d="" display="none"/></g></g></g></svg>