<svg xmlns="http://www.w3.org/2000/svg" xmlns:xlink="http://www.w3.org/1999/xlink" version="1.1" class="marks" width="511" height="447" viewBox="0 0 511 447"><rect width="511" height="447" fill="white"/><g fill="none" stroke-miterlimit="10" transform="translate(41,10)"><g class="mark-group role-frame root" role="graphics-object" aria-roledescription="group mark container"><g transform="translate(0,0)"><path class="background" aria-hidden="true" d="M0.5,0.5h400v400h-400Z" stroke="#ddd"/><g><g class="mark-group role-axis" aria-hidden="true"><g transform="translate(0.5,400.5)"><path class="background" aria-hidden="true" d="M0,0h0v0h0Z" pointer-events="none"/><g><g class="mark-rule role-axis-grid" pointer-events="none"><line transform="translate(0,-400)" x2="0" y2="400" stroke="#ddd" stroke-width="1" opacity="1"/><line transform="translate(50,-400)" x2="0" y2="400" stroke="#ddd" stroke-width="1" opacity="1"/><line transform="translate(100,-400)" x2="0" y2="400" stroke="#ddd" stroke-width="1" opacity="1"/><line transform="translate(150,-400)" x2="0" y2="400" stroke="#ddd" stroke-width="1" opacity="1"/><line transform="translate(200,-400)" x2="0" y2="400" stroke="#ddd" stroke-width="1" opacity="1"/><line transform="translate(250,-400)" x2="0" y2="400" stroke="#ddd" stroke-width="1" opacity="1"/><line transform="translate(300,-400)" x2="0" y2="400" stroke="#ddd" stroke-width="1" opacity="1"/><line transform="translate(350,-400)" x2="0" y2="400" stroke="#ddd" stroke-width="1" opacity="1"/><line transform="translate(400,-400)" x2="0" y2="400" stroke="#ddd" stroke-width="1" opacity="1"/></g></g><path class="foreground" aria-hidden="true" d="" pointer-events="none" display="none"/></g></g><g class="mark-group role-axis" aria-hidden="true"><g transform="translate(0.5,0.5)"><path class="background" aria-hidden="true" d="M0,0h0v0h0Z" pointer-events="none"/><g><g class="mark-rule role-axis-grid" pointer-events="none"><line transform="translate(0,400)" x2="400" y2="0" stroke="#ddd" stroke-width="1" opacity="1"/><line transform="translate(0,364)" x2="400" y2="0" stroke="#ddd" stroke-width="1" opacity="1"/><line transform="translate(0,327)" x2="400" y2="0" stroke="#ddd" stroke-width="1" opacity="1"/><line transform="translate(0,291)" x2="400" y2="0" stroke="#ddd" stroke-width="1" opacity="1"/><line transform="translate(0,255)" x2="400" y2="0" stroke="#ddd" stroke-width="1" opacity="1"/><line transform="translate(0,218)" x2="400" y2="0" stroke="#ddd" stroke-width="1" opacity="1"/><line transform="translate(0,182)" x2="400" y2="0" stroke="#ddd" stroke-width="1" opacity="1"/><line transform="translate(0,145)" x2="400" y2="0" stroke="#ddd" stroke-width="1" opacity="1"/><line transform="translate(0,109)" x2="400" y2="0" stroke="#ddd" stroke-width="1" opacity="1"/><line transform="translate(0,73)" x2="400" y2="0" stroke="#ddd" stroke-width="1" opacity="1"/><line transform="translate(0,36)" x2="400" y2="0" stroke="#ddd" stroke-width="1" opacity="1"/><line transform="translate(0,0)" x2="400" y2="0" stroke="#ddd" stroke-width="1" opacity="1"/></g></g><path class="foreground" aria-hidden="true" d="" pointer-events="none" display="none"/></g></g><g class="mark-group role-axis" role="graphics-symbol" aria-roledescription="axis" aria-label="X-axis titled 'hour_bucket' for a linear scale with values from 4 to 20"><g transform="translate(0.5,400.5)"><path class="background" aria-hidden="true" d="M0,0h0v0h0Z" pointer-events="none"/><g><g class="mark-rule role-axis-tick" pointer-events="none"><line transform="translate(0,0)" x2="0" y2="5" stroke="#888" stroke-width="1" opacity="1"/><line transform="translate(50,0)" x2="0" y2="5" stroke="#888" stroke-width="1" opacity="1"/><line transform="translate(100,0)" x2="0" y2="5" stroke="#888" stroke-width="1" opacity="1"/><line transform="translate(150,0)" x2="0" y2="5" stroke="#888" stroke-width="1" opacity="1"/><line transform="translate(200,0)" x2="0" y2="5" stroke="#888" stroke-width="1" opacity="1"/><line transform="translate(250,0)" x2="0" y2="5" stroke="#888" stroke-width="1" opacity="1"/><line transform="translate(300,0)" x2="0" y2="5" stroke="#888" stroke-width="1" opacity="1"/><line transform="translate(350,0)" x2="0" y2="5" stroke="#888" stroke-width="1" opacity="1"/><line transform="translate(400,0)" x2="0" y2="5" stroke="#888" stroke-width="1" opacity="1"/></g><g class="mark-text role-axis-label" pointer-events="none"><text text-anchor="start" transform="translate(0,15)" font-family="sans-serif" font-size="10px" fill="#000" opacity="1">4</text><text text-anchor="middle" transform="translate(50,15)" font-family="sans-serif" font-size="10px" fill="#000" opacity="1">6</text><text text-anchor="middle" transform="translate(100,15)" font-family="sans-serif" font-size="10px" fill="#000" opacity="1">8</text><text text-anchor="middle" transform="translate(150,15)" font-family="sans-serif" font-size="10px" fill="#000" opacity="1">10</text><text text-anchor="middle" transform="translate(200,15)" font-family="sans-serif" font-size="10px" fill="#000" opacity="1">12</text><text text-anchor="middle" transform="translate(250,15)" font-family="sans-serif" font-size="10px" fill="#000" opacity="1">14</text><text text-anchor="middle" transform="translate(300,15)" font-family="sans-serif" font-size="10px" fill="#000" opacity="1">16</text><text text-anchor="middle" transform="translate(350,15)" font-family="sans-serif" font-size="10px" fill="#000" opacity="1">18</text><text text-anchor="end" transform="translate(400,15)" font-family="sans-serif" font-size="10px" fill="#000" opacity="1">20</text></g><g class="mark-rule role-axis-domain" pointer-events="none"><line transform="translate(0,0)" x2="400" y2="0" stroke="#888" stroke-width="1" opacity="1"/></g><g class="mark-text role-axis-title" pointer-events="none"><text text-anchor="middle" transform="translate(200,30)" font-family="sans-serif" font-size="11px" font-weight="bold" fill="#000" opacity="1">hour_bucket</text></g></g><path class="foreground" aria-hidden="true" d="" pointer-events="none" display="none"/></g></g><g class="mark-group role-axis" role="graphics-symbol" aria-roledescription="axis" aria-label="Y-axis titled 'mean' for a linear scale with values from 0 to 6"><g transform="translate(0.5,0.5)"><path class="background" aria-hidden="true" d="M0,0h0v0h0Z" pointer-events="none"/><g><g class="mark-rule role-axis-tick" pointer-events="none"><line transform="translate(0,400)" x2="-5" y2="0" stroke="#888" stroke-width="1" opacity="1"/><line transform="translate(0,364)" x2="-5" y2="0" stroke="#888" stroke-width="1" opacity="1"/><line transform="translate(0,327)" x2="-5" y2="0" stroke="#888" stroke-width="1" opacity="1"/><line transform="translate(0,291)" x2="-5" y2="0" stroke="#888" stroke-width="1" opacity="1"/><line transform="translate(0,255)" x2="-5" y2="0" stroke="#888" stroke-width="1" opacity="1"/><line transform="translate(0,218)" x2="-5" y2="0" stroke="#888" stroke-width="1" opacity="1"/><line transform="translate(0,182)" x2="-5" y2="0" stroke="#888" stroke-width="1" opacity="1"/><line transform="translate(0,145)" x2="-5" y2="0" stroke="#888" stroke-width="1" opacity="1"/><line transform="translate(0,109)" x2="-5" y2="0" stroke="#888" stroke-width="1" opacity="1"/><line transform="translate(0,73)" x2="-5" y2="0" stroke="#888" stroke-width="1" opacity="1"/><line transform="translate(0,36)" x2="-5" y2="0" stroke="#888" stroke-width="1" opacity="1"/><line transform="translate(0,0)" x2="-5" y2="0" stroke="#888" stroke-width="1" opacity="1"/></g><g class="mark-text role-axis-label" pointer-events="none"><text text-anchor="end" transform="translate(-7,403)" font-family="sans-serif" font-size="10px" fill="#000" opacity="1">0.0</text><text text-anchor="end" transform="translate(-7,366.6363636363636)" font-family="sans-serif" font-size="10px" fill="#000" opacity="1">0.5</text><text text-anchor="end" transform="translate(-7,330.27272727272725)" font-family="sans-serif" font-size="10px" fill="#000" opacity="1">1.0</text><text text-anchor="end" transform="translate(-7,293.90909090909093)" font-family="sans-serif" font-size="10px" fill="#000" opacity="1">1.5</text><text text-anchor="end" transform="translate(-7,257.5454545454545)" font-family="sans-serif" font-size="10px" fill="#000" opacity="1">2.0</text><text text-anchor="end" transform="translate(-7,221.18181818181816)" font-family="sans-serif" font-size="10px" fill="#000" opacity="1">2.5</text><text text-anchor="end" transform="translate(-7,184.81818181818184)" font-family="sans-serif" font-size="10px" fill="#000" opacity="1">3.0</text><text text-anchor="end" transform="translate(-7,148.45454545454547)" font-family="sans-serif" font-size="10px" fill="#000" opacity="1">3.5</text><text text-anchor="end" transform="translate(-7,112.09090909090908)" font-family="sans-serif" font-size="10px" fill="#000" opacity="1">4.0</text><text text-anchor="end" transform="translate(-7,75.7272727272727)" font-family="sans-serif" font-size="10px" fill="#000" opacity="1">4.5</text><text text-anchor="end" transform="translate(-7,39.363636363636374)" font-family="sans-serif" font-size="10px" fill="#000" opacity="1">5.0</text><text text-anchor="end" transform="translate(-7,3)" font-family="sans-serif" font-size="10px" fill="#000" opacity="1">5.5</text></g><g class="mark-rule role-axis-domain" pointer-events="none"><line transform="translate(0,400)" x2="0" y2="-400" stroke="#888" stroke-width="1" opacity="1"/></g><g class="mark-text role-axis-title" pointer-events="none"><text text-anchor="middle" transform="translate(-24.9013671875,200) rotate(-90) translate(0,-2)" font-family="sans-serif" font-size="11px" font-weight="bold" fill="#000" opacity="1">mean</text></g></g><path class="foreground" aria-hidden="true" d="" pointer-events="none" display="none"/></g></g><g class="mark-rect role-mark marks" role="graphics-object" aria-roledescription="rect mark container"><path aria-label="hour_bucket: 5; mean: 2.12804878049; type: male" role="graphics-symbol" aria-roledescription="bar" d="M22.5,245.23281596452327h5v154.76718403547673h-5Z" fill="#f58518"/><path aria-label="hour_bucket: 6; mean: 3.95278969957; type: male" role="graphics-symbol" aria-roledescription="bar" d="M47.5,112.52438548575884h5v287.47561451424116h-5Z" fill="#f58518"/><path aria-label="hour_bucket: 7; mean: 3.42285714286; type: male" role="graphics-symbol" aria-roledescription="bar" d="M72.5,151.06493506493504h5v248.93506493506496h-5Z" fill="#f58518"/><path aria-label="hour_bucket: 8; mean: 4.21161825726; type: male" role="graphics-symbol" aria-roledescription="bar" d="M97.5,93.70049038098828h5v306.2995096190117h-5Z" fill="#f58518"/><path aria-label="hour_bucket: 9; mean: 4.17690875233; type: male" role="graphics-symbol" aria-roledescription="bar" d="M122.5,96.22481801252749h5v303.7751819874725h-5Z" fill="#f58518"/><path aria-label="hour_bucket: 10; mean: 3.93609022556; type: male" role="graphics-symbol" aria-roledescription="bar" d="M147.5,113.73889268626112h5v286.2611073137389h-5Z" fill="#f58518"/><path aria-label="hour_bucket: 11; mean: 3.7969924812; type: male" role="graphics-symbol" aria-roledescription="bar" d="M172.5,123.8550922761449h5v276.1449077238551h-5Z" fill="#f58518"/><path aria-label="hour_bucket: 12; mean: 3.8515037594; type: male" role="graphics-symbol" aria-roledescription="bar" d="M197.5,119.89063568010936h5v280.10936431989063h-5Z" fill="#f58518"/><path aria-label="hour_bucket: 13; mean: 3.57142857143; type: male" role="graphics-symbol" aria-roledescription="bar" d="M222.5,140.25974025974025h5v259.7402597402597h-5Z" fill="#f58518"/><path aria-label="hour_bucket: 14; mean: 3.6904315197; type: male" role="graphics-symbol" aria-roledescription="bar" d="M247.5,131.6049803854682h5v268.3950196145318h-5Z" fill="#f58518"/><path aria-label="hour_bucket: 15; mean: 3.64473684211; type: male" role="graphics-symbol" aria-roledescription="bar" d="M272.5,134.92822966507174h5v265.07177033492826h-5Z" fill="#f58518"/><path aria-label="hour_bucket: 16; mean: 4.01260504202; type: male" role="graphics-symbol" aria-roledescription="bar" d="M297.5,108.17417876241406h5v291.82582123758596h-5Z" fill="#f58518"/><path aria-label="hour_bucket: 17; mean: 2.84960422164; type: male" role="graphics-symbol" aria-roledescription="bar" d="M322.5,192.75605660829936h5v207.24394339170064h-5Z" fill="#f58518"/><path aria-label="hour_bucket: 18; mean: 1.56493506494; type: male" role="graphics-symbol" aria-roledescription="bar" d="M347.5,286.18654073199525h5v113.81345926800475h-5Z" fill="#f58518"/><path aria-label="hour_bucket: 5; mean: 0.701219512195; type: female" role="graphics-symbol" aria-roledescription="bar" d="M22.5,194.23503325942352h5v50.99778270509975h-5Z" fill="#4c78a8"/><path aria-label="hour_bucket: 6; mean: 1.32618025751; type: female" role="graphics-symbol" aria-roledescription="bar" d="M47.5,16.074912212251302h5v96.44947327350754h-5Z" fill="#4c78a8"/><path aria-label="hour_bucket: 7; mean: 0.925714285714; type: female" role="graphics-symbol" aria-roledescription="bar" d="M72.5,83.74025974025972h5v67.32467532467533h-5Z" fill="#4c78a8"/><path aria-label="hour_bucket: 8; mean: 1.1265560166; type: female" role="graphics-symbol" aria-roledescription="bar" d="M97.5,11.769143719351138h5v81.93134666163715h-5Z" fill="#4c78a8"/><path aria-label="hour_bucket: 9; mean: 1.17690875233; type: female" role="graphics-symbol" aria-roledescription="bar" d="M122.5,10.631454206873192h5v85.5933638056543h-5Z" fill="#4c78a8"/><path aria-label="hour_bucket: 10; mean: 1.06954887218; type: female" role="graphics-symbol" aria-roledescription="bar" d="M147.5,35.953520164046495h5v77.78537252221463h-5Z" fill="#4c78a8"/><path aria-label="hour_bucket: 11; mean: 0.983082706767; type: female" role="graphics-symbol" aria-roledescription="bar" d="M172.5,52.358168147641805h5v71.4969241285031h-5Z" fill="#4c78a8"/><path aria-label="hour_bucket: 12; mean: 1.03383458647; type: female" role="graphics-symbol" aria-roledescription="bar" d="M197.5,44.70266575529735h5v75.187969924812h-5Z" fill="#4c78a8"/><path aria-label="hour_bucket: 13; mean: 0.986842105263; type: female" role="graphics-symbol" aria-roledescription="bar" d="M222.5,68.48940533151055h5v71.7703349282297h-5Z" fill="#4c78a8"/><path aria-label="hour_bucket: 14; mean: 1.12382739212; type: female" role="graphics-symbol" aria-roledescription="bar" d="M247.5,49.87207914037182h5v81.73290124509637h-5Z" fill="#4c78a8"/><path aria-label="hour_bucket: 15; mean: 1.18984962406; type: female" role="graphics-symbol" aria-roledescription="bar" d="M272.5,48.3937115516063h5v86.53451811346544h-5Z" fill="#4c78a8"/><path aria-label="hour_bucket: 16; mean: 1.16806722689; type: female" role="graphics-symbol" aria-roledescription="bar" d="M297.5,23.223834988540837h5v84.95034377387321h-5Z" fill="#4c78a8"/><path aria-label="hour_bucket: 17; mean: 0.957783641161; type: female" role="graphics-symbol" aria-roledescription="bar" d="M322.5,123.09906452386663h5v69.65699208443273h-5Z" fill="#4c78a8"/><path aria-label="hour_bucket: 18; mean: 0.5; type: female" role="graphics-symbol" aria-roledescription="bar" d="M347.5,249.82290436835893h5v36.36363636363632h-5Z" fill="#4c78a8"/></g><g class="mark-group role-legend" role="graphics-symbol" aria-roledescription="legend" aria-label="Symbol legend titled 'type' for fill color with 2 values: female, male"><g transform="translate(418,0)"><path class="background" aria-hidden="true" d="M0,0h47v40h-47Z" pointer-events="none"/><g><g class="mark-group role-legend-entry"><g transform="translate(0,16)"><path class="background" aria-hidden="true" d="M0,0h0v0h0Z" pointer-events="none"/><g><g class="mark-group role-scope" role="graphics-object" aria-roledescription="group mark container"><g transform="translate(0,0)"><path class="background" aria-hidden="true" d="M0,0h46.0146484375v11h-46.0146484375Z" pointer-events="none" opacity="1"/><g><g class="mark-symbol role-legend-symbol" pointer-events="none"><path transform="translate(6,6)" d="M-5,-5h10v10h-10Z" fill="#4c78a8" stroke-width="1.5" opacity="1"/></g><g class="mark-text role-legend-label" pointer-events="none"><text text-anchor="start" transform="translate(16,9)" font-family="sans-serif" font-size="10px" fill="#000" opacity="1">female</text></g></g><path class="foreground" aria-hidden="true" d="" pointer-events="none" display="none"/></g><g transform="translate(0,13)"><path class="background" aria-hidden="true" d="M0,0h46.0146484375v11h-46.0146484375Z" pointer-events="none" opacity="1"/><g><g class="mark-symbol role-legend-symbol" pointer-events="none"><path transform="translate(6,6)" d="M-5,-5h10v10h-10Z" fill="#f58518" stroke-width="1.5" opacity="1"/></g><g class="mark-text role-legend-label" pointer-events="none"><text text-anchor="start" transform="translate(16,9)" font-family="sans-serif" font-size="10px" fill="#000" opacity="1">male</text></g></g><path class="foreground" aria-hidden="true" d="" pointer-events="none" display="none"/></g></g></g><path class="foreground" aria-hidden="true" d="" pointer-events="none" display="none"/></g></g><g class="mark-text role-legend-title" pointer-events="none"><text text-anchor="start" transform="translate(0,9)" font-family="sans-serif" font-size="11px" font-weight="bold" fill="#000" opacity="1">type</text></g></g><path class="foreground" aria-hidden="true" d="" pointer-events="none" display="none"/></g></g></g><path class="foreground" aria-hidden="true" d="" display="none"/></g></g></g></svg>