<svg xmlns="http://www.w3.org/2000/svg" xmlns:xlink="http://www.w3.org/1999/xlink" version="1.1" class="marks" width="511" height="447" viewBox="0 0 511 447"><rect width="511" height="447" fill="white"/><g fill="none" stroke-miterlimit="10" transform="translate(41,10)"><g class="mark-group role-frame root" role="graphics-object" aria-roledescription="group mark container"><g transform="translate(0,0)"><path class="background" aria-hidden="true" d="M0.5,0.5h400v400h-400Z" stroke="#ddd"/><g><g class="mark-group role-axis" aria-hidden="true"><g transform="translate(0.5,400.5)"><path class="background" aria-hidden="true" d="M0,0h0v0h0Z" pointer-events="none"/><g><g class="mark-rule role-axis-grid" pointer-events="none"><line transform="translate(0,-400)" x2="0" y2="400" stroke="#ddd" stroke-width="1" opacity="1"/><line transform="translate(50,-400)" x2="0" y2="400" stroke="#ddd" stroke-width="1" opacity="1"/><line transform="translate(100,-400)" x2="0" y2="400" stroke="#ddd" stroke-width="1" opacity="1"/><line transform="translate(150,-400)" x2="0" y2="400" stroke="#ddd" stroke-width="1" opacity="1"/><line transform="translate(200,-400)" x2="0" y2="400" stroke="#ddd" stroke-width="1" opacity="1"/><line transform="translate(250,-400)" x2="0" y2="400" stroke="#ddd" stroke-width="1" opacity="1"/><line transform="translate(300,-400)" x2="0" y2="400" stroke="#ddd" stroke-width="1" opacity="1"/><line transform="translate(350,-400)" x2="0" y2="400" stroke="#ddd" stroke-width="1" opacity="1"/><line transform="translate(400,-400)" x2="0" y2="400" stroke="#ddd" stroke-width="1" opacity="1"/></g></g><path class="foreground" aria-hidden="true" d="" pointer-events="none" display="none"/></g></g><g class="mark-group role-axis" aria-hidden="true"><g transform="translate(0.5,0.5)"><path class="background" aria-hidden="true" d="M0,0h0v0h0Z" pointer-events="none"/><g><g class="mark-rule role-axis-grid" pointer-events="none"><line transform="translate(0,400)" x2="400" y2="0" stroke="#ddd" stroke-width="1" opacity="1"/><line transform="translate(0,364)" x2="400" y2="0" stroke="#ddd" stroke-width="1" opacity="1"/><line transform="translate(0,327)" x2="400" y2="0" stroke="#ddd" stroke-width="1" opacity="1"/><line transform="translate(0,291)" x2="400" y2="0" stroke="#ddd" stroke-width="1" opacity="1"/><line transform="translate(0,255)" x2="400" y2="0" stroke="#ddd" stroke-width="1" opacity="1"/><line transform="translate(0,218)" x2="400" y2="0" stroke="#ddd" stroke-width="1" opacity="1"/><line transform="translate(0,182)" x2="400" y2="0" stroke="#ddd" stroke-width="1" opacity="1"/><line transform="translate(0,145)" x2="400" y2="0" stroke="#ddd" stroke-width="1" opacity="1"/><line transform="translate(0,109)" x2="400" y2="0" stroke="#ddd" stroke-width="1" opacity="1"/><line transform="translate(0,73)" x2="400" y2="0" stroke="#ddd" stroke-width="1" opacity="1"/><line transform="translate(0,36)" x2="400" y2="0" stroke="#ddd" stroke-width="1" opacity="1"/><line transform="translate(0,0)" x2="400" y2="0" stroke="#ddd" stroke-width="1" opacity="1"/></g></g><path class="foreground" aria-hidden="true" d="" pointer-events="none" display="none"/></g></g><g class="mark-group role-axis" role="graphics-symbol" aria-roledescription="axis" aria-label="X-axis titled 'hour_bucket' for a linear scale with values from 4 to 20"><g transform="translate(0.5,400.5)"><path class="background" aria-hidden="true" d="M0,0h0v0h0Z" pointer-events="none"/><g><g class="mark-rule role-axis-tick" pointer-events="none"><line transform="translate(0,0)" x2="0" y2="5" stroke="#888" stroke-width="1" opacity="1"/><line transform="translate(50,0)" x2="0" y2="5" stroke="#888" stroke-width="1" opacity="1"/><line transform="translate(100,0)" x2="0" y2="5" stroke="#888" stroke-width="1" opacity="1"/><line transform="translate(150,0)" x2="0" y2="5" stroke="#888" stroke-width="1" opacity="1"/><line transform="translate(200,0)" x2="0" y2="5" stroke="#888" stroke-width="1" opacity="1"/><line transform="translate(250,0)" x2="0" y2="5" stroke="#888" stroke-width="1" opacity="1"/><line transform="translate(300,0)" x2="0" y2="5" stroke="#888" stroke-width="1" opacity="1"/><line transform="translate(350,0)" x2="0" y2="5" stroke="#888" stroke-width="1" opacity="1"/><line transform="translate(400,0)" x2="0" y2="5" stroke="#888" stroke-width="1" opacity="1"/></g><g class="mark-text role-axis-label" pointer-events="none"><text text-anchor="start" transform="translate(0,15)" font-family="sans-serif" font-size="10px" fill="#000" opacity="1">4</text><text text-anchor="middle" transform="translate(50,15)" font-family="sans-serif" font-size="10px" fill="#000" opacity="1">6</text><text text-anchor="middle" transform="translate(100,15)" font-family="sans-serif" font-size="10px" fill="#000" opacity="1">8</text><text text-anchor="middle" transform="translate(150,15)" font-family="sans-serif" font-size="10px" fill="#000" opacity="1">10</text><text text-anchor="middle" transform="translate(200,15)" font-family="sans-serif" font-size="10px" fill="#000" opacity="1">12</text><text text-anchor="middle" transform="translate(250,15)" font-family="sans-serif" font-size="10px" fill="#000" opacity="1">14</text><text text-anchor="middle" transform="translate(300,15)" font-family="sans-serif" font-size="10px" fill="#000" opacity="1">16</text><text text-anchor="middle" transform="translate(350,15)" font-family="sans-serif" font-size="10px" fill="#000" opacity="1">18</text><text text-anchor="end" transform="translate(400,15)" font-family="sans-serif" font-size="10px" fill="#000" opacity="1">20</text></g><g class="mark-rule role-axis-domain" pointer-events="none"><line transform="translate(0,0)" x2="400" y2="0" stroke="#888" stroke-width="1" opacity="1"/></g><g class="mark-text role-axis-title" pointer-events="none"><text text-anchor="middle" transform="translate(200,30)" font-family="sans-serif" font-size="11px" font-weight="bold" fill="#000" opacity="1">hour_bucket</text></g></g><path class="foreground" aria-hidden="true" d="" pointer-events="none" display="none"/></g></g><g class="mark-group role-axis" role="graphics-symbol" aria-roledescription="axis" aria-label="Y-axis titled 'mean' for a linear scale with values from 0 to 6"><g transform="translate(0.5,0.5)"><path class="background" aria-hidden="true" d="M0,0h0v0h0Z" pointer-events="none"/><g><g class="mark-rule role-axis-tick" pointer-events="none"><line transform="translate(0,400)" x2="-5" y2="0" stroke="#888" stroke-width="1" opacity="1"/><line transform="translate(0,364)" x2="-5" y2="0" stroke="#888" stroke-width="1" opacity="1"/><line transform="translate(0,327)" x2="-5" y2="0" stroke="#888" stroke-width="1" opacity="1"/><line transform="translate(0,291)" x2="-5" y2="0" stroke="#888" stroke-width="1" opacity="1"/><line transform="translate(0,255)" x2="-5" y2="0" stroke="#888" stroke-width="1" opacity="1"/><line transform="translate(0,218)" x2="-5" y2="0" stroke="#888" stroke-width="1" opacity="1"/><line transform="translate(0,182)" x2="-5" y2="0" stroke="#888" stroke-width="1" opacity="1"/><line transform="translate(0,145)" x2="-5" y2="0" stroke="#888" stroke-width="1" opacity="1"/><line transform="translate(0,109)" x2="-5" y2="0" stroke="#888" stroke-width="1" opacity="1"/><line transform="translate(0,73)" x2="-5" y2="0" stroke="#888" stroke-width="1" opacity="1"/><line transform="translate(0,36)" x2="-5" y2="0" stroke="#888" stroke-width="1" opacity="1"/><line transform="translate(0,0)" x2="-5" y2="0" stroke="#888" stroke-width="1" opacity="1"/></g><g class="mark-text role-axis-label" pointer-events="none"><text text-anchor="end" transform="translate(-7,403)" font-family="sans-serif" font-size="10px" fill="#000" opacity="1">0.0</text><text text-anchor="end" transform="translate(-7,366.6363636363636)" font-family="sans-serif" font-size="10px" fill="#000" opacity="1">0.5</text><text text-anchor="end" transform="translate(-7,330.27272727272725)" font-family="sans-serif" font-size="10px" fill="#000" opacity="1">1.0</text><text text-anchor="end" transform="translate(-7,293.90909090909093)" font-family="sans-serif" font-size="10px" fill="#000" opacity="1">1.5</text><text text-anchor="end" transform="translate(-7,257.5454545454545)" font-family="sans-serif" font-size="10px" fill="#000" opacity="1">2.0</text><text text-anchor="end" transform="translate(-7,221.18181818181816)" font-family="sans-serif" font-size="10px" fill="#000" opacity="1">2.5</text><text text-anchor="end" transform="translate(-7,184.81818181818184)" font-family="sans-serif" font-size="10px" fill="#000" opacity="1">3.0</text><text text-anchor="end" transform="translate(-7,148.45454545454547)" font-family="sans-serif" font-size="10px" fill="#000" opacity="1">3.5</text><text text-anchor="end" transform="translate(-7,112.09090909090908)" font-family="sans-serif" font-size="10px" fill="#000" opacity="1">4.0</text><text text-anchor="end" transform="translate(-7,75.7272727272727)" font-family="sans-serif" font-size="10px" fill="#000" opacity="1">4.5</text><text text-anchor="end" transform="translate(-7,39.363636363636374)" font-family="sans-serif" font-size="10px" fill="#000" opacity="1">5.0</text><text text-anchor="end" transform="translate(-7,3)" font-family="sans-serif" font-size="10px" fill="#000" opacity="1">5.5</text></g><g class="mark-rule role-axis-domain" pointer-events="none"><line transform="translate(0,400)" x2="0" y2="-400" stroke="#888" stroke-width="1" opacity="1"/></g><g class="mark-text role-axis-title" pointer-events="none"><text text-anchor="middle" transform="translate(-24.9013671875,200) rotate(-90) translate(0,-2)" font-family="sans-serif" font-size="11px" font-weight="bold" fill="#000" opacity="1">mean</text></g></g><path class="foreground" aria-hidden="true" d="" pointer-events="none" display="none"/></g></g><g class="mark-rect role-mark marks" role="graphics-object" aria-roledescription="rect mark container"><path aria-label="hour_bucket: 5; mean: 1.97321428571; type: male" role="graphics-symbol" aria-roledescription="bar" d="M22.5,256.49350649350646h5v143.50649350649354h-5Z" fill="#f58518"/><path aria-label="hour_bucket: 6; mean: 3.75964391691; type: male" role="graphics-symbol" aria-roledescription="bar" d="M47.5,126.57135149716754h5v273.42864850283246h-5Z" fill="#f58518"/><path aria-label="hour_bucket: 7; mean: 3.30612244898; type: male" role="graphics-symbol" aria-roledescription="bar" d="M72.5,159.5547309833024h5v240.4452690166976h-5Z" fill="#f58518"/><path aria-label="hour_bucket: 8; mean: 3.91520861373; type: male" role="graphics-symbol" aria-roledescription="bar" d="M97.5,115.25755536522699h5v284.742444634773h-5Z" fill="#f58518"/><path aria-label="hour_bucket: 9; mean: 4.13533834586; type: male" role="graphics-symbol" aria-roledescription="bar" d="M122.5,99.24812030075189h5v300.7518796992481h-5Z" fill="#f58518"/><path aria-label="hour_bucket: 10; mean: 4.02774274905; type: male" role="graphics-symbol" aria-roledescription="bar" d="M147.5,107.0732546142382h5v292.9267453857618h-5Z" fill="#f58518"/><path aria-label="hour_bucket: 11; mean: 3.83354350567; type: male" role="graphics-symbol" aria-roledescription="bar" d="M172.5,121.19683595093429h5v278.8031640490657h-5Z" fill="#f58518"/><path aria-label="hour_bucket: 12; mean: 3.8499369483; type: male" role="graphics-symbol" aria-roledescription="bar" d="M197.5,120.00458557835607h5v279.99541442164394h-5Z" fill="#f58518"/><path aria-label="hour_bucket: 13; mean: 3.60151324086; type: male" role="graphics-symbol" aria-roledescription="bar" d="M222.5,138.0717643012725h5v261.92823569872746h-5Z" fill="#f58518"/><path aria-label="hour_bucket: 14; mean: 3.60075566751; type: male" role="graphics-symbol" aria-roledescription="bar" d="M247.5,138.12686054499656h5v261.8731394550034h-5Z" fill="#f58518"/><path aria-label="hour_bucket: 15; mean: 3.6368221942; type: male" role="graphics-symbol" aria-roledescription="bar" d="M272.5,135.50384042187324h5v264.49615957812676h-5Z" fill="#f58518"/><path aria-label="hour_bucket: 16; mean: 3.66576086957; type: male" role="graphics-symbol" aria-roledescription="bar" d="M297.5,133.399209486166h5v266.600790513834h-5Z" fill="#f58518"/><path aria-label="hour_bucket: 17; mean: 2.60688405797; type: male" role="graphics-symbol" aria-roledescription="bar" d="M322.5,210.4084321475626h5v189.5915678524374h-5Z" fill="#f58518"/><path aria-label="hour_bucket: 18; mean: 1.5486935867; type: male" role="graphics-symbol" aria-roledescription="bar" d="M347.5,287.36773914921184h5v112.63226085078816h-5Z" fill="#f58518"/><path aria-label="hour_bucket: 5; mean: 0.549107142857; type: female" role="graphics-symbol" aria-roledescription="bar" d="M22.5,216.5584415584416h5v39.93506493506487h-5Z" fill="#4c78a8"/><path aria-label="hour_bucket: 6; mean: 1.28486646884; type: female" role="graphics-symbol" aria-roledescription="bar" d="M47.5,33.12651739951438h5v93.44483409765317h-5Z" fill="#4c78a8"/><path aria-label="hour_bucket: 7; mean: 0.904081632653; type: female" role="graphics-symbol" aria-roledescription="bar" d="M72.5,93.8033395176252h5v65.75139146567719h-5Z" fill="#4c78a8"/><path aria-label="hour_bucket: 8; mean: 0.975773889637; type: female" role="graphics-symbol" aria-roledescription="bar" d="M97.5,44.292181573473634h5v70.96537379175336h-5Z" fill="#4c78a8"/><path aria-label="hour_bucket: 9; mean: 1.10275689223; type: female" role="graphics-symbol" aria-roledescription="bar" d="M122.5,19.047619047619115h5v80.20050125313278h-5Z" fill="#4c78a8"/><path aria-label="hour_bucket: 10; mean: 0.97604035309; type: female" role="graphics-symbol" aria-roledescription="bar" d="M147.5,36.08850166227211h5v70.98475295196609h-5Z" fill="#4c78a8"/><path aria-label="hour_bucket: 11; mean: 0.958385876419; type: female" role="graphics-symbol" aria-roledescription="bar" d="M172.5,51.496044938667886h5v69.7007910122664h-5Z" fill="#4c78a8"/><path aria-label="hour_bucket: 12; mean: 0.959646910467; type: female" role="graphics-symbol" aria-roledescription="bar" d="M197.5,50.21208299896824h5v69.79250257938783h-5Z" fill="#4c78a8"/><path aria-label="hour_bucket: 13; mean: 0.958385876419; type: female" role="graphics-symbol" aria-roledescription="bar" d="M222.5,68.3709732890061h5v69.70079101226641h-5Z" fill="#4c78a8"/><path aria-label="hour_bucket: 14; mean: 1.00629722922; type: female" role="graphics-symbol" aria-roledescription="bar" d="M247.5,64.94160751087703h5v73.18525303411953h-5Z" fill="#4c78a8"/><path aria-label="hour_bucket: 15; mean: 1.10844892812; type: female" role="graphics-symbol" aria-roledescription="bar" d="M272.5,54.88937292215983h5v80.61446749971341h-5Z" fill="#4c78a8"/><path aria-label="hour_bucket: 16; mean: 1.03125; type: female" role="graphics-symbol" aria-roledescription="bar" d="M297.5,58.39920948616606h5v74.99999999999994h-5Z" fill="#4c78a8"/><path aria-label="hour_bucket: 17; mean: 0.851449275362; type: female" role="graphics-symbol" aria-roledescription="bar" d="M322.5,148.4848484848485h5v61.923583662714094h-5Z" fill="#4c78a8"/><path aria-label="hour_bucket: 18; mean: 0.482185273159; type: female" role="graphics-symbol" aria-roledescription="bar" d="M347.5,252.2997192830922h5v35.06801986611964h-5Z" fill="#4c78a8"/></g><g class="mark-group role-legend" role="graphics-symbol" aria-roledescription="legend" aria-label="Symbol legend titled 'type' for fill color with 2 values: female, male"><g transform="translate(418,0)"><path class="background" aria-hidden="true" d="M0,0h47v40h-47Z" pointer-events="none"/><g><g class="mark-group role-legend-entry"><g transform="translate(0,16)"><path class="background" aria-hidden="true" d="M0,0h0v0h0Z" pointer-events="none"/><g><g class="mark-group role-scope" role="graphics-object" aria-roledescription="group mark container"><g transform="translate(0,0)"><path class="background" aria-hidden="true" d="M0,0h46.0146484375v11h-46.0146484375Z" pointer-events="none" opacity="1"/><g><g class="mark-symbol role-legend-symbol" pointer-events="none"><path transform="translate(6,6)" d="M-5,-5h10v10h-10Z" fill="#4c78a8" stroke-width="1.5" opacity="1"/></g><g class="mark-text role-legend-label" pointer-events="none"><text text-anchor="start" transform="translate(16,9)" font-family="sans-serif" font-size="10px" fill="#000" opacity="1">female</text></g></g><path class="foreground" aria-hidden="true" d="" pointer-events="none" display="none"/></g><g transform="translate(0,13)"><path class="background" aria-hidden="true" d="M0,0h46.0146484375v11h-46.0146484375Z" pointer-events="none" opacity="1"/><g><g class="mark-symbol role-legend-symbol" pointer-events="none"><path transform="translate(6,6)" d="M-5,-5h10v10h-10Z" fill="#f58518" stroke-width="1.5" opacity="1"/></g><g class="mark-text role-legend-label" pointer-events="none"><text text-anchor="start" transform="translate(16,9)" font-family="sans-serif" font-size="10px" fill="#000" opacity="1">male</text></g></g><path class="foreground" aria-hidden="true" d="" pointer-events="none" display="none"/></g></g></g><path class="foreground" aria-hidden="true" d="" pointer-events="none" display="none"/></g></g><g class="mark-text role-legend-title" pointer-events="none"><text text-anchor="start" transform="translate(0,9)" font-family="sans-serif" font-size="11px" font-weight="bold" fill="#000" opacity="1">type</text></g></g><path class="foreground" aria-hidden="true" d="" pointer-events="none" display="none"/></g></g></g><path class="foreground" aria-hidden="true" d="" display="none"/></g></g></g></svg>