<svg xmlns="http://www.w3.org/2000/svg" xmlns:xlink="http://www.w3.org/1999/xlink" version="1.1" class="marks" width="511" height="447" viewBox="0 0 511 447"><rect width="511" height="447" fill="white"/><g fill="none" stroke-miterlimit="10" transform="translate(41,10)"><g class="mark-group role-frame root" role="graphics-object" aria-roledescription="group mark container"><g transform="translate(0,0)"><path class="background" aria-hidden="true" d="M0.5,0.5h400v400h-400Z" stroke="#ddd"/><g><g class="mark-group role-axis" aria-hidden="true"><g transform="translate(0.5,400.5)"><path class="background" aria-hidden="true" d="M0,0h0v0h0Z" pointer-events="none"/><g><g class="mark-rule role-axis-grid" pointer-events="none"><line transform="translate(0,-400)" x2="0" y2="400" stroke="#ddd" stroke-width="1" opacity="1"/><line transform="translate(50,-400)" x2="0" y2="400" stroke="#ddd" stroke-width="1" opacity="1"/><line transform="translate(100,-400)" x2="0" y2="400" stroke="#ddd" stroke-width="1" opacity="1"/><line transform="translate(150,-400)" x2="0" y2="400" stroke="#ddd" stroke-width="1" opacity="1"/><line transform="translate(200,-400)" x2="0" y2="400" stroke="#ddd" stroke-width="1" opacity="1"/><line transform="translate(250,-400)" x2="0" y2="400" stroke="#ddd" stroke-width="1" opacity="1"/><line transform="translate(300,-400)" x2="0" y2="400" stroke="#ddd" stroke-width="1" opacity="1"/><line transform="translate(350,-400)" x2="0" y2="400" stroke="#ddd" stroke-width="1" opacity="1"/><line transform="translate(400,-400)" x2="0" y2="400" stroke="#ddd" stroke-width="1" opacity="1"/></g></g><path class="foreground" aria-hidden="true" d="" pointer-events="none" display="none"/></g></g><g class="mark-group role-axis" aria-hidden="true"><g transform="translate(0.5,0.5)"><path class="background" aria-hidden="true" d="M0,0h0v0h0Z" pointer-events="none"/><g><g class="mark-rule role-axis-grid" pointer-events="none"><line transform="translate(0,400)" x2="400" y2="0" stroke="#ddd" stroke-width="1" opacity="1"/><line transform="translate(0,364)" x2="400" y2="0" stroke="#ddd" stroke-width="1" opacity="1"/><line transform="translate(0,327)" x2="400" y2="0" stroke="#ddd" stroke-width="1" opacity="1"/><line transform="translate(0,291)" x2="400" y2="0" stroke="#ddd" stroke-width="1" opacity="1"/><line transform="translate(0,255)" x2="400" y2="0" stroke="#ddd" stroke-width="1" opacity="1"/><line transform="translate(0,218)" x2="400" y2="0" stroke="#ddd" stroke-width="1" opacity="1"/><line transform="translate(0,182)" x2="400" y2="0" stroke="#ddd" stroke-width="1" opacity="1"/><line transform="translate(0,145)" x2="400" y2="0" stroke="#ddd" stroke-width="1" opacity="1"/><line transform="translate(0,109)" x2="400" y2="0" stroke="#ddd" stroke-width="1" opacity="1"/><line transform="translate(0,73)" x2="400" y2="0" stroke="#ddd" stroke-width="1" opacity="1"/><line transform="translate(0,36)" x2="400" y2="0" stroke="#ddd" stroke-width="1" opacity="1"/><line transform="translate(0,0)" x2="400" y2="0" stroke="#ddd" stroke-width="1" opacity="1"/></g></g><path class="foreground" aria-hidden="true" d="" pointer-events="none" display="none"/></g></g><g class="mark-group role-axis" role="graphics-symbol" aria-roledescription="axis" aria-label="X-axis titled 'hour_bucket' for a linear scale with values from 4 to 20"><g transform="translate(0.5,400.5)"><path class="background" aria-hidden="true" d="M0,0h0v0h0Z" pointer-events="none"/><g><g class="mark-rule role-axis-tick" pointer-events="none"><line transform="translate(0,0)" x2="0" y2="5" stroke="#888" stroke-width="1" opacity="1"/><line transform="translate(50,0)" x2="0" y2="5" stroke="#888" stroke-width="1" opacity="1"/><line transform="translate(100,0)" x2="0" y2="5" stroke="#888" stroke-width="1" opacity="1"/><line transform="translate(150,0)" x2="0" y2="5" stroke="#888" stroke-width="1" opacity="1"/><line transform="translate(200,0)" x2="0" y2="5" stroke="#888" stroke-width="1" opacity="1"/><line transform="translate(250,0)" x2="0" y2="5" stroke="#888" stroke-width="1" opacity="1"/><line transform="translate(300,0)" x2="0" y2="5" stroke="#888" stroke-width="1" opacity="1"/><line transform="translate(350,0)" x2="0" y2="5" stroke="#888" stroke-width="1" opacity="1"/><line transform="translate(400,0)" x2="0" y2="5" stroke="#888" stroke-width="1" opacity="1"/></g><g class="mark-text role-axis-label" pointer-events="none"><text text-anchor="start" transform="translate(0,15)" font-family="sans-serif" font-size="10px" fill="#000" opacity="1">4</text><text text-anchor="middle" transform="translate(50,15)" font-family="sans-serif" font-size="10px" fill="#000" opacity="1">6</text><text text-anchor="middle" transform="translate(100,15)" font-family="sans-serif" font-size="10px" fill="#000" opacity="1">8</text><text text-anchor="middle" transform="translate(150,15)" font-family="sans-serif" font-size="10px" fill="#000" opacity="1">10</text><text text-anchor="middle" transform="translate(200,15)" font-family="sans-serif" font-size="10px" fill="#000" opacity="1">12</text><text text-anchor="middle" transform="translate(250,15)" font-family="sans-serif" font-size="10px" fill="#000" opacity="1">14</text><text text-anchor="middle" transform="translate(300,15)" font-family="sans-serif" font-size="10px" fill="#000" opacity="1">16</text><text text-anchor="middle" transform="translate(350,15)" font-family="sans-serif" font-size="10px" fill="#000" opacity="1">18</text><text text-anchor="end" transform="translate(400,15)" font-family="sans-serif" font-size="10px" fill="#000" opacity="1">20</text></g><g class="mark-rule role-axis-domain" pointer-events="none"><line transform="translate(0,0)" x2="400" y2="0" stroke="#888" stroke-width="1" opacity="1"/></g><g class="mark-text role-axis-title" pointer-events="none"><text text-anchor="middle" transform="translate(200,30)" font-family="sans-serif" font-size="11px" font-weight="bold" fill="#000" opacity="1">hour_bucket</text></g></g><path class="foreground" aria-hidden="true" d="" pointer-events="none" display="none"/></g></g><g class="mark-group role-axis" role="graphics-symbol" aria-roledescription="axis" aria-label="Y-axis titled 'mean' for a linear scale with values from 0 to 6"><g transform="translate(0.5,0.5)"><path class="background" aria-hidden="true" d="M0,0h0v0h0Z" pointer-events="none"/><g><g class="mark-rule role-axis-tick" pointer-events="none"><line transform="translate(0,400)" x2="-5" y2="0" stroke="#888" stroke-width="1" opacity="1"/><line transform="translate(0,364)" x2="-5" y2="0" stroke="#888" stroke-width="1" opacity="1"/><line transform="translate(0,327)" x2="-5" y2="0" stroke="#888" stroke-width="1" opacity="1"/><line transform="translate(0,291)" x2="-5" y2="0" stroke="#888" stroke-width="1" opacity="1"/><line transform="translate(0,255)" x2="-5" y2="0" stroke="#888" stroke-width="1" opacity="1"/><line transform="translate(0,218)" x2="-5" y2="0" stroke="#888" stroke-width="1" opacity="1"/><line transform="translate(0,182)" x2="-5" y2="0" stroke="#888" stroke-width="1" opacity="1"/><line transform="translate(0,145)" x2="-5" y2="0" stroke="#888" stroke-width="1" opacity="1"/><line transform="translate(0,109)" x2="-5" y2="0" stroke="#888" stroke-width="1" opacity="1"/><line transform="translate(0,73)" x2="-5" y2="0" stroke="#888" stroke-width="1" opacity="1"/><line transform="translate(0,36)" x2="-5" y2="0" stroke="#888" stroke-width="1" opacity="1"/><line transform="translate(0,0)" x2="-5" y2="0" stroke="#888" stroke-width="1" opacity="1"/></g><g class="mark-text role-axis-label" pointer-events="none"><text text-anchor="end" transform="translate(-7,403)" font-family="sans-serif" font-size="10px" fill="#000" opacity="1">0.0</text><text text-anchor="end" transform="translate(-7,366.6363636363636)" font-family="sans-serif" font-size="10px" fill="#000" opacity="1">0.5</text><text text-anchor="end" transform="translate(-7,330.27272727272725)" font-family="sans-serif" font-size="10px" fill="#000" opacity="1">1.0</text><text text-anchor="end" transform="translate(-7,293.90909090909093)" font-family="sans-serif" font-size="10px" fill="#000" opacity="1">1.5</text><text text-anchor="end" transform="translate(-7,257.5454545454545)" font-family="sans-serif" font-size="10px" fill="#000" opacity="1">2.0</text><text text-anchor="end" transform="translate(-7,221.18181818181816)" font-family="sans-serif" font-size="10px" fill="#000" opacity="1">2.5</text><text text-anchor="end" transform="translate(-7,184.81818181818184)" font-family="sans-serif" font-size="10px" fill="#000" opacity="1">3.0</text><text text-anchor="end" transform="translate(-7,148.45454545454547)" font-family="sans-serif" font-size="10px" fill="#000" opacity="1">3.5</text><text text-anchor="end" transform="translate(-7,112.09090909090908)" font-family="sans-serif" font-size="10px" fill="#000" opacity="1">4.0</text><text text-anchor="end" transform="translate(-7,75.7272727272727)" font-family="sans-serif" font-size="10px" fill="#000" opacity="1">4.5</text><text text-anchor="end" transform="translate(-7,39.363636363636374)" font-family="sans-serif" font-size="10px" fill="#000" opacity="1">5.0</text><text text-anchor="end" transform="translate(-7,3)" font-family="sans-serif" font-size="10px" fill="#000" opacity="1">5.5</text></g><g class="mark-rule role-axis-domain" pointer-events="none"><line transform="translate(0,400)" x2="0" y2="-400" stroke="#888" stroke-width="1" opacity="1"/></g><g class="mark-text role-axis-title" pointer-events="none"><text text-anchor="middle" transform="translate(-24.9013671875,200) rotate(-90) translate(0,-2)" font-family="sans-serif" font-size="11px" font-weight="bold" fill="#000" opacity="1">mean</text></g></g><path class="foreground" aria-hidden="true" d="" pointer-events="none" display="none"/></g></g><g class="mark-rect role-mark marks" role="graphics-object" aria-roledescription="rect mark container"><path aria-label="hour_bucket: 5; mean: 1.97790055249; type: male" role="graphics-symbol" aria-roledescription="bar" d="M22.5,256.1526870919136h5v143.8473129080864h-5Z" fill="#f58518"/><path aria-label="hour_bucket: 6; mean: 3.79422382671; type: male" role="graphics-symbol" aria-roledescription="bar" d="M47.5,124.05644896619626h5v275.9435510338037h-5Z" fill="#f58518"/><path aria-label="hour_bucket: 7; mean: 3.33248730964; type: male" role="graphics-symbol" aria-roledescription="bar" d="M72.5,157.63728657129673h5v242.36271342870327h-5Z" fill="#f58518"/><path aria-label="hour_bucket: 8; mean: 4.21348314607; type: male" role="graphics-symbol" aria-roledescription="bar" d="M97.5,93.56486210418792h5v306.4351378958121h-5Z" fill="#f58518"/><path aria-label="hour_bucket: 9; mean: 4.16808149406; type: male" role="graphics-symbol" aria-roledescription="bar" d="M122.5,96.86680043216542h5v303.1331995678346h-5Z" fill="#f58518"/><path aria-label="hour_bucket: 10; mean: 4.02054794521; type: male" role="graphics-symbol" aria-roledescription="bar" d="M147.5,107.59651307596512h5v292.4034869240349h-5Z" fill="#f58518"/><path aria-label="hour_bucket: 11; mean: 3.78595890411; type: male" role="graphics-symbol" aria-roledescription="bar" d="M172.5,124.65753424657535h5v275.3424657534247h-5Z" fill="#f58518"/><path aria-label="hour_bucket: 12; mean: 3.87671232877; type: male" role="graphics-symbol" aria-roledescription="bar" d="M197.5,118.05728518057283h5v281.9427148194272h-5Z" fill="#f58518"/><path aria-label="hour_bucket: 13; mean: 3.64554794521; type: male" role="graphics-symbol" aria-roledescription="bar" d="M222.5,134.86924034869241h5v265.1307596513076h-5Z" fill="#f58518"/><path aria-label="hour_bucket: 14; mean: 3.71452991453; type: male" role="graphics-symbol" aria-roledescription="bar" d="M247.5,129.85236985236983h5v270.14763014763014h-5Z" fill="#f58518"/><path aria-label="hour_bucket: 15; mean: 3.66095890411; type: male" role="graphics-symbol" aria-roledescription="bar" d="M272.5,133.74844333748445h5v266.25155666251555h-5Z" fill="#f58518"/><path aria-label="hour_bucket: 16; mean: 3.94128787879; type: male" role="graphics-symbol" aria-roledescription="bar" d="M297.5,113.36088154269972h5v286.6391184573003h-5Z" fill="#f58518"/><path aria-label="hour_bucket: 17; mean: 2.82701421801; type: male" role="graphics-symbol" aria-roledescription="bar" d="M322.5,194.398965962947h5v205.601034037053h-5Z" fill="#f58518"/><path aria-label="hour_bucket: 18; mean: 1.56695156695; type: male" role="graphics-symbol" aria-roledescription="bar" d="M347.5,286.0398860398861h5v113.96011396011392h-5Z" fill="#f58518"/><path aria-label="hour_bucket: 5; mean: 0.635359116022; type: female" role="graphics-symbol" aria-roledescription="bar" d="M22.5,209.9447513812155h5v46.20793571069811h-5Z" fill="#4c78a8"/><path aria-label="hour_bucket: 6; mean: 1.25270758123; type: female" role="graphics-symbol" aria-roledescription="bar" d="M47.5,32.95044305874626h5v91.10600590745h-5Z" fill="#4c78a8"/><path aria-label="hour_bucket: 7; mean: 0.926395939086; type: female" role="graphics-symbol" aria-roledescription="bar" d="M72.5,90.2630364559299h5v67.37425011536682h-5Z" fill="#4c78a8"/><path aria-label="hour_bucket: 8; mean: 1.11423220974; type: female" role="graphics-symbol" aria-roledescription="bar" d="M97.5,12.529792305073206h5v81.03506979911472h-5Z" fill="#4c78a8"/><path aria-label="hour_bucket: 9; mean: 1.15789473684; type: female" role="graphics-symbol" aria-roledescription="bar" d="M122.5,12.656274116375954h5v84.21052631578947h-5Z" fill="#4c78a8"/><path aria-label="hour_bucket: 10; mean: 1.02568493151; type: female" role="graphics-symbol" aria-roledescription="bar" d="M147.5,33.00124533001241h5v74.59526774595271h-5Z" fill="#4c78a8"/><path aria-label="hour_bucket: 11; mean: 0.982876712329; type: female" role="graphics-symbol" aria-roledescription="bar" d="M172.5,53.17559153175595h5v71.48194271481941h-5Z" fill="#4c78a8"/><path aria-label="hour_bucket: 12; mean: 1.0102739726; type: female" role="graphics-symbol" aria-roledescription="bar" d="M197.5,44.58281444582819h5v73.47447073474464h-5Z" fill="#4c78a8"/><path aria-label="hour_bucket: 13; mean: 0.98801369863; type: female" role="graphics-symbol" aria-roledescription="bar" d="M222.5,63.013698630137014h5v71.8555417185554h-5Z" fill="#4c78a8"/><path aria-label="hour_bucket: 14; mean: 1.09743589744; type: female" role="graphics-symbol" aria-roledescription="bar" d="M247.5,50.03885003885h5v79.81351981351983h-5Z" fill="#4c78a8"/><path aria-label="hour_bucket: 15; mean: 1.19520547945; type: female" role="graphics-symbol" aria-roledescription="bar" d="M272.5,46.824408468244094h5v86.92403486924036h-5Z" fill="#4c78a8"/><path aria-label="hour_bucket: 16; mean: 1.14962121212; type: female" role="graphics-symbol" aria-roledescription="bar" d="M297.5,29.75206611570247h5v83.60881542699724h-5Z" fill="#4c78a8"/><path aria-label="hour_bucket: 17; mean: 0.950236966825; type: female" role="graphics-symbol" aria-roledescription="bar" d="M322.5,125.29082292115467h5v69.10814304179232h-5Z" fill="#4c78a8"/><path aria-label="hour_bucket: 18; mean: 0.504273504274; type: female" role="graphics-symbol" aria-roledescription="bar" d="M347.5,249.36544936544936h5v36.67443667443672h-5Z" fill="#4c78a8"/></g><g class="mark-group role-legend" role="graphics-symbol" aria-roledescription="legend" aria-label="Symbol legend titled 'type' for fill color with 2 values: female, male"><g transform="translate(418,0)"><path class="background" aria-hidden="true" d="M0,0h47v40h-47Z" pointer-events="none"/><g><g class="mark-group role-legend-entry"><g transform="translate(0,16)"><path class="background" aria-hidden="true" d="M0,0h0v0h0Z" pointer-events="none"/><g><g class="mark-group role-scope" role="graphics-object" aria-roledescription="group mark container"><g transform="translate(0,0)"><path class="background" aria-hidden="true" d="M0,0h46.0146484375v11h-46.0146484375Z" pointer-events="none" opacity="1"/><g><g class="mark-symbol role-legend-symbol" pointer-events="none"><path transform="translate(6,6)" d="M-5,-5h10v10h-10Z" fill="#4c78a8" stroke-width="1.5" opacity="1"/></g><g class="mark-text role-legend-label" pointer-events="none"><text text-anchor="start" transform="translate(16,9)" font-family="sans-serif" font-size="10px" fill="#000" opacity="1">female</text></g></g><path class="foreground" aria-hidden="true" d="" pointer-events="none" display="none"/></g><g transform="translate(0,13)"><path class="background" aria-hidden="true" d="M0,0h46.0146484375v11h-46.0146484375Z" pointer-events="none" opacity="1"/><g><g class="mark-symbol role-legend-symbol" pointer-events="none"><path transform="translate(6,6)" d="M-5,-5h10v10h-10Z" fill="#f58518" stroke-width="1.5" opacity="1"/></g><g class="mark-text role-legend-label" pointer-events="none"><text text-anchor="start" transform="translate(16,9)" font-family="sans-serif" font-size="10px" fill="#000" opacity="1">male</text></g></g><path class="foreground" aria-hidden="true" d="" pointer-events="none" display="none"/></g></g></g><path class="foreground" aria-hidden="true" d="" pointer-events="none" display="none"/></g></g><g class="mark-text role-legend-title" pointer-events="none"><text text-anchor="start" transform="translate(0,9)" font-family="sans-serif" font-size="11px" font-weight="bold" fill="#000" opacity="1">type</text></g></g><path class="foreground" aria-hidden="true" d="" pointer-events="none" display="none"/></g></g></g><path class="foreground" aria-hidden="true" d="" display="none"/></g></g></g></svg>