<svg xmlns="http://www.w3.org/2000/svg" xmlns:xlink="http://www.w3.org/1999/xlink" version="1.1" class="marks" width="511" height="447" viewBox="0 0 511 447"><rect width="511" height="447" fill="white"/><g fill="none" stroke-miterlimit="10" transform="translate(41,10)"><g class="mark-group role-frame root" role="graphics-object" aria-roledescription="group mark container"><g transform="translate(0,0)"><path class="background" aria-hidden="true" d="M0.5,0.5h400v400h-400Z" stroke="#ddd"/><g><g class="mark-group role-axis" aria-hidden="true"><g transform="translate(0.5,400.5)"><path class="background" aria-hidden="true" d="M0,0h0v0h0Z" pointer-events="none"/><g><g class="mark-rule role-axis-grid" pointer-events="none"><line transform="translate(0,-400)" x2="0" y2="400" stroke="#ddd" stroke-width="1" opacity="1"/><line transform="translate(50,-400)" x2="0" y2="400" stroke="#ddd" stroke-width="1" opacity="1"/><line transform="translate(100,-400)" x2="0" y2="400" stroke="#ddd" stroke-width="1" opacity="1"/><line transform="translate(150,-400)" x2="0" y2="400" stroke="#ddd" stroke-width="1" opacity="1"/><line transform="translate(200,-400)" x2="0" y2="400" stroke="#ddd" stroke-width="1" opacity="1"/><line transform="translate(250,-400)" x2="0" y2="400" stroke="#ddd" stroke-width="1" opacity="1"/><line transform="translate(300,-400)" x2="0" y2="400" stroke="#ddd" stroke-width="1" opacity="1"/><line transform="translate(350,-400)" x2="0" y2="400" stroke="#ddd" stroke-width="1" opacity="1"/><line transform="translate(400,-400)" x2="0" y2="400" stroke="#ddd" stroke-width="1" opacity="1"/></g></g><path class="foreground" aria-hidden="true" d="" pointer-events="none" display="none"/></g></g><g class="mark-group role-axis" aria-hidden="true"><g transform="translate(0.5,0.5)"><path class="background" aria-hidden="true" d="M0,0h0v0h0Z" pointer-events="none"/><g><g class="mark-rule role-axis-grid" pointer-events="none"><line transform="translate(0,400)" x2="400" y2="0" stroke="#ddd" stroke-width="1" opacity="1"/><line transform="translate(0,367)" x2="400" y2="0" stroke="#ddd" stroke-width="1" opacity="1"/><line transform="translate(0,333)" x2="400" y2="0" stroke="#ddd" stroke-width="1" opacity="1"/><line transform="translate(0,300)" x2="400" y2="0" stroke="#ddd" stroke-width="1" opacity="1"/><line transform="translate(0,267)" x2="400" y2="0" stroke="#ddd" stroke-width="1" opacity="1"/><line transform="translate(0,233)" x2="400" y2="0" stroke="#ddd" stroke-width="1" opacity="1"/><line transform="translate(0,200)" x2="400" y2="0" stroke="#ddd" stroke-width="1" opacity="1"/><line transform="translate(0,167)" x2="400" y2="0" stroke="#ddd" stroke-width="1" opacity="1"/><line transform="translate(0,133)" x2="400" y2="0" stroke="#ddd" stroke-width="1" opacity="1"/><line transform="translate(0,100)" x2="400" y2="0" stroke="#ddd" stroke-width="1" opacity="1"/><line transform="translate(0,67)" x2="400" y2="0" stroke="#ddd" stroke-width="1" opacity="1"/><line transform="translate(0,33)" x2="400" y2="0" stroke="#ddd" stroke-width="1" opacity="1"/><line transform="translate(0,0)" x2="400" y2="0" stroke="#ddd" stroke-width="1" opacity="1"/></g></g><path class="foreground" aria-hidden="true" d="" pointer-events="none" display="none"/></g></g><g class="mark-group role-axis" role="graphics-symbol" aria-roledescription="axis" aria-label="X-axis titled 'hour_bucket' for a linear scale with values from 4 to 20"><g transform="translate(0.5,400.5)"><path class="background" aria-hidden="true" d="M0,0h0v0h0Z" pointer-events="none"/><g><g class="mark-rule role-axis-tick" pointer-events="none"><line transform="translate(0,0)" x2="0" y2="5" stroke="#888" stroke-width="1" opacity="1"/><line transform="translate(50,0)" x2="0" y2="5" stroke="#888" stroke-width="1" opacity="1"/><line transform="translate(100,0)" x2="0" y2="5" stroke="#888" stroke-width="1" opacity="1"/><line transform="translate(150,0)" x2="0" y2="5" stroke="#888" stroke-width="1" opacity="1"/><line transform="translate(200,0)" x2="0" y2="5" stroke="#888" stroke-width="1" opacity="1"/><line transform="translate(250,0)" x2="0" y2="5" stroke="#888" stroke-width="1" opacity="1"/><line transform="translate(300,0)" x2="0" y2="5" stroke="#888" stroke-width="1" opacity="1"/><line transform="translate(350,0)" x2="0" y2="5" stroke="#888" stroke-width="1" opacity="1"/><line transform="translate(400,0)" x2="0" y2="5" stroke="#888" stroke-width="1" opacity="1"/></g><g class="mark-text role-axis-label" pointer-events="none"><text text-anchor="start" transform="translate(0,15)" font-family="sans-serif" font-size="10px" fill="#000" opacity="1">4</text><text text-anchor="middle" transform="translate(50,15)" font-family="sans-serif" font-size="10px" fill="#000" opacity="1">6</text><text text-anchor="middle" transform="translate(100,15)" font-family="sans-serif" font-size="10px" fill="#000" opacity="1">8</text><text text-anchor="middle" transform="translate(150,15)" font-family="sans-serif" font-size="10px" fill="#000" opacity="1">10</text><text text-anchor="middle" transform="translate(200,15)" font-family="sans-serif" font-size="10px" fill="#000" opacity="1">12</text><text text-anchor="middle" transform="translate(250,15)" font-family="sans-serif" font-size="10px" fill="#000" opacity="1">14</text><text text-anchor="middle" transform="translate(300,15)" font-family="sans-serif" font-size="10px" fill="#000" opacity="1">16</text><text text-anchor="middle" transform="translate(350,15)" font-family="sans-serif" font-size="10px" fill="#000" opacity="1">18</text><text text-anchor="end" transform="translate(400,15)" font-family="sans-serif" font-size="10px" fill="#000" opacity="1">20</text></g><g class="mark-rule role-axis-domain" pointer-events="none"><line transform="translate(0,0)" x2="400" y2="0" stroke="#888" stroke-width="1" opacity="1"/></g><g class="mark-text role-axis-title" pointer-events="none"><text text-anchor="middle" transform="translate(200,30)" font-family="sans-serif" font-size="11px" font-weight="bold" fill="#000" opacity="1">hour_bucket</text></g></g><path class="foreground" aria-hidden="true" d="" pointer-events="none" display="none"/></g></g><g class="mark-group role-axis" role="graphics-symbol" aria-roledescription="axis" aria-label="Y-axis titled 'mean' for a linear scale with values from 0 to 6"><g transform="translate(0.5,0.5)"><path class="background" aria-hidden="true" d="M0,0h0v0h0Z" pointer-events="none"/><g><g class="mark-rule role-axis-tick" pointer-events="none"><line transform="translate(0,400)" x2="-5" y2="0" stroke="#888" stroke-width="1" opacity="1"/><line transform="translate(0,367)" x2="-5" y2="0" stroke="#888" stroke-width="1" opacity="1"/><line transform="translate(0,333)" x2="-5" y2="0" stroke="#888" stroke-width="1" opacity="1"/><line transform="translate(0,300)" x2="-5" y2="0" stroke="#888" stroke-width="1" opacity="1"/><line transform="translate(0,267)" x2="-5" y2="0" stroke="#888" stroke-width="1" opacity="1"/><line transform="translate(0,233)" x2="-5" y2="0" stroke="#888" stroke-width="1" opacity="1"/><line transform="translate(0,200)" x2="-5" y2="0" stroke="#888" stroke-width="1" opacity="1"/><line transform="translate(0,167)" x2="-5" y2="0" stroke="#888" stroke-width="1" opacity="1"/><line transform="translate(0,133)" x2="-5" y2="0" stroke="#888" stroke-width="1" opacity="1"/><line transform="translate(0,100)" x2="-5" y2="0" stroke="#888" stroke-width="1" opacity="1"/><line transform="translate(0,67)" x2="-5" y2="0" stroke="#888" stroke-width="1" opacity="1"/><line transform="translate(0,33)" x2="-5" y2="0" stroke="#888" stroke-width="1" opacity="1"/><line transform="translate(0,0)" x2="-5" y2="0" stroke="#888" stroke-width="1" opacity="1"/></g><g class="mark-text role-axis-label" pointer-events="none"><text text-anchor="end" transform="translate(-7,403)" font-family="sans-serif" font-size="10px" fill="#000" opacity="1">0.0</text><text text-anchor="end" transform="translate(-7,369.66666666666663)" font-family="sans-serif" font-size="10px" fill="#000" opacity="1">0.5</text><text text-anchor="end" transform="translate(-7,336.33333333333337)" font-family="sans-serif" font-size="10px" fill="#000" opacity="1">1.0</text><text text-anchor="end" transform="translate(-7,303)" font-family="sans-serif" font-size="10px" fill="#000" opacity="1">1.5</text><text text-anchor="end" transform="translate(-7,269.6666666666667)" font-family="sans-serif" font-size="10px" fill="#000" opacity="1">2.0</text><text text-anchor="end" transform="translate(-7,236.33333333333331)" font-family="sans-serif" font-size="10px" fill="#000" opacity="1">2.5</text><text text-anchor="end" transform="translate(-7,203)" font-family="sans-serif" font-size="10px" fill="#000" opacity="1">3.0</text><text text-anchor="end" transform="translate(-7,169.66666666666666)" font-family="sans-serif" font-size="10px" fill="#000" opacity="1">3.5</text><text text-anchor="end" transform="translate(-7,136.33333333333334)" font-family="sans-serif" font-size="10px" fill="#000" opacity="1">4.0</text><text text-anchor="end" transform="translate(-7,103)" font-family="sans-serif" font-size="10px" fill="#000" opacity="1">4.5</text><text text-anchor="end" transform="translate(-7,69.66666666666666)" font-family="sans-serif" font-size="10px" fill="#000" opacity="1">5.0</text><text text-anchor="end" transform="translate(-7,36.33333333333335)" font-family="sans-serif" font-size="10px" fill="#000" opacity="1">5.5</text><text text-anchor="end" transform="translate(-7,3)" font-family="sans-serif" font-size="10px" fill="#000" opacity="1">6.0</text></g><g class="mark-rule role-axis-domain" pointer-events="none"><line transform="translate(0,400)" x2="0" y2="-400" stroke="#888" stroke-width="1" opacity="1"/></g><g class="mark-text role-axis-title" pointer-events="none"><text text-anchor="middle" transform="translate(-24.9013671875,200) rotate(-90) translate(0,-2)" font-family="sans-serif" font-size="11px" font-weight="bold" fill="#000" opacity="1">mean</text></g></g><path class="foreground" aria-hidden="true" d="" pointer-events="none" display="none"/></g></g><g class="mark-rect role-mark marks" role="graphics-object" aria-roledescription="rect mark container"><path aria-label="hour_bucket: 5; mean: 2.09166666667; type: male" role="graphics-symbol" aria-roledescription="bar" d="M22.5,260.55555555555554h5v139.44444444444446h-5Z" fill="#f58518"/><path aria-label="hour_bucket: 6; mean: 4.07407407407; type: male" role="graphics-symbol" aria-roledescription="bar" d="M47.5,128.39506172839506h5v271.60493827160496h-5Z" fill="#f58518"/><path aria-label="hour_bucket: 7; mean: 3.52287581699; type: male" role="graphics-symbol" aria-roledescription="bar" d="M72.5,165.14161220043576h5v234.85838779956424h-5Z" fill="#f58518"/><path aria-label="hour_bucket: 8; mean: 4.31735159817; type: male" role="graphics-symbol" aria-roledescription="bar" d="M97.5,112.17656012176565h5v287.82343987823435h-5Z" fill="#f58518"/><path aria-label="hour_bucket: 9; mean: 4.33265720081; type: male" role="graphics-symbol" aria-roledescription="bar" d="M122.5,111.1561866125761h5v288.8438133874239h-5Z" fill="#f58518"/><path aria-label="hour_bucket: 10; mean: 4.07991803279; type: male" role="graphics-symbol" aria-roledescription="bar" d="M147.5,128.0054644808743h5v271.9945355191257h-5Z" fill="#f58518"/><path aria-label="hour_bucket: 11; mean: 3.88524590164; type: male" role="graphics-symbol" aria-roledescription="bar" d="M172.5,140.98360655737702h5v259.016393442623h-5Z" fill="#f58518"/><path aria-label="hour_bucket: 12; mean: 3.96106557377; type: male" role="graphics-symbol" aria-roledescription="bar" d="M197.5,135.9289617486339h5v264.0710382513661h-5Z" fill="#f58518"/><path aria-label="hour_bucket: 13; mean: 3.625; type: male" role="graphics-symbol" aria-roledescription="bar" d="M222.5,158.33333333333334h5v241.66666666666666h-5Z" fill="#f58518"/><path aria-label="hour_bucket: 14; mean: 3.75664621677; type: male" role="graphics-symbol" aria-roledescription="bar" d="M247.5,149.55691888207227h5v250.44308111792773h-5Z" fill="#f58518"/><path aria-label="hour_bucket: 15; mean: 3.72540983607; type: male" role="graphics-symbol" aria-roledescription="bar" d="M272.5,151.6393442622951h5v248.3606557377049h-5Z" fill="#f58518"/><path aria-label="hour_bucket: 16; mean: 4.14780600462; type: male" role="graphics-symbol" aria-roledescription="bar" d="M297.5,123.47959969207083h5v276.52040030792915h-5Z" fill="#f58518"/><path aria-label="hour_bucket: 17; mean: 2.87202380952; type: male" role="graphics-symbol" aria-roledescription="bar" d="M322.5,208.53174603174605h5v191.46825396825395h-5Z" fill="#f58518"/><path aria-label="hour_bucket: 18; mean: 1.53962264151; type: male" role="graphics-symbol" aria-roledescription="bar" d="M347.5,297.35849056603774h5v102.64150943396226h-5Z" fill="#f58518"/><path aria-label="hour_bucket: 5; mean: 0.591666666667; type: female" role="graphics-symbol" aria-roledescription="bar" d="M22.5,221.11111111111111h5v39.44444444444443h-5Z" fill="#4c78a8"/><path aria-label="hour_bucket: 6; mean: 1.37037037037; type: female" role="graphics-symbol" aria-roledescription="bar" d="M47.5,37.037037037037024h5v91.35802469135804h-5Z" fill="#4c78a8"/><path aria-label="hour_bucket: 7; mean: 0.941176470588; type: female" role="graphics-symbol" aria-roledescription="bar" d="M72.5,102.39651416122003h5v62.74509803921573h-5Z" fill="#4c78a8"/><path aria-label="hour_bucket: 8; mean: 1.16894977169; type: female" role="graphics-symbol" aria-roledescription="bar" d="M97.5,34.2465753424658h5v77.92998477929984h-5Z" fill="#4c78a8"/><path aria-label="hour_bucket: 9; mean: 1.22515212982; type: female" role="graphics-symbol" aria-roledescription="bar" d="M122.5,29.4793779580798h5v81.67680865449628h-5Z" fill="#4c78a8"/><path aria-label="hour_bucket: 10; mean: 1.12909836066; type: female" role="graphics-symbol" aria-roledescription="bar" d="M147.5,52.732240437158495h5v75.27322404371581h-5Z" fill="#4c78a8"/><path aria-label="hour_bucket: 11; mean: 1.0143442623; type: female" role="graphics-symbol" aria-roledescription="bar" d="M172.5,73.36065573770489h5v67.62295081967213h-5Z" fill="#4c78a8"/><path aria-label="hour_bucket: 12; mean: 1.05532786885; type: female" role="graphics-symbol" aria-roledescription="bar" d="M197.5,65.5737704918033h5v70.3551912568306h-5Z" fill="#4c78a8"/><path aria-label="hour_bucket: 13; mean: 1.02459016393; type: female" role="graphics-symbol" aria-roledescription="bar" d="M222.5,90.02732240437159h5v68.30601092896175h-5Z" fill="#4c78a8"/><path aria-label="hour_bucket: 14; mean: 1.14928425358; type: female" role="graphics-symbol" aria-roledescription="bar" d="M247.5,72.93796864349011h5v76.61895023858216h-5Z" fill="#4c78a8"/><path aria-label="hour_bucket: 15; mean: 1.22131147541; type: female" role="graphics-symbol" aria-roledescription="bar" d="M272.5,70.21857923497272h5v81.42076502732239h-5Z" fill="#4c78a8"/><path aria-label="hour_bucket: 16; mean: 1.21709006928; type: female" role="graphics-symbol" aria-roledescription="bar" d="M297.5,42.34026173979988h5v81.13933795227095h-5Z" fill="#4c78a8"/><path aria-label="hour_bucket: 17; mean: 0.958333333333; type: female" role="graphics-symbol" aria-roledescription="bar" d="M322.5,144.64285714285717h5v63.888888888888886h-5Z" fill="#4c78a8"/><path aria-label="hour_bucket: 18; mean: 0.501886792453; type: female" role="graphics-symbol" aria-roledescription="bar" d="M347.5,263.8993710691824h5v33.45911949685535h-5Z" fill="#4c78a8"/></g><g class="mark-group role-legend" role="graphics-symbol" aria-roledescription="legend" aria-label="Symbol legend titled 'type' for fill color with 2 values: female, male"><g transform="translate(418,0)"><path class="background" aria-hidden="true" d="M0,0h47v40h-47Z" pointer-events="none"/><g><g class="mark-group role-legend-entry"><g transform="translate(0,16)"><path class="background" aria-hidden="true" d="M0,0h0v0h0Z" pointer-events="none"/><g><g class="mark-group role-scope" role="graphics-object" aria-roledescription="group mark container"><g transform="translate(0,0)"><path class="background" aria-hidden="true" d="M0,0h46.0146484375v11h-46.0146484375Z" pointer-events="none" opacity="1"/><g><g class="mark-symbol role-legend-symbol" pointer-events="none"><path transform="translate(6,6)" d="M-5,-5h10v10h-10Z" fill="#4c78a8" stroke-width="1.5" opacity="1"/></g><g class="mark-text role-legend-label" pointer-events="none"><text text-anchor="start" transform="translate(16,9)" font-family="sans-serif" font-size="10px" fill="#000" opacity="1">female</text></g></g><path class="foreground" aria-hidden="true" d="" pointer-events="none" display="none"/></g><g transform="translate(0,13)"><path class="background" aria-hidden="true" d="M0,0h46.0146484375v11h-46.0146484375Z" pointer-events="none" opacity="1"/><g><g class="mark-symbol role-legend-symbol" pointer-events="none"><path transform="translate(6,6)" d="M-5,-5h10v10h-10Z" fill="#f58518" stroke-width="1.5" opacity="1"/></g><g class="mark-text role-legend-label" pointer-events="none"><text text-anchor="start" transform="translate(16,9)" font-family="sans-serif" font-size="10px" fill="#000" opacity="1">male</text></g></g><path class="foreground" aria-hidden="true" d="" pointer-events="none" display="none"/></g></g></g><path class="foreground" aria-hidden="true" d="" pointer-events="none" display="none"/></g></g><g class="mark-text role-legend-title" pointer-events="none"><text text-anchor="start" transform="translate(0,9)" font-family="sans-serif" font-size="11px" font-weight="bold" fill="#000" opacity="1">type</text></g></g><path class="foreground" aria-hidden="true" d="" pointer-events="none" display="none"/></g></g></g><path class="foreground" aria-hidden="true" d="" display="none"/></g></g></g></svg>