<svg xmlns="http://www.w3.org/2000/svg" xmlns:xlink="http://www.w3.org/1999/xlink" version="1.1" class="marks" width="459" height="447" viewBox="0 0 459 447"><rect width="459" height="447" fill="white"/><g fill="none" stroke-miterlimit="10" transform="translate(53,10)"><g class="mark-group role-frame root" role="graphics-object" aria-roledescription="group mark container"><g transform="translate(0,0)"><path class="background" aria-hidden="true" d="M0.5,0.5h400v400h-400Z" stroke="#ddd"/><g><g class="mark-group role-axis" aria-hidden="true"><g transform="translate(0.5,400.5)"><path class="background" aria-hidden="true" d="M0,0h0v0h0Z" pointer-events="none"/><g><g class="mark-rule role-axis-grid" pointer-events="none"><line transform="translate(0,-400)" x2="0" y2="400" stroke="#ddd" stroke-width="1" opacity="1"/><line transform="translate(50,-400)" x2="0" y2="400" stroke="#ddd" stroke-width="1" opacity="1"/><line transform="translate(100,-400)" x2="0" y2="400" stroke="#ddd" stroke-width="1" opacity="1"/><line transform="translate(150,-400)" x2="0" y2="400" stroke="#ddd" stroke-width="1" opacity="1"/><line transform="translate(200,-400)" x2="0" y2="400" stroke="#ddd" stroke-width="1" opacity="1"/><line transform="translate(250,-400)" x2="0" y2="400" stroke="#ddd" stroke-width="1" opacity="1"/><line transform="translate(300,-400)" x2="0" y2="400" stroke="#ddd" stroke-width="1" opacity="1"/><line transform="translate(350,-400)" x2="0" y2="400" stroke="#ddd" stroke-width="1" opacity="1"/><line transform="translate(400,-400)" x2="0" y2="400" stroke="#ddd" stroke-width="1" opacity="1"/></g></g><path class="foreground" aria-hidden="true" d="" pointer-events="none" display="none"/></g></g><g class="mark-group role-axis" aria-hidden="true"><g transform="translate(0.5,0.5)"><path class="background" aria-hidden="true" d="M0,0h0v0h0Z" pointer-events="none"/><g><g class="mark-rule role-axis-grid" pointer-events="none"><line transform="translate(0,400)" x2="400" y2="0" stroke="#ddd" stroke-width="1" opacity="1"/><line transform="translate(0,369)" x2="400" y2="0" stroke="#ddd" stroke-width="1" opacity="1"/><line transform="translate(0,338)" x2="400" y2="0" stroke="#ddd" stroke-width="1" opacity="1"/><line transform="translate(0,308)" x2="400" y2="0" stroke="#ddd" stroke-width="1" opacity="1"/><line transform="translate(0,277)" x2="400" y2="0" stroke="#ddd" stroke-width="1" opacity="1"/><line transform="translate(0,246)" x2="400" y2="0" stroke="#ddd" stroke-width="1" opacity="1"/><line transform="translate(0,215)" x2="400" y2="0" stroke="#ddd" stroke-width="1" opacity="1"/><line transform="translate(0,185)" x2="400" y2="0" stroke="#ddd" stroke-width="1" opacity="1"/><line transform="translate(0,154)" x2="400" y2="0" stroke="#ddd" stroke-width="1" opacity="1"/><line transform="translate(0,123)" x2="400" y2="0" stroke="#ddd" stroke-width="1" opacity="1"/><line transform="translate(0,92)" x2="400" y2="0" stroke="#ddd" stroke-width="1" opacity="1"/><line transform="translate(0,62)" x2="400" y2="0" stroke="#ddd" stroke-width="1" opacity="1"/><line transform="translate(0,31)" x2="400" y2="0" stroke="#ddd" stroke-width="1" opacity="1"/><line transform="translate(0,0)" x2="400" y2="0" stroke="#ddd" stroke-width="1" opacity="1"/></g></g><path class="foreground" aria-hidden="true" d="" pointer-events="none" display="none"/></g></g><g class="mark-group role-axis" role="graphics-symbol" aria-roledescription="axis" aria-label="X-axis titled 'calls_per_hour' for a linear scale with values from −5 to 35"><g transform="translate(0.5,400.5)"><path class="background" aria-hidden="true" d="M0,0h0v0h0Z" pointer-events="none"/><g><g class="mark-rule role-axis-tick" pointer-events="none"><line transform="translate(0,0)" x2="0" y2="5" stroke="#888" stroke-width="1" opacity="1"/><line transform="translate(50,0)" x2="0" y2="5" stroke="#888" stroke-width="1" opacity="1"/><line transform="translate(100,0)" x2="0" y2="5" stroke="#888" stroke-width="1" opacity="1"/><line transform="translate(150,0)" x2="0" y2="5" stroke="#888" stroke-width="1" opacity="1"/><line transform="translate(200,0)" x2="0" y2="5" stroke="#888" stroke-width="1" opacity="1"/><line transform="translate(250,0)" x2="0" y2="5" stroke="#888" stroke-width="1" opacity="1"/><line transform="translate(300,0)" x2="0" y2="5" stroke="#888" stroke-width="1" opacity="1"/><line transform="translate(350,0)" x2="0" y2="5" stroke="#888" stroke-width="1" opacity="1"/><line transform="translate(400,0)" x2="0" y2="5" stroke="#888" stroke-width="1" opacity="1"/></g><g class="mark-text role-axis-label" pointer-events="none"><text text-anchor="start" transform="translate(0,15)" font-family="sans-serif" font-size="10px" fill="#000" opacity="1">−5</text><text text-anchor="middle" transform="translate(50,15)" font-family="sans-serif" font-size="10px" fill="#000" opacity="1">0</text><text text-anchor="middle" transform="translate(100,15)" font-family="sans-serif" font-size="10px" fill="#000" opacity="1">5</text><text text-anchor="middle" transform="translate(150,15)" font-family="sans-serif" font-size="10px" fill="#000" opacity="1">10</text><text text-anchor="middle" transform="translate(200,15)" font-family="sans-serif" font-size="10px" fill="#000" opacity="1">15</text><text text-anchor="middle" transform="translate(250,15)" font-family="sans-serif" font-size="10px" fill="#000" opacity="1">20</text><text text-anchor="middle" transform="translate(300,15)" font-family="sans-serif" font-size="10px" fill="#000" opacity="1">25</text><text text-anchor="middle" transform="translate(350,15)" font-family="sans-serif" font-size="10px" fill="#000" opacity="1">30</text><text text-anchor="end" transform="translate(400,15)" font-family="sans-serif" font-size="10px" fill="#000" opacity="1">35</text></g><g class="mark-rule role-axis-domain" pointer-events="none"><line transform="translate(0,0)" x2="400" y2="0" stroke="#888" stroke-width="1" opacity="1"/></g><g class="mark-text role-axis-title" pointer-events="none"><text text-anchor="middle" transform="translate(200,30)" font-family="sans-serif" font-size="11px" font-weight="bold" fill="#000" opacity="1">calls_per_hour</text></g></g><path class="foreground" aria-hidden="true" d="" pointer-events="none" display="none"/></g></g><g class="mark-group role-axis" role="graphics-symbol" aria-roledescription="axis" aria-label="Y-axis titled 'frequency' for a linear scale with values from 0 to 1,300"><g transform="translate(0.5,0.5)"><path class="background" aria-hidden="true" d="M0,0h0v0h0Z" pointer-events="none"/><g><g class="mark-rule role-axis-tick" pointer-events="none"><line transform="translate(0,400)" x2="-5" y2="0" stroke="#888" stroke-width="1" opacity="1"/><line transform="translate(0,369)" x2="-5" y2="0" stroke="#888" stroke-width="1" opacity="1"/><line transform="translate(0,338)" x2="-5" y2="0" stroke="#888" stroke-width="1" opacity="1"/><line transform="translate(0,308)" x2="-5" y2="0" stroke="#888" stroke-width="1" opacity="1"/><line transform="translate(0,277)" x2="-5" y2="0" stroke="#888" stroke-width="1" opacity="1"/><line transform="translate(0,246)" x2="-5" y2="0" stroke="#888" stroke-width="1" opacity="1"/><line transform="translate(0,215)" x2="-5" y2="0" stroke="#888" stroke-width="1" opacity="1"/><line transform="translate(0,185)" x2="-5" y2="0" stroke="#888" stroke-width="1" opacity="1"/><line transform="translate(0,154)" x2="-5" y2="0" stroke="#888" stroke-width="1" opacity="1"/><line transform="translate(0,123)" x2="-5" y2="0" stroke="#888" stroke-width="1" opacity="1"/><line transform="translate(0,92)" x2="-5" y2="0" stroke="#888" stroke-width="1" opacity="1"/><line transform="translate(0,62)" x2="-5" y2="0" stroke="#888" stroke-width="1" opacity="1"/><line transform="translate(0,31)" x2="-5" y2="0" stroke="#888" stroke-width="1" opacity="1"/><line transform="translate(0,0)" x2="-5" y2="0" stroke="#888" stroke-width="1" opacity="1"/></g><g class="mark-text role-axis-label" pointer-events="none"><text text-anchor="end" transform="translate(-7,403)" font-family="sans-serif" font-size="10px" fill="#000" opacity="1">0</text><text text-anchor="end" transform="translate(-7,372.2307692307692)" font-family="sans-serif" font-size="10px" fill="#000" opacity="1">100</text><text text-anchor="end" transform="translate(-7,341.46153846153845)" font-family="sans-serif" font-size="10px" fill="#000" opacity="1">200</text><text text-anchor="end" transform="translate(-7,310.6923076923077)" font-family="sans-serif" font-size="10px" fill="#000" opacity="1">300</text><text text-anchor="end" transform="translate(-7,279.9230769230769)" font-family="sans-serif" font-size="10px" fill="#000" opacity="1">400</text><text text-anchor="end" transform="translate(-7,249.15384615384616)" font-family="sans-serif" font-size="10px" fill="#000" opacity="1">500</text><text text-anchor="end" transform="translate(-7,218.3846153846154)" font-family="sans-serif" font-size="10px" fill="#000" opacity="1">600</text><text text-anchor="end" transform="translate(-7,187.6153846153846)" font-family="sans-serif" font-size="10px" fill="#000" opacity="1">700</text><text text-anchor="end" transform="translate(-7,156.84615384615384)" font-family="sans-serif" font-size="10px" fill="#000" opacity="1">800</text><text text-anchor="end" transform="translate(-7,126.07692307692308)" font-family="sans-serif" font-size="10px" fill="#000" opacity="1">900</text><text text-anchor="end" transform="translate(-7,95.30769230769229)" font-family="sans-serif" font-size="10px" fill="#000" opacity="1">1,000</text><text text-anchor="end" transform="translate(-7,64.53846153846155)" font-family="sans-serif" font-size="10px" fill="#000" opacity="1">1,100</text><text text-anchor="end" transform="translate(-7,33.769230769230745)" font-family="sans-serif" font-size="10px" fill="#000" opacity="1">1,200</text><text text-anchor="end" transform="translate(-7,3)" font-family="sans-serif" font-size="10px" fill="#000" opacity="1">1,300</text></g><g class="mark-rule role-axis-domain" pointer-events="none"><line transform="translate(0,400)" x2="0" y2="-400" stroke="#888" stroke-width="1" opacity="1"/></g><g class="mark-text role-axis-title" pointer-events="none"><text text-anchor="middle" transform="translate(-36.0244140625,200) rotate(-90) translate(0,-2)" font-family="sans-serif" font-size="11px" font-weight="bold" fill="#000" opacity="1">frequency</text></g></g><path class="foreground" aria-hidden="true" d="" pointer-events="none" display="none"/></g></g><g class="mark-rect role-mark marks" role="graphics-object" aria-roledescription="rect mark container"><path aria-label="calls_per_hour: 0; frequency: 1204" role="graphics-symbol" aria-roledescription="bar" d="M47.5,29.538461538461558h5v370.46153846153845h-5Z" fill="#4c78a8"/><path aria-label="calls_per_hour: 1; frequency: 1173" role="graphics-symbol" aria-roledescription="bar" d="M57.5,39.076923076923094h5v360.9230769230769h-5Z" fill="#4c78a8"/><path aria-label="calls_per_hour: 2; frequency: 1255" role="graphics-symbol" aria-roledescription="bar" d="M67.5,13.846153846153841h5v386.15384615384613h-5Z" fill="#4c78a8"/><path aria-label="calls_per_hour: 3; frequency: 1109" role="graphics-symbol" aria-roledescription="bar" d="M77.5,58.769230769230774h5v341.2307692307692h-5Z" fill="#4c78a8"/><path aria-label="calls_per_hour: 4; frequency: 934" role="graphics-symbol" aria-roledescription="bar" d="M87.5,112.61538461538461h5v287.38461538461536h-5Z" fill="#4c78a8"/><path aria-label="calls_per_hour: 5; frequency: 836" role="graphics-symbol" aria-roledescription="bar" d="M97.5,142.76923076923077h5v257.2307692307692h-5Z" fill="#4c78a8"/><path aria-label="calls_per_hour: 6; frequency: 693" role="graphics-symbol" aria-roledescription="bar" d="M107.50000000000001,186.76923076923075h5v213.23076923076925h-5Z" fill="#4c78a8"/><path aria-label="calls_per_hour: 7; frequency: 592" role="graphics-symbol" aria-roledescription="bar" d="M117.5,217.84615384615384h5v182.15384615384616h-5Z" fill="#4c78a8"/><path aria-label="calls_per_hour: 8; frequency: 437" role="graphics-symbol" aria-roledescription="bar" d="M127.5,265.53846153846155h5v134.46153846153845h-5Z" fill="#4c78a8"/><path aria-label="calls_per_hour: 9; frequency: 361" role="graphics-symbol" aria-roledescription="bar" d="M137.5,288.9230769230769h5v111.0769230769231h-5Z" fill="#4c78a8"/><path aria-label="calls_per_hour: 10; frequency: 272" role="graphics-symbol" aria-roledescription="bar" d="M147.5,316.3076923076923h5v83.69230769230768h-5Z" fill="#4c78a8"/><path aria-label="calls_per_hour: 11; frequency: 201" role="graphics-symbol" aria-roledescription="bar" d="M157.5,338.1538461538462h5v61.84615384615381h-5Z" fill="#4c78a8"/><path aria-label="calls_per_hour: 12; frequency: 157" role="graphics-symbol" aria-roledescription="bar" d="M167.5,351.6923076923077h5v48.30769230769232h-5Z" fill="#4c78a8"/><path aria-label="calls_per_hour: 13; frequency: 106" role="graphics-symbol" aria-roledescription="bar" d="M177.5,367.38461538461536h5v32.61538461538464h-5Z" fill="#4c78a8"/><path aria-label="calls_per_hour: 14; frequency: 80" role="graphics-symbol" aria-roledescription="bar" d="M187.5,375.38461538461536h5v24.61538461538464h-5Z" fill="#4c78a8"/><path aria-label="calls_per_hour: 15; frequency: 62" role="graphics-symbol" aria-roledescription="bar" d="M197.5,380.9230769230769h5v19.076923076923094h-5Z" fill="#4c78a8"/><path aria-label="calls_per_hour: 16; frequency: 49" role="graphics-symbol" aria-roledescription="bar" d="M207.5,384.9230769230769h5v15.076923076923094h-5Z" fill="#4c78a8"/><path aria-label="calls_per_hour: 17; frequency: 30" role="graphics-symbol" aria-roledescription="bar" d="M217.50000000000003,390.7692307692308h5v9.230769230769226h-5Z" fill="#4c78a8"/><path aria-label="calls_per_hour: 18; frequency: 21" role="graphics-symbol" aria-roledescription="bar" d="M227.49999999999997,393.53846153846155h5v6.461538461538453h-5Z" fill="#4c78a8"/><path aria-label="calls_per_hour: 19; frequency: 28" role="graphics-symbol" aria-roledescription="bar" d="M237.5,391.3846153846154h5v8.615384615384585h-5Z" fill="#4c78a8"/><path aria-label="calls_per_hour: 20; frequency: 17" role="graphics-symbol" aria-roledescription="bar" d="M247.5,394.7692307692308h5v5.230769230769226h-5Z" fill="#4c78a8"/><path aria-label="calls_per_hour: 21; frequency: 11" role="graphics-symbol" aria-roledescription="bar" d="M257.5,396.61538461538464h5v3.3846153846153584h-5Z" fill="#4c78a8"/><path aria-label="calls_per_hour: 22; frequency: 6" role="graphics-symbol" aria-roledescription="bar" d="M267.5,398.1538461538462h5v1.8461538461538112h-5Z" fill="#4c78a8"/><path aria-label="calls_per_hour: 23; frequency: 7" role="graphics-symbol" aria-roledescription="bar" d="M277.5,397.8461538461538h5v2.153846153846189h-5Z" fill="#4c78a8"/><path aria-label="calls_per_hour: 24; frequency: 8" role="graphics-symbol" aria-roledescription="bar" d="M287.5,397.53846153846155h5v2.461538461538453h-5Z" fill="#4c78a8"/><path aria-label="calls_per_hour: 25; frequency: 3" role="graphics-symbol" aria-roledescription="bar" d="M297.5,399.07692307692304h5v0.9230769230769624h-5Z" fill="#4c78a8"/><path aria-label="calls_per_hour: 26; frequency: 2" role="graphics-symbol" aria-roledescription="bar" d="M307.5,399.3846153846154h5v0.6153846153845848h-5Z" fill="#4c78a8"/><path aria-label="calls_per_hour: 27; frequency: 1" role="graphics-symbol" aria-roledescription="bar" d="M317.5,399.6923076923077h5v0.3076923076923208h-5Z" fill="#4c78a8"/><path aria-label="calls_per_hour: 28; frequency: 2" role="graphics-symbol" aria-roledescription="bar" d="M327.5,399.3846153846154h5v0.6153846153845848h-5Z" fill="#4c78a8"/><path aria-label="calls_per_hour: 29; frequency: 1" role="graphics-symbol" aria-roledescription="bar" d="M337.5,399.6923076923077h5v0.3076923076923208h-5Z" fill="#4c78a8"/><path aria-label="calls_per_hour: 33; frequency: 1" role="graphics-symbol" aria-roledescription="bar" d="M377.5,399.6923076923077h5v0.3076923076923208h-5Z" fill="#4c78a8"/></g></g><path class="foreground" aria-hidden="true" d="" display="none"/></g></g></g></svg>