<svg xmlns="http://www.w3.org/2000/svg" xmlns:xlink="http://www.w3.org/1999/xlink" version="1.1" class="marks" width="459" height="447" viewBox="0 0 459 447"><rect width="459" height="447" fill="white"/><g fill="none" stroke-miterlimit="10" transform="translate(53,10)"><g class="mark-group role-frame root" role="graphics-object" aria-roledescription="group mark container"><g transform="translate(0,0)"><path class="background" aria-hidden="true" d="M0.5,0.5h400v400h-400Z" stroke="#ddd"/><g><g class="mark-group role-axis" aria-hidden="true"><g transform="translate(0.5,400.5)"><path class="background" aria-hidden="true" d="M0,0h0v0h0Z" pointer-events="none"/><g><g class="mark-rule role-axis-grid" pointer-events="none"><line transform="translate(0,-400)" x2="0" y2="400" stroke="#ddd" stroke-width="1" opacity="1"/><line transform="translate(50,-400)" x2="0" y2="400" stroke="#ddd" stroke-width="1" opacity="1"/><line transform="translate(100,-400)" x2="0" y2="400" stroke="#ddd" stroke-width="1" opacity="1"/><line transform="translate(150,-400)" x2="0" y2="400" stroke="#ddd" stroke-width="1" opacity="1"/><line transform="translate(200,-400)" x2="0" y2="400" stroke="#ddd" stroke-width="1" opacity="1"/><line transform="translate(250,-400)" x2="0" y2="400" stroke="#ddd" stroke-width="1" opacity="1"/><line transform="translate(300,-400)" x2="0" y2="400" stroke="#ddd" stroke-width="1" opacity="1"/><line transform="translate(350,-400)" x2="0" y2="400" stroke="#ddd" stroke-width="1" opacity="1"/><line transform="translate(400,-400)" x2="0" y2="400" stroke="#ddd" stroke-width="1" opacity="1"/></g></g><path class="foreground" aria-hidden="true" d="" pointer-events="none" display="none"/></g></g><g class="mark-group role-axis" aria-hidden="true"><g transform="translate(0.5,0.5)"><path class="background" aria-hidden="true" d="M0,0h0v0h0Z" pointer-events="none"/><g><g class="mark-rule role-axis-grid" pointer-events="none"><line transform="translate(0,400)" x2="400" y2="0" stroke="#ddd" stroke-width="1" opacity="1"/><line transform="translate(0,364)" x2="400" y2="0" stroke="#ddd" stroke-width="1" opacity="1"/><line transform="translate(0,327)" x2="400" y2="0" stroke="#ddd" stroke-width="1" opacity="1"/><line transform="translate(0,291)" x2="400" y2="0" stroke="#ddd" stroke-width="1" opacity="1"/><line transform="translate(0,255)" x2="400" y2="0" stroke="#ddd" stroke-width="1" opacity="1"/><line transform="translate(0,218)" x2="400" y2="0" stroke="#ddd" stroke-width="1" opacity="1"/><line transform="translate(0,182)" x2="400" y2="0" stroke="#ddd" stroke-width="1" opacity="1"/><line transform="translate(0,145)" x2="400" y2="0" stroke="#ddd" stroke-width="1" opacity="1"/><line transform="translate(0,109)" x2="400" y2="0" stroke="#ddd" stroke-width="1" opacity="1"/><line transform="translate(0,73)" x2="400" y2="0" stroke="#ddd" stroke-width="1" opacity="1"/><line transform="translate(0,36)" x2="400" y2="0" stroke="#ddd" stroke-width="1" opacity="1"/><line transform="translate(0,0)" x2="400" y2="0" stroke="#ddd" stroke-width="1" opacity="1"/></g></g><path class="foreground" aria-hidden="true" d="" pointer-events="none" display="none"/></g></g><g class="mark-group role-axis" role="graphics-symbol" aria-roledescription="axis" aria-label="X-axis titled 'calls_per_hour' for a linear scale with values from −5 to 35"><g transform="translate(0.5,400.5)"><path class="background" aria-hidden="true" d="M0,0h0v0h0Z" pointer-events="none"/><g><g class="mark-rule role-axis-tick" pointer-events="none"><line transform="translate(0,0)" x2="0" y2="5" stroke="#888" stroke-width="1" opacity="1"/><line transform="translate(50,0)" x2="0" y2="5" stroke="#888" stroke-width="1" opacity="1"/><line transform="translate(100,0)" x2="0" y2="5" stroke="#888" stroke-width="1" opacity="1"/><line transform="translate(150,0)" x2="0" y2="5" stroke="#888" stroke-width="1" opacity="1"/><line transform="translate(200,0)" x2="0" y2="5" stroke="#888" stroke-width="1" opacity="1"/><line transform="translate(250,0)" x2="0" y2="5" stroke="#888" stroke-width="1" opacity="1"/><line transform="translate(300,0)" x2="0" y2="5" stroke="#888" stroke-width="1" opacity="1"/><line transform="translate(350,0)" x2="0" y2="5" stroke="#888" stroke-width="1" opacity="1"/><line transform="translate(400,0)" x2="0" y2="5" stroke="#888" stroke-width="1" opacity="1"/></g><g class="mark-text role-axis-label" pointer-events="none"><text text-anchor="start" transform="translate(0,15)" font-family="sans-serif" font-size="10px" fill="#000" opacity="1">−5</text><text text-anchor="middle" transform="translate(50,15)" font-family="sans-serif" font-size="10px" fill="#000" opacity="1">0</text><text text-anchor="middle" transform="translate(100,15)" font-family="sans-serif" font-size="10px" fill="#000" opacity="1">5</text><text text-anchor="middle" transform="translate(150,15)" font-family="sans-serif" font-size="10px" fill="#000" opacity="1">10</text><text text-anchor="middle" transform="translate(200,15)" font-family="sans-serif" font-size="10px" fill="#000" opacity="1">15</text><text text-anchor="middle" transform="translate(250,15)" font-family="sans-serif" font-size="10px" fill="#000" opacity="1">20</text><text text-anchor="middle" transform="translate(300,15)" font-family="sans-serif" font-size="10px" fill="#000" opacity="1">25</text><text text-anchor="middle" transform="translate(350,15)" font-family="sans-serif" font-size="10px" fill="#000" opacity="1">30</text><text text-anchor="end" transform="translate(400,15)" font-family="sans-serif" font-size="10px" fill="#000" opacity="1">35</text></g><g class="mark-rule role-axis-domain" pointer-events="none"><line transform="translate(0,0)" x2="400" y2="0" stroke="#888" stroke-width="1" opacity="1"/></g><g class="mark-text role-axis-title" pointer-events="none"><text text-anchor="middle" transform="translate(200,30)" font-family="sans-serif" font-size="11px" font-weight="bold" fill="#000" opacity="1">calls_per_hour</text></g></g><path class="foreground" aria-hidden="true" d="" pointer-events="none" display="none"/></g></g><g class="mark-group role-axis" role="graphics-symbol" aria-roledescription="axis" aria-label="Y-axis titled 'frequency' for a linear scale with values from 0 to 1,100"><g transform="translate(0.5,0.5)"><path class="background" aria-hidden="true" d="M0,0h0v0h0Z" pointer-events="none"/><g><g class="mark-rule role-axis-tick" pointer-events="none"><line transform="translate(0,400)" x2="-5" y2="0" stroke="#888" stroke-width="1" opacity="1"/><line transform="translate(0,364)" x2="-5" y2="0" stroke="#888" stroke-width="1" opacity="1"/><line transform="translate(0,327)" x2="-5" y2="0" stroke="#888" stroke-width="1" opacity="1"/><line transform="translate(0,291)" x2="-5" y2="0" stroke="#888" stroke-width="1" opacity="1"/><line transform="translate(0,255)" x2="-5" y2="0" stroke="#888" stroke-width="1" opacity="1"/><line transform="translate(0,218)" x2="-5" y2="0" stroke="#888" stroke-width="1" opacity="1"/><line transform="translate(0,182)" x2="-5" y2="0" stroke="#888" stroke-width="1" opacity="1"/><line transform="translate(0,145)" x2="-5" y2="0" stroke="#888" stroke-width="1" opacity="1"/><line transform="translate(0,109)" x2="-5" y2="0" stroke="#888" stroke-width="1" opacity="1"/><line transform="translate(0,73)" x2="-5" y2="0" stroke="#888" stroke-width="1" opacity="1"/><line transform="translate(0,36)" x2="-5" y2="0" stroke="#888" stroke-width="1" opacity="1"/><line transform="translate(0,0)" x2="-5" y2="0" stroke="#888" stroke-width="1" opacity="1"/></g><g class="mark-text role-axis-label" pointer-events="none"><text text-anchor="end" transform="translate(-7,403)" font-family="sans-serif" font-size="10px" fill="#000" opacity="1">0</text><text text-anchor="end" transform="translate(-7,366.6363636363636)" font-family="sans-serif" font-size="10px" fill="#000" opacity="1">100</text><text text-anchor="end" transform="translate(-7,330.27272727272725)" font-family="sans-serif" font-size="10px" fill="#000" opacity="1">200</text><text text-anchor="end" transform="translate(-7,293.90909090909093)" font-family="sans-serif" font-size="10px" fill="#000" opacity="1">300</text><text text-anchor="end" transform="translate(-7,257.5454545454545)" font-family="sans-serif" font-size="10px" fill="#000" opacity="1">400</text><text text-anchor="end" transform="translate(-7,221.18181818181816)" font-family="sans-serif" font-size="10px" fill="#000" opacity="1">500</text><text text-anchor="end" transform="translate(-7,184.81818181818184)" font-family="sans-serif" font-size="10px" fill="#000" opacity="1">600</text><text text-anchor="end" transform="translate(-7,148.45454545454547)" font-family="sans-serif" font-size="10px" fill="#000" opacity="1">700</text><text text-anchor="end" transform="translate(-7,112.09090909090908)" font-family="sans-serif" font-size="10px" fill="#000" opacity="1">800</text><text text-anchor="end" transform="translate(-7,75.7272727272727)" font-family="sans-serif" font-size="10px" fill="#000" opacity="1">900</text><text text-anchor="end" transform="translate(-7,39.363636363636374)" font-family="sans-serif" font-size="10px" fill="#000" opacity="1">1,000</text><text text-anchor="end" transform="translate(-7,3)" font-family="sans-serif" font-size="10px" fill="#000" opacity="1">1,100</text></g><g class="mark-rule role-axis-domain" pointer-events="none"><line transform="translate(0,400)" x2="0" y2="-400" stroke="#888" stroke-width="1" opacity="1"/></g><g class="mark-text role-axis-title" pointer-events="none"><text text-anchor="middle" transform="translate(-36.0244140625,200) rotate(-90) translate(0,-2)" font-family="sans-serif" font-size="11px" font-weight="bold" fill="#000" opacity="1">frequency</text></g></g><path class="foreground" aria-hidden="true" d="" pointer-events="none" display="none"/></g></g><g class="mark-rect role-mark marks" role="graphics-object" aria-roledescription="rect mark container"><path aria-label="calls_per_hour: 0; frequency: 1038" role="graphics-symbol" aria-roledescription="bar" d="M47.5,22.545454545454557h5v377.45454545454544h-5Z" fill="#4c78a8"/><path aria-label="calls_per_hour: 1; frequency: 955" role="graphics-symbol" aria-roledescription="bar" d="M57.5,52.727272727272734h5v347.27272727272725h-5Z" fill="#4c78a8"/><path aria-label="calls_per_hour: 2; frequency: 958" role="graphics-symbol" aria-roledescription="bar" d="M67.5,51.636363636363654h5v348.3636363636364h-5Z" fill="#4c78a8"/><path aria-label="calls_per_hour: 3; frequency: 850" role="graphics-symbol" aria-roledescription="bar" d="M77.5,90.90909090909092h5v309.09090909090907h-5Z" fill="#4c78a8"/><path aria-label="calls_per_hour: 4; frequency: 738" role="graphics-symbol" aria-roledescription="bar" d="M87.5,131.63636363636363h5v268.3636363636364h-5Z" fill="#4c78a8"/><path aria-label="calls_per_hour: 5; frequency: 671" role="graphics-symbol" aria-roledescription="bar" d="M97.5,156h5v244h-5Z" fill="#4c78a8"/><path aria-label="calls_per_hour: 6; frequency: 560" role="graphics-symbol" aria-roledescription="bar" d="M107.50000000000001,196.36363636363637h5v203.63636363636363h-5Z" fill="#4c78a8"/><path aria-label="calls_per_hour: 7; frequency: 491" role="graphics-symbol" aria-roledescription="bar" d="M117.5,221.4545454545455h5v178.5454545454545h-5Z" fill="#4c78a8"/><path aria-label="calls_per_hour: 8; frequency: 349" role="graphics-symbol" aria-roledescription="bar" d="M127.5,273.0909090909091h5v126.90909090909088h-5Z" fill="#4c78a8"/><path aria-label="calls_per_hour: 9; frequency: 315" role="graphics-symbol" aria-roledescription="bar" d="M137.5,285.45454545454544h5v114.54545454545456h-5Z" fill="#4c78a8"/><path aria-label="calls_per_hour: 10; frequency: 234" role="graphics-symbol" aria-roledescription="bar" d="M147.5,314.9090909090909h5v85.09090909090912h-5Z" fill="#4c78a8"/><path aria-label="calls_per_hour: 11; frequency: 170" role="graphics-symbol" aria-roledescription="bar" d="M157.5,338.1818181818182h5v61.81818181818181h-5Z" fill="#4c78a8"/><path aria-label="calls_per_hour: 12; frequency: 139" role="graphics-symbol" aria-roledescription="bar" d="M167.5,349.45454545454544h5v50.54545454545456h-5Z" fill="#4c78a8"/><path aria-label="calls_per_hour: 13; frequency: 92" role="graphics-symbol" aria-roledescription="bar" d="M177.5,366.54545454545456h5v33.45454545454544h-5Z" fill="#4c78a8"/><path aria-label="calls_per_hour: 14; frequency: 75" role="graphics-symbol" aria-roledescription="bar" d="M187.5,372.72727272727275h5v27.272727272727252h-5Z" fill="#4c78a8"/><path aria-label="calls_per_hour: 15; frequency: 57" role="graphics-symbol" aria-roledescription="bar" d="M197.5,379.2727272727273h5v20.72727272727269h-5Z" fill="#4c78a8"/><path aria-label="calls_per_hour: 16; frequency: 46" role="graphics-symbol" aria-roledescription="bar" d="M207.5,383.27272727272725h5v16.727272727272748h-5Z" fill="#4c78a8"/><path aria-label="calls_per_hour: 17; frequency: 28" role="graphics-symbol" aria-roledescription="bar" d="M217.50000000000003,389.8181818181818h5v10.181818181818187h-5Z" fill="#4c78a8"/><path aria-label="calls_per_hour: 18; frequency: 20" role="graphics-symbol" aria-roledescription="bar" d="M227.49999999999997,392.72727272727275h5v7.272727272727252h-5Z" fill="#4c78a8"/><path aria-label="calls_per_hour: 19; frequency: 28" role="graphics-symbol" aria-roledescription="bar" d="M237.5,389.8181818181818h5v10.181818181818187h-5Z" fill="#4c78a8"/><path aria-label="calls_per_hour: 20; frequency: 16" role="graphics-symbol" aria-roledescription="bar" d="M247.5,394.1818181818182h5v5.818181818181813h-5Z" fill="#4c78a8"/><path aria-label="calls_per_hour: 21; frequency: 11" role="graphics-symbol" aria-roledescription="bar" d="M257.5,396h5v4h-5Z" fill="#4c78a8"/><path aria-label="calls_per_hour: 22; frequency: 6" role="graphics-symbol" aria-roledescription="bar" d="M267.5,397.8181818181818h5v2.181818181818187h-5Z" fill="#4c78a8"/><path aria-label="calls_per_hour: 23; frequency: 7" role="graphics-symbol" aria-roledescription="bar" d="M277.5,397.45454545454544h5v2.545454545454561h-5Z" fill="#4c78a8"/><path aria-label="calls_per_hour: 24; frequency: 8" role="graphics-symbol" aria-roledescription="bar" d="M287.5,397.09090909090907h5v2.909090909090935h-5Z" fill="#4c78a8"/><path aria-label="calls_per_hour: 25; frequency: 3" role="graphics-symbol" aria-roledescription="bar" d="M297.5,398.90909090909093h5v1.090909090909065h-5Z" fill="#4c78a8"/><path aria-label="calls_per_hour: 26; frequency: 2" role="graphics-symbol" aria-roledescription="bar" d="M307.5,399.27272727272725h5v0.7272727272727479h-5Z" fill="#4c78a8"/><path aria-label="calls_per_hour: 27; frequency: 1" role="graphics-symbol" aria-roledescription="bar" d="M317.5,399.6363636363637h5v0.36363636363631713h-5Z" fill="#4c78a8"/><path aria-label="calls_per_hour: 28; frequency: 2" role="graphics-symbol" aria-roledescription="bar" d="M327.5,399.27272727272725h5v0.7272727272727479h-5Z" fill="#4c78a8"/><path aria-label="calls_per_hour: 29; frequency: 1" role="graphics-symbol" aria-roledescription="bar" d="M337.5,399.6363636363637h5v0.36363636363631713h-5Z" fill="#4c78a8"/><path aria-label="calls_per_hour: 33; frequency: 1" role="graphics-symbol" aria-roledescription="bar" d="M377.5,399.6363636363637h5v0.36363636363631713h-5Z" fill="#4c78a8"/></g></g><path class="foreground" aria-hidden="true" d="" display="none"/></g></g></g></svg>