<svg xmlns="http://www.w3.org/2000/svg" xmlns:xlink="http://www.w3.org/1999/xlink" version="1.1" class="marks" width="511" height="447" viewBox="0 0 511 447"><rect width="511" height="447" fill="white"/><g fill="none" stroke-miterlimit="10" transform="translate(41,10)"><g class="mark-group role-frame root" role="graphics-object" aria-roledescription="group mark container"><g transform="translate(0,0)"><path class="background" aria-hidden="true" d="M0.5,0.5h400v400h-400Z" stroke="#ddd"/><g><g class="mark-group role-axis" aria-hidden="true"><g transform="translate(0.5,400.5)"><path class="background" aria-hidden="true" d="M0,0h0v0h0Z" pointer-events="none"/><g><g class="mark-rule role-axis-grid" pointer-events="none"><line transform="translate(0,-400)" x2="0" y2="400" stroke="#ddd" stroke-width="1" opacity="1"/><line transform="translate(50,-400)" x2="0" y2="400" stroke="#ddd" stroke-width="1" opacity="1"/><line transform="translate(100,-400)" x2="0" y2="400" stroke="#ddd" stroke-width="1" opacity="1"/><line transform="translate(150,-400)" x2="0" y2="400" stroke="#ddd" stroke-width="1" opacity="1"/><line transform="translate(200,-400)" x2="0" y2="400" stroke="#ddd" stroke-width="1" opacity="1"/><line transform="translate(250,-400)" x2="0" y2="400" stroke="#ddd" stroke-width="1" opacity="1"/><line transform="translate(300,-400)" x2="0" y2="400" stroke="#ddd" stroke-width="1" opacity="1"/><line transform="translate(350,-400)" x2="0" y2="400" stroke="#ddd" stroke-width="1" opacity="1"/><line transform="translate(400,-400)" x2="0" y2="400" stroke="#ddd" stroke-width="1" opacity="1"/></g></g><path class="foreground" aria-hidden="true" d="" pointer-events="none" display="none"/></g></g><g class="mark-group role-axis" aria-hidden="true"><g transform="translate(0.5,0.5)"><path class="background" aria-hidden="true" d="M0,0h0v0h0Z" pointer-events="none"/><g><g class="mark-rule role-axis-grid" pointer-events="none"><line transform="translate(0,400)" x2="400" y2="0" stroke="#ddd" stroke-width="1" opacity="1"/><line transform="translate(0,364)" x2="400" y2="0" stroke="#ddd" stroke-width="1" opacity="1"/><line transform="translate(0,327)" x2="400" y2="0" stroke="#ddd" stroke-width="1" opacity="1"/><line transform="translate(0,291)" x2="400" y2="0" stroke="#ddd" stroke-width="1" opacity="1"/><line transform="translate(0,255)" x2="400" y2="0" stroke="#ddd" stroke-width="1" opacity="1"/><line transform="translate(0,218)" x2="400" y2="0" stroke="#ddd" stroke-width="1" opacity="1"/><line transform="translate(0,182)" x2="400" y2="0" stroke="#ddd" stroke-width="1" opacity="1"/><line transform="translate(0,145)" x2="400" y2="0" stroke="#ddd" stroke-width="1" opacity="1"/><line transform="translate(0,109)" x2="400" y2="0" stroke="#ddd" stroke-width="1" opacity="1"/><line transform="translate(0,73)" x2="400" y2="0" stroke="#ddd" stroke-width="1" opacity="1"/><line transform="translate(0,36)" x2="400" y2="0" stroke="#ddd" stroke-width="1" opacity="1"/><line transform="translate(0,0)" x2="400" y2="0" stroke="#ddd" stroke-width="1" opacity="1"/></g></g><path class="foreground" aria-hidden="true" d="" pointer-events="none" display="none"/></g></g><g class="mark-group role-axis" role="graphics-symbol" aria-roledescription="axis" aria-label="X-axis titled 'hour_bucket' for a linear scale with values from 4 to 20"><g transform="translate(0.5,400.5)"><path class="background" aria-hidden="true" d="M0,0h0v0h0Z" pointer-events="none"/><g><g class="mark-rule role-axis-tick" pointer-events="none"><line transform="translate(0,0)" x2="0" y2="5" stroke="#888" stroke-width="1" opacity="1"/><line transform="translate(50,0)" x2="0" y2="5" stroke="#888" stroke-width="1" opacity="1"/><line transform="translate(100,0)" x2="0" y2="5" stroke="#888" stroke-width="1" opacity="1"/><line transform="translate(150,0)" x2="0" y2="5" stroke="#888" stroke-width="1" opacity="1"/><line transform="translate(200,0)" x2="0" y2="5" stroke="#888" stroke-width="1" opacity="1"/><line transform="translate(250,0)" x2="0" y2="5" stroke="#888" stroke-width="1" opacity="1"/><line transform="translate(300,0)" x2="0" y2="5" stroke="#888" stroke-width="1" opacity="1"/><line transform="translate(350,0)" x2="0" y2="5" stroke="#888" stroke-width="1" opacity="1"/><line transform="translate(400,0)" x2="0" y2="5" stroke="#888" stroke-width="1" opacity="1"/></g><g class="mark-text role-axis-label" pointer-events="none"><text text-anchor="start" transform="translate(0,15)" font-family="sans-serif" font-size="10px" fill="#000" opacity="1">4</text><text text-anchor="middle" transform="translate(50,15)" font-family="sans-serif" font-size="10px" fill="#000" opacity="1">6</text><text text-anchor="middle" transform="translate(100,15)" font-family="sans-serif" font-size="10px" fill="#000" opacity="1">8</text><text text-anchor="middle" transform="translate(150,15)" font-family="sans-serif" font-size="10px" fill="#000" opacity="1">10</text><text text-anchor="middle" transform="translate(200,15)" font-family="sans-serif" font-size="10px" fill="#000" opacity="1">12</text><text text-anchor="middle" transform="translate(250,15)" font-family="sans-serif" font-size="10px" fill="#000" opacity="1">14</text><text text-anchor="middle" transform="translate(300,15)" font-family="sans-serif" font-size="10px" fill="#000" opacity="1">16</text><text text-anchor="middle" transform="translate(350,15)" font-family="sans-serif" font-size="10px" fill="#000" opacity="1">18</text><text text-anchor="end" transform="translate(400,15)" font-family="sans-serif" font-size="10px" fill="#000" opacity="1">20</text></g><g class="mark-rule role-axis-domain" pointer-events="none"><line transform="translate(0,0)" x2="400" y2="0" stroke="#888" stroke-width="1" opacity="1"/></g><g class="mark-text role-axis-title" pointer-events="none"><text text-anchor="middle" transform="translate(200,30)" font-family="sans-serif" font-size="11px" font-weight="bold" fill="#000" opacity="1">hour_bucket</text></g></g><path class="foreground" aria-hidden="true" d="" pointer-events="none" display="none"/></g></g><g class="mark-group role-axis" role="graphics-symbol" aria-roledescription="axis" aria-label="Y-axis titled 'mean' for a linear scale with values from 0 to 6"><g transform="translate(0.5,0.5)"><path class="background" aria-hidden="true" d="M0,0h0v0h0Z" pointer-events="none"/><g><g class="mark-rule role-axis-tick" pointer-events="none"><line transform="translate(0,400)" x2="-5" y2="0" stroke="#888" stroke-width="1" opacity="1"/><line transform="translate(0,364)" x2="-5" y2="0" stroke="#888" stroke-width="1" opacity="1"/><line transform="translate(0,327)" x2="-5" y2="0" stroke="#888" stroke-width="1" opacity="1"/><line transform="translate(0,291)" x2="-5" y2="0" stroke="#888" stroke-width="1" opacity="1"/><line transform="translate(0,255)" x2="-5" y2="0" stroke="#888" stroke-width="1" opacity="1"/><line transform="translate(0,218)" x2="-5" y2="0" stroke="#888" stroke-width="1" opacity="1"/><line transform="translate(0,182)" x2="-5" y2="0" stroke="#888" stroke-width="1" opacity="1"/><line transform="translate(0,145)" x2="-5" y2="0" stroke="#888" stroke-width="1" opacity="1"/><line transform="translate(0,109)" x2="-5" y2="0" stroke="#888" stroke-width="1" opacity="1"/><line transform="translate(0,73)" x2="-5" y2="0" stroke="#888" stroke-width="1" opacity="1"/><line transform="translate(0,36)" x2="-5" y2="0" stroke="#888" stroke-width="1" opacity="1"/><line transform="translate(0,0)" x2="-5" y2="0" stroke="#888" stroke-width="1" opacity="1"/></g><g class="mark-text role-axis-label" pointer-events="none"><text text-anchor="end" transform="translate(-7,403)" font-family="sans-serif" font-size="10px" fill="#000" opacity="1">0.0</text><text text-anchor="end" transform="translate(-7,366.6363636363636)" font-family="sans-serif" font-size="10px" fill="#000" opacity="1">0.5</text><text text-anchor="end" transform="translate(-7,330.27272727272725)" font-family="sans-serif" font-size="10px" fill="#000" opacity="1">1.0</text><text text-anchor="end" transform="translate(-7,293.90909090909093)" font-family="sans-serif" font-size="10px" fill="#000" opacity="1">1.5</text><text text-anchor="end" transform="translate(-7,257.5454545454545)" font-family="sans-serif" font-size="10px" fill="#000" opacity="1">2.0</text><text text-anchor="end" transform="translate(-7,221.18181818181816)" font-family="sans-serif" font-size="10px" fill="#000" opacity="1">2.5</text><text text-anchor="end" transform="translate(-7,184.81818181818184)" font-family="sans-serif" font-size="10px" fill="#000" opacity="1">3.0</text><text text-anchor="end" transform="translate(-7,148.45454545454547)" font-family="sans-serif" font-size="10px" fill="#000" opacity="1">3.5</text><text text-anchor="end" transform="translate(-7,112.09090909090908)" font-family="sans-serif" font-size="10px" fill="#000" opacity="1">4.0</text><text text-anchor="end" transform="translate(-7,75.7272727272727)" font-family="sans-serif" font-size="10px" fill="#000" opacity="1">4.5</text><text text-anchor="end" transform="translate(-7,39.363636363636374)" font-family="sans-serif" font-size="10px" fill="#000" opacity="1">5.0</text><text text-anchor="end" transform="translate(-7,3)" font-family="sans-serif" font-size="10px" fill="#000" opacity="1">5.5</text></g><g class="mark-rule role-axis-domain" pointer-events="none"><line transform="translate(0,400)" x2="0" y2="-400" stroke="#888" stroke-width="1" opacity="1"/></g><g class="mark-text role-axis-title" pointer-events="none"><text text-anchor="middle" transform="translate(-24.9013671875,200) rotate(-90) translate(0,-2)" font-family="sans-serif" font-size="11px" font-weight="bold" fill="#000" opacity="1">mean</text></g></g><path class="foreground" aria-hidden="true" d="" pointer-events="none" display="none"/></g></g><g class="mark-rect role-mark marks" role="graphics-object" aria-roledescription="rect mark container"><path aria-label="hour_bucket: 5; mean: 1.97790055249; type: male" role="graphics-symbol" aria-roledescription="bar" d="M22.5,256.1526870919136h5v143.8473129080864h-5Z" fill="#f58518"/><path aria-label="hour_bucket: 6; mean: 3.61224489796; type: male" role="graphics-symbol" aria-roledescription="bar" d="M47.5,137.291280148423h5v262.70871985157703h-5Z" fill="#f58518"/><path aria-label="hour_bucket: 7; mean: 3.25727069351; type: male" role="graphics-symbol" aria-roledescription="bar" d="M72.5,163.10758592637788h5v236.89241407362212h-5Z" fill="#f58518"/><path aria-label="hour_bucket: 8; mean: 4.13479623824; type: male" role="graphics-symbol" aria-roledescription="bar" d="M97.5,99.28754630948985h5v300.71245369051013h-5Z" fill="#f58518"/><path aria-label="hour_bucket: 9; mean: 4.26406926407; type: male" role="graphics-symbol" aria-roledescription="bar" d="M122.5,89.88587170405351h5v310.1141282959465h-5Z" fill="#f58518"/><path aria-label="hour_bucket: 10; mean: 4.10029069767; type: male" role="graphics-symbol" aria-roledescription="bar" d="M147.5,101.79704016913318h5v298.2029598308668h-5Z" fill="#f58518"/><path aria-label="hour_bucket: 11; mean: 3.92877906977; type: male" role="graphics-symbol" aria-roledescription="bar" d="M172.5,114.27061310782238h5v285.7293868921776h-5Z" fill="#f58518"/><path aria-label="hour_bucket: 12; mean: 3.97965116279; type: male" role="graphics-symbol" aria-roledescription="bar" d="M197.5,110.57082452431288h5v289.4291754756871h-5Z" fill="#f58518"/><path aria-label="hour_bucket: 13; mean: 3.69622093023; type: male" role="graphics-symbol" aria-roledescription="bar" d="M222.5,131.18393234672308h5v268.81606765327695h-5Z" fill="#f58518"/><path aria-label="hour_bucket: 14; mean: 3.72568940493; type: male" role="graphics-symbol" aria-roledescription="bar" d="M247.5,129.04077055020448h5v270.95922944979554h-5Z" fill="#f58518"/><path aria-label="hour_bucket: 15; mean: 3.72965116279; type: male" role="graphics-symbol" aria-roledescription="bar" d="M272.5,128.75264270613104h5v271.24735729386896h-5Z" fill="#f58518"/><path aria-label="hour_bucket: 16; mean: 3.84651898734; type: male" role="graphics-symbol" aria-roledescription="bar" d="M297.5,120.25316455696205h5v279.746835443038h-5Z" fill="#f58518"/><path aria-label="hour_bucket: 17; mean: 2.67223382046; type: male" role="graphics-symbol" aria-roledescription="bar" d="M322.5,205.65572214841526h5v194.34427785158474h-5Z" fill="#f58518"/><path aria-label="hour_bucket: 18; mean: 1.49868073879; type: male" role="graphics-symbol" aria-roledescription="bar" d="M347.5,291.0050371791796h5v108.99496282082038h-5Z" fill="#f58518"/><path aria-label="hour_bucket: 5; mean: 0.635359116022; type: female" role="graphics-symbol" aria-roledescription="bar" d="M22.5,209.9447513812155h5v46.20793571069811h-5Z" fill="#4c78a8"/><path aria-label="hour_bucket: 6; mean: 1.20068027211; type: female" role="graphics-symbol" aria-roledescription="bar" d="M47.5,49.96907854050714h5v87.32220160791586h-5Z" fill="#4c78a8"/><path aria-label="hour_bucket: 7; mean: 0.89485458613; type: female" role="graphics-symbol" aria-roledescription="bar" d="M72.5,98.02725238966855h5v65.08033353670933h-5Z" fill="#4c78a8"/><path aria-label="hour_bucket: 8; mean: 1.04231974922; type: female" role="graphics-symbol" aria-roledescription="bar" d="M97.5,23.48247363921341h5v75.80507267027645h-5Z" fill="#4c78a8"/><path aria-label="hour_bucket: 9; mean: 1.13131313131; type: female" role="graphics-symbol" aria-roledescription="bar" d="M122.5,7.608553063098489h5v82.27731864095503h-5Z" fill="#4c78a8"/><path aria-label="hour_bucket: 10; mean: 0.995639534884; type: female" role="graphics-symbol" aria-roledescription="bar" d="M147.5,29.386892177589807h5v72.41014799154337h-5Z" fill="#4c78a8"/><path aria-label="hour_bucket: 11; mean: 1.00145348837; type: female" role="graphics-symbol" aria-roledescription="bar" d="M172.5,41.43763213530658h5v72.8329809725158h-5Z" fill="#4c78a8"/><path aria-label="hour_bucket: 12; mean: 0.979651162791; type: female" role="graphics-symbol" aria-roledescription="bar" d="M197.5,39.32346723044393h5v71.24735729386896h-5Z" fill="#4c78a8"/><path aria-label="hour_bucket: 13; mean: 0.994186046512; type: female" role="graphics-symbol" aria-roledescription="bar" d="M222.5,58.87949260042289h5v72.30443974630019h-5Z" fill="#4c78a8"/><path aria-label="hour_bucket: 14; mean: 1.06531204644; type: female" role="graphics-symbol" aria-roledescription="bar" d="M247.5,51.563530808813866h5v77.47723974139062h-5Z" fill="#4c78a8"/><path aria-label="hour_bucket: 15; mean: 1.14970930233; type: female" role="graphics-symbol" aria-roledescription="bar" d="M272.5,45.13742071881608h5v83.61522198731495h-5Z" fill="#4c78a8"/><path aria-label="hour_bucket: 16; mean: 1.07436708861; type: female" role="graphics-symbol" aria-roledescription="bar" d="M297.5,42.117376294591494h5v78.13578826237055h-5Z" fill="#4c78a8"/><path aria-label="hour_bucket: 17; mean: 0.889352818372; type: female" role="graphics-symbol" aria-roledescription="bar" d="M322.5,140.97551717593473h5v64.68020497248054h-5Z" fill="#4c78a8"/><path aria-label="hour_bucket: 18; mean: 0.469656992084; type: female" role="graphics-symbol" aria-roledescription="bar" d="M347.5,256.84816502758457h5v34.15687215159505h-5Z" fill="#4c78a8"/></g><g class="mark-group role-legend" role="graphics-symbol" aria-roledescription="legend" aria-label="Symbol legend titled 'type' for fill color with 2 values: female, male"><g transform="translate(418,0)"><path class="background" aria-hidden="true" d="M0,0h47v40h-47Z" pointer-events="none"/><g><g class="mark-group role-legend-entry"><g transform="translate(0,16)"><path class="background" aria-hidden="true" d="M0,0h0v0h0Z" pointer-events="none"/><g><g class="mark-group role-scope" role="graphics-object" aria-roledescription="group mark container"><g transform="translate(0,0)"><path class="background" aria-hidden="true" d="M0,0h46.0146484375v11h-46.0146484375Z" pointer-events="none" opacity="1"/><g><g class="mark-symbol role-legend-symbol" pointer-events="none"><path transform="translate(6,6)" d="M-5,-5h10v10h-10Z" fill="#4c78a8" stroke-width="1.5" opacity="1"/></g><g class="mark-text role-legend-label" pointer-events="none"><text text-anchor="start" transform="translate(16,9)" font-family="sans-serif" font-size="10px" fill="#000" opacity="1">female</text></g></g><path class="foreground" aria-hidden="true" d="" pointer-events="none" display="none"/></g><g transform="translate(0,13)"><path class="background" aria-hidden="true" d="M0,0h46.0146484375v11h-46.0146484375Z" pointer-events="none" opacity="1"/><g><g class="mark-symbol role-legend-symbol" pointer-events="none"><path transform="translate(6,6)" d="M-5,-5h10v10h-10Z" fill="#f58518" stroke-width="1.5" opacity="1"/></g><g class="mark-text role-legend-label" pointer-events="none"><text text-anchor="start" transform="translate(16,9)" font-family="sans-serif" font-size="10px" fill="#000" opacity="1">male</text></g></g><path class="foreground" aria-hidden="true" d="" pointer-events="none" display="none"/></g></g></g><path class="foreground" aria-hidden="true" d="" pointer-events="none" display="none"/></g></g><g class="mark-text role-legend-title" pointer-events="none"><text text-anchor="start" transform="translate(0,9)" font-family="sans-serif" font-size="11px" font-weight="bold" fill="#000" opacity="1">type</text></g></g><path class="foreground" aria-hidden="true" d="" pointer-events="none" display="none"/></g></g></g><path class="foreground" aria-hidden="true" d="" display="none"/></g></g></g></svg>