<svg xmlns="http://www.w3.org/2000/svg" xmlns:xlink="http://www.w3.org/1999/xlink" version="1.1" class="marks" width="453" height="447" viewBox="0 0 453 447"><rect width="453" height="447" fill="white"/><g fill="none" stroke-miterlimit="10" transform="translate(47,10)"><g class="mark-group role-frame root" role="graphics-object" aria-roledescription="group mark container"><g transform="translate(0,0)"><path class="background" aria-hidden="true" d="M0.5,0.5h400v400h-400Z" stroke="#ddd"/><g><g class="mark-group role-axis" aria-hidden="true"><g transform="translate(0.5,400.5)"><path class="background" aria-hidden="true" d="M0,0h0v0h0Z" pointer-events="none"/><g><g class="mark-rule role-axis-grid" pointer-events="none"><line transform="translate(0,-400)" x2="0" y2="400" stroke="#ddd" stroke-width="1" opacity="1"/><line transform="translate(29,-400)" x2="0" y2="400" stroke="#ddd" stroke-width="1" opacity="1"/><line transform="translate(57,-400)" x2="0" y2="400" stroke="#ddd" stroke-width="1" opacity="1"/><line transform="translate(86,-400)" x2="0" y2="400" stroke="#ddd" stroke-width="1" opacity="1"/><line transform="translate(114,-400)" x2="0" y2="400" stroke="#ddd" stroke-width="1" opacity="1"/><line transform="translate(143,-400)" x2="0" y2="400" stroke="#ddd" stroke-width="1" opacity="1"/><line transform="translate(171,-400)" x2="0" y2="400" stroke="#ddd" stroke-width="1" opacity="1"/><line transform="translate(200,-400)" x2="0" y2="400" stroke="#ddd" stroke-width="1" opacity="1"/><line transform="translate(229,-400)" x2="0" y2="400" stroke="#ddd" stroke-width="1" opacity="1"/><line transform="translate(257,-400)" x2="0" y2="400" stroke="#ddd" stroke-width="1" opacity="1"/><line transform="translate(286,-400)" x2="0" y2="400" stroke="#ddd" stroke-width="1" opacity="1"/><line transform="translate(314,-400)" x2="0" y2="400" stroke="#ddd" stroke-width="1" opacity="1"/><line transform="translate(343,-400)" x2="0" y2="400" stroke="#ddd" stroke-width="1" opacity="1"/><line transform="translate(371,-400)" x2="0" y2="400" stroke="#ddd" stroke-width="1" opacity="1"/><line transform="translate(400,-400)" x2="0" y2="400" stroke="#ddd" stroke-width="1" opacity="1"/></g></g><path class="foreground" aria-hidden="true" d="" pointer-events="none" display="none"/></g></g><g class="mark-group role-axis" aria-hidden="true"><g transform="translate(0.5,0.5)"><path class="background" aria-hidden="true" d="M0,0h0v0h0Z" pointer-events="none"/><g><g class="mark-rule role-axis-grid" pointer-events="none"><line transform="translate(0,400)" x2="400" y2="0" stroke="#ddd" stroke-width="1" opacity="1"/><line transform="translate(0,367)" x2="400" y2="0" stroke="#ddd" stroke-width="1" opacity="1"/><line transform="translate(0,333)" x2="400" y2="0" stroke="#ddd" stroke-width="1" opacity="1"/><line transform="translate(0,300)" x2="400" y2="0" stroke="#ddd" stroke-width="1" opacity="1"/><line transform="translate(0,267)" x2="400" y2="0" stroke="#ddd" stroke-width="1" opacity="1"/><line transform="translate(0,233)" x2="400" y2="0" stroke="#ddd" stroke-width="1" opacity="1"/><line transform="translate(0,200)" x2="400" y2="0" stroke="#ddd" stroke-width="1" opacity="1"/><line transform="translate(0,167)" x2="400" y2="0" stroke="#ddd" stroke-width="1" opacity="1"/><line transform="translate(0,133)" x2="400" y2="0" stroke="#ddd" stroke-width="1" opacity="1"/><line transform="translate(0,100)" x2="400" y2="0" stroke="#ddd" stroke-width="1" opacity="1"/><line transform="translate(0,67)" x2="400" y2="0" stroke="#ddd" stroke-width="1" opacity="1"/><line transform="translate(0,33)" x2="400" y2="0" stroke="#ddd" stroke-width="1" opacity="1"/><line transform="translate(0,0)" x2="400" y2="0" stroke="#ddd" stroke-width="1" opacity="1"/></g></g><path class="foreground" aria-hidden="true" d="" pointer-events="none" display="none"/></g></g><g class="mark-group role-axis" role="graphics-symbol" aria-roledescription="axis" aria-label="X-axis titled 'temperature' for a linear scale with values from −4 to 24"><g transform="translate(0.5,400.5)"><path class="background" aria-hidden="true" d="M0,0h0v0h0Z" pointer-events="none"/><g><g class="mark-rule role-axis-tick" pointer-events="none"><line transform="translate(0,0)" x2="0" y2="5" stroke="#888" stroke-width="1" opacity="1"/><line transform="translate(29,0)" x2="0" y2="5" stroke="#888" stroke-width="1" opacity="1"/><line transform="translate(57,0)" x2="0" y2="5" stroke="#888" stroke-width="1" opacity="1"/><line transform="translate(86,0)" x2="0" y2="5" stroke="#888" stroke-width="1" opacity="1"/><line transform="translate(114,0)" x2="0" y2="5" stroke="#888" stroke-width="1" opacity="1"/><line transform="translate(143,0)" x2="0" y2="5" stroke="#888" stroke-width="1" opacity="1"/><line transform="translate(171,0)" x2="0" y2="5" stroke="#888" stroke-width="1" opacity="1"/><line transform="translate(200,0)" x2="0" y2="5" stroke="#888" stroke-width="1" opacity="1"/><line transform="translate(229,0)" x2="0" y2="5" stroke="#888" stroke-width="1" opacity="1"/><line transform="translate(257,0)" x2="0" y2="5" stroke="#888" stroke-width="1" opacity="1"/><line transform="translate(286,0)" x2="0" y2="5" stroke="#888" stroke-width="1" opacity="1"/><line transform="translate(314,0)" x2="0" y2="5" stroke="#888" stroke-width="1" opacity="1"/><line transform="translate(343,0)" x2="0" y2="5" stroke="#888" stroke-width="1" opacity="1"/><line transform="translate(371,0)" x2="0" y2="5" stroke="#888" stroke-width="1" opacity="1"/><line transform="translate(400,0)" x2="0" y2="5" stroke="#888" stroke-width="1" opacity="1"/></g><g class="mark-text role-axis-label" pointer-events="none"><text text-anchor="start" transform="translate(0,15)" font-family="sans-serif" font-size="10px" fill="#000" opacity="1">−4</text><text text-anchor="middle" transform="translate(28.57142857142857,15)" font-family="sans-serif" font-size="10px" fill="#000" opacity="1">−2</text><text text-anchor="middle" transform="translate(57.14285714285714,15)" font-family="sans-serif" font-size="10px" fill="#000" opacity="1">0</text><text text-anchor="middle" transform="translate(85.71428571428571,15)" font-family="sans-serif" font-size="10px" fill="#000" opacity="1">2</text><text text-anchor="middle" transform="translate(114.28571428571428,15)" font-family="sans-serif" font-size="10px" fill="#000" opacity="1">4</text><text text-anchor="middle" transform="translate(142.85714285714286,15)" font-family="sans-serif" font-size="10px" fill="#000" opacity="1">6</text><text text-anchor="middle" transform="translate(171.42857142857142,15)" font-family="sans-serif" font-size="10px" fill="#000" opacity="1">8</text><text text-anchor="middle" transform="translate(200,15)" font-family="sans-serif" font-size="10px" fill="#000" opacity="1">10</text><text text-anchor="middle" transform="translate(228.57142857142856,15)" font-family="sans-serif" font-size="10px" fill="#000" opacity="1">12</text><text text-anchor="middle" transform="translate(257.14285714285717,15)" font-family="sans-serif" font-size="10px" fill="#000" opacity="1">14</text><text text-anchor="middle" transform="translate(285.7142857142857,15)" font-family="sans-serif" font-size="10px" fill="#000" opacity="1">16</text><text text-anchor="middle" transform="translate(314.2857142857143,15)" font-family="sans-serif" font-size="10px" fill="#000" opacity="1">18</text><text text-anchor="middle" transform="translate(342.85714285714283,15)" font-family="sans-serif" font-size="10px" fill="#000" opacity="1">20</text><text text-anchor="middle" transform="translate(371.42857142857144,15)" font-family="sans-serif" font-size="10px" fill="#000" opacity="1">22</text><text text-anchor="end" transform="translate(400,15)" font-family="sans-serif" font-size="10px" fill="#000" opacity="1">24</text></g><g class="mark-rule role-axis-domain" pointer-events="none"><line transform="translate(0,0)" x2="400" y2="0" stroke="#888" stroke-width="1" opacity="1"/></g><g class="mark-text role-axis-title" pointer-events="none"><text text-anchor="middle" transform="translate(200,30)" font-family="sans-serif" font-size="11px" font-weight="bold" fill="#000" opacity="1">temperature</text></g></g><path class="foreground" aria-hidden="true" d="" pointer-events="none" display="none"/></g></g><g class="mark-group role-axis" role="graphics-symbol" aria-roledescription="axis" aria-label="Y-axis titled 'calls_per_hour' for a linear scale with values from 0.0 to 0.6"><g transform="translate(0.5,0.5)"><path class="background" aria-hidden="true" d="M0,0h0v0h0Z" pointer-events="none"/><g><g class="mark-rule role-axis-tick" pointer-events="none"><line transform="translate(0,400)" x2="-5" y2="0" stroke="#888" stroke-width="1" opacity="1"/><line transform="translate(0,367)" x2="-5" y2="0" stroke="#888" stroke-width="1" opacity="1"/><line transform="translate(0,333)" x2="-5" y2="0" stroke="#888" stroke-width="1" opacity="1"/><line transform="translate(0,300)" x2="-5" y2="0" stroke="#888" stroke-width="1" opacity="1"/><line transform="translate(0,267)" x2="-5" y2="0" stroke="#888" stroke-width="1" opacity="1"/><line transform="translate(0,233)" x2="-5" y2="0" stroke="#888" stroke-width="1" opacity="1"/><line transform="translate(0,200)" x2="-5" y2="0" stroke="#888" stroke-width="1" opacity="1"/><line transform="translate(0,167)" x2="-5" y2="0" stroke="#888" stroke-width="1" opacity="1"/><line transform="translate(0,133)" x2="-5" y2="0" stroke="#888" stroke-width="1" opacity="1"/><line transform="translate(0,100)" x2="-5" y2="0" stroke="#888" stroke-width="1" opacity="1"/><line transform="translate(0,67)" x2="-5" y2="0" stroke="#888" stroke-width="1" opacity="1"/><line transform="translate(0,33)" x2="-5" y2="0" stroke="#888" stroke-width="1" opacity="1"/><line transform="translate(0,0)" x2="-5" y2="0" stroke="#888" stroke-width="1" opacity="1"/></g><g class="mark-text role-axis-label" pointer-events="none"><text text-anchor="end" transform="translate(-7,403)" font-family="sans-serif" font-size="10px" fill="#000" opacity="1">0.00</text><text text-anchor="end" transform="translate(-7,369.66666666666663)" font-family="sans-serif" font-size="10px" fill="#000" opacity="1">0.05</text><text text-anchor="end" transform="translate(-7,336.3333333333333)" font-family="sans-serif" font-size="10px" fill="#000" opacity="1">0.10</text><text text-anchor="end" transform="translate(-7,303)" font-family="sans-serif" font-size="10px" fill="#000" opacity="1">0.15</text><text text-anchor="end" transform="translate(-7,269.66666666666663)" font-family="sans-serif" font-size="10px" fill="#000" opacity="1">0.20</text><text text-anchor="end" transform="translate(-7,236.33333333333331)" font-family="sans-serif" font-size="10px" fill="#000" opacity="1">0.25</text><text text-anchor="end" transform="translate(-7,203)" font-family="sans-serif" font-size="10px" fill="#000" opacity="1">0.30</text><text text-anchor="end" transform="translate(-7,169.66666666666666)" font-family="sans-serif" font-size="10px" fill="#000" opacity="1">0.35</text><text text-anchor="end" transform="translate(-7,136.33333333333331)" font-family="sans-serif" font-size="10px" fill="#000" opacity="1">0.40</text><text text-anchor="end" transform="translate(-7,103)" font-family="sans-serif" font-size="10px" fill="#000" opacity="1">0.45</text><text text-anchor="end" transform="translate(-7,69.66666666666666)" font-family="sans-serif" font-size="10px" fill="#000" opacity="1">0.50</text><text text-anchor="end" transform="translate(-7,36.3333333333333)" font-family="sans-serif" font-size="10px" fill="#000" opacity="1">0.55</text><text text-anchor="end" transform="translate(-7,3)" font-family="sans-serif" font-size="10px" fill="#000" opacity="1">0.60</text></g><g class="mark-rule role-axis-domain" pointer-events="none"><line transform="translate(0,400)" x2="0" y2="-400" stroke="#888" stroke-width="1" opacity="1"/></g><g class="mark-text role-axis-title" pointer-events="none"><text text-anchor="middle" transform="translate(-30.462890625,200) rotate(-90) translate(0,-2)" font-family="sans-serif" font-size="11px" font-weight="bold" fill="#000" opacity="1">calls_per_hour</text></g></g><path class="foreground" aria-hidden="true" d="" pointer-events="none" display="none"/></g></g><g class="mark-rect role-mark marks" role="graphics-object" aria-roledescription="rect mark container"><path aria-label="temperature: −3; calls_per_hour: 0.2" role="graphics-symbol" aria-roledescription="bar" d="M11.785714285714285,266.66666666666663h5v133.33333333333337h-5Z" fill="#4c78a8"/><path aria-label="temperature: −2; calls_per_hour: 0.52380952381" role="graphics-symbol" aria-roledescription="bar" d="M26.07142857142857,50.79365079365075h5v349.2063492063493h-5Z" fill="#4c78a8"/><path aria-label="temperature: −1; calls_per_hour: 0.591304347826" role="graphics-symbol" aria-roledescription="bar" d="M40.357142857142854,5.797101449275344h5v394.2028985507247h-5Z" fill="#4c78a8"/><path aria-label="temperature: 0; calls_per_hour: 0.442563482467" role="graphics-symbol" aria-roledescription="bar" d="M54.64285714285714,104.95767835550183h5v295.0423216444982h-5Z" fill="#4c78a8"/><path aria-label="temperature: 1; calls_per_hour: 0.415554532904" role="graphics-symbol" aria-roledescription="bar" d="M68.92857142857143,122.96364473078691h5v277.0363552692131h-5Z" fill="#4c78a8"/><path aria-label="temperature: 2; calls_per_hour: 0.40530726257" role="graphics-symbol" aria-roledescription="bar" d="M83.21428571428571,129.79515828677836h5v270.20484171322164h-5Z" fill="#4c78a8"/><path aria-label="temperature: 3; calls_per_hour: 0.396806145138" role="graphics-symbol" aria-roledescription="bar" d="M97.5,135.46256990768816h5v264.53743009231187h-5Z" fill="#4c78a8"/><path aria-label="temperature: 4; calls_per_hour: 0.385220883534" role="graphics-symbol" aria-roledescription="bar" d="M111.78571428571428,143.186077643909h5v256.813922356091h-5Z" fill="#4c78a8"/><path aria-label="temperature: 5; calls_per_hour: 0.403404694351" role="graphics-symbol" aria-roledescription="bar" d="M126.07142857142858,131.06353709913162h5v268.9364629008684h-5Z" fill="#4c78a8"/><path aria-label="temperature: 6; calls_per_hour: 0.436217350746" role="graphics-symbol" aria-roledescription="bar" d="M140.35714285714286,109.18843283582089h5v290.8115671641791h-5Z" fill="#4c78a8"/><path aria-label="temperature: 7; calls_per_hour: 0.430734966592" role="graphics-symbol" aria-roledescription="bar" d="M154.64285714285714,112.84335560504823h5v287.15664439495174h-5Z" fill="#4c78a8"/><path aria-label="temperature: 8; calls_per_hour: 0.441640742021" role="graphics-symbol" aria-roledescription="bar" d="M168.92857142857142,105.57283865268654h5v294.4271613473135h-5Z" fill="#4c78a8"/><path aria-label="temperature: 9; calls_per_hour: 0.426631675034" role="graphics-symbol" aria-roledescription="bar" d="M183.21428571428572,115.5788833105127h5v284.4211166894873h-5Z" fill="#4c78a8"/><path aria-label="temperature: 10; calls_per_hour: 0.433072677093" role="graphics-symbol" aria-roledescription="bar" d="M197.5,111.28488193805578h5v288.7151180619442h-5Z" fill="#4c78a8"/><path aria-label="temperature: 11; calls_per_hour: 0.449866472445" role="graphics-symbol" aria-roledescription="bar" d="M211.78571428571428,100.08901837015456h5v299.9109816298454h-5Z" fill="#4c78a8"/><path aria-label="temperature: 12; calls_per_hour: 0.472642762284" role="graphics-symbol" aria-roledescription="bar" d="M226.07142857142856,84.90482514386896h5v315.09517485613105h-5Z" fill="#4c78a8"/><path aria-label="temperature: 13; calls_per_hour: 0.451059990979" role="graphics-symbol" aria-roledescription="bar" d="M240.35714285714283,99.29333934746656h5v300.70666065253346h-5Z" fill="#4c78a8"/><path aria-label="temperature: 14; calls_per_hour: 0.440254734372" role="graphics-symbol" aria-roledescription="bar" d="M254.64285714285717,106.49684375174569h5v293.5031562482543h-5Z" fill="#4c78a8"/><path aria-label="temperature: 15; calls_per_hour: 0.423319114361" role="graphics-symbol" aria-roledescription="bar" d="M268.92857142857144,117.78725709255875h5v282.2127429074412h-5Z" fill="#4c78a8"/><path aria-label="temperature: 16; calls_per_hour: 0.380346507851" role="graphics-symbol" aria-roledescription="bar" d="M283.2142857142857,146.43566143295433h5v253.56433856704567h-5Z" fill="#4c78a8"/><path aria-label="temperature: 17; calls_per_hour: 0.386002886003" role="graphics-symbol" aria-roledescription="bar" d="M297.5,142.66474266474262h5v257.3352573352574h-5Z" fill="#4c78a8"/><path aria-label="temperature: 18; calls_per_hour: 0.374461979914" role="graphics-symbol" aria-roledescription="bar" d="M311.7857142857143,150.3586800573888h5v249.6413199426112h-5Z" fill="#4c78a8"/><path aria-label="temperature: 19; calls_per_hour: 0.317577548006" role="graphics-symbol" aria-roledescription="bar" d="M326.07142857142856,188.28163466272773h5v211.71836533727227h-5Z" fill="#4c78a8"/><path aria-label="temperature: 20; calls_per_hour: 0.29349112426" role="graphics-symbol" aria-roledescription="bar" d="M340.35714285714283,204.3392504930966h5v195.6607495069034h-5Z" fill="#4c78a8"/><path aria-label="temperature: 21; calls_per_hour: 0.290476190476" role="graphics-symbol" aria-roledescription="bar" d="M354.64285714285717,206.34920634920633h5v193.65079365079367h-5Z" fill="#4c78a8"/><path aria-label="temperature: 22; calls_per_hour: 0.272727272727" role="graphics-symbol" aria-roledescription="bar" d="M368.92857142857144,218.18181818181816h5v181.81818181818184h-5Z" fill="#4c78a8"/><path aria-label="temperature: 23; calls_per_hour: 0.0833333333333" role="graphics-symbol" aria-roledescription="bar" d="M383.2142857142857,344.44444444444446h5v55.55555555555554h-5Z" fill="#4c78a8"/></g></g><path class="foreground" aria-hidden="true" d="" display="none"/></g></g></g></svg>