<svg xmlns="http://www.w3.org/2000/svg" xmlns:xlink="http://www.w3.org/1999/xlink" version="1.1" class="marks" width="525" height="443" viewBox="0 0 525 443"><rect width="525" height="443" fill="white"/><g fill="none" stroke-miterlimit="10" transform="translate(55,6)"><g class="mark-group role-frame root" role="graphics-object" aria-roledescription="group mark container"><g transform="translate(0,0)"><path class="background" aria-hidden="true" d="M0.5,0.5h400v400h-400Z" stroke="#ddd"/><g><g class="mark-group role-axis" aria-hidden="true"><g transform="translate(0.5,400.5)"><path class="background" aria-hidden="true" d="M0,0h0v0h0Z" pointer-events="none"/><g><g class="mark-rule role-axis-grid" pointer-events="none"><line transform="translate(0,0)" x2="0" y2="-400" stroke="#ddd" stroke-width="1" opacity="1"/><line transform="translate(36,0)" x2="0" y2="-400" stroke="#ddd" stroke-width="1" opacity="1"/><line transform="translate(73,0)" x2="0" y2="-400" stroke="#ddd" stroke-width="1" opacity="1"/><line transform="translate(109,0)" x2="0" y2="-400" stroke="#ddd" stroke-width="1" opacity="1"/><line transform="translate(145,0)" x2="0" y2="-400" stroke="#ddd" stroke-width="1" opacity="1"/><line transform="translate(182,0)" x2="0" y2="-400" stroke="#ddd" stroke-width="1" opacity="1"/><line transform="translate(218,0)" x2="0" y2="-400" stroke="#ddd" stroke-width="1" opacity="1"/><line transform="translate(255,0)" x2="0" y2="-400" stroke="#ddd" stroke-width="1" opacity="1"/><line transform="translate(291,0)" x2="0" y2="-400" stroke="#ddd" stroke-width="1" opacity="1"/><line transform="translate(327,0)" x2="0" y2="-400" stroke="#ddd" stroke-width="1" opacity="1"/><line transform="translate(364,0)" x2="0" y2="-400" stroke="#ddd" stroke-width="1" opacity="1"/><line transform="translate(400,0)" x2="0" y2="-400" stroke="#ddd" stroke-width="1" opacity="1"/></g></g><path class="foreground" aria-hidden="true" d="" pointer-events="none" display="none"/></g></g><g class="mark-group role-axis" role="graphics-symbol" aria-roledescription="axis" aria-label="X-axis titled 'mean_calls_per_hour' for a linear scale with values from 0.0 to 1.1"><g transform="translate(0.5,400.5)"><path class="background" aria-hidden="true" d="M0,0h0v0h0Z" pointer-events="none"/><g><g class="mark-rule role-axis-tick" pointer-events="none"><line transform="translate(0,0)" x2="0" y2="5" stroke="#888" stroke-width="1" opacity="1"/><line transform="translate(36,0)" x2="0" y2="5" stroke="#888" stroke-width="1" opacity="1"/><line transform="translate(73,0)" x2="0" y2="5" stroke="#888" stroke-width="1" opacity="1"/><line transform="translate(109,0)" x2="0" y2="5" stroke="#888" stroke-width="1" opacity="1"/><line transform="translate(145,0)" x2="0" y2="5" stroke="#888" stroke-width="1" opacity="1"/><line transform="translate(182,0)" x2="0" y2="5" stroke="#888" stroke-width="1" opacity="1"/><line transform="translate(218,0)" x2="0" y2="5" stroke="#888" stroke-width="1" opacity="1"/><line transform="translate(255,0)" x2="0" y2="5" stroke="#888" stroke-width="1" opacity="1"/><line transform="translate(291,0)" x2="0" y2="5" stroke="#888" stroke-width="1" opacity="1"/><line transform="translate(327,0)" x2="0" y2="5" stroke="#888" stroke-width="1" opacity="1"/><line transform="translate(364,0)" x2="0" y2="5" stroke="#888" stroke-width="1" opacity="1"/><line transform="translate(400,0)" x2="0" y2="5" stroke="#888" stroke-width="1" opacity="1"/></g><g class="mark-text role-axis-label" pointer-events="none"><text text-anchor="start" transform="translate(0,15)" font-family="sans-serif" font-size="10px" fill="#000" opacity="1">0.0</text><text text-anchor="middle" transform="translate(36.36363636363637,15)" font-family="sans-serif" font-size="10px" fill="#000" opacity="1">0.1</text><text text-anchor="middle" transform="translate(72.72727272727273,15)" font-family="sans-serif" font-size="10px" fill="#000" opacity="1">0.2</text><text text-anchor="middle" transform="translate(109.09090909090908,15)" font-family="sans-serif" font-size="10px" fill="#000" opacity="1">0.3</text><text text-anchor="middle" transform="translate(145.45454545454547,15)" font-family="sans-serif" font-size="10px" fill="#000" opacity="1">0.4</text><text text-anchor="middle" transform="translate(181.8181818181818,15)" font-family="sans-serif" font-size="10px" fill="#000" opacity="1">0.5</text><text text-anchor="middle" transform="translate(218.18181818181816,15)" font-family="sans-serif" font-size="10px" fill="#000" opacity="1">0.6</text><text text-anchor="middle" transform="translate(254.5454545454545,15)" font-family="sans-serif" font-size="10px" fill="#000" opacity="1">0.7</text><text text-anchor="middle" transform="translate(290.90909090909093,15)" font-family="sans-serif" font-size="10px" fill="#000" opacity="1">0.8</text><text text-anchor="middle" transform="translate(327.27272727272725,15)" font-family="sans-serif" font-size="10px" fill="#000" opacity="1">0.9</text><text text-anchor="middle" transform="translate(363.6363636363636,15)" font-family="sans-serif" font-size="10px" fill="#000" opacity="1">1.0</text><text text-anchor="end" transform="translate(400,15)" font-family="sans-serif" font-size="10px" fill="#000" opacity="1">1.1</text></g><g class="mark-rule role-axis-domain" pointer-events="none"><line transform="translate(0,0)" x2="400" y2="0" stroke="#888" stroke-width="1" opacity="1"/></g><g class="mark-text role-axis-title" pointer-events="none"><text text-anchor="middle" transform="translate(200,30)" font-family="sans-serif" font-size="11px" font-weight="bold" fill="#000" opacity="1">mean_calls_per_hour</text></g></g><path class="foreground" aria-hidden="true" d="" pointer-events="none" display="none"/></g></g><g class="mark-group role-axis" role="graphics-symbol" aria-roledescription="axis" aria-label="Y-axis titled 'location' for a discrete scale with 40 values: F09, C05, N20, G05, H05, ending with A01"><g transform="translate(0.5,0.5)"><path class="background" aria-hidden="true" d="M0,0h0v0h0Z" pointer-events="none"/><g><g class="mark-rule role-axis-tick" pointer-events="none"><line transform="translate(0,5)" x2="-5" y2="0" stroke="#888" stroke-width="1" opacity="1"/><line transform="translate(0,15)" x2="-5" y2="0" stroke="#888" stroke-width="1" opacity="1"/><line transform="translate(0,25)" x2="-5" y2="0" stroke="#888" stroke-width="1" opacity="1"/><line transform="translate(0,35)" x2="-5" y2="0" stroke="#888" stroke-width="1" opacity="1"/><line transform="translate(0,45)" x2="-5" y2="0" stroke="#888" stroke-width="1" opacity="1"/><line transform="translate(0,55)" x2="-5" y2="0" stroke="#888" stroke-width="1" opacity="1"/><line transform="translate(0,65)" x2="-5" y2="0" stroke="#888" stroke-width="1" opacity="1"/><line transform="translate(0,75)" x2="-5" y2="0" stroke="#888" stroke-width="1" opacity="1"/><line transform="translate(0,85)" x2="-5" y2="0" stroke="#888" stroke-width="1" opacity="1"/><line transform="translate(0,95)" x2="-5" y2="0" stroke="#888" stroke-width="1" opacity="1"/><line transform="translate(0,105)" x2="-5" y2="0" stroke="#888" stroke-width="1" opacity="1"/><line transform="translate(0,115)" x2="-5" y2="0" stroke="#888" stroke-width="1" opacity="1"/><line transform="translate(0,125)" x2="-5" y2="0" stroke="#888" stroke-width="1" opacity="1"/><line transform="translate(0,135)" x2="-5" y2="0" stroke="#888" stroke-width="1" opacity="1"/><line transform="translate(0,145)" x2="-5" y2="0" stroke="#888" stroke-width="1" opacity="1"/><line transform="translate(0,155)" x2="-5" y2="0" stroke="#888" stroke-width="1" opacity="1"/><line transform="translate(0,165)" x2="-5" y2="0" stroke="#888" stroke-width="1" opacity="1"/><line transform="translate(0,175)" x2="-5" y2="0" stroke="#888" stroke-width="1" opacity="1"/><line transform="translate(0,185)" x2="-5" y2="0" stroke="#888" stroke-width="1" opacity="1"/><line transform="translate(0,195)" x2="-5" y2="0" stroke="#888" stroke-width="1" opacity="1"/><line transform="translate(0,205)" x2="-5" y2="0" stroke="#888" stroke-width="1" opacity="1"/><line transform="translate(0,215)" x2="-5" y2="0" stroke="#888" stroke-width="1" opacity="1"/><line transform="translate(0,225)" x2="-5" y2="0" stroke="#888" stroke-width="1" opacity="1"/><line transform="translate(0,235)" x2="-5" y2="0" stroke="#888" stroke-width="1" opacity="1"/><line transform="translate(0,245)" x2="-5" y2="0" stroke="#888" stroke-width="1" opacity="1"/><line transform="translate(0,255)" x2="-5" y2="0" stroke="#888" stroke-width="1" opacity="1"/><line transform="translate(0,265)" x2="-5" y2="0" stroke="#888" stroke-width="1" opacity="1"/><line transform="translate(0,275)" x2="-5" y2="0" stroke="#888" stroke-width="1" opacity="1"/><line transform="translate(0,285)" x2="-5" y2="0" stroke="#888" stroke-width="1" opacity="1"/><line transform="translate(0,295)" x2="-5" y2="0" stroke="#888" stroke-width="1" opacity="1"/><line transform="translate(0,305)" x2="-5" y2="0" stroke="#888" stroke-width="1" opacity="1"/><line transform="translate(0,315)" x2="-5" y2="0" stroke="#888" stroke-width="1" opacity="1"/><line transform="translate(0,325)" x2="-5" y2="0" stroke="#888" stroke-width="1" opacity="1"/><line transform="translate(0,335)" x2="-5" y2="0" stroke="#888" stroke-width="1" opacity="1"/><line transform="translate(0,345)" x2="-5" y2="0" stroke="#888" stroke-width="1" opacity="1"/><line transform="translate(0,355)" x2="-5" y2="0" stroke="#888" stroke-width="1" opacity="1"/><line transform="translate(0,365)" x2="-5" y2="0" stroke="#888" stroke-width="1" opacity="1"/><line transform="translate(0,375)" x2="-5" y2="0" stroke="#888" stroke-width="1" opacity="1"/><line transform="translate(0,385)" x2="-5" y2="0" stroke="#888" stroke-width="1" opacity="1"/><line transform="translate(0,395)" x2="-5" y2="0" stroke="#888" stroke-width="1" opacity="1"/></g><g class="mark-text role-axis-label" pointer-events="none"><text text-anchor="end" transform="translate(-7,7.5)" font-family="sans-serif" font-size="10px" fill="#000" opacity="1">F09</text><text text-anchor="end" transform="translate(-7,17.5)" font-family="sans-serif" font-size="10px" fill="#000" opacity="1">C05</text><text text-anchor="end" transform="translate(-7,27.5)" font-family="sans-serif" font-size="10px" fill="#000" opacity="1">N20</text><text text-anchor="end" transform="translate(-7,37.5)" font-family="sans-serif" font-size="10px" fill="#000" opacity="1">G05</text><text text-anchor="end" transform="translate(-7,47.5)" font-family="sans-serif" font-size="10px" fill="#000" opacity="1">H05</text><text text-anchor="end" transform="translate(-7,57.5)" font-family="sans-serif" font-size="10px" fill="#000" opacity="1">D09</text><text text-anchor="end" transform="translate(-7,67.5)" font-family="sans-serif" font-size="10px" fill="#000" opacity="1">H09</text><text text-anchor="end" transform="translate(-7,77.5)" font-family="sans-serif" font-size="10px" fill="#000" opacity="1">H04</text><text text-anchor="end" transform="translate(-7,87.5)" font-family="sans-serif" font-size="10px" fill="#000" opacity="1">V05</text><text text-anchor="end" transform="translate(-7,97.5)" font-family="sans-serif" font-size="10px" fill="#000" opacity="1">V23</text><text text-anchor="end" transform="translate(-7,107.5)" font-family="sans-serif" font-size="10px" fill="#000" opacity="1">M04</text><text text-anchor="end" transform="translate(-7,117.5)" font-family="sans-serif" font-size="10px" fill="#000" opacity="1">F05</text><text text-anchor="end" transform="translate(-7,127.5)" font-family="sans-serif" font-size="10px" fill="#000" opacity="1">B12M</text><text text-anchor="end" transform="translate(-7,137.5)" font-family="sans-serif" font-size="10px" fill="#000" opacity="1">T10</text><text text-anchor="end" transform="translate(-7,147.5)" font-family="sans-serif" font-size="10px" fill="#000" opacity="1">S13T</text><text text-anchor="end" transform="translate(-7,157.5)" font-family="sans-serif" font-size="10px" fill="#000" opacity="1">WB09</text><text text-anchor="end" transform="translate(-7,167.5)" font-family="sans-serif" font-size="10px" fill="#000" opacity="1">H07</text><text text-anchor="end" transform="translate(-7,177.5)" font-family="sans-serif" font-size="10px" fill="#000" opacity="1">NB5T</text><text text-anchor="end" transform="translate(-7,187.5)" font-family="sans-serif" font-size="10px" fill="#000" opacity="1">WD05</text><text text-anchor="end" transform="translate(-7,197.5)" font-family="sans-serif" font-size="10px" fill="#000" opacity="1">D03</text><text text-anchor="end" transform="translate(-7,207.5)" font-family="sans-serif" font-size="10px" fill="#000" opacity="1">M01</text><text text-anchor="end" transform="translate(-7,217.5)" font-family="sans-serif" font-size="10px" fill="#000" opacity="1">N14</text><text text-anchor="end" transform="translate(-7,227.5)" font-family="sans-serif" font-size="10px" fill="#000" opacity="1">M02</text><text text-anchor="end" transform="translate(-7,237.5)" font-family="sans-serif" font-size="10px" fill="#000" opacity="1">NB14</text><text text-anchor="end" transform="translate(-7,247.5)" font-family="sans-serif" font-size="10px" fill="#000" opacity="1">KS06</text><text text-anchor="end" transform="translate(-7,257.5)" font-family="sans-serif" font-size="10px" fill="#000" opacity="1">CB11</text><text text-anchor="end" transform="translate(-7,267.5)" font-family="sans-serif" font-size="10px" fill="#000" opacity="1">K09</text><text text-anchor="end" transform="translate(-7,277.5)" font-family="sans-serif" font-size="10px" fill="#000" opacity="1">D05</text><text text-anchor="end" transform="translate(-7,287.5)" font-family="sans-serif" font-size="10px" fill="#000" opacity="1">M05</text><text text-anchor="end" transform="translate(-7,297.5)" font-family="sans-serif" font-size="10px" fill="#000" opacity="1">E07</text><text text-anchor="end" transform="translate(-7,307.5)" font-family="sans-serif" font-size="10px" fill="#000" opacity="1">A11</text><text text-anchor="end" transform="translate(-7,317.5)" font-family="sans-serif" font-size="10px" fill="#000" opacity="1">WD07</text><text text-anchor="end" transform="translate(-7,327.5)" font-family="sans-serif" font-size="10px" fill="#000" opacity="1">J11</text><text text-anchor="end" transform="translate(-7,337.5)" font-family="sans-serif" font-size="10px" fill="#000" opacity="1">N08M</text><text text-anchor="end" transform="translate(-7,347.5)" font-family="sans-serif" font-size="10px" fill="#000" opacity="1">H14</text><text text-anchor="end" transform="translate(-7,357.5)" font-family="sans-serif" font-size="10px" fill="#000" opacity="1">H15</text><text text-anchor="end" transform="translate(-7,367.5)" font-family="sans-serif" font-size="10px" fill="#000" opacity="1">C01</text><text text-anchor="end" transform="translate(-7,377.5)" font-family="sans-serif" font-size="10px" fill="#000" opacity="1">J07</text><text text-anchor="end" transform="translate(-7,387.5)" font-family="sans-serif" font-size="10px" fill="#000" opacity="1">E04</text><text text-anchor="end" transform="translate(-7,397.5)" font-family="sans-serif" font-size="10px" fill="#000" opacity="1">A01</text></g><g class="mark-rule role-axis-domain" pointer-events="none"><line transform="translate(0,0)" x2="0" y2="400" stroke="#888" stroke-width="1" opacity="1"/></g><g class="mark-text role-axis-title" pointer-events="none"><text text-anchor="middle" transform="translate(-38.783203125,200) rotate(-90) translate(0,-2)" font-family="sans-serif" font-size="11px" font-weight="bold" fill="#000" opacity="1">location</text></g></g><path class="foreground" aria-hidden="true" d="" pointer-events="none" display="none"/></g></g><g class="mark-rect role-mark marks" role="graphics-object" aria-roledescription="rect mark container"><path aria-label="mean_calls_per_hour: 0.6677; location: C05; type: male" role="graphics-symbol" aria-roledescription="bar" d="M63.67272727272727,10.5h242.79999999999995v9h-242.79999999999995Z" fill="#f58518"/><path aria-label="mean_calls_per_hour: 0.8081; location: F09; type: male" role="graphics-symbol" aria-roledescription="bar" d="M73.63636363636363,0.5h293.85454545454553v9h-293.85454545454553Z" fill="#f58518"/><path aria-label="mean_calls_per_hour: 0.5776; location: N20; type: male" role="graphics-symbol" aria-roledescription="bar" d="M73.67272727272727,20.5h210.0363636363636v9h-210.0363636363636Z" fill="#f58518"/><path aria-label="mean_calls_per_hour: 0.3778; location: D09; type: male" role="graphics-symbol" aria-roledescription="bar" d="M41.45454545454545,50.5h137.38181818181818v9h-137.38181818181818Z" fill="#f58518"/><path aria-label="mean_calls_per_hour: 0.3303; location: H04; type: male" role="graphics-symbol" aria-roledescription="bar" d="M46.47272727272727,70.5h120.10909090909087v9h-120.10909090909087Z" fill="#f58518"/><path aria-label="mean_calls_per_hour: 0.2567; location: M04; type: male" role="graphics-symbol" aria-roledescription="bar" d="M54.07272727272727,100.5h93.34545454545454v9h-93.34545454545454Z" fill="#f58518"/><path aria-label="mean_calls_per_hour: 0.5755; location: G05; type: male" role="graphics-symbol" aria-roledescription="bar" d="M34.43636363636364,30.5h209.27272727272725v9h-209.27272727272725Z" fill="#f58518"/><path aria-label="mean_calls_per_hour: 0.22; location: D03; type: male" role="graphics-symbol" aria-roledescription="bar" d="M17.672727272727272,190.5h80v9h-80Z" fill="#f58518"/><path aria-label="mean_calls_per_hour: 0.2525; location: WD05; type: male" role="graphics-symbol" aria-roledescription="bar" d="M7.236363636363636,180.5h91.8181818181818v9h-91.8181818181818Z" fill="#f58518"/><path aria-label="mean_calls_per_hour: 0.363; location: F05; type: male" role="graphics-symbol" aria-roledescription="bar" d="M11.381818181818183,110.5h132v9h-132Z" fill="#f58518"/><path aria-label="mean_calls_per_hour: 0.1629; location: N14; type: male" role="graphics-symbol" aria-roledescription="bar" d="M23.236363636363635,210.5h59.236363636363635v9h-59.236363636363635Z" fill="#f58518"/><path aria-label="mean_calls_per_hour: 0.302; location: WB09; type: male" role="graphics-symbol" aria-roledescription="bar" d="M7.127272727272727,150.5h109.8181818181818v9h-109.8181818181818Z" fill="#f58518"/><path aria-label="mean_calls_per_hour: 0.2154; location: S13T; type: male" role="graphics-symbol" aria-roledescription="bar" d="M47.563636363636355,140.5h78.32727272727271v9h-78.32727272727271Z" fill="#f58518"/><path aria-label="mean_calls_per_hour: 0.3708; location: B12M; type: male" role="graphics-symbol" aria-roledescription="bar" d="M6.800000000000001,120.5h134.83636363636361v9h-134.83636363636361Z" fill="#f58518"/><path aria-label="mean_calls_per_hour: 0.2846; location: T10; type: male" role="graphics-symbol" aria-roledescription="bar" d="M31.05454545454545,130.5h103.49090909090908v9h-103.49090909090908Z" fill="#f58518"/><path aria-label="mean_calls_per_hour: 0.0957; location: K09; type: male" role="graphics-symbol" aria-roledescription="bar" d="M19.49090909090909,260.5h34.8v9h-34.8Z" fill="#f58518"/><path aria-label="mean_calls_per_hour: 0.134; location: NB14; type: male" role="graphics-symbol" aria-roledescription="bar" d="M19.781818181818178,230.5h48.727272727272734v9h-48.727272727272734Z" fill="#f58518"/><path aria-label="mean_calls_per_hour: 0.3352; location: V05; type: male" role="graphics-symbol" aria-roledescription="bar" d="M42.39999999999999,80.5h121.89090909090906v9h-121.89090909090906Z" fill="#f58518"/><path aria-label="mean_calls_per_hour: 0.3884; location: H09; type: male" role="graphics-symbol" aria-roledescription="bar" d="M32.58181818181818,60.5h141.23636363636365v9h-141.23636363636365Z" fill="#f58518"/><path aria-label="mean_calls_per_hour: 0.1354; location: CB11; type: male" role="graphics-symbol" aria-roledescription="bar" d="M9.272727272727272,250.5h49.23636363636363v9h-49.23636363636363Z" fill="#f58518"/><path aria-label="mean_calls_per_hour: 0.1053; location: KS06; type: male" role="graphics-symbol" aria-roledescription="bar" d="M22.036363636363635,240.5h38.29090909090908v9h-38.29090909090908Z" fill="#f58518"/><path aria-label="mean_calls_per_hour: 0.046; location: J11; type: male" role="graphics-symbol" aria-roledescription="bar" d="M5.018181818181818,320.5h16.727272727272727v9h-16.727272727272727Z" fill="#f58518"/><path aria-label="mean_calls_per_hour: 0.0698; location: E07; type: male" role="graphics-symbol" aria-roledescription="bar" d="M1.6363636363636362,290.5h25.381818181818183v9h-25.381818181818183Z" fill="#f58518"/><path aria-label="mean_calls_per_hour: 0.217; location: NB5T; type: male" role="graphics-symbol" aria-roledescription="bar" d="M21.672727272727272,170.5h78.9090909090909v9h-78.9090909090909Z" fill="#f58518"/><path aria-label="mean_calls_per_hour: 0.2645; location: V23; type: male" role="graphics-symbol" aria-roledescription="bar" d="M63.236363636363635,90.5h96.18181818181817v9h-96.18181818181817Z" fill="#f58518"/><path aria-label="mean_calls_per_hour: 0.1598; location: M01; type: male" role="graphics-symbol" aria-roledescription="bar" d="M26.945454545454545,200.5h58.1090909090909v9h-58.1090909090909Z" fill="#f58518"/><path aria-label="mean_calls_per_hour: 0.3143; location: H05; type: male" role="graphics-symbol" aria-roledescription="bar" d="M81.05454545454545,40.5h114.2909090909091v9h-114.2909090909091Z" fill="#f58518"/><path aria-label="mean_calls_per_hour: 0.0588; location: A11; type: male" role="graphics-symbol" aria-roledescription="bar" d="M4.763636363636364,300.5h21.381818181818176v9h-21.381818181818176Z" fill="#f58518"/><path aria-label="mean_calls_per_hour: 0.181; location: H07; type: male" role="graphics-symbol" aria-roledescription="bar" d="M41.563636363636355,160.5h65.81818181818181v9h-65.81818181818181Z" fill="#f58518"/><path aria-label="mean_calls_per_hour: 0.1192; location: D05; type: male" role="graphics-symbol" aria-roledescription="bar" d="M10.618181818181817,270.5h43.345454545454544v9h-43.345454545454544Z" fill="#f58518"/><path aria-label="mean_calls_per_hour: 0.1429; location: M02; type: male" role="graphics-symbol" aria-roledescription="bar" d="M29.018181818181816,220.5h51.963636363636354v9h-51.963636363636354Z" fill="#f58518"/><path aria-label="mean_calls_per_hour: 0.0205; location: H15; type: male" role="graphics-symbol" aria-roledescription="bar" d="M2.0727272727272728,350.5h7.454545454545455v9h-7.454545454545455Z" fill="#f58518"/><path aria-label="mean_calls_per_hour: 0.0644; location: WD07; type: male" role="graphics-symbol" aria-roledescription="bar" d="M1.3818181818181816,310.5h23.418181818181814v9h-23.418181818181814Z" fill="#f58518"/><path aria-label="mean_calls_per_hour: 0.0724; location: M05; type: male" role="graphics-symbol" aria-roledescription="bar" d="M1.6363636363636362,280.5h26.327272727272724v9h-26.327272727272724Z" fill="#f58518"/><path aria-label="mean_calls_per_hour: 0.0117; location: J07; type: male" role="graphics-symbol" aria-roledescription="bar" d="M1.8181818181818181,370.5h4.254545454545454v9h-4.254545454545454Z" fill="#f58518"/><path aria-label="mean_calls_per_hour: 0.0383; location: N08M; type: male" role="graphics-symbol" aria-roledescription="bar" d="M1.9999999999999998,330.5h13.927272727272726v9h-13.927272727272726Z" fill="#f58518"/><path aria-label="mean_calls_per_hour: 0.0137; location: E04; type: male" role="graphics-symbol" aria-roledescription="bar" d="M0,380.5h4.9818181818181815v9h-4.9818181818181815Z" fill="#f58518"/><path aria-label="mean_calls_per_hour: 0.0171; location: C01; type: male" role="graphics-symbol" aria-roledescription="bar" d="M0,360.5h6.218181818181818v9h-6.218181818181818Z" fill="#f58518"/><path aria-label="mean_calls_per_hour: 0.0143; location: H14; type: male" role="graphics-symbol" aria-roledescription="bar" d="M5.2,340.5h5.2v9h-5.2Z" fill="#f58518"/><path aria-label="mean_calls_per_hour: 0; location: A01; type: male" role="graphics-symbol" aria-roledescription="bar" d="M0.618181818181818,390.5h0v9h0Z" fill="#f58518"/><path aria-label="mean_calls_per_hour: 0.1751; location: C05; type: female" role="graphics-symbol" aria-roledescription="bar" d="M0,10.5h63.67272727272727v9h-63.67272727272727Z" fill="#4c78a8"/><path aria-label="mean_calls_per_hour: 0.2025; location: F09; type: female" role="graphics-symbol" aria-roledescription="bar" d="M0,0.5h73.63636363636363v9h-73.63636363636363Z" fill="#4c78a8"/><path aria-label="mean_calls_per_hour: 0.2026; location: N20; type: female" role="graphics-symbol" aria-roledescription="bar" d="M0,20.5h73.67272727272727v9h-73.67272727272727Z" fill="#4c78a8"/><path aria-label="mean_calls_per_hour: 0.114; location: D09; type: female" role="graphics-symbol" aria-roledescription="bar" d="M0,50.5h41.45454545454545v9h-41.45454545454545Z" fill="#4c78a8"/><path aria-label="mean_calls_per_hour: 0.1278; location: H04; type: female" role="graphics-symbol" aria-roledescription="bar" d="M0,70.5h46.47272727272727v9h-46.47272727272727Z" fill="#4c78a8"/><path aria-label="mean_calls_per_hour: 0.1487; location: M04; type: female" role="graphics-symbol" aria-roledescription="bar" d="M0,100.5h54.07272727272727v9h-54.07272727272727Z" fill="#4c78a8"/><path aria-label="mean_calls_per_hour: 0.0947; location: G05; type: female" role="graphics-symbol" aria-roledescription="bar" d="M0,30.5h34.43636363636364v9h-34.43636363636364Z" fill="#4c78a8"/><path aria-label="mean_calls_per_hour: 0.0486; location: D03; type: female" role="graphics-symbol" aria-roledescription="bar" d="M0,190.5h17.672727272727272v9h-17.672727272727272Z" fill="#4c78a8"/><path aria-label="mean_calls_per_hour: 0.0199; location: WD05; type: female" role="graphics-symbol" aria-roledescription="bar" d="M0,180.5h7.236363636363636v9h-7.236363636363636Z" fill="#4c78a8"/><path aria-label="mean_calls_per_hour: 0.0313; location: F05; type: female" role="graphics-symbol" aria-roledescription="bar" d="M0,110.5h11.381818181818183v9h-11.381818181818183Z" fill="#4c78a8"/><path aria-label="mean_calls_per_hour: 0.0639; location: N14; type: female" role="graphics-symbol" aria-roledescription="bar" d="M0,210.5h23.236363636363635v9h-23.236363636363635Z" fill="#4c78a8"/><path aria-label="mean_calls_per_hour: 0.0196; location: WB09; type: female" role="graphics-symbol" aria-roledescription="bar" d="M0,150.5h7.127272727272727v9h-7.127272727272727Z" fill="#4c78a8"/><path aria-label="mean_calls_per_hour: 0.1308; location: S13T; type: female" role="graphics-symbol" aria-roledescription="bar" d="M0,140.5h47.563636363636355v9h-47.563636363636355Z" fill="#4c78a8"/><path aria-label="mean_calls_per_hour: 0.0187; location: B12M; type: female" role="graphics-symbol" aria-roledescription="bar" d="M0,120.5h6.800000000000001v9h-6.800000000000001Z" fill="#4c78a8"/><path aria-label="mean_calls_per_hour: 0.0854; location: T10; type: female" role="graphics-symbol" aria-roledescription="bar" d="M0,130.5h31.05454545454545v9h-31.05454545454545Z" fill="#4c78a8"/><path aria-label="mean_calls_per_hour: 0.0536; location: K09; type: female" role="graphics-symbol" aria-roledescription="bar" d="M0,260.5h19.49090909090909v9h-19.49090909090909Z" fill="#4c78a8"/><path aria-label="mean_calls_per_hour: 0.0544; location: NB14; type: female" role="graphics-symbol" aria-roledescription="bar" d="M0,230.5h19.781818181818178v9h-19.781818181818178Z" fill="#4c78a8"/><path aria-label="mean_calls_per_hour: 0.1166; location: V05; type: female" role="graphics-symbol" aria-roledescription="bar" d="M0,80.5h42.39999999999999v9h-42.39999999999999Z" fill="#4c78a8"/><path aria-label="mean_calls_per_hour: 0.0896; location: H09; type: female" role="graphics-symbol" aria-roledescription="bar" d="M0,60.5h32.58181818181818v9h-32.58181818181818Z" fill="#4c78a8"/><path aria-label="mean_calls_per_hour: 0.0255; location: CB11; type: female" role="graphics-symbol" aria-roledescription="bar" d="M0,250.5h9.272727272727272v9h-9.272727272727272Z" fill="#4c78a8"/><path aria-label="mean_calls_per_hour: 0.0606; location: KS06; type: female" role="graphics-symbol" aria-roledescription="bar" d="M0,240.5h22.036363636363635v9h-22.036363636363635Z" fill="#4c78a8"/><path aria-label="mean_calls_per_hour: 0.0138; location: J11; type: female" role="graphics-symbol" aria-roledescription="bar" d="M0,320.5h5.018181818181818v9h-5.018181818181818Z" fill="#4c78a8"/><path aria-label="mean_calls_per_hour: 0.0045; location: E07; type: female" role="graphics-symbol" aria-roledescription="bar" d="M0,290.5h1.6363636363636362v9h-1.6363636363636362Z" fill="#4c78a8"/><path aria-label="mean_calls_per_hour: 0.0596; location: NB5T; type: female" role="graphics-symbol" aria-roledescription="bar" d="M0,170.5h21.672727272727272v9h-21.672727272727272Z" fill="#4c78a8"/><path aria-label="mean_calls_per_hour: 0.1739; location: V23; type: female" role="graphics-symbol" aria-roledescription="bar" d="M0,90.5h63.236363636363635v9h-63.236363636363635Z" fill="#4c78a8"/><path aria-label="mean_calls_per_hour: 0.0741; location: M01; type: female" role="graphics-symbol" aria-roledescription="bar" d="M0,200.5h26.945454545454545v9h-26.945454545454545Z" fill="#4c78a8"/><path aria-label="mean_calls_per_hour: 0.2229; location: H05; type: female" role="graphics-symbol" aria-roledescription="bar" d="M0,40.5h81.05454545454545v9h-81.05454545454545Z" fill="#4c78a8"/><path aria-label="mean_calls_per_hour: 0.0131; location: A11; type: female" role="graphics-symbol" aria-roledescription="bar" d="M0,300.5h4.763636363636364v9h-4.763636363636364Z" fill="#4c78a8"/><path aria-label="mean_calls_per_hour: 0.1143; location: H07; type: female" role="graphics-symbol" aria-roledescription="bar" d="M0,160.5h41.563636363636355v9h-41.563636363636355Z" fill="#4c78a8"/><path aria-label="mean_calls_per_hour: 0.0292; location: D05; type: female" role="graphics-symbol" aria-roledescription="bar" d="M0,270.5h10.618181818181817v9h-10.618181818181817Z" fill="#4c78a8"/><path aria-label="mean_calls_per_hour: 0.0798; location: M02; type: female" role="graphics-symbol" aria-roledescription="bar" d="M0,220.5h29.018181818181816v9h-29.018181818181816Z" fill="#4c78a8"/><path aria-label="mean_calls_per_hour: 0.0057; location: H15; type: female" role="graphics-symbol" aria-roledescription="bar" d="M0,350.5h2.0727272727272728v9h-2.0727272727272728Z" fill="#4c78a8"/><path aria-label="mean_calls_per_hour: 0.0038; location: WD07; type: female" role="graphics-symbol" aria-roledescription="bar" d="M0,310.5h1.3818181818181816v9h-1.3818181818181816Z" fill="#4c78a8"/><path aria-label="mean_calls_per_hour: 0.0045; location: M05; type: female" role="graphics-symbol" aria-roledescription="bar" d="M0,280.5h1.6363636363636362v9h-1.6363636363636362Z" fill="#4c78a8"/><path aria-label="mean_calls_per_hour: 0.005; location: J07; type: female" role="graphics-symbol" aria-roledescription="bar" d="M0,370.5h1.8181818181818181v9h-1.8181818181818181Z" fill="#4c78a8"/><path aria-label="mean_calls_per_hour: 0.0055; location: N08M; type: female" role="graphics-symbol" aria-roledescription="bar" d="M0,330.5h1.9999999999999998v9h-1.9999999999999998Z" fill="#4c78a8"/><path aria-label="mean_calls_per_hour: 0; location: E04; type: female" role="graphics-symbol" aria-roledescription="bar" d="M0,380.5h0v9h0Z" fill="#4c78a8"/><path aria-label="mean_calls_per_hour: 0; location: C01; type: female" role="graphics-symbol" aria-roledescription="bar" d="M0,360.5h0v9h0Z" fill="#4c78a8"/><path aria-label="mean_calls_per_hour: 0.0143; location: H14; type: female" role="graphics-symbol" aria-roledescription="bar" d="M0,340.5h5.2v9h-5.2Z" fill="#4c78a8"/><path aria-label="mean_calls_per_hour: 0.0017; location: A01; type: female" role="graphics-symbol" aria-roledescription="bar" d="M0,390.5h0.618181818181818v9h-0.618181818181818Z" fill="#4c78a8"/></g><g class="mark-group role-legend" role="graphics-symbol" aria-roledescription="legend" aria-label="Symbol legend titled 'type' for fill color with 2 values: female, male"><g transform="translate(418,0)"><path class="background" aria-hidden="true" d="M0,0h47v40h-47Z" pointer-events="none"/><g><g class="mark-group role-legend-entry"><g transform="translate(0,16)"><path class="background" aria-hidden="true" d="M0,0h0v0h0Z" pointer-events="none"/><g><g class="mark-group role-scope" role="graphics-object" aria-roledescription="group mark container"><g transform="translate(0,0)"><path class="background" aria-hidden="true" d="M0,0h46.0146484375v11h-46.0146484375Z" pointer-events="none" opacity="1"/><g><g class="mark-symbol role-legend-symbol" pointer-events="none"><path transform="translate(6,6)" d="M-5,-5h10v10h-10Z" fill="#4c78a8" stroke-width="1.5" opacity="1"/></g><g class="mark-text role-legend-label" pointer-events="none"><text text-anchor="start" transform="translate(16,9)" font-family="sans-serif" font-size="10px" fill="#000" opacity="1">female</text></g></g><path class="foreground" aria-hidden="true" d="" pointer-events="none" display="none"/></g><g transform="translate(0,13)"><path class="background" aria-hidden="true" d="M0,0h46.0146484375v11h-46.0146484375Z" pointer-events="none" opacity="1"/><g><g class="mark-symbol role-legend-symbol" pointer-events="none"><path transform="translate(6,6)" d="M-5,-5h10v10h-10Z" fill="#f58518" stroke-width="1.5" opacity="1"/></g><g class="mark-text role-legend-label" pointer-events="none"><text text-anchor="start" transform="translate(16,9)" font-family="sans-serif" font-size="10px" fill="#000" opacity="1">male</text></g></g><path class="foreground" aria-hidden="true" d="" pointer-events="none" display="none"/></g></g></g><path class="foreground" aria-hidden="true" d="" pointer-events="none" display="none"/></g></g><g class="mark-text role-legend-title" pointer-events="none"><text text-anchor="start" transform="translate(0,9)" font-family="sans-serif" font-size="11px" font-weight="bold" fill="#000" opacity="1">type</text></g></g><path class="foreground" aria-hidden="true" d="" pointer-events="none" display="none"/></g></g></g><path class="foreground" aria-hidden="true" d="" display="none"/></g></g></g></svg>