<svg xmlns="http://www.w3.org/2000/svg" xmlns:xlink="http://www.w3.org/1999/xlink" version="1.1" class="marks" width="450" height="447" viewBox="0 0 450 447"><rect width="450" height="447" fill="white"/><g fill="none" stroke-miterlimit="10" transform="translate(44,10)"><g class="mark-group role-frame root" role="graphics-object" aria-roledescription="group mark container"><g transform="translate(0,0)"><path class="background" aria-hidden="true" d="M0.5,0.5h400v400h-400Z" stroke="#ddd"/><g><g class="mark-group role-axis" aria-hidden="true"><g transform="translate(0.5,400.5)"><path class="background" aria-hidden="true" d="M0,0h0v0h0Z" pointer-events="none"/><g><g class="mark-rule role-axis-grid" pointer-events="none"><line transform="translate(0,-400)" x2="0" y2="400" stroke="#ddd" stroke-width="1" opacity="1"/><line transform="translate(57,-400)" x2="0" y2="400" stroke="#ddd" stroke-width="1" opacity="1"/><line transform="translate(114,-400)" x2="0" y2="400" stroke="#ddd" stroke-width="1" opacity="1"/><line transform="translate(171,-400)" x2="0" y2="400" stroke="#ddd" stroke-width="1" opacity="1"/><line transform="translate(229,-400)" x2="0" y2="400" stroke="#ddd" stroke-width="1" opacity="1"/><line transform="translate(286,-400)" x2="0" y2="400" stroke="#ddd" stroke-width="1" opacity="1"/><line transform="translate(343,-400)" x2="0" y2="400" stroke="#ddd" stroke-width="1" opacity="1"/><line transform="translate(400,-400)" x2="0" y2="400" stroke="#ddd" stroke-width="1" opacity="1"/></g></g><path class="foreground" aria-hidden="true" d="" pointer-events="none" display="none"/></g></g><g class="mark-group role-axis" aria-hidden="true"><g transform="translate(0.5,0.5)"><path class="background" aria-hidden="true" d="M0,0h0v0h0Z" pointer-events="none"/><g><g class="mark-rule role-axis-grid" pointer-events="none"><line transform="translate(0,400)" x2="400" y2="0" stroke="#ddd" stroke-width="1" opacity="1"/><line transform="translate(0,350)" x2="400" y2="0" stroke="#ddd" stroke-width="1" opacity="1"/><line transform="translate(0,300)" x2="400" y2="0" stroke="#ddd" stroke-width="1" opacity="1"/><line transform="translate(0,250)" x2="400" y2="0" stroke="#ddd" stroke-width="1" opacity="1"/><line transform="translate(0,200)" x2="400" y2="0" stroke="#ddd" stroke-width="1" opacity="1"/><line transform="translate(0,150)" x2="400" y2="0" stroke="#ddd" stroke-width="1" opacity="1"/><line transform="translate(0,100)" x2="400" y2="0" stroke="#ddd" stroke-width="1" opacity="1"/><line transform="translate(0,50)" x2="400" y2="0" stroke="#ddd" stroke-width="1" opacity="1"/><line transform="translate(0,0)" x2="400" y2="0" stroke="#ddd" stroke-width="1" opacity="1"/></g></g><path class="foreground" aria-hidden="true" d="" pointer-events="none" display="none"/></g></g><g class="mark-group role-axis" role="graphics-symbol" aria-roledescription="axis" aria-label="X-axis titled 'calls_per_hour' for a linear scale with values from −5 to 30"><g transform="translate(0.5,400.5)"><path class="background" aria-hidden="true" d="M0,0h0v0h0Z" pointer-events="none"/><g><g class="mark-rule role-axis-tick" pointer-events="none"><line transform="translate(0,0)" x2="0" y2="5" stroke="#888" stroke-width="1" opacity="1"/><line transform="translate(57,0)" x2="0" y2="5" stroke="#888" stroke-width="1" opacity="1"/><line transform="translate(114,0)" x2="0" y2="5" stroke="#888" stroke-width="1" opacity="1"/><line transform="translate(171,0)" x2="0" y2="5" stroke="#888" stroke-width="1" opacity="1"/><line transform="translate(229,0)" x2="0" y2="5" stroke="#888" stroke-width="1" opacity="1"/><line transform="translate(286,0)" x2="0" y2="5" stroke="#888" stroke-width="1" opacity="1"/><line transform="translate(343,0)" x2="0" y2="5" stroke="#888" stroke-width="1" opacity="1"/><line transform="translate(400,0)" x2="0" y2="5" stroke="#888" stroke-width="1" opacity="1"/></g><g class="mark-text role-axis-label" pointer-events="none"><text text-anchor="start" transform="translate(0,15)" font-family="sans-serif" font-size="10px" fill="#000" opacity="1">−5</text><text text-anchor="middle" transform="translate(57.14285714285714,15)" font-family="sans-serif" font-size="10px" fill="#000" opacity="1">0</text><text text-anchor="middle" transform="translate(114.28571428571428,15)" font-family="sans-serif" font-size="10px" fill="#000" opacity="1">5</text><text text-anchor="middle" transform="translate(171.42857142857142,15)" font-family="sans-serif" font-size="10px" fill="#000" opacity="1">10</text><text text-anchor="middle" transform="translate(228.57142857142856,15)" font-family="sans-serif" font-size="10px" fill="#000" opacity="1">15</text><text text-anchor="middle" transform="translate(285.7142857142857,15)" font-family="sans-serif" font-size="10px" fill="#000" opacity="1">20</text><text text-anchor="middle" transform="translate(342.85714285714283,15)" font-family="sans-serif" font-size="10px" fill="#000" opacity="1">25</text><text text-anchor="end" transform="translate(400,15)" font-family="sans-serif" font-size="10px" fill="#000" opacity="1">30</text></g><g class="mark-rule role-axis-domain" pointer-events="none"><line transform="translate(0,0)" x2="400" y2="0" stroke="#888" stroke-width="1" opacity="1"/></g><g class="mark-text role-axis-title" pointer-events="none"><text text-anchor="middle" transform="translate(200,30)" font-family="sans-serif" font-size="11px" font-weight="bold" fill="#000" opacity="1">calls_per_hour</text></g></g><path class="foreground" aria-hidden="true" d="" pointer-events="none" display="none"/></g></g><g class="mark-group role-axis" role="graphics-symbol" aria-roledescription="axis" aria-label="Y-axis titled 'frequency' for a linear scale with values from 0 to 800"><g transform="translate(0.5,0.5)"><path class="background" aria-hidden="true" d="M0,0h0v0h0Z" pointer-events="none"/><g><g class="mark-rule role-axis-tick" pointer-events="none"><line transform="translate(0,400)" x2="-5" y2="0" stroke="#888" stroke-width="1" opacity="1"/><line transform="translate(0,350)" x2="-5" y2="0" stroke="#888" stroke-width="1" opacity="1"/><line transform="translate(0,300)" x2="-5" y2="0" stroke="#888" stroke-width="1" opacity="1"/><line transform="translate(0,250)" x2="-5" y2="0" stroke="#888" stroke-width="1" opacity="1"/><line transform="translate(0,200)" x2="-5" y2="0" stroke="#888" stroke-width="1" opacity="1"/><line transform="translate(0,150)" x2="-5" y2="0" stroke="#888" stroke-width="1" opacity="1"/><line transform="translate(0,100)" x2="-5" y2="0" stroke="#888" stroke-width="1" opacity="1"/><line transform="translate(0,50)" x2="-5" y2="0" stroke="#888" stroke-width="1" opacity="1"/><line transform="translate(0,0)" x2="-5" y2="0" stroke="#888" stroke-width="1" opacity="1"/></g><g class="mark-text role-axis-label" pointer-events="none"><text text-anchor="end" transform="translate(-7,403)" font-family="sans-serif" font-size="10px" fill="#000" opacity="1">0</text><text text-anchor="end" transform="translate(-7,353)" font-family="sans-serif" font-size="10px" fill="#000" opacity="1">100</text><text text-anchor="end" transform="translate(-7,303)" font-family="sans-serif" font-size="10px" fill="#000" opacity="1">200</text><text text-anchor="end" transform="translate(-7,253)" font-family="sans-serif" font-size="10px" fill="#000" opacity="1">300</text><text text-anchor="end" transform="translate(-7,203)" font-family="sans-serif" font-size="10px" fill="#000" opacity="1">400</text><text text-anchor="end" transform="translate(-7,153)" font-family="sans-serif" font-size="10px" fill="#000" opacity="1">500</text><text text-anchor="end" transform="translate(-7,103)" font-family="sans-serif" font-size="10px" fill="#000" opacity="1">600</text><text text-anchor="end" transform="translate(-7,53)" font-family="sans-serif" font-size="10px" fill="#000" opacity="1">700</text><text text-anchor="end" transform="translate(-7,3)" font-family="sans-serif" font-size="10px" fill="#000" opacity="1">800</text></g><g class="mark-rule role-axis-domain" pointer-events="none"><line transform="translate(0,400)" x2="0" y2="-400" stroke="#888" stroke-width="1" opacity="1"/></g><g class="mark-text role-axis-title" pointer-events="none"><text text-anchor="middle" transform="translate(-27.6845703125,200) rotate(-90) translate(0,-2)" font-family="sans-serif" font-size="11px" font-weight="bold" fill="#000" opacity="1">frequency</text></g></g><path class="foreground" aria-hidden="true" d="" pointer-events="none" display="none"/></g></g><g class="mark-rect role-mark marks" role="graphics-object" aria-roledescription="rect mark container"><path aria-label="calls_per_hour: 0; frequency: 781" role="graphics-symbol" aria-roledescription="bar" d="M54.64285714285714,9.50000000000002h5v390.5h-5Z" fill="#4c78a8"/><path aria-label="calls_per_hour: 1; frequency: 627" role="graphics-symbol" aria-roledescription="bar" d="M66.07142857142857,86.50000000000003h5v313.5h-5Z" fill="#4c78a8"/><path aria-label="calls_per_hour: 2; frequency: 637" role="graphics-symbol" aria-roledescription="bar" d="M77.5,81.5h5v318.5h-5Z" fill="#4c78a8"/><path aria-label="calls_per_hour: 3; frequency: 566" role="graphics-symbol" aria-roledescription="bar" d="M88.92857142857143,117h5v283h-5Z" fill="#4c78a8"/><path aria-label="calls_per_hour: 4; frequency: 506" role="graphics-symbol" aria-roledescription="bar" d="M100.35714285714285,147.00000000000003h5v252.99999999999997h-5Z" fill="#4c78a8"/><path aria-label="calls_per_hour: 5; frequency: 451" role="graphics-symbol" aria-roledescription="bar" d="M111.78571428571428,174.5h5v225.5h-5Z" fill="#4c78a8"/><path aria-label="calls_per_hour: 6; frequency: 375" role="graphics-symbol" aria-roledescription="bar" d="M123.21428571428571,212.5h5v187.5h-5Z" fill="#4c78a8"/><path aria-label="calls_per_hour: 7; frequency: 341" role="graphics-symbol" aria-roledescription="bar" d="M134.64285714285714,229.5h5v170.5h-5Z" fill="#4c78a8"/><path aria-label="calls_per_hour: 8; frequency: 250" role="graphics-symbol" aria-roledescription="bar" d="M146.07142857142858,275h5v125h-5Z" fill="#4c78a8"/><path aria-label="calls_per_hour: 9; frequency: 228" role="graphics-symbol" aria-roledescription="bar" d="M157.5,286.00000000000006h5v113.99999999999994h-5Z" fill="#4c78a8"/><path aria-label="calls_per_hour: 10; frequency: 171" role="graphics-symbol" aria-roledescription="bar" d="M168.92857142857142,314.5h5v85.5h-5Z" fill="#4c78a8"/><path aria-label="calls_per_hour: 11; frequency: 134" role="graphics-symbol" aria-roledescription="bar" d="M180.35714285714286,333h5v67h-5Z" fill="#4c78a8"/><path aria-label="calls_per_hour: 12; frequency: 102" role="graphics-symbol" aria-roledescription="bar" d="M191.78571428571428,349h5v51h-5Z" fill="#4c78a8"/><path aria-label="calls_per_hour: 13; frequency: 76" role="graphics-symbol" aria-roledescription="bar" d="M203.2142857142857,362h5v38h-5Z" fill="#4c78a8"/><path aria-label="calls_per_hour: 14; frequency: 62" role="graphics-symbol" aria-roledescription="bar" d="M214.64285714285714,369h5v31h-5Z" fill="#4c78a8"/><path aria-label="calls_per_hour: 15; frequency: 46" role="graphics-symbol" aria-roledescription="bar" d="M226.07142857142856,377h5v23h-5Z" fill="#4c78a8"/><path aria-label="calls_per_hour: 16; frequency: 38" role="graphics-symbol" aria-roledescription="bar" d="M237.5,381h5v19h-5Z" fill="#4c78a8"/><path aria-label="calls_per_hour: 17; frequency: 27" role="graphics-symbol" aria-roledescription="bar" d="M248.92857142857142,386.5h5v13.5h-5Z" fill="#4c78a8"/><path aria-label="calls_per_hour: 18; frequency: 18" role="graphics-symbol" aria-roledescription="bar" d="M260.35714285714283,391h5v9h-5Z" fill="#4c78a8"/><path aria-label="calls_per_hour: 19; frequency: 24" role="graphics-symbol" aria-roledescription="bar" d="M271.7857142857143,388h5v12h-5Z" fill="#4c78a8"/><path aria-label="calls_per_hour: 20; frequency: 11" role="graphics-symbol" aria-roledescription="bar" d="M283.2142857142857,394.5h5v5.5h-5Z" fill="#4c78a8"/><path aria-label="calls_per_hour: 21; frequency: 10" role="graphics-symbol" aria-roledescription="bar" d="M294.64285714285717,395h5v5h-5Z" fill="#4c78a8"/><path aria-label="calls_per_hour: 22; frequency: 5" role="graphics-symbol" aria-roledescription="bar" d="M306.0714285714286,397.5h5v2.5h-5Z" fill="#4c78a8"/><path aria-label="calls_per_hour: 23; frequency: 7" role="graphics-symbol" aria-roledescription="bar" d="M317.5,396.5h5v3.5h-5Z" fill="#4c78a8"/><path aria-label="calls_per_hour: 24; frequency: 8" role="graphics-symbol" aria-roledescription="bar" d="M328.92857142857144,396h5v4h-5Z" fill="#4c78a8"/><path aria-label="calls_per_hour: 25; frequency: 3" role="graphics-symbol" aria-roledescription="bar" d="M340.35714285714283,398.5h5v1.5h-5Z" fill="#4c78a8"/><path aria-label="calls_per_hour: 26; frequency: 1" role="graphics-symbol" aria-roledescription="bar" d="M351.7857142857143,399.5h5v0.5h-5Z" fill="#4c78a8"/><path aria-label="calls_per_hour: 27; frequency: 1" role="graphics-symbol" aria-roledescription="bar" d="M363.2142857142857,399.5h5v0.5h-5Z" fill="#4c78a8"/><path aria-label="calls_per_hour: 28; frequency: 2" role="graphics-symbol" aria-roledescription="bar" d="M374.6428571428571,399h5v1h-5Z" fill="#4c78a8"/><path aria-label="calls_per_hour: 29; frequency: 1" role="graphics-symbol" aria-roledescription="bar" d="M386.07142857142856,399.5h5v0.5h-5Z" fill="#4c78a8"/></g></g><path class="foreground" aria-hidden="true" d="" display="none"/></g></g></g></svg>