<svg xmlns="http://www.w3.org/2000/svg" xmlns:xlink="http://www.w3.org/1999/xlink" version="1.1" class="marks" width="453" height="447" viewBox="0 0 453 447"><rect width="453" height="447" fill="white"/><g fill="none" stroke-miterlimit="10" transform="translate(47,10)"><g class="mark-group role-frame root" role="graphics-object" aria-roledescription="group mark container"><g transform="translate(0,0)"><path class="background" aria-hidden="true" d="M0.5,0.5h400v400h-400Z" stroke="#ddd"/><g><g class="mark-group role-axis" aria-hidden="true"><g transform="translate(0.5,400.5)"><path class="background" aria-hidden="true" d="M0,0h0v0h0Z" pointer-events="none"/><g><g class="mark-rule role-axis-grid" pointer-events="none"><line transform="translate(0,-400)" x2="0" y2="400" stroke="#ddd" stroke-width="1" opacity="1"/><line transform="translate(29,-400)" x2="0" y2="400" stroke="#ddd" stroke-width="1" opacity="1"/><line transform="translate(57,-400)" x2="0" y2="400" stroke="#ddd" stroke-width="1" opacity="1"/><line transform="translate(86,-400)" x2="0" y2="400" stroke="#ddd" stroke-width="1" opacity="1"/><line transform="translate(114,-400)" x2="0" y2="400" stroke="#ddd" stroke-width="1" opacity="1"/><line transform="translate(143,-400)" x2="0" y2="400" stroke="#ddd" stroke-width="1" opacity="1"/><line transform="translate(171,-400)" x2="0" y2="400" stroke="#ddd" stroke-width="1" opacity="1"/><line transform="translate(200,-400)" x2="0" y2="400" stroke="#ddd" stroke-width="1" opacity="1"/><line transform="translate(229,-400)" x2="0" y2="400" stroke="#ddd" stroke-width="1" opacity="1"/><line transform="translate(257,-400)" x2="0" y2="400" stroke="#ddd" stroke-width="1" opacity="1"/><line transform="translate(286,-400)" x2="0" y2="400" stroke="#ddd" stroke-width="1" opacity="1"/><line transform="translate(314,-400)" x2="0" y2="400" stroke="#ddd" stroke-width="1" opacity="1"/><line transform="translate(343,-400)" x2="0" y2="400" stroke="#ddd" stroke-width="1" opacity="1"/><line transform="translate(371,-400)" x2="0" y2="400" stroke="#ddd" stroke-width="1" opacity="1"/><line transform="translate(400,-400)" x2="0" y2="400" stroke="#ddd" stroke-width="1" opacity="1"/></g></g><path class="foreground" aria-hidden="true" d="" pointer-events="none" display="none"/></g></g><g class="mark-group role-axis" aria-hidden="true"><g transform="translate(0.5,0.5)"><path class="background" aria-hidden="true" d="M0,0h0v0h0Z" pointer-events="none"/><g><g class="mark-rule role-axis-grid" pointer-events="none"><line transform="translate(0,400)" x2="400" y2="0" stroke="#ddd" stroke-width="1" opacity="1"/><line transform="translate(0,367)" x2="400" y2="0" stroke="#ddd" stroke-width="1" opacity="1"/><line transform="translate(0,333)" x2="400" y2="0" stroke="#ddd" stroke-width="1" opacity="1"/><line transform="translate(0,300)" x2="400" y2="0" stroke="#ddd" stroke-width="1" opacity="1"/><line transform="translate(0,267)" x2="400" y2="0" stroke="#ddd" stroke-width="1" opacity="1"/><line transform="translate(0,233)" x2="400" y2="0" stroke="#ddd" stroke-width="1" opacity="1"/><line transform="translate(0,200)" x2="400" y2="0" stroke="#ddd" stroke-width="1" opacity="1"/><line transform="translate(0,167)" x2="400" y2="0" stroke="#ddd" stroke-width="1" opacity="1"/><line transform="translate(0,133)" x2="400" y2="0" stroke="#ddd" stroke-width="1" opacity="1"/><line transform="translate(0,100)" x2="400" y2="0" stroke="#ddd" stroke-width="1" opacity="1"/><line transform="translate(0,67)" x2="400" y2="0" stroke="#ddd" stroke-width="1" opacity="1"/><line transform="translate(0,33)" x2="400" y2="0" stroke="#ddd" stroke-width="1" opacity="1"/><line transform="translate(0,0)" x2="400" y2="0" stroke="#ddd" stroke-width="1" opacity="1"/></g></g><path class="foreground" aria-hidden="true" d="" pointer-events="none" display="none"/></g></g><g class="mark-group role-axis" role="graphics-symbol" aria-roledescription="axis" aria-label="X-axis titled 'temperature' for a linear scale with values from −4 to 24"><g transform="translate(0.5,400.5)"><path class="background" aria-hidden="true" d="M0,0h0v0h0Z" pointer-events="none"/><g><g class="mark-rule role-axis-tick" pointer-events="none"><line transform="translate(0,0)" x2="0" y2="5" stroke="#888" stroke-width="1" opacity="1"/><line transform="translate(29,0)" x2="0" y2="5" stroke="#888" stroke-width="1" opacity="1"/><line transform="translate(57,0)" x2="0" y2="5" stroke="#888" stroke-width="1" opacity="1"/><line transform="translate(86,0)" x2="0" y2="5" stroke="#888" stroke-width="1" opacity="1"/><line transform="translate(114,0)" x2="0" y2="5" stroke="#888" stroke-width="1" opacity="1"/><line transform="translate(143,0)" x2="0" y2="5" stroke="#888" stroke-width="1" opacity="1"/><line transform="translate(171,0)" x2="0" y2="5" stroke="#888" stroke-width="1" opacity="1"/><line transform="translate(200,0)" x2="0" y2="5" stroke="#888" stroke-width="1" opacity="1"/><line transform="translate(229,0)" x2="0" y2="5" stroke="#888" stroke-width="1" opacity="1"/><line transform="translate(257,0)" x2="0" y2="5" stroke="#888" stroke-width="1" opacity="1"/><line transform="translate(286,0)" x2="0" y2="5" stroke="#888" stroke-width="1" opacity="1"/><line transform="translate(314,0)" x2="0" y2="5" stroke="#888" stroke-width="1" opacity="1"/><line transform="translate(343,0)" x2="0" y2="5" stroke="#888" stroke-width="1" opacity="1"/><line transform="translate(371,0)" x2="0" y2="5" stroke="#888" stroke-width="1" opacity="1"/><line transform="translate(400,0)" x2="0" y2="5" stroke="#888" stroke-width="1" opacity="1"/></g><g class="mark-text role-axis-label" pointer-events="none"><text text-anchor="start" transform="translate(0,15)" font-family="sans-serif" font-size="10px" fill="#000" opacity="1">−4</text><text text-anchor="middle" transform="translate(28.57142857142857,15)" font-family="sans-serif" font-size="10px" fill="#000" opacity="1">−2</text><text text-anchor="middle" transform="translate(57.14285714285714,15)" font-family="sans-serif" font-size="10px" fill="#000" opacity="1">0</text><text text-anchor="middle" transform="translate(85.71428571428571,15)" font-family="sans-serif" font-size="10px" fill="#000" opacity="1">2</text><text text-anchor="middle" transform="translate(114.28571428571428,15)" font-family="sans-serif" font-size="10px" fill="#000" opacity="1">4</text><text text-anchor="middle" transform="translate(142.85714285714286,15)" font-family="sans-serif" font-size="10px" fill="#000" opacity="1">6</text><text text-anchor="middle" transform="translate(171.42857142857142,15)" font-family="sans-serif" font-size="10px" fill="#000" opacity="1">8</text><text text-anchor="middle" transform="translate(200,15)" font-family="sans-serif" font-size="10px" fill="#000" opacity="1">10</text><text text-anchor="middle" transform="translate(228.57142857142856,15)" font-family="sans-serif" font-size="10px" fill="#000" opacity="1">12</text><text text-anchor="middle" transform="translate(257.14285714285717,15)" font-family="sans-serif" font-size="10px" fill="#000" opacity="1">14</text><text text-anchor="middle" transform="translate(285.7142857142857,15)" font-family="sans-serif" font-size="10px" fill="#000" opacity="1">16</text><text text-anchor="middle" transform="translate(314.2857142857143,15)" font-family="sans-serif" font-size="10px" fill="#000" opacity="1">18</text><text text-anchor="middle" transform="translate(342.85714285714283,15)" font-family="sans-serif" font-size="10px" fill="#000" opacity="1">20</text><text text-anchor="middle" transform="translate(371.42857142857144,15)" font-family="sans-serif" font-size="10px" fill="#000" opacity="1">22</text><text text-anchor="end" transform="translate(400,15)" font-family="sans-serif" font-size="10px" fill="#000" opacity="1">24</text></g><g class="mark-rule role-axis-domain" pointer-events="none"><line transform="translate(0,0)" x2="400" y2="0" stroke="#888" stroke-width="1" opacity="1"/></g><g class="mark-text role-axis-title" pointer-events="none"><text text-anchor="middle" transform="translate(200,30)" font-family="sans-serif" font-size="11px" font-weight="bold" fill="#000" opacity="1">temperature</text></g></g><path class="foreground" aria-hidden="true" d="" pointer-events="none" display="none"/></g></g><g class="mark-group role-axis" role="graphics-symbol" aria-roledescription="axis" aria-label="Y-axis titled 'calls_per_hour' for a linear scale with values from 0.0 to 0.6"><g transform="translate(0.5,0.5)"><path class="background" aria-hidden="true" d="M0,0h0v0h0Z" pointer-events="none"/><g><g class="mark-rule role-axis-tick" pointer-events="none"><line transform="translate(0,400)" x2="-5" y2="0" stroke="#888" stroke-width="1" opacity="1"/><line transform="translate(0,367)" x2="-5" y2="0" stroke="#888" stroke-width="1" opacity="1"/><line transform="translate(0,333)" x2="-5" y2="0" stroke="#888" stroke-width="1" opacity="1"/><line transform="translate(0,300)" x2="-5" y2="0" stroke="#888" stroke-width="1" opacity="1"/><line transform="translate(0,267)" x2="-5" y2="0" stroke="#888" stroke-width="1" opacity="1"/><line transform="translate(0,233)" x2="-5" y2="0" stroke="#888" stroke-width="1" opacity="1"/><line transform="translate(0,200)" x2="-5" y2="0" stroke="#888" stroke-width="1" opacity="1"/><line transform="translate(0,167)" x2="-5" y2="0" stroke="#888" stroke-width="1" opacity="1"/><line transform="translate(0,133)" x2="-5" y2="0" stroke="#888" stroke-width="1" opacity="1"/><line transform="translate(0,100)" x2="-5" y2="0" stroke="#888" stroke-width="1" opacity="1"/><line transform="translate(0,67)" x2="-5" y2="0" stroke="#888" stroke-width="1" opacity="1"/><line transform="translate(0,33)" x2="-5" y2="0" stroke="#888" stroke-width="1" opacity="1"/><line transform="translate(0,0)" x2="-5" y2="0" stroke="#888" stroke-width="1" opacity="1"/></g><g class="mark-text role-axis-label" pointer-events="none"><text text-anchor="end" transform="translate(-7,403)" font-family="sans-serif" font-size="10px" fill="#000" opacity="1">0.00</text><text text-anchor="end" transform="translate(-7,369.66666666666663)" font-family="sans-serif" font-size="10px" fill="#000" opacity="1">0.05</text><text text-anchor="end" transform="translate(-7,336.3333333333333)" font-family="sans-serif" font-size="10px" fill="#000" opacity="1">0.10</text><text text-anchor="end" transform="translate(-7,303)" font-family="sans-serif" font-size="10px" fill="#000" opacity="1">0.15</text><text text-anchor="end" transform="translate(-7,269.66666666666663)" font-family="sans-serif" font-size="10px" fill="#000" opacity="1">0.20</text><text text-anchor="end" transform="translate(-7,236.33333333333331)" font-family="sans-serif" font-size="10px" fill="#000" opacity="1">0.25</text><text text-anchor="end" transform="translate(-7,203)" font-family="sans-serif" font-size="10px" fill="#000" opacity="1">0.30</text><text text-anchor="end" transform="translate(-7,169.66666666666666)" font-family="sans-serif" font-size="10px" fill="#000" opacity="1">0.35</text><text text-anchor="end" transform="translate(-7,136.33333333333331)" font-family="sans-serif" font-size="10px" fill="#000" opacity="1">0.40</text><text text-anchor="end" transform="translate(-7,103)" font-family="sans-serif" font-size="10px" fill="#000" opacity="1">0.45</text><text text-anchor="end" transform="translate(-7,69.66666666666666)" font-family="sans-serif" font-size="10px" fill="#000" opacity="1">0.50</text><text text-anchor="end" transform="translate(-7,36.3333333333333)" font-family="sans-serif" font-size="10px" fill="#000" opacity="1">0.55</text><text text-anchor="end" transform="translate(-7,3)" font-family="sans-serif" font-size="10px" fill="#000" opacity="1">0.60</text></g><g class="mark-rule role-axis-domain" pointer-events="none"><line transform="translate(0,400)" x2="0" y2="-400" stroke="#888" stroke-width="1" opacity="1"/></g><g class="mark-text role-axis-title" pointer-events="none"><text text-anchor="middle" transform="translate(-30.462890625,200) rotate(-90) translate(0,-2)" font-family="sans-serif" font-size="11px" font-weight="bold" fill="#000" opacity="1">calls_per_hour</text></g></g><path class="foreground" aria-hidden="true" d="" pointer-events="none" display="none"/></g></g><g class="mark-rect role-mark marks" role="graphics-object" aria-roledescription="rect mark container"><path aria-label="temperature: −3; calls_per_hour: 0.2" role="graphics-symbol" aria-roledescription="bar" d="M11.785714285714285,266.66666666666663h5v133.33333333333337h-5Z" fill="#4c78a8"/><path aria-label="temperature: −2; calls_per_hour: 0.474576271186" role="graphics-symbol" aria-roledescription="bar" d="M26.07142857142857,83.61581920903953h5v316.3841807909605h-5Z" fill="#4c78a8"/><path aria-label="temperature: −1; calls_per_hour: 0.590308370044" role="graphics-symbol" aria-roledescription="bar" d="M40.357142857142854,6.461086637298052h5v393.5389133627019h-5Z" fill="#4c78a8"/><path aria-label="temperature: 0; calls_per_hour: 0.439039408867" role="graphics-symbol" aria-roledescription="bar" d="M54.64285714285714,107.30706075533662h5v292.69293924466336h-5Z" fill="#4c78a8"/><path aria-label="temperature: 1; calls_per_hour: 0.410122989593" role="graphics-symbol" aria-roledescription="bar" d="M68.92857142857143,126.58467360454115h5v273.41532639545886h-5Z" fill="#4c78a8"/><path aria-label="temperature: 2; calls_per_hour: 0.398164084911" role="graphics-symbol" aria-roledescription="bar" d="M83.21428571428571,134.55727672595143h5v265.4427232740486h-5Z" fill="#4c78a8"/><path aria-label="temperature: 3; calls_per_hour: 0.383733055266" role="graphics-symbol" aria-roledescription="bar" d="M97.5,144.17796315606535h5v255.82203684393465h-5Z" fill="#4c78a8"/><path aria-label="temperature: 4; calls_per_hour: 0.376105456366" role="graphics-symbol" aria-roledescription="bar" d="M111.78571428571428,149.26302908949333h5v250.73697091050667h-5Z" fill="#4c78a8"/><path aria-label="temperature: 5; calls_per_hour: 0.399865501009" role="graphics-symbol" aria-roledescription="bar" d="M126.07142857142858,133.42299932750504h5v266.57700067249493h-5Z" fill="#4c78a8"/><path aria-label="temperature: 6; calls_per_hour: 0.428869011151" role="graphics-symbol" aria-roledescription="bar" d="M140.35714285714286,114.0873258996038h5v285.9126741003962h-5Z" fill="#4c78a8"/><path aria-label="temperature: 7; calls_per_hour: 0.42414041837" role="graphics-symbol" aria-roledescription="bar" d="M154.64285714285714,117.2397210867997h5v282.7602789132003h-5Z" fill="#4c78a8"/><path aria-label="temperature: 8; calls_per_hour: 0.429432446007" role="graphics-symbol" aria-roledescription="bar" d="M168.92857142857142,113.7117026619789h5v286.2882973380211h-5Z" fill="#4c78a8"/><path aria-label="temperature: 9; calls_per_hour: 0.423814328961" role="graphics-symbol" aria-roledescription="bar" d="M183.21428571428572,117.45711402623611h5v282.5428859737639h-5Z" fill="#4c78a8"/><path aria-label="temperature: 10; calls_per_hour: 0.423879040667" role="graphics-symbol" aria-roledescription="bar" d="M197.5,117.41397288842546h5v282.58602711157454h-5Z" fill="#4c78a8"/><path aria-label="temperature: 11; calls_per_hour: 0.446514837819" role="graphics-symbol" aria-roledescription="bar" d="M211.78571428571428,102.3234414538762h5v297.67655854612383h-5Z" fill="#4c78a8"/><path aria-label="temperature: 12; calls_per_hour: 0.476555317193" role="graphics-symbol" aria-roledescription="bar" d="M226.07142857142856,82.29645520482171h5v317.7035447951783h-5Z" fill="#4c78a8"/><path aria-label="temperature: 13; calls_per_hour: 0.450313339302" role="graphics-symbol" aria-roledescription="bar" d="M240.35714285714283,99.79110713219934h5v300.20889286780067h-5Z" fill="#4c78a8"/><path aria-label="temperature: 14; calls_per_hour: 0.439276485788" role="graphics-symbol" aria-roledescription="bar" d="M254.64285714285717,107.14900947459087h5v292.85099052540914h-5Z" fill="#4c78a8"/><path aria-label="temperature: 15; calls_per_hour: 0.421629347308" role="graphics-symbol" aria-roledescription="bar" d="M268.92857142857144,118.91376846117198h5v281.08623153882803h-5Z" fill="#4c78a8"/><path aria-label="temperature: 16; calls_per_hour: 0.381358609795" role="graphics-symbol" aria-roledescription="bar" d="M283.2142857142857,145.7609268035808h5v254.2390731964192h-5Z" fill="#4c78a8"/><path aria-label="temperature: 17; calls_per_hour: 0.390323903239" role="graphics-symbol" aria-roledescription="bar" d="M297.5,139.78406450731177h5v260.21593549268823h-5Z" fill="#4c78a8"/><path aria-label="temperature: 18; calls_per_hour: 0.371896460644" role="graphics-symbol" aria-roledescription="bar" d="M311.7857142857143,152.06902623701356h5v247.93097376298644h-5Z" fill="#4c78a8"/><path aria-label="temperature: 19; calls_per_hour: 0.316041500399" role="graphics-symbol" aria-roledescription="bar" d="M326.07142857142856,189.30566640063847h5v210.69433359936153h-5Z" fill="#4c78a8"/><path aria-label="temperature: 20; calls_per_hour: 0.291139240506" role="graphics-symbol" aria-roledescription="bar" d="M340.35714285714283,205.90717299578057h5v194.09282700421943h-5Z" fill="#4c78a8"/><path aria-label="temperature: 21; calls_per_hour: 0.296019900498" role="graphics-symbol" aria-roledescription="bar" d="M354.64285714285717,202.65339966832502h5v197.34660033167498h-5Z" fill="#4c78a8"/><path aria-label="temperature: 22; calls_per_hour: 0.274111675127" role="graphics-symbol" aria-roledescription="bar" d="M368.92857142857144,217.25888324873094h5v182.74111675126906h-5Z" fill="#4c78a8"/><path aria-label="temperature: 23; calls_per_hour: 0.0833333333333" role="graphics-symbol" aria-roledescription="bar" d="M383.2142857142857,344.44444444444446h5v55.55555555555554h-5Z" fill="#4c78a8"/></g></g><path class="foreground" aria-hidden="true" d="" display="none"/></g></g></g></svg>