<svg xmlns="http://www.w3.org/2000/svg" xmlns:xlink="http://www.w3.org/1999/xlink" version="1.1" class="marks" width="459" height="447" viewBox="0 0 459 447"><rect width="459" height="447" fill="white"/><g fill="none" stroke-miterlimit="10" transform="translate(53,10)"><g class="mark-group role-frame root" role="graphics-object" aria-roledescription="group mark container"><g transform="translate(0,0)"><path class="background" aria-hidden="true" d="M0.5,0.5h400v400h-400Z" stroke="#ddd"/><g><g class="mark-group role-axis" aria-hidden="true"><g transform="translate(0.5,400.5)"><path class="background" aria-hidden="true" d="M0,0h0v0h0Z" pointer-events="none"/><g><g class="mark-rule role-axis-grid" pointer-events="none"><line transform="translate(0,-400)" x2="0" y2="400" stroke="#ddd" stroke-width="1" opacity="1"/><line transform="translate(50,-400)" x2="0" y2="400" stroke="#ddd" stroke-width="1" opacity="1"/><line transform="translate(100,-400)" x2="0" y2="400" stroke="#ddd" stroke-width="1" opacity="1"/><line transform="translate(150,-400)" x2="0" y2="400" stroke="#ddd" stroke-width="1" opacity="1"/><line transform="translate(200,-400)" x2="0" y2="400" stroke="#ddd" stroke-width="1" opacity="1"/><line transform="translate(250,-400)" x2="0" y2="400" stroke="#ddd" stroke-width="1" opacity="1"/><line transform="translate(300,-400)" x2="0" y2="400" stroke="#ddd" stroke-width="1" opacity="1"/><line transform="translate(350,-400)" x2="0" y2="400" stroke="#ddd" stroke-width="1" opacity="1"/><line transform="translate(400,-400)" x2="0" y2="400" stroke="#ddd" stroke-width="1" opacity="1"/></g></g><path class="foreground" aria-hidden="true" d="" pointer-events="none" display="none"/></g></g><g class="mark-group role-axis" aria-hidden="true"><g transform="translate(0.5,0.5)"><path class="background" aria-hidden="true" d="M0,0h0v0h0Z" pointer-events="none"/><g><g class="mark-rule role-axis-grid" pointer-events="none"><line transform="translate(0,400)" x2="400" y2="0" stroke="#ddd" stroke-width="1" opacity="1"/><line transform="translate(0,350)" x2="400" y2="0" stroke="#ddd" stroke-width="1" opacity="1"/><line transform="translate(0,300)" x2="400" y2="0" stroke="#ddd" stroke-width="1" opacity="1"/><line transform="translate(0,250)" x2="400" y2="0" stroke="#ddd" stroke-width="1" opacity="1"/><line transform="translate(0,200)" x2="400" y2="0" stroke="#ddd" stroke-width="1" opacity="1"/><line transform="translate(0,150)" x2="400" y2="0" stroke="#ddd" stroke-width="1" opacity="1"/><line transform="translate(0,100)" x2="400" y2="0" stroke="#ddd" stroke-width="1" opacity="1"/><line transform="translate(0,50)" x2="400" y2="0" stroke="#ddd" stroke-width="1" opacity="1"/><line transform="translate(0,0)" x2="400" y2="0" stroke="#ddd" stroke-width="1" opacity="1"/></g></g><path class="foreground" aria-hidden="true" d="" pointer-events="none" display="none"/></g></g><g class="mark-group role-axis" role="graphics-symbol" aria-roledescription="axis" aria-label="X-axis titled 'calls_per_hour' for a linear scale with values from −5 to 35"><g transform="translate(0.5,400.5)"><path class="background" aria-hidden="true" d="M0,0h0v0h0Z" pointer-events="none"/><g><g class="mark-rule role-axis-tick" pointer-events="none"><line transform="translate(0,0)" x2="0" y2="5" stroke="#888" stroke-width="1" opacity="1"/><line transform="translate(50,0)" x2="0" y2="5" stroke="#888" stroke-width="1" opacity="1"/><line transform="translate(100,0)" x2="0" y2="5" stroke="#888" stroke-width="1" opacity="1"/><line transform="translate(150,0)" x2="0" y2="5" stroke="#888" stroke-width="1" opacity="1"/><line transform="translate(200,0)" x2="0" y2="5" stroke="#888" stroke-width="1" opacity="1"/><line transform="translate(250,0)" x2="0" y2="5" stroke="#888" stroke-width="1" opacity="1"/><line transform="translate(300,0)" x2="0" y2="5" stroke="#888" stroke-width="1" opacity="1"/><line transform="translate(350,0)" x2="0" y2="5" stroke="#888" stroke-width="1" opacity="1"/><line transform="translate(400,0)" x2="0" y2="5" stroke="#888" stroke-width="1" opacity="1"/></g><g class="mark-text role-axis-label" pointer-events="none"><text text-anchor="start" transform="translate(0,15)" font-family="sans-serif" font-size="10px" fill="#000" opacity="1">−5</text><text text-anchor="middle" transform="translate(50,15)" font-family="sans-serif" font-size="10px" fill="#000" opacity="1">0</text><text text-anchor="middle" transform="translate(100,15)" font-family="sans-serif" font-size="10px" fill="#000" opacity="1">5</text><text text-anchor="middle" transform="translate(150,15)" font-family="sans-serif" font-size="10px" fill="#000" opacity="1">10</text><text text-anchor="middle" transform="translate(200,15)" font-family="sans-serif" font-size="10px" fill="#000" opacity="1">15</text><text text-anchor="middle" transform="translate(250,15)" font-family="sans-serif" font-size="10px" fill="#000" opacity="1">20</text><text text-anchor="middle" transform="translate(300,15)" font-family="sans-serif" font-size="10px" fill="#000" opacity="1">25</text><text text-anchor="middle" transform="translate(350,15)" font-family="sans-serif" font-size="10px" fill="#000" opacity="1">30</text><text text-anchor="end" transform="translate(400,15)" font-family="sans-serif" font-size="10px" fill="#000" opacity="1">35</text></g><g class="mark-rule role-axis-domain" pointer-events="none"><line transform="translate(0,0)" x2="400" y2="0" stroke="#888" stroke-width="1" opacity="1"/></g><g class="mark-text role-axis-title" pointer-events="none"><text text-anchor="middle" transform="translate(200,30)" font-family="sans-serif" font-size="11px" font-weight="bold" fill="#000" opacity="1">calls_per_hour</text></g></g><path class="foreground" aria-hidden="true" d="" pointer-events="none" display="none"/></g></g><g class="mark-group role-axis" role="graphics-symbol" aria-roledescription="axis" aria-label="Y-axis titled 'frequency' for a linear scale with values from 0 to 1,600"><g transform="translate(0.5,0.5)"><path class="background" aria-hidden="true" d="M0,0h0v0h0Z" pointer-events="none"/><g><g class="mark-rule role-axis-tick" pointer-events="none"><line transform="translate(0,400)" x2="-5" y2="0" stroke="#888" stroke-width="1" opacity="1"/><line transform="translate(0,350)" x2="-5" y2="0" stroke="#888" stroke-width="1" opacity="1"/><line transform="translate(0,300)" x2="-5" y2="0" stroke="#888" stroke-width="1" opacity="1"/><line transform="translate(0,250)" x2="-5" y2="0" stroke="#888" stroke-width="1" opacity="1"/><line transform="translate(0,200)" x2="-5" y2="0" stroke="#888" stroke-width="1" opacity="1"/><line transform="translate(0,150)" x2="-5" y2="0" stroke="#888" stroke-width="1" opacity="1"/><line transform="translate(0,100)" x2="-5" y2="0" stroke="#888" stroke-width="1" opacity="1"/><line transform="translate(0,50)" x2="-5" y2="0" stroke="#888" stroke-width="1" opacity="1"/><line transform="translate(0,0)" x2="-5" y2="0" stroke="#888" stroke-width="1" opacity="1"/></g><g class="mark-text role-axis-label" pointer-events="none"><text text-anchor="end" transform="translate(-7,403)" font-family="sans-serif" font-size="10px" fill="#000" opacity="1">0</text><text text-anchor="end" transform="translate(-7,353)" font-family="sans-serif" font-size="10px" fill="#000" opacity="1">200</text><text text-anchor="end" transform="translate(-7,303)" font-family="sans-serif" font-size="10px" fill="#000" opacity="1">400</text><text text-anchor="end" transform="translate(-7,253)" font-family="sans-serif" font-size="10px" fill="#000" opacity="1">600</text><text text-anchor="end" transform="translate(-7,203)" font-family="sans-serif" font-size="10px" fill="#000" opacity="1">800</text><text text-anchor="end" transform="translate(-7,153)" font-family="sans-serif" font-size="10px" fill="#000" opacity="1">1,000</text><text text-anchor="end" transform="translate(-7,103)" font-family="sans-serif" font-size="10px" fill="#000" opacity="1">1,200</text><text text-anchor="end" transform="translate(-7,53)" font-family="sans-serif" font-size="10px" fill="#000" opacity="1">1,400</text><text text-anchor="end" transform="translate(-7,3)" font-family="sans-serif" font-size="10px" fill="#000" opacity="1">1,600</text></g><g class="mark-rule role-axis-domain" pointer-events="none"><line transform="translate(0,400)" x2="0" y2="-400" stroke="#888" stroke-width="1" opacity="1"/></g><g class="mark-text role-axis-title" pointer-events="none"><text text-anchor="middle" transform="translate(-36.0244140625,200) rotate(-90) translate(0,-2)" font-family="sans-serif" font-size="11px" font-weight="bold" fill="#000" opacity="1">frequency</text></g></g><path class="foreground" aria-hidden="true" d="" pointer-events="none" display="none"/></g></g><g class="mark-rect role-mark marks" role="graphics-object" aria-roledescription="rect mark container"><path aria-label="calls_per_hour: 0; frequency: 1301" role="graphics-symbol" aria-roledescription="bar" d="M47.5,74.75h5v325.25h-5Z" fill="#4c78a8"/><path aria-label="calls_per_hour: 1; frequency: 1287" role="graphics-symbol" aria-roledescription="bar" d="M57.5,78.25000000000001h5v321.75h-5Z" fill="#4c78a8"/><path aria-label="calls_per_hour: 2; frequency: 1426" role="graphics-symbol" aria-roledescription="bar" d="M67.5,43.50000000000001h5v356.5h-5Z" fill="#4c78a8"/><path aria-label="calls_per_hour: 3; frequency: 1260" role="graphics-symbol" aria-roledescription="bar" d="M77.5,85.00000000000001h5v315h-5Z" fill="#4c78a8"/><path aria-label="calls_per_hour: 4; frequency: 1083" role="graphics-symbol" aria-roledescription="bar" d="M87.5,129.25h5v270.75h-5Z" fill="#4c78a8"/><path aria-label="calls_per_hour: 5; frequency: 960" role="graphics-symbol" aria-roledescription="bar" d="M97.5,160h5v240h-5Z" fill="#4c78a8"/><path aria-label="calls_per_hour: 6; frequency: 790" role="graphics-symbol" aria-roledescription="bar" d="M107.50000000000001,202.5h5v197.5h-5Z" fill="#4c78a8"/><path aria-label="calls_per_hour: 7; frequency: 682" role="graphics-symbol" aria-roledescription="bar" d="M117.5,229.5h5v170.5h-5Z" fill="#4c78a8"/><path aria-label="calls_per_hour: 8; frequency: 488" role="graphics-symbol" aria-roledescription="bar" d="M127.5,278h5v122h-5Z" fill="#4c78a8"/><path aria-label="calls_per_hour: 9; frequency: 399" role="graphics-symbol" aria-roledescription="bar" d="M137.5,300.25h5v99.75h-5Z" fill="#4c78a8"/><path aria-label="calls_per_hour: 10; frequency: 293" role="graphics-symbol" aria-roledescription="bar" d="M147.5,326.75h5v73.25h-5Z" fill="#4c78a8"/><path aria-label="calls_per_hour: 11; frequency: 213" role="graphics-symbol" aria-roledescription="bar" d="M157.5,346.75h5v53.25h-5Z" fill="#4c78a8"/><path aria-label="calls_per_hour: 12; frequency: 173" role="graphics-symbol" aria-roledescription="bar" d="M167.5,356.75h5v43.25h-5Z" fill="#4c78a8"/><path aria-label="calls_per_hour: 13; frequency: 118" role="graphics-symbol" aria-roledescription="bar" d="M177.5,370.5h5v29.5h-5Z" fill="#4c78a8"/><path aria-label="calls_per_hour: 14; frequency: 83" role="graphics-symbol" aria-roledescription="bar" d="M187.5,379.25h5v20.75h-5Z" fill="#4c78a8"/><path aria-label="calls_per_hour: 15; frequency: 65" role="graphics-symbol" aria-roledescription="bar" d="M197.5,383.75h5v16.25h-5Z" fill="#4c78a8"/><path aria-label="calls_per_hour: 16; frequency: 51" role="graphics-symbol" aria-roledescription="bar" d="M207.5,387.25h5v12.75h-5Z" fill="#4c78a8"/><path aria-label="calls_per_hour: 17; frequency: 34" role="graphics-symbol" aria-roledescription="bar" d="M217.50000000000003,391.5h5v8.5h-5Z" fill="#4c78a8"/><path aria-label="calls_per_hour: 18; frequency: 23" role="graphics-symbol" aria-roledescription="bar" d="M227.49999999999997,394.25h5v5.75h-5Z" fill="#4c78a8"/><path aria-label="calls_per_hour: 19; frequency: 29" role="graphics-symbol" aria-roledescription="bar" d="M237.5,392.75h5v7.25h-5Z" fill="#4c78a8"/><path aria-label="calls_per_hour: 20; frequency: 17" role="graphics-symbol" aria-roledescription="bar" d="M247.5,395.75h5v4.25h-5Z" fill="#4c78a8"/><path aria-label="calls_per_hour: 21; frequency: 11" role="graphics-symbol" aria-roledescription="bar" d="M257.5,397.25h5v2.75h-5Z" fill="#4c78a8"/><path aria-label="calls_per_hour: 22; frequency: 6" role="graphics-symbol" aria-roledescription="bar" d="M267.5,398.5h5v1.5h-5Z" fill="#4c78a8"/><path aria-label="calls_per_hour: 23; frequency: 7" role="graphics-symbol" aria-roledescription="bar" d="M277.5,398.25h5v1.75h-5Z" fill="#4c78a8"/><path aria-label="calls_per_hour: 24; frequency: 8" role="graphics-symbol" aria-roledescription="bar" d="M287.5,398h5v2h-5Z" fill="#4c78a8"/><path aria-label="calls_per_hour: 25; frequency: 3" role="graphics-symbol" aria-roledescription="bar" d="M297.5,399.25h5v0.75h-5Z" fill="#4c78a8"/><path aria-label="calls_per_hour: 26; frequency: 2" role="graphics-symbol" aria-roledescription="bar" d="M307.5,399.5h5v0.5h-5Z" fill="#4c78a8"/><path aria-label="calls_per_hour: 27; frequency: 1" role="graphics-symbol" aria-roledescription="bar" d="M317.5,399.75h5v0.25h-5Z" fill="#4c78a8"/><path aria-label="calls_per_hour: 28; frequency: 2" role="graphics-symbol" aria-roledescription="bar" d="M327.5,399.5h5v0.5h-5Z" fill="#4c78a8"/><path aria-label="calls_per_hour: 29; frequency: 1" role="graphics-symbol" aria-roledescription="bar" d="M337.5,399.75h5v0.25h-5Z" fill="#4c78a8"/><path aria-label="calls_per_hour: 33; frequency: 1" role="graphics-symbol" aria-roledescription="bar" d="M377.5,399.75h5v0.25h-5Z" fill="#4c78a8"/></g></g><path class="foreground" aria-hidden="true" d="" display="none"/></g></g></g></svg>