<svg xmlns="http://www.w3.org/2000/svg" xmlns:xlink="http://www.w3.org/1999/xlink" version="1.1" class="marks" width="453" height="447" viewBox="0 0 453 447"><rect width="453" height="447" fill="white"/><g fill="none" stroke-miterlimit="10" transform="translate(47,10)"><g class="mark-group role-frame root" role="graphics-object" aria-roledescription="group mark container"><g transform="translate(0,0)"><path class="background" aria-hidden="true" d="M0.5,0.5h400v400h-400Z" stroke="#ddd"/><g><g class="mark-group role-axis" aria-hidden="true"><g transform="translate(0.5,400.5)"><path class="background" aria-hidden="true" d="M0,0h0v0h0Z" pointer-events="none"/><g><g class="mark-rule role-axis-grid" pointer-events="none"><line transform="translate(0,-400)" x2="0" y2="400" stroke="#ddd" stroke-width="1" opacity="1"/><line transform="translate(29,-400)" x2="0" y2="400" stroke="#ddd" stroke-width="1" opacity="1"/><line transform="translate(57,-400)" x2="0" y2="400" stroke="#ddd" stroke-width="1" opacity="1"/><line transform="translate(86,-400)" x2="0" y2="400" stroke="#ddd" stroke-width="1" opacity="1"/><line transform="translate(114,-400)" x2="0" y2="400" stroke="#ddd" stroke-width="1" opacity="1"/><line transform="translate(143,-400)" x2="0" y2="400" stroke="#ddd" stroke-width="1" opacity="1"/><line transform="translate(171,-400)" x2="0" y2="400" stroke="#ddd" stroke-width="1" opacity="1"/><line transform="translate(200,-400)" x2="0" y2="400" stroke="#ddd" stroke-width="1" opacity="1"/><line transform="translate(229,-400)" x2="0" y2="400" stroke="#ddd" stroke-width="1" opacity="1"/><line transform="translate(257,-400)" x2="0" y2="400" stroke="#ddd" stroke-width="1" opacity="1"/><line transform="translate(286,-400)" x2="0" y2="400" stroke="#ddd" stroke-width="1" opacity="1"/><line transform="translate(314,-400)" x2="0" y2="400" stroke="#ddd" stroke-width="1" opacity="1"/><line transform="translate(343,-400)" x2="0" y2="400" stroke="#ddd" stroke-width="1" opacity="1"/><line transform="translate(371,-400)" x2="0" y2="400" stroke="#ddd" stroke-width="1" opacity="1"/><line transform="translate(400,-400)" x2="0" y2="400" stroke="#ddd" stroke-width="1" opacity="1"/></g></g><path class="foreground" aria-hidden="true" d="" pointer-events="none" display="none"/></g></g><g class="mark-group role-axis" aria-hidden="true"><g transform="translate(0.5,0.5)"><path class="background" aria-hidden="true" d="M0,0h0v0h0Z" pointer-events="none"/><g><g class="mark-rule role-axis-grid" pointer-events="none"><line transform="translate(0,400)" x2="400" y2="0" stroke="#ddd" stroke-width="1" opacity="1"/><line transform="translate(0,360)" x2="400" y2="0" stroke="#ddd" stroke-width="1" opacity="1"/><line transform="translate(0,320)" x2="400" y2="0" stroke="#ddd" stroke-width="1" opacity="1"/><line transform="translate(0,280)" x2="400" y2="0" stroke="#ddd" stroke-width="1" opacity="1"/><line transform="translate(0,240)" x2="400" y2="0" stroke="#ddd" stroke-width="1" opacity="1"/><line transform="translate(0,200)" x2="400" y2="0" stroke="#ddd" stroke-width="1" opacity="1"/><line transform="translate(0,160)" x2="400" y2="0" stroke="#ddd" stroke-width="1" opacity="1"/><line transform="translate(0,120)" x2="400" y2="0" stroke="#ddd" stroke-width="1" opacity="1"/><line transform="translate(0,80)" x2="400" y2="0" stroke="#ddd" stroke-width="1" opacity="1"/><line transform="translate(0,40)" x2="400" y2="0" stroke="#ddd" stroke-width="1" opacity="1"/><line transform="translate(0,0)" x2="400" y2="0" stroke="#ddd" stroke-width="1" opacity="1"/></g></g><path class="foreground" aria-hidden="true" d="" pointer-events="none" display="none"/></g></g><g class="mark-group role-axis" role="graphics-symbol" aria-roledescription="axis" aria-label="X-axis titled 'temperature' for a linear scale with values from −4 to 24"><g transform="translate(0.5,400.5)"><path class="background" aria-hidden="true" d="M0,0h0v0h0Z" pointer-events="none"/><g><g class="mark-rule role-axis-tick" pointer-events="none"><line transform="translate(0,0)" x2="0" y2="5" stroke="#888" stroke-width="1" opacity="1"/><line transform="translate(29,0)" x2="0" y2="5" stroke="#888" stroke-width="1" opacity="1"/><line transform="translate(57,0)" x2="0" y2="5" stroke="#888" stroke-width="1" opacity="1"/><line transform="translate(86,0)" x2="0" y2="5" stroke="#888" stroke-width="1" opacity="1"/><line transform="translate(114,0)" x2="0" y2="5" stroke="#888" stroke-width="1" opacity="1"/><line transform="translate(143,0)" x2="0" y2="5" stroke="#888" stroke-width="1" opacity="1"/><line transform="translate(171,0)" x2="0" y2="5" stroke="#888" stroke-width="1" opacity="1"/><line transform="translate(200,0)" x2="0" y2="5" stroke="#888" stroke-width="1" opacity="1"/><line transform="translate(229,0)" x2="0" y2="5" stroke="#888" stroke-width="1" opacity="1"/><line transform="translate(257,0)" x2="0" y2="5" stroke="#888" stroke-width="1" opacity="1"/><line transform="translate(286,0)" x2="0" y2="5" stroke="#888" stroke-width="1" opacity="1"/><line transform="translate(314,0)" x2="0" y2="5" stroke="#888" stroke-width="1" opacity="1"/><line transform="translate(343,0)" x2="0" y2="5" stroke="#888" stroke-width="1" opacity="1"/><line transform="translate(371,0)" x2="0" y2="5" stroke="#888" stroke-width="1" opacity="1"/><line transform="translate(400,0)" x2="0" y2="5" stroke="#888" stroke-width="1" opacity="1"/></g><g class="mark-text role-axis-label" pointer-events="none"><text text-anchor="start" transform="translate(0,15)" font-family="sans-serif" font-size="10px" fill="#000" opacity="1">−4</text><text text-anchor="middle" transform="translate(28.57142857142857,15)" font-family="sans-serif" font-size="10px" fill="#000" opacity="1">−2</text><text text-anchor="middle" transform="translate(57.14285714285714,15)" font-family="sans-serif" font-size="10px" fill="#000" opacity="1">0</text><text text-anchor="middle" transform="translate(85.71428571428571,15)" font-family="sans-serif" font-size="10px" fill="#000" opacity="1">2</text><text text-anchor="middle" transform="translate(114.28571428571428,15)" font-family="sans-serif" font-size="10px" fill="#000" opacity="1">4</text><text text-anchor="middle" transform="translate(142.85714285714286,15)" font-family="sans-serif" font-size="10px" fill="#000" opacity="1">6</text><text text-anchor="middle" transform="translate(171.42857142857142,15)" font-family="sans-serif" font-size="10px" fill="#000" opacity="1">8</text><text text-anchor="middle" transform="translate(200,15)" font-family="sans-serif" font-size="10px" fill="#000" opacity="1">10</text><text text-anchor="middle" transform="translate(228.57142857142856,15)" font-family="sans-serif" font-size="10px" fill="#000" opacity="1">12</text><text text-anchor="middle" transform="translate(257.14285714285717,15)" font-family="sans-serif" font-size="10px" fill="#000" opacity="1">14</text><text text-anchor="middle" transform="translate(285.7142857142857,15)" font-family="sans-serif" font-size="10px" fill="#000" opacity="1">16</text><text text-anchor="middle" transform="translate(314.2857142857143,15)" font-family="sans-serif" font-size="10px" fill="#000" opacity="1">18</text><text text-anchor="middle" transform="translate(342.85714285714283,15)" font-family="sans-serif" font-size="10px" fill="#000" opacity="1">20</text><text text-anchor="middle" transform="translate(371.42857142857144,15)" font-family="sans-serif" font-size="10px" fill="#000" opacity="1">22</text><text text-anchor="end" transform="translate(400,15)" font-family="sans-serif" font-size="10px" fill="#000" opacity="1">24</text></g><g class="mark-rule role-axis-domain" pointer-events="none"><line transform="translate(0,0)" x2="400" y2="0" stroke="#888" stroke-width="1" opacity="1"/></g><g class="mark-text role-axis-title" pointer-events="none"><text text-anchor="middle" transform="translate(200,30)" font-family="sans-serif" font-size="11px" font-weight="bold" fill="#000" opacity="1">temperature</text></g></g><path class="foreground" aria-hidden="true" d="" pointer-events="none" display="none"/></g></g><g class="mark-group role-axis" role="graphics-symbol" aria-roledescription="axis" aria-label="Y-axis titled 'calls_per_hour' for a linear scale with values from 0.0 to 0.5"><g transform="translate(0.5,0.5)"><path class="background" aria-hidden="true" d="M0,0h0v0h0Z" pointer-events="none"/><g><g class="mark-rule role-axis-tick" pointer-events="none"><line transform="translate(0,400)" x2="-5" y2="0" stroke="#888" stroke-width="1" opacity="1"/><line transform="translate(0,360)" x2="-5" y2="0" stroke="#888" stroke-width="1" opacity="1"/><line transform="translate(0,320)" x2="-5" y2="0" stroke="#888" stroke-width="1" opacity="1"/><line transform="translate(0,280)" x2="-5" y2="0" stroke="#888" stroke-width="1" opacity="1"/><line transform="translate(0,240)" x2="-5" y2="0" stroke="#888" stroke-width="1" opacity="1"/><line transform="translate(0,200)" x2="-5" y2="0" stroke="#888" stroke-width="1" opacity="1"/><line transform="translate(0,160)" x2="-5" y2="0" stroke="#888" stroke-width="1" opacity="1"/><line transform="translate(0,120)" x2="-5" y2="0" stroke="#888" stroke-width="1" opacity="1"/><line transform="translate(0,80)" x2="-5" y2="0" stroke="#888" stroke-width="1" opacity="1"/><line transform="translate(0,40)" x2="-5" y2="0" stroke="#888" stroke-width="1" opacity="1"/><line transform="translate(0,0)" x2="-5" y2="0" stroke="#888" stroke-width="1" opacity="1"/></g><g class="mark-text role-axis-label" pointer-events="none"><text text-anchor="end" transform="translate(-7,403)" font-family="sans-serif" font-size="10px" fill="#000" opacity="1">0.00</text><text text-anchor="end" transform="translate(-7,363)" font-family="sans-serif" font-size="10px" fill="#000" opacity="1">0.05</text><text text-anchor="end" transform="translate(-7,323)" font-family="sans-serif" font-size="10px" fill="#000" opacity="1">0.10</text><text text-anchor="end" transform="translate(-7,283)" font-family="sans-serif" font-size="10px" fill="#000" opacity="1">0.15</text><text text-anchor="end" transform="translate(-7,243)" font-family="sans-serif" font-size="10px" fill="#000" opacity="1">0.20</text><text text-anchor="end" transform="translate(-7,203)" font-family="sans-serif" font-size="10px" fill="#000" opacity="1">0.25</text><text text-anchor="end" transform="translate(-7,163)" font-family="sans-serif" font-size="10px" fill="#000" opacity="1">0.30</text><text text-anchor="end" transform="translate(-7,123.00000000000001)" font-family="sans-serif" font-size="10px" fill="#000" opacity="1">0.35</text><text text-anchor="end" transform="translate(-7,82.99999999999999)" font-family="sans-serif" font-size="10px" fill="#000" opacity="1">0.40</text><text text-anchor="end" transform="translate(-7,42.99999999999999)" font-family="sans-serif" font-size="10px" fill="#000" opacity="1">0.45</text><text text-anchor="end" transform="translate(-7,3)" font-family="sans-serif" font-size="10px" fill="#000" opacity="1">0.50</text></g><g class="mark-rule role-axis-domain" pointer-events="none"><line transform="translate(0,400)" x2="0" y2="-400" stroke="#888" stroke-width="1" opacity="1"/></g><g class="mark-text role-axis-title" pointer-events="none"><text text-anchor="middle" transform="translate(-30.462890625,200) rotate(-90) translate(0,-2)" font-family="sans-serif" font-size="11px" font-weight="bold" fill="#000" opacity="1">calls_per_hour</text></g></g><path class="foreground" aria-hidden="true" d="" pointer-events="none" display="none"/></g></g><g class="mark-rect role-mark marks" role="graphics-object" aria-roledescription="rect mark container"><path aria-label="temperature: −2; calls_per_hour: 0.232558139535" role="graphics-symbol" aria-roledescription="bar" d="M26.07142857142857,213.95348837209303h5v186.04651162790697h-5Z" fill="#4c78a8"/><path aria-label="temperature: −1; calls_per_hour: 0.433333333333" role="graphics-symbol" aria-roledescription="bar" d="M40.357142857142854,53.33333333333332h5v346.6666666666667h-5Z" fill="#4c78a8"/><path aria-label="temperature: 0; calls_per_hour: 0.326586936523" role="graphics-symbol" aria-roledescription="bar" d="M54.64285714285714,138.7304507819687h5v261.26954921803133h-5Z" fill="#4c78a8"/><path aria-label="temperature: 1; calls_per_hour: 0.333117723157" role="graphics-symbol" aria-roledescription="bar" d="M68.92857142857143,133.5058214747736h5v266.4941785252264h-5Z" fill="#4c78a8"/><path aria-label="temperature: 2; calls_per_hour: 0.374566473988" role="graphics-symbol" aria-roledescription="bar" d="M83.21428571428571,100.34682080924857h5v299.6531791907514h-5Z" fill="#4c78a8"/><path aria-label="temperature: 3; calls_per_hour: 0.360540540541" role="graphics-symbol" aria-roledescription="bar" d="M97.5,111.56756756756758h5v288.4324324324324h-5Z" fill="#4c78a8"/><path aria-label="temperature: 4; calls_per_hour: 0.358327946563" role="graphics-symbol" aria-roledescription="bar" d="M111.78571428571428,113.33764274940745h5v286.66235725059255h-5Z" fill="#4c78a8"/><path aria-label="temperature: 5; calls_per_hour: 0.375504032258" role="graphics-symbol" aria-roledescription="bar" d="M126.07142857142858,99.5967741935484h5v300.4032258064516h-5Z" fill="#4c78a8"/><path aria-label="temperature: 6; calls_per_hour: 0.4228117506" role="graphics-symbol" aria-roledescription="bar" d="M140.35714285714286,61.75059952038371h5v338.24940047961627h-5Z" fill="#4c78a8"/><path aria-label="temperature: 7; calls_per_hour: 0.422625858124" role="graphics-symbol" aria-roledescription="bar" d="M154.64285714285714,61.89931350114417h5v338.10068649885585h-5Z" fill="#4c78a8"/><path aria-label="temperature: 8; calls_per_hour: 0.436524002313" role="graphics-symbol" aria-roledescription="bar" d="M168.92857142857142,50.78079814921921h5v349.2192018507808h-5Z" fill="#4c78a8"/><path aria-label="temperature: 9; calls_per_hour: 0.436512496409" role="graphics-symbol" aria-roledescription="bar" d="M183.21428571428572,50.790002872737716h5v349.2099971272623h-5Z" fill="#4c78a8"/><path aria-label="temperature: 10; calls_per_hour: 0.430272361959" role="graphics-symbol" aria-roledescription="bar" d="M197.5,55.78211043310017h5v344.2178895668998h-5Z" fill="#4c78a8"/><path aria-label="temperature: 11; calls_per_hour: 0.445643672767" role="graphics-symbol" aria-roledescription="bar" d="M211.78571428571428,43.48506178632881h5v356.5149382136712h-5Z" fill="#4c78a8"/><path aria-label="temperature: 12; calls_per_hour: 0.488606714211" role="graphics-symbol" aria-roledescription="bar" d="M226.07142857142856,9.11462863106629h5v390.8853713689337h-5Z" fill="#4c78a8"/><path aria-label="temperature: 13; calls_per_hour: 0.459487179487" role="graphics-symbol" aria-roledescription="bar" d="M240.35714285714283,32.41025641025641h5v367.5897435897436h-5Z" fill="#4c78a8"/><path aria-label="temperature: 14; calls_per_hour: 0.454985033387" role="graphics-symbol" aria-roledescription="bar" d="M254.64285714285717,36.01197329035229h5v363.9880267096477h-5Z" fill="#4c78a8"/><path aria-label="temperature: 15; calls_per_hour: 0.428132849567" role="graphics-symbol" aria-roledescription="bar" d="M268.92857142857144,57.49372034607872h5v342.5062796539213h-5Z" fill="#4c78a8"/><path aria-label="temperature: 16; calls_per_hour: 0.388867995487" role="graphics-symbol" aria-roledescription="bar" d="M283.2142857142857,88.90560361037983h5v311.09439638962016h-5Z" fill="#4c78a8"/><path aria-label="temperature: 17; calls_per_hour: 0.399043062201" role="graphics-symbol" aria-roledescription="bar" d="M297.5,80.76555023923446h5v319.23444976076553h-5Z" fill="#4c78a8"/><path aria-label="temperature: 18; calls_per_hour: 0.385697538101" role="graphics-symbol" aria-roledescription="bar" d="M311.7857142857143,91.44196951934349h5v308.5580304806565h-5Z" fill="#4c78a8"/><path aria-label="temperature: 19; calls_per_hour: 0.321428571429" role="graphics-symbol" aria-roledescription="bar" d="M326.07142857142856,142.85714285714283h5v257.14285714285717h-5Z" fill="#4c78a8"/><path aria-label="temperature: 20; calls_per_hour: 0.292553191489" role="graphics-symbol" aria-roledescription="bar" d="M340.35714285714283,165.95744680851064h5v234.04255319148936h-5Z" fill="#4c78a8"/><path aria-label="temperature: 21; calls_per_hour: 0.30179028133" role="graphics-symbol" aria-roledescription="bar" d="M354.64285714285717,158.5677749360614h5v241.4322250639386h-5Z" fill="#4c78a8"/><path aria-label="temperature: 22; calls_per_hour: 0.274111675127" role="graphics-symbol" aria-roledescription="bar" d="M368.92857142857144,180.71065989847716h5v219.28934010152284h-5Z" fill="#4c78a8"/><path aria-label="temperature: 23; calls_per_hour: 0.0833333333333" role="graphics-symbol" aria-roledescription="bar" d="M383.2142857142857,333.33333333333337h5v66.66666666666663h-5Z" fill="#4c78a8"/></g></g><path class="foreground" aria-hidden="true" d="" display="none"/></g></g></g></svg>