<svg xmlns="http://www.w3.org/2000/svg" xmlns:xlink="http://www.w3.org/1999/xlink" version="1.1" class="marks" width="511" height="465" viewBox="0 0 511 465"><rect width="511" height="465" fill="white"/><g fill="none" stroke-miterlimit="10" transform="translate(41,10)"><g class="mark-group role-frame root" role="graphics-object" aria-roledescription="group mark container"><g transform="translate(0,0)"><path class="background" aria-hidden="true" d="M0.5,0.5h400v400h-400Z" stroke="#ddd"/><g><g class="mark-group role-axis" aria-hidden="true"><g transform="translate(0.5,0.5)"><path class="background" aria-hidden="true" d="M0,0h0v0h0Z" pointer-events="none"/><g><g class="mark-rule role-axis-grid" pointer-events="none"><line transform="translate(0,400)" x2="400" y2="0" stroke="#ddd" stroke-width="1" opacity="1"/><line transform="translate(0,364)" x2="400" y2="0" stroke="#ddd" stroke-width="1" opacity="1"/><line transform="translate(0,327)" x2="400" y2="0" stroke="#ddd" stroke-width="1" opacity="1"/><line transform="translate(0,291)" x2="400" y2="0" stroke="#ddd" stroke-width="1" opacity="1"/><line transform="translate(0,255)" x2="400" y2="0" stroke="#ddd" stroke-width="1" opacity="1"/><line transform="translate(0,218)" x2="400" y2="0" stroke="#ddd" stroke-width="1" opacity="1"/><line transform="translate(0,182)" x2="400" y2="0" stroke="#ddd" stroke-width="1" opacity="1"/><line transform="translate(0,145)" x2="400" y2="0" stroke="#ddd" stroke-width="1" opacity="1"/><line transform="translate(0,109)" x2="400" y2="0" stroke="#ddd" stroke-width="1" opacity="1"/><line transform="translate(0,73)" x2="400" y2="0" stroke="#ddd" stroke-width="1" opacity="1"/><line transform="translate(0,36)" x2="400" y2="0" stroke="#ddd" stroke-width="1" opacity="1"/><line transform="translate(0,0)" x2="400" y2="0" stroke="#ddd" stroke-width="1" opacity="1"/></g></g><path class="foreground" aria-hidden="true" d="" pointer-events="none" display="none"/></g></g><g class="mark-group role-axis" role="graphics-symbol" aria-roledescription="axis" aria-label="X-axis titled 'location' for a discrete scale with 40 values: A01, A11, B12M, C01, C05, ending with WD07"><g transform="translate(0.5,400.5)"><path class="background" aria-hidden="true" d="M0,0h0v0h0Z" pointer-events="none"/><g><g class="mark-rule role-axis-tick" pointer-events="none"><line transform="translate(5,0)" x2="0" y2="5" stroke="#888" stroke-width="1" opacity="1"/><line transform="translate(15,0)" x2="0" y2="5" stroke="#888" stroke-width="1" opacity="1"/><line transform="translate(25,0)" x2="0" y2="5" stroke="#888" stroke-width="1" opacity="1"/><line transform="translate(35,0)" x2="0" y2="5" stroke="#888" stroke-width="1" opacity="1"/><line transform="translate(45,0)" x2="0" y2="5" stroke="#888" stroke-width="1" opacity="1"/><line transform="translate(55,0)" x2="0" y2="5" stroke="#888" stroke-width="1" opacity="1"/><line transform="translate(65,0)" x2="0" y2="5" stroke="#888" stroke-width="1" opacity="1"/><line transform="translate(75,0)" x2="0" y2="5" stroke="#888" stroke-width="1" opacity="1"/><line transform="translate(85,0)" x2="0" y2="5" stroke="#888" stroke-width="1" opacity="1"/><line transform="translate(95,0)" x2="0" y2="5" stroke="#888" stroke-width="1" opacity="1"/><line transform="translate(105,0)" x2="0" y2="5" stroke="#888" stroke-width="1" opacity="1"/><line transform="translate(115,0)" x2="0" y2="5" stroke="#888" stroke-width="1" opacity="1"/><line transform="translate(125,0)" x2="0" y2="5" stroke="#888" stroke-width="1" opacity="1"/><line transform="translate(135,0)" x2="0" y2="5" stroke="#888" stroke-width="1" opacity="1"/><line transform="translate(145,0)" x2="0" y2="5" stroke="#888" stroke-width="1" opacity="1"/><line transform="translate(155,0)" x2="0" y2="5" stroke="#888" stroke-width="1" opacity="1"/><line transform="translate(165,0)" x2="0" y2="5" stroke="#888" stroke-width="1" opacity="1"/><line transform="translate(175,0)" x2="0" y2="5" stroke="#888" stroke-width="1" opacity="1"/><line transform="translate(185,0)" x2="0" y2="5" stroke="#888" stroke-width="1" opacity="1"/><line transform="translate(195,0)" x2="0" y2="5" stroke="#888" stroke-width="1" opacity="1"/><line transform="translate(205,0)" x2="0" y2="5" stroke="#888" stroke-width="1" opacity="1"/><line transform="translate(215,0)" x2="0" y2="5" stroke="#888" stroke-width="1" opacity="1"/><line transform="translate(225,0)" x2="0" y2="5" stroke="#888" stroke-width="1" opacity="1"/><line transform="translate(235,0)" x2="0" y2="5" stroke="#888" stroke-width="1" opacity="1"/><line transform="translate(245,0)" x2="0" y2="5" stroke="#888" stroke-width="1" opacity="1"/><line transform="translate(255,0)" x2="0" y2="5" stroke="#888" stroke-width="1" opacity="1"/><line transform="translate(265,0)" x2="0" y2="5" stroke="#888" stroke-width="1" opacity="1"/><line transform="translate(275,0)" x2="0" y2="5" stroke="#888" stroke-width="1" opacity="1"/><line transform="translate(285,0)" x2="0" y2="5" stroke="#888" stroke-width="1" opacity="1"/><line transform="translate(295,0)" x2="0" y2="5" stroke="#888" stroke-width="1" opacity="1"/><line transform="translate(305,0)" x2="0" y2="5" stroke="#888" stroke-width="1" opacity="1"/><line transform="translate(315,0)" x2="0" y2="5" stroke="#888" stroke-width="1" opacity="1"/><line transform="translate(325,0)" x2="0" y2="5" stroke="#888" stroke-width="1" opacity="1"/><line transform="translate(335,0)" x2="0" y2="5" stroke="#888" stroke-width="1" opacity="1"/><line transform="translate(345,0)" x2="0" y2="5" stroke="#888" stroke-width="1" opacity="1"/><line transform="translate(355,0)" x2="0" y2="5" stroke="#888" stroke-width="1" opacity="1"/><line transform="translate(365,0)" x2="0" y2="5" stroke="#888" stroke-width="1" opacity="1"/><line transform="translate(375,0)" x2="0" y2="5" stroke="#888" stroke-width="1" opacity="1"/><line transform="translate(385,0)" x2="0" y2="5" stroke="#888" stroke-width="1" opacity="1"/><line transform="translate(395,0)" x2="0" y2="5" stroke="#888" stroke-width="1" opacity="1"/></g><g class="mark-text role-axis-label" pointer-events="none"><text text-anchor="end" transform="translate(4.5,7) rotate(270) translate(0,3)" font-family="sans-serif" font-size="10px" fill="#000" opacity="1">A01</text><text text-anchor="end" transform="translate(14.5,7) rotate(270) translate(0,3)" font-family="sans-serif" font-size="10px" fill="#000" opacity="1">A11</text><text text-anchor="end" transform="translate(24.5,7) rotate(270) translate(0,3)" font-family="sans-serif" font-size="10px" fill="#000" opacity="1">B12M</text><text text-anchor="end" transform="translate(34.5,7) rotate(270) translate(0,3)" font-family="sans-serif" font-size="10px" fill="#000" opacity="1">C01</text><text text-anchor="end" transform="translate(44.5,7) rotate(270) translate(0,3)" font-family="sans-serif" font-size="10px" fill="#000" opacity="1">C05</text><text text-anchor="end" transform="translate(54.5,7) rotate(270) translate(0,3)" font-family="sans-serif" font-size="10px" fill="#000" opacity="1">CB11</text><text text-anchor="end" transform="translate(64.5,7) rotate(270) translate(0,3)" font-family="sans-serif" font-size="10px" fill="#000" opacity="1">D03</text><text text-anchor="end" transform="translate(74.5,7) rotate(270) translate(0,3)" font-family="sans-serif" font-size="10px" fill="#000" opacity="1">D05</text><text text-anchor="end" transform="translate(84.5,7) rotate(270) translate(0,3)" font-family="sans-serif" font-size="10px" fill="#000" opacity="1">D09</text><text text-anchor="end" transform="translate(94.5,7) rotate(270) translate(0,3)" font-family="sans-serif" font-size="10px" fill="#000" opacity="1">E04</text><text text-anchor="end" transform="translate(104.5,7) rotate(270) translate(0,3)" font-family="sans-serif" font-size="10px" fill="#000" opacity="1">E07</text><text text-anchor="end" transform="translate(114.5,7) rotate(270) translate(0,3)" font-family="sans-serif" font-size="10px" fill="#000" opacity="1">F05</text><text text-anchor="end" transform="translate(124.5,7) rotate(270) translate(0,3)" font-family="sans-serif" font-size="10px" fill="#000" opacity="1">F09</text><text text-anchor="end" transform="translate(134.5,7) rotate(270) translate(0,3)" font-family="sans-serif" font-size="10px" fill="#000" opacity="1">G05</text><text text-anchor="end" transform="translate(144.5,7) rotate(270) translate(0,3)" font-family="sans-serif" font-size="10px" fill="#000" opacity="1">H04</text><text text-anchor="end" transform="translate(154.5,7) rotate(270) translate(0,3)" font-family="sans-serif" font-size="10px" fill="#000" opacity="1">H05</text><text text-anchor="end" transform="translate(164.5,7) rotate(270) translate(0,3)" font-family="sans-serif" font-size="10px" fill="#000" opacity="1">H07</text><text text-anchor="end" transform="translate(174.5,7) rotate(270) translate(0,3)" font-family="sans-serif" font-size="10px" fill="#000" opacity="1">H09</text><text text-anchor="end" transform="translate(184.5,7) rotate(270) translate(0,3)" font-family="sans-serif" font-size="10px" fill="#000" opacity="1">H14</text><text text-anchor="end" transform="translate(194.5,7) rotate(270) translate(0,3)" font-family="sans-serif" font-size="10px" fill="#000" opacity="1">H15</text><text text-anchor="end" transform="translate(204.5,7) rotate(270) translate(0,3)" font-family="sans-serif" font-size="10px" fill="#000" opacity="1">J07</text><text text-anchor="end" transform="translate(214.5,7) rotate(270) translate(0,3)" font-family="sans-serif" font-size="10px" fill="#000" opacity="1">J11</text><text text-anchor="end" transform="translate(224.5,7) rotate(270) translate(0,3)" font-family="sans-serif" font-size="10px" fill="#000" opacity="1">K09</text><text text-anchor="end" transform="translate(234.5,7) rotate(270) translate(0,3)" font-family="sans-serif" font-size="10px" fill="#000" opacity="1">KS06</text><text text-anchor="end" transform="translate(244.5,7) rotate(270) translate(0,3)" font-family="sans-serif" font-size="10px" fill="#000" opacity="1">M01</text><text text-anchor="end" transform="translate(254.5,7) rotate(270) translate(0,3)" font-family="sans-serif" font-size="10px" fill="#000" opacity="1">M02</text><text text-anchor="end" transform="translate(264.5,7) rotate(270) translate(0,3)" font-family="sans-serif" font-size="10px" fill="#000" opacity="1">M04</text><text text-anchor="end" transform="translate(274.5,7) rotate(270) translate(0,3)" font-family="sans-serif" font-size="10px" fill="#000" opacity="1">M05</text><text text-anchor="end" transform="translate(284.5,7) rotate(270) translate(0,3)" font-family="sans-serif" font-size="10px" fill="#000" opacity="1">N08M</text><text text-anchor="end" transform="translate(294.5,7) rotate(270) translate(0,3)" font-family="sans-serif" font-size="10px" fill="#000" opacity="1">N14</text><text text-anchor="end" transform="translate(304.5,7) rotate(270) translate(0,3)" font-family="sans-serif" font-size="10px" fill="#000" opacity="1">N20</text><text text-anchor="end" transform="translate(314.5,7) rotate(270) translate(0,3)" font-family="sans-serif" font-size="10px" fill="#000" opacity="1">NB14</text><text text-anchor="end" transform="translate(324.5,7) rotate(270) translate(0,3)" font-family="sans-serif" font-size="10px" fill="#000" opacity="1">NB5T</text><text text-anchor="end" transform="translate(334.5,7) rotate(270) translate(0,3)" font-family="sans-serif" font-size="10px" fill="#000" opacity="1">S13T</text><text text-anchor="end" transform="translate(344.5,7) rotate(270) translate(0,3)" font-family="sans-serif" font-size="10px" fill="#000" opacity="1">T10</text><text text-anchor="end" transform="translate(354.5,7) rotate(270) translate(0,3)" font-family="sans-serif" font-size="10px" fill="#000" opacity="1">V05</text><text text-anchor="end" transform="translate(364.5,7) rotate(270) translate(0,3)" font-family="sans-serif" font-size="10px" fill="#000" opacity="1">V23</text><text text-anchor="end" transform="translate(374.5,7) rotate(270) translate(0,3)" font-family="sans-serif" font-size="10px" fill="#000" opacity="1">WB09</text><text text-anchor="end" transform="translate(384.5,7) rotate(270) translate(0,3)" font-family="sans-serif" font-size="10px" fill="#000" opacity="1">WD05</text><text text-anchor="end" transform="translate(394.5,7) rotate(270) translate(0,3)" font-family="sans-serif" font-size="10px" fill="#000" opacity="1">WD07</text></g><g class="mark-rule role-axis-domain" pointer-events="none"><line transform="translate(0,0)" x2="400" y2="0" stroke="#888" stroke-width="1" opacity="1"/></g><g class="mark-text role-axis-title" pointer-events="none"><text text-anchor="middle" transform="translate(200,47.783203125)" font-family="sans-serif" font-size="11px" font-weight="bold" fill="#000" opacity="1">location</text></g></g><path class="foreground" aria-hidden="true" d="" pointer-events="none" display="none"/></g></g><g class="mark-group role-axis" role="graphics-symbol" aria-roledescription="axis" aria-label="Y-axis titled 'mean_calls_per_hour' for a linear scale with values from 0.0 to 1.1"><g transform="translate(0.5,0.5)"><path class="background" aria-hidden="true" d="M0,0h0v0h0Z" pointer-events="none"/><g><g class="mark-rule role-axis-tick" pointer-events="none"><line transform="translate(0,400)" x2="-5" y2="0" stroke="#888" stroke-width="1" opacity="1"/><line transform="translate(0,364)" x2="-5" y2="0" stroke="#888" stroke-width="1" opacity="1"/><line transform="translate(0,327)" x2="-5" y2="0" stroke="#888" stroke-width="1" opacity="1"/><line transform="translate(0,291)" x2="-5" y2="0" stroke="#888" stroke-width="1" opacity="1"/><line transform="translate(0,255)" x2="-5" y2="0" stroke="#888" stroke-width="1" opacity="1"/><line transform="translate(0,218)" x2="-5" y2="0" stroke="#888" stroke-width="1" opacity="1"/><line transform="translate(0,182)" x2="-5" y2="0" stroke="#888" stroke-width="1" opacity="1"/><line transform="translate(0,145)" x2="-5" y2="0" stroke="#888" stroke-width="1" opacity="1"/><line transform="translate(0,109)" x2="-5" y2="0" stroke="#888" stroke-width="1" opacity="1"/><line transform="translate(0,73)" x2="-5" y2="0" stroke="#888" stroke-width="1" opacity="1"/><line transform="translate(0,36)" x2="-5" y2="0" stroke="#888" stroke-width="1" opacity="1"/><line transform="translate(0,0)" x2="-5" y2="0" stroke="#888" stroke-width="1" opacity="1"/></g><g class="mark-text role-axis-label" pointer-events="none"><text text-anchor="end" transform="translate(-7,403)" font-family="sans-serif" font-size="10px" fill="#000" opacity="1">0.0</text><text text-anchor="end" transform="translate(-7,366.6363636363636)" font-family="sans-serif" font-size="10px" fill="#000" opacity="1">0.1</text><text text-anchor="end" transform="translate(-7,330.27272727272725)" font-family="sans-serif" font-size="10px" fill="#000" opacity="1">0.2</text><text text-anchor="end" transform="translate(-7,293.90909090909093)" font-family="sans-serif" font-size="10px" fill="#000" opacity="1">0.3</text><text text-anchor="end" transform="translate(-7,257.5454545454545)" font-family="sans-serif" font-size="10px" fill="#000" opacity="1">0.4</text><text text-anchor="end" transform="translate(-7,221.18181818181816)" font-family="sans-serif" font-size="10px" fill="#000" opacity="1">0.5</text><text text-anchor="end" transform="translate(-7,184.81818181818184)" font-family="sans-serif" font-size="10px" fill="#000" opacity="1">0.6</text><text text-anchor="end" transform="translate(-7,148.4545454545455)" font-family="sans-serif" font-size="10px" fill="#000" opacity="1">0.7</text><text text-anchor="end" transform="translate(-7,112.09090909090908)" font-family="sans-serif" font-size="10px" fill="#000" opacity="1">0.8</text><text text-anchor="end" transform="translate(-7,75.72727272727275)" font-family="sans-serif" font-size="10px" fill="#000" opacity="1">0.9</text><text text-anchor="end" transform="translate(-7,39.363636363636374)" font-family="sans-serif" font-size="10px" fill="#000" opacity="1">1.0</text><text text-anchor="end" transform="translate(-7,3)" font-family="sans-serif" font-size="10px" fill="#000" opacity="1">1.1</text></g><g class="mark-rule role-axis-domain" pointer-events="none"><line transform="translate(0,400)" x2="0" y2="-400" stroke="#888" stroke-width="1" opacity="1"/></g><g class="mark-text role-axis-title" pointer-events="none"><text text-anchor="middle" transform="translate(-24.9013671875,200) rotate(-90) translate(0,-2)" font-family="sans-serif" font-size="11px" font-weight="bold" fill="#000" opacity="1">mean_calls_per_hour</text></g></g><path class="foreground" aria-hidden="true" d="" pointer-events="none" display="none"/></g></g><g class="mark-rect role-mark marks" role="graphics-object" aria-roledescription="rect mark container"><path aria-label="location: C05; mean_calls_per_hour: 0.6677; type: male" role="graphics-symbol" aria-roledescription="bar" d="M40.5,157.20000000000005h9v242.79999999999995h-9Z" fill="#f58518"/><path aria-label="location: F09; mean_calls_per_hour: 0.8081; type: male" role="graphics-symbol" aria-roledescription="bar" d="M120.5,106.14545454545454h9v293.8545454545455h-9Z" fill="#f58518"/><path aria-label="location: N20; mean_calls_per_hour: 0.5776; type: male" role="graphics-symbol" aria-roledescription="bar" d="M300.5,189.96363636363637h9v210.03636363636363h-9Z" fill="#f58518"/><path aria-label="location: D09; mean_calls_per_hour: 0.3778; type: male" role="graphics-symbol" aria-roledescription="bar" d="M80.5,262.6181818181818h9v137.38181818181818h-9Z" fill="#f58518"/><path aria-label="location: H04; mean_calls_per_hour: 0.3303; type: male" role="graphics-symbol" aria-roledescription="bar" d="M140.5,279.8909090909091h9v120.10909090909092h-9Z" fill="#f58518"/><path aria-label="location: M04; mean_calls_per_hour: 0.2567; type: male" role="graphics-symbol" aria-roledescription="bar" d="M260.5,306.6545454545455h9v93.34545454545452h-9Z" fill="#f58518"/><path aria-label="location: G05; mean_calls_per_hour: 0.5755; type: male" role="graphics-symbol" aria-roledescription="bar" d="M130.5,190.72727272727272h9v209.27272727272728h-9Z" fill="#f58518"/><path aria-label="location: D03; mean_calls_per_hour: 0.22; type: male" role="graphics-symbol" aria-roledescription="bar" d="M60.5,320h9v80h-9Z" fill="#f58518"/><path aria-label="location: WD05; mean_calls_per_hour: 0.2525; type: male" role="graphics-symbol" aria-roledescription="bar" d="M380.5,308.1818181818182h9v91.81818181818181h-9Z" fill="#f58518"/><path aria-label="location: F05; mean_calls_per_hour: 0.363; type: male" role="graphics-symbol" aria-roledescription="bar" d="M110.5,268h9v132h-9Z" fill="#f58518"/><path aria-label="location: N14; mean_calls_per_hour: 0.1629; type: male" role="graphics-symbol" aria-roledescription="bar" d="M290.5,340.76363636363635h9v59.23636363636365h-9Z" fill="#f58518"/><path aria-label="location: WB09; mean_calls_per_hour: 0.302; type: male" role="graphics-symbol" aria-roledescription="bar" d="M370.5,290.1818181818182h9v109.81818181818181h-9Z" fill="#f58518"/><path aria-label="location: S13T; mean_calls_per_hour: 0.2154; type: male" role="graphics-symbol" aria-roledescription="bar" d="M330.5,321.6727272727273h9v78.32727272727271h-9Z" fill="#f58518"/><path aria-label="location: B12M; mean_calls_per_hour: 0.3708; type: male" role="graphics-symbol" aria-roledescription="bar" d="M20.5,265.16363636363633h9v134.83636363636367h-9Z" fill="#f58518"/><path aria-label="location: T10; mean_calls_per_hour: 0.2846; type: male" role="graphics-symbol" aria-roledescription="bar" d="M340.5,296.5090909090909h9v103.4909090909091h-9Z" fill="#f58518"/><path aria-label="location: K09; mean_calls_per_hour: 0.0957; type: male" role="graphics-symbol" aria-roledescription="bar" d="M220.5,365.2h9v34.80000000000001h-9Z" fill="#f58518"/><path aria-label="location: NB14; mean_calls_per_hour: 0.134; type: male" role="graphics-symbol" aria-roledescription="bar" d="M310.5,351.27272727272725h9v48.72727272727275h-9Z" fill="#f58518"/><path aria-label="location: V05; mean_calls_per_hour: 0.3352; type: male" role="graphics-symbol" aria-roledescription="bar" d="M350.5,278.1090909090909h9v121.89090909090908h-9Z" fill="#f58518"/><path aria-label="location: H09; mean_calls_per_hour: 0.3884; type: male" role="graphics-symbol" aria-roledescription="bar" d="M170.5,258.76363636363635h9v141.23636363636365h-9Z" fill="#f58518"/><path aria-label="location: CB11; mean_calls_per_hour: 0.1354; type: male" role="graphics-symbol" aria-roledescription="bar" d="M50.5,350.7636363636364h9v49.23636363636359h-9Z" fill="#f58518"/><path aria-label="location: KS06; mean_calls_per_hour: 0.1053; type: male" role="graphics-symbol" aria-roledescription="bar" d="M230.5,361.7090909090909h9v38.29090909090911h-9Z" fill="#f58518"/><path aria-label="location: J11; mean_calls_per_hour: 0.046; type: male" role="graphics-symbol" aria-roledescription="bar" d="M210.5,383.27272727272725h9v16.727272727272748h-9Z" fill="#f58518"/><path aria-label="location: E07; mean_calls_per_hour: 0.0698; type: male" role="graphics-symbol" aria-roledescription="bar" d="M100.5,374.6181818181818h9v25.381818181818176h-9Z" fill="#f58518"/><path aria-label="location: NB5T; mean_calls_per_hour: 0.217; type: male" role="graphics-symbol" aria-roledescription="bar" d="M320.5,321.0909090909091h9v78.90909090909088h-9Z" fill="#f58518"/><path aria-label="location: V23; mean_calls_per_hour: 0.2645; type: male" role="graphics-symbol" aria-roledescription="bar" d="M360.5,303.8181818181818h9v96.18181818181819h-9Z" fill="#f58518"/><path aria-label="location: M01; mean_calls_per_hour: 0.1598; type: male" role="graphics-symbol" aria-roledescription="bar" d="M240.5,341.89090909090913h9v58.10909090909087h-9Z" fill="#f58518"/><path aria-label="location: H05; mean_calls_per_hour: 0.3143; type: male" role="graphics-symbol" aria-roledescription="bar" d="M150.5,285.7090909090909h9v114.29090909090911h-9Z" fill="#f58518"/><path aria-label="location: A11; mean_calls_per_hour: 0.0588; type: male" role="graphics-symbol" aria-roledescription="bar" d="M10.5,378.6181818181818h9v21.381818181818176h-9Z" fill="#f58518"/><path aria-label="location: H07; mean_calls_per_hour: 0.181; type: male" role="graphics-symbol" aria-roledescription="bar" d="M160.5,334.1818181818182h9v65.81818181818181h-9Z" fill="#f58518"/><path aria-label="location: D05; mean_calls_per_hour: 0.1192; type: male" role="graphics-symbol" aria-roledescription="bar" d="M70.5,356.6545454545455h9v43.345454545454515h-9Z" fill="#f58518"/><path aria-label="location: M02; mean_calls_per_hour: 0.1429; type: male" role="graphics-symbol" aria-roledescription="bar" d="M250.5,348.03636363636366h9v51.96363636363634h-9Z" fill="#f58518"/><path aria-label="location: H15; mean_calls_per_hour: 0.0205; type: male" role="graphics-symbol" aria-roledescription="bar" d="M190.5,392.5454545454545h9v7.454545454545496h-9Z" fill="#f58518"/><path aria-label="location: WD07; mean_calls_per_hour: 0.0644; type: male" role="graphics-symbol" aria-roledescription="bar" d="M390.5,376.58181818181816h9v23.418181818181836h-9Z" fill="#f58518"/><path aria-label="location: M05; mean_calls_per_hour: 0.0724; type: male" role="graphics-symbol" aria-roledescription="bar" d="M270.5,373.6727272727273h9v26.327272727272714h-9Z" fill="#f58518"/><path aria-label="location: J07; mean_calls_per_hour: 0.0117; type: male" role="graphics-symbol" aria-roledescription="bar" d="M200.5,395.74545454545455h9v4.25454545454545h-9Z" fill="#f58518"/><path aria-label="location: N08M; mean_calls_per_hour: 0.0383; type: male" role="graphics-symbol" aria-roledescription="bar" d="M280.5,386.07272727272726h9v13.927272727272737h-9Z" fill="#f58518"/><path aria-label="location: E04; mean_calls_per_hour: 0.0137; type: male" role="graphics-symbol" aria-roledescription="bar" d="M90.5,395.0181818181818h9v4.981818181818198h-9Z" fill="#f58518"/><path aria-label="location: C01; mean_calls_per_hour: 0.0171; type: male" role="graphics-symbol" aria-roledescription="bar" d="M30.5,393.7818181818182h9v6.21818181818179h-9Z" fill="#f58518"/><path aria-label="location: H14; mean_calls_per_hour: 0.0143; type: male" role="graphics-symbol" aria-roledescription="bar" d="M180.5,394.8h9v5.199999999999989h-9Z" fill="#f58518"/><path aria-label="location: A01; mean_calls_per_hour: 0; type: male" role="graphics-symbol" aria-roledescription="bar" d="M0.5,400h9v0h-9Z" fill="#f58518"/><path aria-label="location: C05; mean_calls_per_hour: 0.1751; type: female" role="graphics-symbol" aria-roledescription="bar" d="M40.5,93.52727272727277h9v63.67272727272727h-9Z" fill="#4c78a8"/><path aria-label="location: F09; mean_calls_per_hour: 0.2025; type: female" role="graphics-symbol" aria-roledescription="bar" d="M120.5,32.509090909090865h9v73.63636363636368h-9Z" fill="#4c78a8"/><path aria-label="location: N20; mean_calls_per_hour: 0.2026; type: female" role="graphics-symbol" aria-roledescription="bar" d="M300.5,116.29090909090914h9v73.67272727272723h-9Z" fill="#4c78a8"/><path aria-label="location: D09; mean_calls_per_hour: 0.114; type: female" role="graphics-symbol" aria-roledescription="bar" d="M80.5,221.16363636363636h9v41.45454545454547h-9Z" fill="#4c78a8"/><path aria-label="location: H04; mean_calls_per_hour: 0.1278; type: female" role="graphics-symbol" aria-roledescription="bar" d="M140.5,233.41818181818184h9v46.47272727272724h-9Z" fill="#4c78a8"/><path aria-label="location: M04; mean_calls_per_hour: 0.1487; type: female" role="graphics-symbol" aria-roledescription="bar" d="M260.5,252.5818181818182h9v54.07272727272729h-9Z" fill="#4c78a8"/><path aria-label="location: G05; mean_calls_per_hour: 0.0947; type: female" role="graphics-symbol" aria-roledescription="bar" d="M130.5,156.2909090909091h9v34.43636363636361h-9Z" fill="#4c78a8"/><path aria-label="location: D03; mean_calls_per_hour: 0.0486; type: female" role="graphics-symbol" aria-roledescription="bar" d="M60.5,302.3272727272727h9v17.672727272727286h-9Z" fill="#4c78a8"/><path aria-label="location: WD05; mean_calls_per_hour: 0.0199; type: female" role="graphics-symbol" aria-roledescription="bar" d="M380.5,300.94545454545454h9v7.236363636363649h-9Z" fill="#4c78a8"/><path aria-label="location: F05; mean_calls_per_hour: 0.0313; type: female" role="graphics-symbol" aria-roledescription="bar" d="M110.5,256.6181818181819h9v11.381818181818119h-9Z" fill="#4c78a8"/><path aria-label="location: N14; mean_calls_per_hour: 0.0639; type: female" role="graphics-symbol" aria-roledescription="bar" d="M290.5,317.52727272727276h9v23.236363636363592h-9Z" fill="#4c78a8"/><path aria-label="location: WB09; mean_calls_per_hour: 0.0196; type: female" role="graphics-symbol" aria-roledescription="bar" d="M370.5,283.05454545454546h9v7.127272727272725h-9Z" fill="#4c78a8"/><path aria-label="location: S13T; mean_calls_per_hour: 0.1308; type: female" role="graphics-symbol" aria-roledescription="bar" d="M330.5,274.1090909090909h9v47.56363636363636h-9Z" fill="#4c78a8"/><path aria-label="location: B12M; mean_calls_per_hour: 0.0187; type: female" role="graphics-symbol" aria-roledescription="bar" d="M20.5,258.3636363636364h9v6.7999999999999545h-9Z" fill="#4c78a8"/><path aria-label="location: T10; mean_calls_per_hour: 0.0854; type: female" role="graphics-symbol" aria-roledescription="bar" d="M340.5,265.4545454545455h9v31.054545454545405h-9Z" fill="#4c78a8"/><path aria-label="location: K09; mean_calls_per_hour: 0.0536; type: female" role="graphics-symbol" aria-roledescription="bar" d="M220.5,345.70909090909095h9v19.490909090909042h-9Z" fill="#4c78a8"/><path aria-label="location: NB14; mean_calls_per_hour: 0.0544; type: female" role="graphics-symbol" aria-roledescription="bar" d="M310.5,331.4909090909091h9v19.781818181818153h-9Z" fill="#4c78a8"/><path aria-label="location: V05; mean_calls_per_hour: 0.1166; type: female" role="graphics-symbol" aria-roledescription="bar" d="M350.5,235.70909090909095h9v42.39999999999998h-9Z" fill="#4c78a8"/><path aria-label="location: H09; mean_calls_per_hour: 0.0896; type: female" role="graphics-symbol" aria-roledescription="bar" d="M170.5,226.1818181818182h9v32.581818181818164h-9Z" fill="#4c78a8"/><path aria-label="location: CB11; mean_calls_per_hour: 0.0255; type: female" role="graphics-symbol" aria-roledescription="bar" d="M50.5,341.4909090909091h9v9.272727272727309h-9Z" fill="#4c78a8"/><path aria-label="location: KS06; mean_calls_per_hour: 0.0606; type: female" role="graphics-symbol" aria-roledescription="bar" d="M230.5,339.6727272727273h9v22.036363636363603h-9Z" fill="#4c78a8"/><path aria-label="location: J11; mean_calls_per_hour: 0.0138; type: female" role="graphics-symbol" aria-roledescription="bar" d="M210.5,378.25454545454545h9v5.018181818181802h-9Z" fill="#4c78a8"/><path aria-label="location: E07; mean_calls_per_hour: 0.0045; type: female" role="graphics-symbol" aria-roledescription="bar" d="M100.5,372.9818181818182h9v1.636363636363626h-9Z" fill="#4c78a8"/><path aria-label="location: NB5T; mean_calls_per_hour: 0.0596; type: female" role="graphics-symbol" aria-roledescription="bar" d="M320.5,299.41818181818184h9v21.672727272727286h-9Z" fill="#4c78a8"/><path aria-label="location: V23; mean_calls_per_hour: 0.1739; type: female" role="graphics-symbol" aria-roledescription="bar" d="M360.5,240.5818181818182h9v63.23636363636362h-9Z" fill="#4c78a8"/><path aria-label="location: M01; mean_calls_per_hour: 0.0741; type: female" role="graphics-symbol" aria-roledescription="bar" d="M240.5,314.94545454545454h9v26.945454545454595h-9Z" fill="#4c78a8"/><path aria-label="location: H05; mean_calls_per_hour: 0.2229; type: female" role="graphics-symbol" aria-roledescription="bar" d="M150.5,204.65454545454546h9v81.05454545454543h-9Z" fill="#4c78a8"/><path aria-label="location: A11; mean_calls_per_hour: 0.0131; type: female" role="graphics-symbol" aria-roledescription="bar" d="M10.5,373.8545454545455h9v4.763636363636351h-9Z" fill="#4c78a8"/><path aria-label="location: H07; mean_calls_per_hour: 0.1143; type: female" role="graphics-symbol" aria-roledescription="bar" d="M160.5,292.6181818181818h9v41.56363636363636h-9Z" fill="#4c78a8"/><path aria-label="location: D05; mean_calls_per_hour: 0.0292; type: female" role="graphics-symbol" aria-roledescription="bar" d="M70.5,346.03636363636366h9v10.618181818181824h-9Z" fill="#4c78a8"/><path aria-label="location: M02; mean_calls_per_hour: 0.0798; type: female" role="graphics-symbol" aria-roledescription="bar" d="M250.5,319.0181818181818h9v29.01818181818186h-9Z" fill="#4c78a8"/><path aria-label="location: H15; mean_calls_per_hour: 0.0057; type: female" role="graphics-symbol" aria-roledescription="bar" d="M190.5,390.47272727272724h9v2.0727272727272634h-9Z" fill="#4c78a8"/><path aria-label="location: WD07; mean_calls_per_hour: 0.0038; type: female" role="graphics-symbol" aria-roledescription="bar" d="M390.5,375.20000000000005h9v1.3818181818181188h-9Z" fill="#4c78a8"/><path aria-label="location: M05; mean_calls_per_hour: 0.0045; type: female" role="graphics-symbol" aria-roledescription="bar" d="M270.5,372.0363636363636h9v1.6363636363636829h-9Z" fill="#4c78a8"/><path aria-label="location: J07; mean_calls_per_hour: 0.005; type: female" role="graphics-symbol" aria-roledescription="bar" d="M200.5,393.92727272727274h9v1.818181818181813h-9Z" fill="#4c78a8"/><path aria-label="location: N08M; mean_calls_per_hour: 0.0055; type: female" role="graphics-symbol" aria-roledescription="bar" d="M280.5,384.07272727272726h9v2h-9Z" fill="#4c78a8"/><path aria-label="location: E04; mean_calls_per_hour: 0; type: female" role="graphics-symbol" aria-roledescription="bar" d="M90.5,395.0181818181818h9v0h-9Z" fill="#4c78a8"/><path aria-label="location: C01; mean_calls_per_hour: 0; type: female" role="graphics-symbol" aria-roledescription="bar" d="M30.5,393.7818181818182h9v0h-9Z" fill="#4c78a8"/><path aria-label="location: H14; mean_calls_per_hour: 0.0143; type: female" role="graphics-symbol" aria-roledescription="bar" d="M180.5,389.59999999999997h9v5.2000000000000455h-9Z" fill="#4c78a8"/><path aria-label="location: A01; mean_calls_per_hour: 0.0017; type: female" role="graphics-symbol" aria-roledescription="bar" d="M0.5,399.3818181818182h9v0.6181818181818244h-9Z" fill="#4c78a8"/></g><g class="mark-group role-legend" role="graphics-symbol" aria-roledescription="legend" aria-label="Symbol legend titled 'type' for fill color with 2 values: female, male"><g transform="translate(418,0)"><path class="background" aria-hidden="true" d="M0,0h47v40h-47Z" pointer-events="none"/><g><g class="mark-group role-legend-entry"><g transform="translate(0,16)"><path class="background" aria-hidden="true" d="M0,0h0v0h0Z" pointer-events="none"/><g><g class="mark-group role-scope" role="graphics-object" aria-roledescription="group mark container"><g transform="translate(0,0)"><path class="background" aria-hidden="true" d="M0,0h46.0146484375v11h-46.0146484375Z" pointer-events="none" opacity="1"/><g><g class="mark-symbol role-legend-symbol" pointer-events="none"><path transform="translate(6,6)" d="M-5,-5h10v10h-10Z" fill="#4c78a8" stroke-width="1.5" opacity="1"/></g><g class="mark-text role-legend-label" pointer-events="none"><text text-anchor="start" transform="translate(16,9)" font-family="sans-serif" font-size="10px" fill="#000" opacity="1">female</text></g></g><path class="foreground" aria-hidden="true" d="" pointer-events="none" display="none"/></g><g transform="translate(0,13)"><path class="background" aria-hidden="true" d="M0,0h46.0146484375v11h-46.0146484375Z" pointer-events="none" opacity="1"/><g><g class="mark-symbol role-legend-symbol" pointer-events="none"><path transform="translate(6,6)" d="M-5,-5h10v10h-10Z" fill="#f58518" stroke-width="1.5" opacity="1"/></g><g class="mark-text role-legend-label" pointer-events="none"><text text-anchor="start" transform="translate(16,9)" font-family="sans-serif" font-size="10px" fill="#000" opacity="1">male</text></g></g><path class="foreground" aria-hidden="true" d="" pointer-events="none" display="none"/></g></g></g><path class="foreground" aria-hidden="true" d="" pointer-events="none" display="none"/></g></g><g class="mark-text role-legend-title" pointer-events="none"><text text-anchor="start" transform="translate(0,9)" font-family="sans-serif" font-size="11px" font-weight="bold" fill="#000" opacity="1">type</text></g></g><path class="foreground" aria-hidden="true" d="" pointer-events="none" display="none"/></g></g></g><path class="foreground" aria-hidden="true" d="" display="none"/></g></g></g></svg>