<svg xmlns="http://www.w3.org/2000/svg" xmlns:xlink="http://www.w3.org/1999/xlink" version="1.1" class="marks" width="453" height="447" viewBox="0 0 453 447"><rect width="453" height="447" fill="white"/><g fill="none" stroke-miterlimit="10" transform="translate(47,10)"><g class="mark-group role-frame root" role="graphics-object" aria-roledescription="group mark container"><g transform="translate(0,0)"><path class="background" aria-hidden="true" d="M0.5,0.5h400v400h-400Z" stroke="#ddd"/><g><g class="mark-group role-axis" aria-hidden="true"><g transform="translate(0.5,400.5)"><path class="background" aria-hidden="true" d="M0,0h0v0h0Z" pointer-events="none"/><g><g class="mark-rule role-axis-grid" pointer-events="none"><line transform="translate(0,-400)" x2="0" y2="400" stroke="#ddd" stroke-width="1" opacity="1"/><line transform="translate(29,-400)" x2="0" y2="400" stroke="#ddd" stroke-width="1" opacity="1"/><line transform="translate(57,-400)" x2="0" y2="400" stroke="#ddd" stroke-width="1" opacity="1"/><line transform="translate(86,-400)" x2="0" y2="400" stroke="#ddd" stroke-width="1" opacity="1"/><line transform="translate(114,-400)" x2="0" y2="400" stroke="#ddd" stroke-width="1" opacity="1"/><line transform="translate(143,-400)" x2="0" y2="400" stroke="#ddd" stroke-width="1" opacity="1"/><line transform="translate(171,-400)" x2="0" y2="400" stroke="#ddd" stroke-width="1" opacity="1"/><line transform="translate(200,-400)" x2="0" y2="400" stroke="#ddd" stroke-width="1" opacity="1"/><line transform="translate(229,-400)" x2="0" y2="400" stroke="#ddd" stroke-width="1" opacity="1"/><line transform="translate(257,-400)" x2="0" y2="400" stroke="#ddd" stroke-width="1" opacity="1"/><line transform="translate(286,-400)" x2="0" y2="400" stroke="#ddd" stroke-width="1" opacity="1"/><line transform="translate(314,-400)" x2="0" y2="400" stroke="#ddd" stroke-width="1" opacity="1"/><line transform="translate(343,-400)" x2="0" y2="400" stroke="#ddd" stroke-width="1" opacity="1"/><line transform="translate(371,-400)" x2="0" y2="400" stroke="#ddd" stroke-width="1" opacity="1"/><line transform="translate(400,-400)" x2="0" y2="400" stroke="#ddd" stroke-width="1" opacity="1"/></g></g><path class="foreground" aria-hidden="true" d="" pointer-events="none" display="none"/></g></g><g class="mark-group role-axis" aria-hidden="true"><g transform="translate(0.5,0.5)"><path class="background" aria-hidden="true" d="M0,0h0v0h0Z" pointer-events="none"/><g><g class="mark-rule role-axis-grid" pointer-events="none"><line transform="translate(0,400)" x2="400" y2="0" stroke="#ddd" stroke-width="1" opacity="1"/><line transform="translate(0,360)" x2="400" y2="0" stroke="#ddd" stroke-width="1" opacity="1"/><line transform="translate(0,320)" x2="400" y2="0" stroke="#ddd" stroke-width="1" opacity="1"/><line transform="translate(0,280)" x2="400" y2="0" stroke="#ddd" stroke-width="1" opacity="1"/><line transform="translate(0,240)" x2="400" y2="0" stroke="#ddd" stroke-width="1" opacity="1"/><line transform="translate(0,200)" x2="400" y2="0" stroke="#ddd" stroke-width="1" opacity="1"/><line transform="translate(0,160)" x2="400" y2="0" stroke="#ddd" stroke-width="1" opacity="1"/><line transform="translate(0,120)" x2="400" y2="0" stroke="#ddd" stroke-width="1" opacity="1"/><line transform="translate(0,80)" x2="400" y2="0" stroke="#ddd" stroke-width="1" opacity="1"/><line transform="translate(0,40)" x2="400" y2="0" stroke="#ddd" stroke-width="1" opacity="1"/><line transform="translate(0,0)" x2="400" y2="0" stroke="#ddd" stroke-width="1" opacity="1"/></g></g><path class="foreground" aria-hidden="true" d="" pointer-events="none" display="none"/></g></g><g class="mark-group role-axis" role="graphics-symbol" aria-roledescription="axis" aria-label="X-axis titled 'temperature' for a linear scale with values from −4 to 24"><g transform="translate(0.5,400.5)"><path class="background" aria-hidden="true" d="M0,0h0v0h0Z" pointer-events="none"/><g><g class="mark-rule role-axis-tick" pointer-events="none"><line transform="translate(0,0)" x2="0" y2="5" stroke="#888" stroke-width="1" opacity="1"/><line transform="translate(29,0)" x2="0" y2="5" stroke="#888" stroke-width="1" opacity="1"/><line transform="translate(57,0)" x2="0" y2="5" stroke="#888" stroke-width="1" opacity="1"/><line transform="translate(86,0)" x2="0" y2="5" stroke="#888" stroke-width="1" opacity="1"/><line transform="translate(114,0)" x2="0" y2="5" stroke="#888" stroke-width="1" opacity="1"/><line transform="translate(143,0)" x2="0" y2="5" stroke="#888" stroke-width="1" opacity="1"/><line transform="translate(171,0)" x2="0" y2="5" stroke="#888" stroke-width="1" opacity="1"/><line transform="translate(200,0)" x2="0" y2="5" stroke="#888" stroke-width="1" opacity="1"/><line transform="translate(229,0)" x2="0" y2="5" stroke="#888" stroke-width="1" opacity="1"/><line transform="translate(257,0)" x2="0" y2="5" stroke="#888" stroke-width="1" opacity="1"/><line transform="translate(286,0)" x2="0" y2="5" stroke="#888" stroke-width="1" opacity="1"/><line transform="translate(314,0)" x2="0" y2="5" stroke="#888" stroke-width="1" opacity="1"/><line transform="translate(343,0)" x2="0" y2="5" stroke="#888" stroke-width="1" opacity="1"/><line transform="translate(371,0)" x2="0" y2="5" stroke="#888" stroke-width="1" opacity="1"/><line transform="translate(400,0)" x2="0" y2="5" stroke="#888" stroke-width="1" opacity="1"/></g><g class="mark-text role-axis-label" pointer-events="none"><text text-anchor="start" transform="translate(0,15)" font-family="sans-serif" font-size="10px" fill="#000" opacity="1">−4</text><text text-anchor="middle" transform="translate(28.57142857142857,15)" font-family="sans-serif" font-size="10px" fill="#000" opacity="1">−2</text><text text-anchor="middle" transform="translate(57.14285714285714,15)" font-family="sans-serif" font-size="10px" fill="#000" opacity="1">0</text><text text-anchor="middle" transform="translate(85.71428571428571,15)" font-family="sans-serif" font-size="10px" fill="#000" opacity="1">2</text><text text-anchor="middle" transform="translate(114.28571428571428,15)" font-family="sans-serif" font-size="10px" fill="#000" opacity="1">4</text><text text-anchor="middle" transform="translate(142.85714285714286,15)" font-family="sans-serif" font-size="10px" fill="#000" opacity="1">6</text><text text-anchor="middle" transform="translate(171.42857142857142,15)" font-family="sans-serif" font-size="10px" fill="#000" opacity="1">8</text><text text-anchor="middle" transform="translate(200,15)" font-family="sans-serif" font-size="10px" fill="#000" opacity="1">10</text><text text-anchor="middle" transform="translate(228.57142857142856,15)" font-family="sans-serif" font-size="10px" fill="#000" opacity="1">12</text><text text-anchor="middle" transform="translate(257.14285714285717,15)" font-family="sans-serif" font-size="10px" fill="#000" opacity="1">14</text><text text-anchor="middle" transform="translate(285.7142857142857,15)" font-family="sans-serif" font-size="10px" fill="#000" opacity="1">16</text><text text-anchor="middle" transform="translate(314.2857142857143,15)" font-family="sans-serif" font-size="10px" fill="#000" opacity="1">18</text><text text-anchor="middle" transform="translate(342.85714285714283,15)" font-family="sans-serif" font-size="10px" fill="#000" opacity="1">20</text><text text-anchor="middle" transform="translate(371.42857142857144,15)" font-family="sans-serif" font-size="10px" fill="#000" opacity="1">22</text><text text-anchor="end" transform="translate(400,15)" font-family="sans-serif" font-size="10px" fill="#000" opacity="1">24</text></g><g class="mark-rule role-axis-domain" pointer-events="none"><line transform="translate(0,0)" x2="400" y2="0" stroke="#888" stroke-width="1" opacity="1"/></g><g class="mark-text role-axis-title" pointer-events="none"><text text-anchor="middle" transform="translate(200,30)" font-family="sans-serif" font-size="11px" font-weight="bold" fill="#000" opacity="1">temperature</text></g></g><path class="foreground" aria-hidden="true" d="" pointer-events="none" display="none"/></g></g><g class="mark-group role-axis" role="graphics-symbol" aria-roledescription="axis" aria-label="Y-axis titled 'calls_per_hour' for a linear scale with values from 0.0 to 0.5"><g transform="translate(0.5,0.5)"><path class="background" aria-hidden="true" d="M0,0h0v0h0Z" pointer-events="none"/><g><g class="mark-rule role-axis-tick" pointer-events="none"><line transform="translate(0,400)" x2="-5" y2="0" stroke="#888" stroke-width="1" opacity="1"/><line transform="translate(0,360)" x2="-5" y2="0" stroke="#888" stroke-width="1" opacity="1"/><line transform="translate(0,320)" x2="-5" y2="0" stroke="#888" stroke-width="1" opacity="1"/><line transform="translate(0,280)" x2="-5" y2="0" stroke="#888" stroke-width="1" opacity="1"/><line transform="translate(0,240)" x2="-5" y2="0" stroke="#888" stroke-width="1" opacity="1"/><line transform="translate(0,200)" x2="-5" y2="0" stroke="#888" stroke-width="1" opacity="1"/><line transform="translate(0,160)" x2="-5" y2="0" stroke="#888" stroke-width="1" opacity="1"/><line transform="translate(0,120)" x2="-5" y2="0" stroke="#888" stroke-width="1" opacity="1"/><line transform="translate(0,80)" x2="-5" y2="0" stroke="#888" stroke-width="1" opacity="1"/><line transform="translate(0,40)" x2="-5" y2="0" stroke="#888" stroke-width="1" opacity="1"/><line transform="translate(0,0)" x2="-5" y2="0" stroke="#888" stroke-width="1" opacity="1"/></g><g class="mark-text role-axis-label" pointer-events="none"><text text-anchor="end" transform="translate(-7,403)" font-family="sans-serif" font-size="10px" fill="#000" opacity="1">0.00</text><text text-anchor="end" transform="translate(-7,363)" font-family="sans-serif" font-size="10px" fill="#000" opacity="1">0.05</text><text text-anchor="end" transform="translate(-7,323)" font-family="sans-serif" font-size="10px" fill="#000" opacity="1">0.10</text><text text-anchor="end" transform="translate(-7,283)" font-family="sans-serif" font-size="10px" fill="#000" opacity="1">0.15</text><text text-anchor="end" transform="translate(-7,243)" font-family="sans-serif" font-size="10px" fill="#000" opacity="1">0.20</text><text text-anchor="end" transform="translate(-7,203)" font-family="sans-serif" font-size="10px" fill="#000" opacity="1">0.25</text><text text-anchor="end" transform="translate(-7,163)" font-family="sans-serif" font-size="10px" fill="#000" opacity="1">0.30</text><text text-anchor="end" transform="translate(-7,123.00000000000001)" font-family="sans-serif" font-size="10px" fill="#000" opacity="1">0.35</text><text text-anchor="end" transform="translate(-7,82.99999999999999)" font-family="sans-serif" font-size="10px" fill="#000" opacity="1">0.40</text><text text-anchor="end" transform="translate(-7,42.99999999999999)" font-family="sans-serif" font-size="10px" fill="#000" opacity="1">0.45</text><text text-anchor="end" transform="translate(-7,3)" font-family="sans-serif" font-size="10px" fill="#000" opacity="1">0.50</text></g><g class="mark-rule role-axis-domain" pointer-events="none"><line transform="translate(0,400)" x2="0" y2="-400" stroke="#888" stroke-width="1" opacity="1"/></g><g class="mark-text role-axis-title" pointer-events="none"><text text-anchor="middle" transform="translate(-30.462890625,200) rotate(-90) translate(0,-2)" font-family="sans-serif" font-size="11px" font-weight="bold" fill="#000" opacity="1">calls_per_hour</text></g></g><path class="foreground" aria-hidden="true" d="" pointer-events="none" display="none"/></g></g><g class="mark-rect role-mark marks" role="graphics-object" aria-roledescription="rect mark container"><path aria-label="temperature: −2; calls_per_hour: 0.234042553191" role="graphics-symbol" aria-roledescription="bar" d="M26.07142857142857,212.7659574468085h5v187.2340425531915h-5Z" fill="#4c78a8"/><path aria-label="temperature: −1; calls_per_hour: 0.4375" role="graphics-symbol" aria-roledescription="bar" d="M40.357142857142854,50h5v350h-5Z" fill="#4c78a8"/><path aria-label="temperature: 0; calls_per_hour: 0.367563162184" role="graphics-symbol" aria-roledescription="bar" d="M54.64285714285714,105.94947025264875h5v294.0505297473512h-5Z" fill="#4c78a8"/><path aria-label="temperature: 1; calls_per_hour: 0.359544159544" role="graphics-symbol" aria-roledescription="bar" d="M68.92857142857143,112.36467236467237h5v287.6353276353276h-5Z" fill="#4c78a8"/><path aria-label="temperature: 2; calls_per_hour: 0.375945017182" role="graphics-symbol" aria-roledescription="bar" d="M83.21428571428571,99.24398625429554h5v300.7560137457045h-5Z" fill="#4c78a8"/><path aria-label="temperature: 3; calls_per_hour: 0.362248606736" role="graphics-symbol" aria-roledescription="bar" d="M97.5,110.20111461109762h5v289.79888538890236h-5Z" fill="#4c78a8"/><path aria-label="temperature: 4; calls_per_hour: 0.369201520913" role="graphics-symbol" aria-roledescription="bar" d="M111.78571428571428,104.63878326996196h5v295.36121673003805h-5Z" fill="#4c78a8"/><path aria-label="temperature: 5; calls_per_hour: 0.381159203235" role="graphics-symbol" aria-roledescription="bar" d="M126.07142857142858,95.0726374120114h5v304.92736258798857h-5Z" fill="#4c78a8"/><path aria-label="temperature: 6; calls_per_hour: 0.421852292245" role="graphics-symbol" aria-roledescription="bar" d="M140.35714285714286,62.518166204254214h5v337.4818337957458h-5Z" fill="#4c78a8"/><path aria-label="temperature: 7; calls_per_hour: 0.422318361115" role="graphics-symbol" aria-roledescription="bar" d="M154.64285714285714,62.14531110828352h5v337.8546888917165h-5Z" fill="#4c78a8"/><path aria-label="temperature: 8; calls_per_hour: 0.430640741224" role="graphics-symbol" aria-roledescription="bar" d="M168.92857142857142,55.48740702074903h5v344.51259297925094h-5Z" fill="#4c78a8"/><path aria-label="temperature: 9; calls_per_hour: 0.423667570009" role="graphics-symbol" aria-roledescription="bar" d="M183.21428571428572,61.065943992773256h5v338.93405600722673h-5Z" fill="#4c78a8"/><path aria-label="temperature: 10; calls_per_hour: 0.425023243459" role="graphics-symbol" aria-roledescription="bar" d="M197.5,59.9814052330987h5v340.0185947669013h-5Z" fill="#4c78a8"/><path aria-label="temperature: 11; calls_per_hour: 0.446994991653" role="graphics-symbol" aria-roledescription="bar" d="M211.78571428571428,42.40400667779633h5v357.59599332220364h-5Z" fill="#4c78a8"/><path aria-label="temperature: 12; calls_per_hour: 0.477699169486" role="graphics-symbol" aria-roledescription="bar" d="M226.07142857142856,17.840664410950467h5v382.15933558904953h-5Z" fill="#4c78a8"/><path aria-label="temperature: 13; calls_per_hour: 0.45077254761" role="graphics-symbol" aria-roledescription="bar" d="M240.35714285714283,39.38196191160617h5v360.61803808839386h-5Z" fill="#4c78a8"/><path aria-label="temperature: 14; calls_per_hour: 0.439140811456" role="graphics-symbol" aria-roledescription="bar" d="M254.64285714285717,48.687350835322185h5v351.3126491646778h-5Z" fill="#4c78a8"/><path aria-label="temperature: 15; calls_per_hour: 0.421629347308" role="graphics-symbol" aria-roledescription="bar" d="M268.92857142857144,62.69652215340638h5v337.30347784659364h-5Z" fill="#4c78a8"/><path aria-label="temperature: 16; calls_per_hour: 0.381358609795" role="graphics-symbol" aria-roledescription="bar" d="M283.2142857142857,94.91311216429699h5v305.086887835703h-5Z" fill="#4c78a8"/><path aria-label="temperature: 17; calls_per_hour: 0.390323903239" role="graphics-symbol" aria-roledescription="bar" d="M297.5,87.7408774087741h5v312.2591225912259h-5Z" fill="#4c78a8"/><path aria-label="temperature: 18; calls_per_hour: 0.371896460644" role="graphics-symbol" aria-roledescription="bar" d="M311.7857142857143,102.48283148441627h5v297.51716851558376h-5Z" fill="#4c78a8"/><path aria-label="temperature: 19; calls_per_hour: 0.316041500399" role="graphics-symbol" aria-roledescription="bar" d="M326.07142857142856,147.1667996807662h5v252.8332003192338h-5Z" fill="#4c78a8"/><path aria-label="temperature: 20; calls_per_hour: 0.291139240506" role="graphics-symbol" aria-roledescription="bar" d="M340.35714285714283,167.08860759493672h5v232.91139240506328h-5Z" fill="#4c78a8"/><path aria-label="temperature: 21; calls_per_hour: 0.296019900498" role="graphics-symbol" aria-roledescription="bar" d="M354.64285714285717,163.18407960199005h5v236.81592039800995h-5Z" fill="#4c78a8"/><path aria-label="temperature: 22; calls_per_hour: 0.274111675127" role="graphics-symbol" aria-roledescription="bar" d="M368.92857142857144,180.71065989847716h5v219.28934010152284h-5Z" fill="#4c78a8"/><path aria-label="temperature: 23; calls_per_hour: 0.0833333333333" role="graphics-symbol" aria-roledescription="bar" d="M383.2142857142857,333.33333333333337h5v66.66666666666663h-5Z" fill="#4c78a8"/></g></g><path class="foreground" aria-hidden="true" d="" display="none"/></g></g></g></svg>