<svg xmlns="http://www.w3.org/2000/svg" xmlns:xlink="http://www.w3.org/1999/xlink" version="1.1" class="marks" width="459" height="447" viewBox="0 0 459 447"><rect width="459" height="447" fill="white"/><g fill="none" stroke-miterlimit="10" transform="translate(53,10)"><g class="mark-group role-frame root" role="graphics-object" aria-roledescription="group mark container"><g transform="translate(0,0)"><path class="background" aria-hidden="true" d="M0.5,0.5h400v400h-400Z" stroke="#ddd"/><g><g class="mark-group role-axis" aria-hidden="true"><g transform="translate(0.5,400.5)"><path class="background" aria-hidden="true" d="M0,0h0v0h0Z" pointer-events="none"/><g><g class="mark-rule role-axis-grid" pointer-events="none"><line transform="translate(0,-400)" x2="0" y2="400" stroke="#ddd" stroke-width="1" opacity="1"/><line transform="translate(50,-400)" x2="0" y2="400" stroke="#ddd" stroke-width="1" opacity="1"/><line transform="translate(100,-400)" x2="0" y2="400" stroke="#ddd" stroke-width="1" opacity="1"/><line transform="translate(150,-400)" x2="0" y2="400" stroke="#ddd" stroke-width="1" opacity="1"/><line transform="translate(200,-400)" x2="0" y2="400" stroke="#ddd" stroke-width="1" opacity="1"/><line transform="translate(250,-400)" x2="0" y2="400" stroke="#ddd" stroke-width="1" opacity="1"/><line transform="translate(300,-400)" x2="0" y2="400" stroke="#ddd" stroke-width="1" opacity="1"/><line transform="translate(350,-400)" x2="0" y2="400" stroke="#ddd" stroke-width="1" opacity="1"/><line transform="translate(400,-400)" x2="0" y2="400" stroke="#ddd" stroke-width="1" opacity="1"/></g></g><path class="foreground" aria-hidden="true" d="" pointer-events="none" display="none"/></g></g><g class="mark-group role-axis" aria-hidden="true"><g transform="translate(0.5,0.5)"><path class="background" aria-hidden="true" d="M0,0h0v0h0Z" pointer-events="none"/><g><g class="mark-rule role-axis-grid" pointer-events="none"><line transform="translate(0,400)" x2="400" y2="0" stroke="#ddd" stroke-width="1" opacity="1"/><line transform="translate(0,360)" x2="400" y2="0" stroke="#ddd" stroke-width="1" opacity="1"/><line transform="translate(0,320)" x2="400" y2="0" stroke="#ddd" stroke-width="1" opacity="1"/><line transform="translate(0,280)" x2="400" y2="0" stroke="#ddd" stroke-width="1" opacity="1"/><line transform="translate(0,240)" x2="400" y2="0" stroke="#ddd" stroke-width="1" opacity="1"/><line transform="translate(0,200)" x2="400" y2="0" stroke="#ddd" stroke-width="1" opacity="1"/><line transform="translate(0,160)" x2="400" y2="0" stroke="#ddd" stroke-width="1" opacity="1"/><line transform="translate(0,120)" x2="400" y2="0" stroke="#ddd" stroke-width="1" opacity="1"/><line transform="translate(0,80)" x2="400" y2="0" stroke="#ddd" stroke-width="1" opacity="1"/><line transform="translate(0,40)" x2="400" y2="0" stroke="#ddd" stroke-width="1" opacity="1"/><line transform="translate(0,0)" x2="400" y2="0" stroke="#ddd" stroke-width="1" opacity="1"/></g></g><path class="foreground" aria-hidden="true" d="" pointer-events="none" display="none"/></g></g><g class="mark-group role-axis" role="graphics-symbol" aria-roledescription="axis" aria-label="X-axis titled 'calls_per_hour' for a linear scale with values from −5 to 35"><g transform="translate(0.5,400.5)"><path class="background" aria-hidden="true" d="M0,0h0v0h0Z" pointer-events="none"/><g><g class="mark-rule role-axis-tick" pointer-events="none"><line transform="translate(0,0)" x2="0" y2="5" stroke="#888" stroke-width="1" opacity="1"/><line transform="translate(50,0)" x2="0" y2="5" stroke="#888" stroke-width="1" opacity="1"/><line transform="translate(100,0)" x2="0" y2="5" stroke="#888" stroke-width="1" opacity="1"/><line transform="translate(150,0)" x2="0" y2="5" stroke="#888" stroke-width="1" opacity="1"/><line transform="translate(200,0)" x2="0" y2="5" stroke="#888" stroke-width="1" opacity="1"/><line transform="translate(250,0)" x2="0" y2="5" stroke="#888" stroke-width="1" opacity="1"/><line transform="translate(300,0)" x2="0" y2="5" stroke="#888" stroke-width="1" opacity="1"/><line transform="translate(350,0)" x2="0" y2="5" stroke="#888" stroke-width="1" opacity="1"/><line transform="translate(400,0)" x2="0" y2="5" stroke="#888" stroke-width="1" opacity="1"/></g><g class="mark-text role-axis-label" pointer-events="none"><text text-anchor="start" transform="translate(0,15)" font-family="sans-serif" font-size="10px" fill="#000" opacity="1">−5</text><text text-anchor="middle" transform="translate(50,15)" font-family="sans-serif" font-size="10px" fill="#000" opacity="1">0</text><text text-anchor="middle" transform="translate(100,15)" font-family="sans-serif" font-size="10px" fill="#000" opacity="1">5</text><text text-anchor="middle" transform="translate(150,15)" font-family="sans-serif" font-size="10px" fill="#000" opacity="1">10</text><text text-anchor="middle" transform="translate(200,15)" font-family="sans-serif" font-size="10px" fill="#000" opacity="1">15</text><text text-anchor="middle" transform="translate(250,15)" font-family="sans-serif" font-size="10px" fill="#000" opacity="1">20</text><text text-anchor="middle" transform="translate(300,15)" font-family="sans-serif" font-size="10px" fill="#000" opacity="1">25</text><text text-anchor="middle" transform="translate(350,15)" font-family="sans-serif" font-size="10px" fill="#000" opacity="1">30</text><text text-anchor="end" transform="translate(400,15)" font-family="sans-serif" font-size="10px" fill="#000" opacity="1">35</text></g><g class="mark-rule role-axis-domain" pointer-events="none"><line transform="translate(0,0)" x2="400" y2="0" stroke="#888" stroke-width="1" opacity="1"/></g><g class="mark-text role-axis-title" pointer-events="none"><text text-anchor="middle" transform="translate(200,30)" font-family="sans-serif" font-size="11px" font-weight="bold" fill="#000" opacity="1">calls_per_hour</text></g></g><path class="foreground" aria-hidden="true" d="" pointer-events="none" display="none"/></g></g><g class="mark-group role-axis" role="graphics-symbol" aria-roledescription="axis" aria-label="Y-axis titled 'frequency' for a linear scale with values from 0 to 1,000"><g transform="translate(0.5,0.5)"><path class="background" aria-hidden="true" d="M0,0h0v0h0Z" pointer-events="none"/><g><g class="mark-rule role-axis-tick" pointer-events="none"><line transform="translate(0,400)" x2="-5" y2="0" stroke="#888" stroke-width="1" opacity="1"/><line transform="translate(0,360)" x2="-5" y2="0" stroke="#888" stroke-width="1" opacity="1"/><line transform="translate(0,320)" x2="-5" y2="0" stroke="#888" stroke-width="1" opacity="1"/><line transform="translate(0,280)" x2="-5" y2="0" stroke="#888" stroke-width="1" opacity="1"/><line transform="translate(0,240)" x2="-5" y2="0" stroke="#888" stroke-width="1" opacity="1"/><line transform="translate(0,200)" x2="-5" y2="0" stroke="#888" stroke-width="1" opacity="1"/><line transform="translate(0,160)" x2="-5" y2="0" stroke="#888" stroke-width="1" opacity="1"/><line transform="translate(0,120)" x2="-5" y2="0" stroke="#888" stroke-width="1" opacity="1"/><line transform="translate(0,80)" x2="-5" y2="0" stroke="#888" stroke-width="1" opacity="1"/><line transform="translate(0,40)" x2="-5" y2="0" stroke="#888" stroke-width="1" opacity="1"/><line transform="translate(0,0)" x2="-5" y2="0" stroke="#888" stroke-width="1" opacity="1"/></g><g class="mark-text role-axis-label" pointer-events="none"><text text-anchor="end" transform="translate(-7,403)" font-family="sans-serif" font-size="10px" fill="#000" opacity="1">0</text><text text-anchor="end" transform="translate(-7,363)" font-family="sans-serif" font-size="10px" fill="#000" opacity="1">100</text><text text-anchor="end" transform="translate(-7,323)" font-family="sans-serif" font-size="10px" fill="#000" opacity="1">200</text><text text-anchor="end" transform="translate(-7,283)" font-family="sans-serif" font-size="10px" fill="#000" opacity="1">300</text><text text-anchor="end" transform="translate(-7,243)" font-family="sans-serif" font-size="10px" fill="#000" opacity="1">400</text><text text-anchor="end" transform="translate(-7,203)" font-family="sans-serif" font-size="10px" fill="#000" opacity="1">500</text><text text-anchor="end" transform="translate(-7,163)" font-family="sans-serif" font-size="10px" fill="#000" opacity="1">600</text><text text-anchor="end" transform="translate(-7,123.00000000000001)" font-family="sans-serif" font-size="10px" fill="#000" opacity="1">700</text><text text-anchor="end" transform="translate(-7,82.99999999999999)" font-family="sans-serif" font-size="10px" fill="#000" opacity="1">800</text><text text-anchor="end" transform="translate(-7,42.99999999999999)" font-family="sans-serif" font-size="10px" fill="#000" opacity="1">900</text><text text-anchor="end" transform="translate(-7,3)" font-family="sans-serif" font-size="10px" fill="#000" opacity="1">1,000</text></g><g class="mark-rule role-axis-domain" pointer-events="none"><line transform="translate(0,400)" x2="0" y2="-400" stroke="#888" stroke-width="1" opacity="1"/></g><g class="mark-text role-axis-title" pointer-events="none"><text text-anchor="middle" transform="translate(-36.0244140625,200) rotate(-90) translate(0,-2)" font-family="sans-serif" font-size="11px" font-weight="bold" fill="#000" opacity="1">frequency</text></g></g><path class="foreground" aria-hidden="true" d="" pointer-events="none" display="none"/></g></g><g class="mark-rect role-mark marks" role="graphics-object" aria-roledescription="rect mark container"><path aria-label="calls_per_hour: 0; frequency: 926" role="graphics-symbol" aria-roledescription="bar" d="M47.5,29.59999999999998h5v370.40000000000003h-5Z" fill="#4c78a8"/><path aria-label="calls_per_hour: 1; frequency: 820" role="graphics-symbol" aria-roledescription="bar" d="M57.5,72.00000000000001h5v328h-5Z" fill="#4c78a8"/><path aria-label="calls_per_hour: 2; frequency: 836" role="graphics-symbol" aria-roledescription="bar" d="M67.5,65.60000000000001h5v334.4h-5Z" fill="#4c78a8"/><path aria-label="calls_per_hour: 3; frequency: 718" role="graphics-symbol" aria-roledescription="bar" d="M77.5,112.80000000000001h5v287.2h-5Z" fill="#4c78a8"/><path aria-label="calls_per_hour: 4; frequency: 639" role="graphics-symbol" aria-roledescription="bar" d="M87.5,144.4h5v255.6h-5Z" fill="#4c78a8"/><path aria-label="calls_per_hour: 5; frequency: 575" role="graphics-symbol" aria-roledescription="bar" d="M97.5,170.00000000000003h5v229.99999999999997h-5Z" fill="#4c78a8"/><path aria-label="calls_per_hour: 6; frequency: 465" role="graphics-symbol" aria-roledescription="bar" d="M107.50000000000001,213.99999999999997h5v186.00000000000003h-5Z" fill="#4c78a8"/><path aria-label="calls_per_hour: 7; frequency: 406" role="graphics-symbol" aria-roledescription="bar" d="M117.5,237.6h5v162.4h-5Z" fill="#4c78a8"/><path aria-label="calls_per_hour: 8; frequency: 296" role="graphics-symbol" aria-roledescription="bar" d="M127.5,281.59999999999997h5v118.40000000000003h-5Z" fill="#4c78a8"/><path aria-label="calls_per_hour: 9; frequency: 266" role="graphics-symbol" aria-roledescription="bar" d="M137.5,293.6h5v106.39999999999998h-5Z" fill="#4c78a8"/><path aria-label="calls_per_hour: 10; frequency: 199" role="graphics-symbol" aria-roledescription="bar" d="M147.5,320.4h5v79.60000000000002h-5Z" fill="#4c78a8"/><path aria-label="calls_per_hour: 11; frequency: 149" role="graphics-symbol" aria-roledescription="bar" d="M157.5,340.4h5v59.60000000000002h-5Z" fill="#4c78a8"/><path aria-label="calls_per_hour: 12; frequency: 118" role="graphics-symbol" aria-roledescription="bar" d="M167.5,352.8h5v47.19999999999999h-5Z" fill="#4c78a8"/><path aria-label="calls_per_hour: 13; frequency: 84" role="graphics-symbol" aria-roledescription="bar" d="M177.5,366.40000000000003h5v33.599999999999966h-5Z" fill="#4c78a8"/><path aria-label="calls_per_hour: 14; frequency: 66" role="graphics-symbol" aria-roledescription="bar" d="M187.5,373.59999999999997h5v26.400000000000034h-5Z" fill="#4c78a8"/><path aria-label="calls_per_hour: 15; frequency: 50" role="graphics-symbol" aria-roledescription="bar" d="M197.5,380h5v20h-5Z" fill="#4c78a8"/><path aria-label="calls_per_hour: 16; frequency: 41" role="graphics-symbol" aria-roledescription="bar" d="M207.5,383.59999999999997h5v16.400000000000034h-5Z" fill="#4c78a8"/><path aria-label="calls_per_hour: 17; frequency: 27" role="graphics-symbol" aria-roledescription="bar" d="M217.50000000000003,389.2h5v10.800000000000011h-5Z" fill="#4c78a8"/><path aria-label="calls_per_hour: 18; frequency: 18" role="graphics-symbol" aria-roledescription="bar" d="M227.49999999999997,392.8h5v7.199999999999989h-5Z" fill="#4c78a8"/><path aria-label="calls_per_hour: 19; frequency: 26" role="graphics-symbol" aria-roledescription="bar" d="M237.5,389.59999999999997h5v10.400000000000034h-5Z" fill="#4c78a8"/><path aria-label="calls_per_hour: 20; frequency: 14" role="graphics-symbol" aria-roledescription="bar" d="M247.5,394.4h5v5.600000000000023h-5Z" fill="#4c78a8"/><path aria-label="calls_per_hour: 21; frequency: 11" role="graphics-symbol" aria-roledescription="bar" d="M257.5,395.6h5v4.399999999999977h-5Z" fill="#4c78a8"/><path aria-label="calls_per_hour: 22; frequency: 6" role="graphics-symbol" aria-roledescription="bar" d="M267.5,397.6h5v2.3999999999999773h-5Z" fill="#4c78a8"/><path aria-label="calls_per_hour: 23; frequency: 7" role="graphics-symbol" aria-roledescription="bar" d="M277.5,397.2h5v2.8000000000000114h-5Z" fill="#4c78a8"/><path aria-label="calls_per_hour: 24; frequency: 8" role="graphics-symbol" aria-roledescription="bar" d="M287.5,396.8h5v3.1999999999999886h-5Z" fill="#4c78a8"/><path aria-label="calls_per_hour: 25; frequency: 3" role="graphics-symbol" aria-roledescription="bar" d="M297.5,398.8h5v1.1999999999999886h-5Z" fill="#4c78a8"/><path aria-label="calls_per_hour: 26; frequency: 2" role="graphics-symbol" aria-roledescription="bar" d="M307.5,399.2h5v0.8000000000000114h-5Z" fill="#4c78a8"/><path aria-label="calls_per_hour: 27; frequency: 1" role="graphics-symbol" aria-roledescription="bar" d="M317.5,399.6h5v0.39999999999997726h-5Z" fill="#4c78a8"/><path aria-label="calls_per_hour: 28; frequency: 2" role="graphics-symbol" aria-roledescription="bar" d="M327.5,399.2h5v0.8000000000000114h-5Z" fill="#4c78a8"/><path aria-label="calls_per_hour: 29; frequency: 1" role="graphics-symbol" aria-roledescription="bar" d="M337.5,399.6h5v0.39999999999997726h-5Z" fill="#4c78a8"/><path aria-label="calls_per_hour: 33; frequency: 1" role="graphics-symbol" aria-roledescription="bar" d="M377.5,399.6h5v0.39999999999997726h-5Z" fill="#4c78a8"/></g></g><path class="foreground" aria-hidden="true" d="" display="none"/></g></g></g></svg>