<svg xmlns="http://www.w3.org/2000/svg" xmlns:xlink="http://www.w3.org/1999/xlink" version="1.1" class="marks" width="453" height="447" viewBox="0 0 453 447"><rect width="453" height="447" fill="white"/><g fill="none" stroke-miterlimit="10" transform="translate(47,10)"><g class="mark-group role-frame root" role="graphics-object" aria-roledescription="group mark container"><g transform="translate(0,0)"><path class="background" aria-hidden="true" d="M0.5,0.5h400v400h-400Z" stroke="#ddd"/><g><g class="mark-group role-axis" aria-hidden="true"><g transform="translate(0.5,400.5)"><path class="background" aria-hidden="true" d="M0,0h0v0h0Z" pointer-events="none"/><g><g class="mark-rule role-axis-grid" pointer-events="none"><line transform="translate(0,-400)" x2="0" y2="400" stroke="#ddd" stroke-width="1" opacity="1"/><line transform="translate(29,-400)" x2="0" y2="400" stroke="#ddd" stroke-width="1" opacity="1"/><line transform="translate(57,-400)" x2="0" y2="400" stroke="#ddd" stroke-width="1" opacity="1"/><line transform="translate(86,-400)" x2="0" y2="400" stroke="#ddd" stroke-width="1" opacity="1"/><line transform="translate(114,-400)" x2="0" y2="400" stroke="#ddd" stroke-width="1" opacity="1"/><line transform="translate(143,-400)" x2="0" y2="400" stroke="#ddd" stroke-width="1" opacity="1"/><line transform="translate(171,-400)" x2="0" y2="400" stroke="#ddd" stroke-width="1" opacity="1"/><line transform="translate(200,-400)" x2="0" y2="400" stroke="#ddd" stroke-width="1" opacity="1"/><line transform="translate(229,-400)" x2="0" y2="400" stroke="#ddd" stroke-width="1" opacity="1"/><line transform="translate(257,-400)" x2="0" y2="400" stroke="#ddd" stroke-width="1" opacity="1"/><line transform="translate(286,-400)" x2="0" y2="400" stroke="#ddd" stroke-width="1" opacity="1"/><line transform="translate(314,-400)" x2="0" y2="400" stroke="#ddd" stroke-width="1" opacity="1"/><line transform="translate(343,-400)" x2="0" y2="400" stroke="#ddd" stroke-width="1" opacity="1"/><line transform="translate(371,-400)" x2="0" y2="400" stroke="#ddd" stroke-width="1" opacity="1"/><line transform="translate(400,-400)" x2="0" y2="400" stroke="#ddd" stroke-width="1" opacity="1"/></g></g><path class="foreground" aria-hidden="true" d="" pointer-events="none" display="none"/></g></g><g class="mark-group role-axis" aria-hidden="true"><g transform="translate(0.5,0.5)"><path class="background" aria-hidden="true" d="M0,0h0v0h0Z" pointer-events="none"/><g><g class="mark-rule role-axis-grid" pointer-events="none"><line transform="translate(0,400)" x2="400" y2="0" stroke="#ddd" stroke-width="1" opacity="1"/><line transform="translate(0,360)" x2="400" y2="0" stroke="#ddd" stroke-width="1" opacity="1"/><line transform="translate(0,320)" x2="400" y2="0" stroke="#ddd" stroke-width="1" opacity="1"/><line transform="translate(0,280)" x2="400" y2="0" stroke="#ddd" stroke-width="1" opacity="1"/><line transform="translate(0,240)" x2="400" y2="0" stroke="#ddd" stroke-width="1" opacity="1"/><line transform="translate(0,200)" x2="400" y2="0" stroke="#ddd" stroke-width="1" opacity="1"/><line transform="translate(0,160)" x2="400" y2="0" stroke="#ddd" stroke-width="1" opacity="1"/><line transform="translate(0,120)" x2="400" y2="0" stroke="#ddd" stroke-width="1" opacity="1"/><line transform="translate(0,80)" x2="400" y2="0" stroke="#ddd" stroke-width="1" opacity="1"/><line transform="translate(0,40)" x2="400" y2="0" stroke="#ddd" stroke-width="1" opacity="1"/><line transform="translate(0,0)" x2="400" y2="0" stroke="#ddd" stroke-width="1" opacity="1"/></g></g><path class="foreground" aria-hidden="true" d="" pointer-events="none" display="none"/></g></g><g class="mark-group role-axis" role="graphics-symbol" aria-roledescription="axis" aria-label="X-axis titled 'temperature' for a linear scale with values from −4 to 24"><g transform="translate(0.5,400.5)"><path class="background" aria-hidden="true" d="M0,0h0v0h0Z" pointer-events="none"/><g><g class="mark-rule role-axis-tick" pointer-events="none"><line transform="translate(0,0)" x2="0" y2="5" stroke="#888" stroke-width="1" opacity="1"/><line transform="translate(29,0)" x2="0" y2="5" stroke="#888" stroke-width="1" opacity="1"/><line transform="translate(57,0)" x2="0" y2="5" stroke="#888" stroke-width="1" opacity="1"/><line transform="translate(86,0)" x2="0" y2="5" stroke="#888" stroke-width="1" opacity="1"/><line transform="translate(114,0)" x2="0" y2="5" stroke="#888" stroke-width="1" opacity="1"/><line transform="translate(143,0)" x2="0" y2="5" stroke="#888" stroke-width="1" opacity="1"/><line transform="translate(171,0)" x2="0" y2="5" stroke="#888" stroke-width="1" opacity="1"/><line transform="translate(200,0)" x2="0" y2="5" stroke="#888" stroke-width="1" opacity="1"/><line transform="translate(229,0)" x2="0" y2="5" stroke="#888" stroke-width="1" opacity="1"/><line transform="translate(257,0)" x2="0" y2="5" stroke="#888" stroke-width="1" opacity="1"/><line transform="translate(286,0)" x2="0" y2="5" stroke="#888" stroke-width="1" opacity="1"/><line transform="translate(314,0)" x2="0" y2="5" stroke="#888" stroke-width="1" opacity="1"/><line transform="translate(343,0)" x2="0" y2="5" stroke="#888" stroke-width="1" opacity="1"/><line transform="translate(371,0)" x2="0" y2="5" stroke="#888" stroke-width="1" opacity="1"/><line transform="translate(400,0)" x2="0" y2="5" stroke="#888" stroke-width="1" opacity="1"/></g><g class="mark-text role-axis-label" pointer-events="none"><text text-anchor="start" transform="translate(0,15)" font-family="sans-serif" font-size="10px" fill="#000" opacity="1">−4</text><text text-anchor="middle" transform="translate(28.57142857142857,15)" font-family="sans-serif" font-size="10px" fill="#000" opacity="1">−2</text><text text-anchor="middle" transform="translate(57.14285714285714,15)" font-family="sans-serif" font-size="10px" fill="#000" opacity="1">0</text><text text-anchor="middle" transform="translate(85.71428571428571,15)" font-family="sans-serif" font-size="10px" fill="#000" opacity="1">2</text><text text-anchor="middle" transform="translate(114.28571428571428,15)" font-family="sans-serif" font-size="10px" fill="#000" opacity="1">4</text><text text-anchor="middle" transform="translate(142.85714285714286,15)" font-family="sans-serif" font-size="10px" fill="#000" opacity="1">6</text><text text-anchor="middle" transform="translate(171.42857142857142,15)" font-family="sans-serif" font-size="10px" fill="#000" opacity="1">8</text><text text-anchor="middle" transform="translate(200,15)" font-family="sans-serif" font-size="10px" fill="#000" opacity="1">10</text><text text-anchor="middle" transform="translate(228.57142857142856,15)" font-family="sans-serif" font-size="10px" fill="#000" opacity="1">12</text><text text-anchor="middle" transform="translate(257.14285714285717,15)" font-family="sans-serif" font-size="10px" fill="#000" opacity="1">14</text><text text-anchor="middle" transform="translate(285.7142857142857,15)" font-family="sans-serif" font-size="10px" fill="#000" opacity="1">16</text><text text-anchor="middle" transform="translate(314.2857142857143,15)" font-family="sans-serif" font-size="10px" fill="#000" opacity="1">18</text><text text-anchor="middle" transform="translate(342.85714285714283,15)" font-family="sans-serif" font-size="10px" fill="#000" opacity="1">20</text><text text-anchor="middle" transform="translate(371.42857142857144,15)" font-family="sans-serif" font-size="10px" fill="#000" opacity="1">22</text><text text-anchor="end" transform="translate(400,15)" font-family="sans-serif" font-size="10px" fill="#000" opacity="1">24</text></g><g class="mark-rule role-axis-domain" pointer-events="none"><line transform="translate(0,0)" x2="400" y2="0" stroke="#888" stroke-width="1" opacity="1"/></g><g class="mark-text role-axis-title" pointer-events="none"><text text-anchor="middle" transform="translate(200,30)" font-family="sans-serif" font-size="11px" font-weight="bold" fill="#000" opacity="1">temperature</text></g></g><path class="foreground" aria-hidden="true" d="" pointer-events="none" display="none"/></g></g><g class="mark-group role-axis" role="graphics-symbol" aria-roledescription="axis" aria-label="Y-axis titled 'calls_per_hour' for a linear scale with values from 0.0 to 0.5"><g transform="translate(0.5,0.5)"><path class="background" aria-hidden="true" d="M0,0h0v0h0Z" pointer-events="none"/><g><g class="mark-rule role-axis-tick" pointer-events="none"><line transform="translate(0,400)" x2="-5" y2="0" stroke="#888" stroke-width="1" opacity="1"/><line transform="translate(0,360)" x2="-5" y2="0" stroke="#888" stroke-width="1" opacity="1"/><line transform="translate(0,320)" x2="-5" y2="0" stroke="#888" stroke-width="1" opacity="1"/><line transform="translate(0,280)" x2="-5" y2="0" stroke="#888" stroke-width="1" opacity="1"/><line transform="translate(0,240)" x2="-5" y2="0" stroke="#888" stroke-width="1" opacity="1"/><line transform="translate(0,200)" x2="-5" y2="0" stroke="#888" stroke-width="1" opacity="1"/><line transform="translate(0,160)" x2="-5" y2="0" stroke="#888" stroke-width="1" opacity="1"/><line transform="translate(0,120)" x2="-5" y2="0" stroke="#888" stroke-width="1" opacity="1"/><line transform="translate(0,80)" x2="-5" y2="0" stroke="#888" stroke-width="1" opacity="1"/><line transform="translate(0,40)" x2="-5" y2="0" stroke="#888" stroke-width="1" opacity="1"/><line transform="translate(0,0)" x2="-5" y2="0" stroke="#888" stroke-width="1" opacity="1"/></g><g class="mark-text role-axis-label" pointer-events="none"><text text-anchor="end" transform="translate(-7,403)" font-family="sans-serif" font-size="10px" fill="#000" opacity="1">0.00</text><text text-anchor="end" transform="translate(-7,363)" font-family="sans-serif" font-size="10px" fill="#000" opacity="1">0.05</text><text text-anchor="end" transform="translate(-7,323)" font-family="sans-serif" font-size="10px" fill="#000" opacity="1">0.10</text><text text-anchor="end" transform="translate(-7,283)" font-family="sans-serif" font-size="10px" fill="#000" opacity="1">0.15</text><text text-anchor="end" transform="translate(-7,243)" font-family="sans-serif" font-size="10px" fill="#000" opacity="1">0.20</text><text text-anchor="end" transform="translate(-7,203)" font-family="sans-serif" font-size="10px" fill="#000" opacity="1">0.25</text><text text-anchor="end" transform="translate(-7,163)" font-family="sans-serif" font-size="10px" fill="#000" opacity="1">0.30</text><text text-anchor="end" transform="translate(-7,123.00000000000001)" font-family="sans-serif" font-size="10px" fill="#000" opacity="1">0.35</text><text text-anchor="end" transform="translate(-7,82.99999999999999)" font-family="sans-serif" font-size="10px" fill="#000" opacity="1">0.40</text><text text-anchor="end" transform="translate(-7,42.99999999999999)" font-family="sans-serif" font-size="10px" fill="#000" opacity="1">0.45</text><text text-anchor="end" transform="translate(-7,3)" font-family="sans-serif" font-size="10px" fill="#000" opacity="1">0.50</text></g><g class="mark-rule role-axis-domain" pointer-events="none"><line transform="translate(0,400)" x2="0" y2="-400" stroke="#888" stroke-width="1" opacity="1"/></g><g class="mark-text role-axis-title" pointer-events="none"><text text-anchor="middle" transform="translate(-30.462890625,200) rotate(-90) translate(0,-2)" font-family="sans-serif" font-size="11px" font-weight="bold" fill="#000" opacity="1">calls_per_hour</text></g></g><path class="foreground" aria-hidden="true" d="" pointer-events="none" display="none"/></g></g><g class="mark-rect role-mark marks" role="graphics-object" aria-roledescription="rect mark container"><path aria-label="temperature: −2; calls_per_hour: 0.232558139535" role="graphics-symbol" aria-roledescription="bar" d="M26.07142857142857,213.95348837209303h5v186.04651162790697h-5Z" fill="#4c78a8"/><path aria-label="temperature: −1; calls_per_hour: 0.433333333333" role="graphics-symbol" aria-roledescription="bar" d="M40.357142857142854,53.33333333333332h5v346.6666666666667h-5Z" fill="#4c78a8"/><path aria-label="temperature: 0; calls_per_hour: 0.326586936523" role="graphics-symbol" aria-roledescription="bar" d="M54.64285714285714,138.7304507819687h5v261.26954921803133h-5Z" fill="#4c78a8"/><path aria-label="temperature: 1; calls_per_hour: 0.333117303953" role="graphics-symbol" aria-roledescription="bar" d="M68.92857142857143,133.50615683732988h5v266.49384316267015h-5Z" fill="#4c78a8"/><path aria-label="temperature: 2; calls_per_hour: 0.373980582524" role="graphics-symbol" aria-roledescription="bar" d="M83.21428571428571,100.81553398058252h5v299.18446601941747h-5Z" fill="#4c78a8"/><path aria-label="temperature: 3; calls_per_hour: 0.361492046078" role="graphics-symbol" aria-roledescription="bar" d="M97.5,110.80636313768512h5v289.19363686231486h-5Z" fill="#4c78a8"/><path aria-label="temperature: 4; calls_per_hour: 0.359570269678" role="graphics-symbol" aria-roledescription="bar" d="M111.78571428571428,112.34378425783818h5v287.6562157421618h-5Z" fill="#4c78a8"/><path aria-label="temperature: 5; calls_per_hour: 0.376318063959" role="graphics-symbol" aria-roledescription="bar" d="M126.07142857142858,98.94554883318926h5v301.05445116681074h-5Z" fill="#4c78a8"/><path aria-label="temperature: 6; calls_per_hour: 0.418779342723" role="graphics-symbol" aria-roledescription="bar" d="M140.35714285714286,64.97652582159623h5v335.0234741784038h-5Z" fill="#4c78a8"/><path aria-label="temperature: 7; calls_per_hour: 0.420652999241" role="graphics-symbol" aria-roledescription="bar" d="M154.64285714285714,63.47760060744116h5v336.52239939255884h-5Z" fill="#4c78a8"/><path aria-label="temperature: 8; calls_per_hour: 0.426538818435" role="graphics-symbol" aria-roledescription="bar" d="M168.92857142857142,58.768945252087825h5v341.2310547479122h-5Z" fill="#4c78a8"/><path aria-label="temperature: 9; calls_per_hour: 0.422838549737" role="graphics-symbol" aria-roledescription="bar" d="M183.21428571428572,61.729160210722036h5v338.27083978927794h-5Z" fill="#4c78a8"/><path aria-label="temperature: 10; calls_per_hour: 0.41857096878" role="graphics-symbol" aria-roledescription="bar" d="M197.5,65.14322497586096h5v334.85677502413904h-5Z" fill="#4c78a8"/><path aria-label="temperature: 11; calls_per_hour: 0.441942530667" role="graphics-symbol" aria-roledescription="bar" d="M211.78571428571428,46.4459754663082h5v353.5540245336918h-5Z" fill="#4c78a8"/><path aria-label="temperature: 12; calls_per_hour: 0.478049691762" role="graphics-symbol" aria-roledescription="bar" d="M226.07142857142856,17.560246590696813h5v382.4397534093032h-5Z" fill="#4c78a8"/><path aria-label="temperature: 13; calls_per_hour: 0.451053555751" role="graphics-symbol" aria-roledescription="bar" d="M240.35714285714283,39.15715539947322h5v360.8428446005268h-5Z" fill="#4c78a8"/><path aria-label="temperature: 14; calls_per_hour: 0.45251673692" role="graphics-symbol" aria-roledescription="bar" d="M254.64285714285717,37.986610463674666h5v362.01338953632535h-5Z" fill="#4c78a8"/><path aria-label="temperature: 15; calls_per_hour: 0.420311124156" role="graphics-symbol" aria-roledescription="bar" d="M268.92857142857144,63.75110067508069h5v336.2488993249193h-5Z" fill="#4c78a8"/><path aria-label="temperature: 16; calls_per_hour: 0.379255740301" role="graphics-symbol" aria-roledescription="bar" d="M283.2142857142857,96.59540775930324h5v303.40459224069673h-5Z" fill="#4c78a8"/><path aria-label="temperature: 17; calls_per_hour: 0.383375314861" role="graphics-symbol" aria-roledescription="bar" d="M297.5,93.29974811083122h5v306.7002518891688h-5Z" fill="#4c78a8"/><path aria-label="temperature: 18; calls_per_hour: 0.373493975904" role="graphics-symbol" aria-roledescription="bar" d="M311.7857142857143,101.20481927710844h5v298.7951807228916h-5Z" fill="#4c78a8"/><path aria-label="temperature: 19; calls_per_hour: 0.3139329806" role="graphics-symbol" aria-roledescription="bar" d="M326.07142857142856,148.8536155202822h5v251.1463844797178h-5Z" fill="#4c78a8"/><path aria-label="temperature: 20; calls_per_hour: 0.292553191489" role="graphics-symbol" aria-roledescription="bar" d="M340.35714285714283,165.95744680851064h5v234.04255319148936h-5Z" fill="#4c78a8"/><path aria-label="temperature: 21; calls_per_hour: 0.30179028133" role="graphics-symbol" aria-roledescription="bar" d="M354.64285714285717,158.5677749360614h5v241.4322250639386h-5Z" fill="#4c78a8"/><path aria-label="temperature: 22; calls_per_hour: 0.274111675127" role="graphics-symbol" aria-roledescription="bar" d="M368.92857142857144,180.71065989847716h5v219.28934010152284h-5Z" fill="#4c78a8"/><path aria-label="temperature: 23; calls_per_hour: 0.0833333333333" role="graphics-symbol" aria-roledescription="bar" d="M383.2142857142857,333.33333333333337h5v66.66666666666663h-5Z" fill="#4c78a8"/></g></g><path class="foreground" aria-hidden="true" d="" display="none"/></g></g></g></svg>