<svg xmlns="http://www.w3.org/2000/svg" xmlns:xlink="http://www.w3.org/1999/xlink" version="1.1" class="marks" width="450" height="447" viewBox="0 0 450 447"><rect width="450" height="447" fill="white"/><g fill="none" stroke-miterlimit="10" transform="translate(44,10)"><g class="mark-group role-frame root" role="graphics-object" aria-roledescription="group mark container"><g transform="translate(0,0)"><path class="background" aria-hidden="true" d="M0.5,0.5h400v400h-400Z" stroke="#ddd"/><g><g class="mark-group role-axis" aria-hidden="true"><g transform="translate(0.5,400.5)"><path class="background" aria-hidden="true" d="M0,0h0v0h0Z" pointer-events="none"/><g><g class="mark-rule role-axis-grid" pointer-events="none"><line transform="translate(0,-400)" x2="0" y2="400" stroke="#ddd" stroke-width="1" opacity="1"/><line transform="translate(44,-400)" x2="0" y2="400" stroke="#ddd" stroke-width="1" opacity="1"/><line transform="translate(89,-400)" x2="0" y2="400" stroke="#ddd" stroke-width="1" opacity="1"/><line transform="translate(133,-400)" x2="0" y2="400" stroke="#ddd" stroke-width="1" opacity="1"/><line transform="translate(178,-400)" x2="0" y2="400" stroke="#ddd" stroke-width="1" opacity="1"/><line transform="translate(222,-400)" x2="0" y2="400" stroke="#ddd" stroke-width="1" opacity="1"/><line transform="translate(267,-400)" x2="0" y2="400" stroke="#ddd" stroke-width="1" opacity="1"/><line transform="translate(311,-400)" x2="0" y2="400" stroke="#ddd" stroke-width="1" opacity="1"/><line transform="translate(356,-400)" x2="0" y2="400" stroke="#ddd" stroke-width="1" opacity="1"/><line transform="translate(400,-400)" x2="0" y2="400" stroke="#ddd" stroke-width="1" opacity="1"/></g></g><path class="foreground" aria-hidden="true" d="" pointer-events="none" display="none"/></g></g><g class="mark-group role-axis" aria-hidden="true"><g transform="translate(0.5,0.5)"><path class="background" aria-hidden="true" d="M0,0h0v0h0Z" pointer-events="none"/><g><g class="mark-rule role-axis-grid" pointer-events="none"><line transform="translate(0,400)" x2="400" y2="0" stroke="#ddd" stroke-width="1" opacity="1"/><line transform="translate(0,373)" x2="400" y2="0" stroke="#ddd" stroke-width="1" opacity="1"/><line transform="translate(0,347)" x2="400" y2="0" stroke="#ddd" stroke-width="1" opacity="1"/><line transform="translate(0,320)" x2="400" y2="0" stroke="#ddd" stroke-width="1" opacity="1"/><line transform="translate(0,293)" x2="400" y2="0" stroke="#ddd" stroke-width="1" opacity="1"/><line transform="translate(0,267)" x2="400" y2="0" stroke="#ddd" stroke-width="1" opacity="1"/><line transform="translate(0,240)" x2="400" y2="0" stroke="#ddd" stroke-width="1" opacity="1"/><line transform="translate(0,213)" x2="400" y2="0" stroke="#ddd" stroke-width="1" opacity="1"/><line transform="translate(0,187)" x2="400" y2="0" stroke="#ddd" stroke-width="1" opacity="1"/><line transform="translate(0,160)" x2="400" y2="0" stroke="#ddd" stroke-width="1" opacity="1"/><line transform="translate(0,133)" x2="400" y2="0" stroke="#ddd" stroke-width="1" opacity="1"/><line transform="translate(0,107)" x2="400" y2="0" stroke="#ddd" stroke-width="1" opacity="1"/><line transform="translate(0,80)" x2="400" y2="0" stroke="#ddd" stroke-width="1" opacity="1"/><line transform="translate(0,53)" x2="400" y2="0" stroke="#ddd" stroke-width="1" opacity="1"/><line transform="translate(0,27)" x2="400" y2="0" stroke="#ddd" stroke-width="1" opacity="1"/><line transform="translate(0,0)" x2="400" y2="0" stroke="#ddd" stroke-width="1" opacity="1"/></g></g><path class="foreground" aria-hidden="true" d="" pointer-events="none" display="none"/></g></g><g class="mark-group role-axis" role="graphics-symbol" aria-roledescription="axis" aria-label="X-axis titled 'calls_per_hour' for a linear scale with values from −5 to 40"><g transform="translate(0.5,400.5)"><path class="background" aria-hidden="true" d="M0,0h0v0h0Z" pointer-events="none"/><g><g class="mark-rule role-axis-tick" pointer-events="none"><line transform="translate(0,0)" x2="0" y2="5" stroke="#888" stroke-width="1" opacity="1"/><line transform="translate(44,0)" x2="0" y2="5" stroke="#888" stroke-width="1" opacity="1"/><line transform="translate(89,0)" x2="0" y2="5" stroke="#888" stroke-width="1" opacity="1"/><line transform="translate(133,0)" x2="0" y2="5" stroke="#888" stroke-width="1" opacity="1"/><line transform="translate(178,0)" x2="0" y2="5" stroke="#888" stroke-width="1" opacity="1"/><line transform="translate(222,0)" x2="0" y2="5" stroke="#888" stroke-width="1" opacity="1"/><line transform="translate(267,0)" x2="0" y2="5" stroke="#888" stroke-width="1" opacity="1"/><line transform="translate(311,0)" x2="0" y2="5" stroke="#888" stroke-width="1" opacity="1"/><line transform="translate(356,0)" x2="0" y2="5" stroke="#888" stroke-width="1" opacity="1"/><line transform="translate(400,0)" x2="0" y2="5" stroke="#888" stroke-width="1" opacity="1"/></g><g class="mark-text role-axis-label" pointer-events="none"><text text-anchor="start" transform="translate(0,15)" font-family="sans-serif" font-size="10px" fill="#000" opacity="1">−5</text><text text-anchor="middle" transform="translate(44.44444444444444,15)" font-family="sans-serif" font-size="10px" fill="#000" opacity="1">0</text><text text-anchor="middle" transform="translate(88.88888888888889,15)" font-family="sans-serif" font-size="10px" fill="#000" opacity="1">5</text><text text-anchor="middle" transform="translate(133.33333333333331,15)" font-family="sans-serif" font-size="10px" fill="#000" opacity="1">10</text><text text-anchor="middle" transform="translate(177.77777777777777,15)" font-family="sans-serif" font-size="10px" fill="#000" opacity="1">15</text><text text-anchor="middle" transform="translate(222.22222222222223,15)" font-family="sans-serif" font-size="10px" fill="#000" opacity="1">20</text><text text-anchor="middle" transform="translate(266.66666666666663,15)" font-family="sans-serif" font-size="10px" fill="#000" opacity="1">25</text><text text-anchor="middle" transform="translate(311.11111111111114,15)" font-family="sans-serif" font-size="10px" fill="#000" opacity="1">30</text><text text-anchor="middle" transform="translate(355.55555555555554,15)" font-family="sans-serif" font-size="10px" fill="#000" opacity="1">35</text><text text-anchor="end" transform="translate(400,15)" font-family="sans-serif" font-size="10px" fill="#000" opacity="1">40</text></g><g class="mark-rule role-axis-domain" pointer-events="none"><line transform="translate(0,0)" x2="400" y2="0" stroke="#888" stroke-width="1" opacity="1"/></g><g class="mark-text role-axis-title" pointer-events="none"><text text-anchor="middle" transform="translate(200,30)" font-family="sans-serif" font-size="11px" font-weight="bold" fill="#000" opacity="1">calls_per_hour</text></g></g><path class="foreground" aria-hidden="true" d="" pointer-events="none" display="none"/></g></g><g class="mark-group role-axis" role="graphics-symbol" aria-roledescription="axis" aria-label="Y-axis titled 'frequency' for a linear scale with values from 0 to 300"><g transform="translate(0.5,0.5)"><path class="background" aria-hidden="true" d="M0,0h0v0h0Z" pointer-events="none"/><g><g class="mark-rule role-axis-tick" pointer-events="none"><line transform="translate(0,400)" x2="-5" y2="0" stroke="#888" stroke-width="1" opacity="1"/><line transform="translate(0,373)" x2="-5" y2="0" stroke="#888" stroke-width="1" opacity="1"/><line transform="translate(0,347)" x2="-5" y2="0" stroke="#888" stroke-width="1" opacity="1"/><line transform="translate(0,320)" x2="-5" y2="0" stroke="#888" stroke-width="1" opacity="1"/><line transform="translate(0,293)" x2="-5" y2="0" stroke="#888" stroke-width="1" opacity="1"/><line transform="translate(0,267)" x2="-5" y2="0" stroke="#888" stroke-width="1" opacity="1"/><line transform="translate(0,240)" x2="-5" y2="0" stroke="#888" stroke-width="1" opacity="1"/><line transform="translate(0,213)" x2="-5" y2="0" stroke="#888" stroke-width="1" opacity="1"/><line transform="translate(0,187)" x2="-5" y2="0" stroke="#888" stroke-width="1" opacity="1"/><line transform="translate(0,160)" x2="-5" y2="0" stroke="#888" stroke-width="1" opacity="1"/><line transform="translate(0,133)" x2="-5" y2="0" stroke="#888" stroke-width="1" opacity="1"/><line transform="translate(0,107)" x2="-5" y2="0" stroke="#888" stroke-width="1" opacity="1"/><line transform="translate(0,80)" x2="-5" y2="0" stroke="#888" stroke-width="1" opacity="1"/><line transform="translate(0,53)" x2="-5" y2="0" stroke="#888" stroke-width="1" opacity="1"/><line transform="translate(0,27)" x2="-5" y2="0" stroke="#888" stroke-width="1" opacity="1"/><line transform="translate(0,0)" x2="-5" y2="0" stroke="#888" stroke-width="1" opacity="1"/></g><g class="mark-text role-axis-label" pointer-events="none"><text text-anchor="end" transform="translate(-7,403)" font-family="sans-serif" font-size="10px" fill="#000" opacity="1">0</text><text text-anchor="end" transform="translate(-7,376.3333333333333)" font-family="sans-serif" font-size="10px" fill="#000" opacity="1">20</text><text text-anchor="end" transform="translate(-7,349.6666666666667)" font-family="sans-serif" font-size="10px" fill="#000" opacity="1">40</text><text text-anchor="end" transform="translate(-7,323)" font-family="sans-serif" font-size="10px" fill="#000" opacity="1">60</text><text text-anchor="end" transform="translate(-7,296.33333333333337)" font-family="sans-serif" font-size="10px" fill="#000" opacity="1">80</text><text text-anchor="end" transform="translate(-7,269.6666666666667)" font-family="sans-serif" font-size="10px" fill="#000" opacity="1">100</text><text text-anchor="end" transform="translate(-7,243)" font-family="sans-serif" font-size="10px" fill="#000" opacity="1">120</text><text text-anchor="end" transform="translate(-7,216.33333333333334)" font-family="sans-serif" font-size="10px" fill="#000" opacity="1">140</text><text text-anchor="end" transform="translate(-7,189.66666666666666)" font-family="sans-serif" font-size="10px" fill="#000" opacity="1">160</text><text text-anchor="end" transform="translate(-7,163)" font-family="sans-serif" font-size="10px" fill="#000" opacity="1">180</text><text text-anchor="end" transform="translate(-7,136.33333333333334)" font-family="sans-serif" font-size="10px" fill="#000" opacity="1">200</text><text text-anchor="end" transform="translate(-7,109.66666666666669)" font-family="sans-serif" font-size="10px" fill="#000" opacity="1">220</text><text text-anchor="end" transform="translate(-7,82.99999999999999)" font-family="sans-serif" font-size="10px" fill="#000" opacity="1">240</text><text text-anchor="end" transform="translate(-7,56.33333333333332)" font-family="sans-serif" font-size="10px" fill="#000" opacity="1">260</text><text text-anchor="end" transform="translate(-7,29.66666666666666)" font-family="sans-serif" font-size="10px" fill="#000" opacity="1">280</text><text text-anchor="end" transform="translate(-7,3)" font-family="sans-serif" font-size="10px" fill="#000" opacity="1">300</text></g><g class="mark-rule role-axis-domain" pointer-events="none"><line transform="translate(0,400)" x2="0" y2="-400" stroke="#888" stroke-width="1" opacity="1"/></g><g class="mark-text role-axis-title" pointer-events="none"><text text-anchor="middle" transform="translate(-27.6845703125,200) rotate(-90) translate(0,-2)" font-family="sans-serif" font-size="11px" font-weight="bold" fill="#000" opacity="1">frequency</text></g></g><path class="foreground" aria-hidden="true" d="" pointer-events="none" display="none"/></g></g><g class="mark-rect role-mark marks" role="graphics-object" aria-roledescription="rect mark container"><path aria-label="calls_per_hour: 0; frequency: 291" role="graphics-symbol" aria-roledescription="bar" d="M41.94444444444444,12.00000000000001h5v388h-5Z" fill="#4c78a8"/><path aria-label="calls_per_hour: 1; frequency: 153" role="graphics-symbol" aria-roledescription="bar" d="M50.833333333333336,196h5v204h-5Z" fill="#4c78a8"/><path aria-label="calls_per_hour: 2; frequency: 186" role="graphics-symbol" aria-roledescription="bar" d="M59.72222222222222,152h5v248h-5Z" fill="#4c78a8"/><path aria-label="calls_per_hour: 3; frequency: 143" role="graphics-symbol" aria-roledescription="bar" d="M68.61111111111111,209.33333333333331h5v190.66666666666669h-5Z" fill="#4c78a8"/><path aria-label="calls_per_hour: 4; frequency: 146" role="graphics-symbol" aria-roledescription="bar" d="M77.5,205.33333333333331h5v194.66666666666669h-5Z" fill="#4c78a8"/><path aria-label="calls_per_hour: 5; frequency: 142" role="graphics-symbol" aria-roledescription="bar" d="M86.38888888888889,210.66666666666666h5v189.33333333333334h-5Z" fill="#4c78a8"/><path aria-label="calls_per_hour: 6; frequency: 123" role="graphics-symbol" aria-roledescription="bar" d="M95.27777777777777,236.00000000000003h5v163.99999999999997h-5Z" fill="#4c78a8"/><path aria-label="calls_per_hour: 7; frequency: 74" role="graphics-symbol" aria-roledescription="bar" d="M104.16666666666667,301.3333333333333h5v98.66666666666669h-5Z" fill="#4c78a8"/><path aria-label="calls_per_hour: 8; frequency: 74" role="graphics-symbol" aria-roledescription="bar" d="M113.05555555555554,301.3333333333333h5v98.66666666666669h-5Z" fill="#4c78a8"/><path aria-label="calls_per_hour: 9; frequency: 47" role="graphics-symbol" aria-roledescription="bar" d="M121.94444444444444,337.3333333333333h5v62.666666666666686h-5Z" fill="#4c78a8"/><path aria-label="calls_per_hour: 10; frequency: 37" role="graphics-symbol" aria-roledescription="bar" d="M130.83333333333331,350.6666666666667h5v49.333333333333314h-5Z" fill="#4c78a8"/><path aria-label="calls_per_hour: 11; frequency: 24" role="graphics-symbol" aria-roledescription="bar" d="M139.72222222222223,368h5v32h-5Z" fill="#4c78a8"/><path aria-label="calls_per_hour: 12; frequency: 34" role="graphics-symbol" aria-roledescription="bar" d="M148.61111111111111,354.6666666666667h5v45.333333333333314h-5Z" fill="#4c78a8"/><path aria-label="calls_per_hour: 13; frequency: 18" role="graphics-symbol" aria-roledescription="bar" d="M157.5,376h5v24h-5Z" fill="#4c78a8"/><path aria-label="calls_per_hour: 14; frequency: 16" role="graphics-symbol" aria-roledescription="bar" d="M166.38888888888889,378.6666666666667h5v21.333333333333314h-5Z" fill="#4c78a8"/><path aria-label="calls_per_hour: 15; frequency: 12" role="graphics-symbol" aria-roledescription="bar" d="M175.27777777777777,384h5v16h-5Z" fill="#4c78a8"/><path aria-label="calls_per_hour: 16; frequency: 9" role="graphics-symbol" aria-roledescription="bar" d="M184.16666666666666,388h5v12h-5Z" fill="#4c78a8"/><path aria-label="calls_per_hour: 17; frequency: 10" role="graphics-symbol" aria-roledescription="bar" d="M193.05555555555554,386.6666666666667h5v13.333333333333314h-5Z" fill="#4c78a8"/><path aria-label="calls_per_hour: 18; frequency: 5" role="graphics-symbol" aria-roledescription="bar" d="M201.94444444444443,393.3333333333333h5v6.666666666666686h-5Z" fill="#4c78a8"/><path aria-label="calls_per_hour: 19; frequency: 2" role="graphics-symbol" aria-roledescription="bar" d="M210.83333333333334,397.3333333333333h5v2.6666666666666856h-5Z" fill="#4c78a8"/><path aria-label="calls_per_hour: 20; frequency: 4" role="graphics-symbol" aria-roledescription="bar" d="M219.72222222222223,394.6666666666667h5v5.333333333333314h-5Z" fill="#4c78a8"/><path aria-label="calls_per_hour: 21; frequency: 3" role="graphics-symbol" aria-roledescription="bar" d="M228.6111111111111,396h5v4h-5Z" fill="#4c78a8"/><path aria-label="calls_per_hour: 22; frequency: 1" role="graphics-symbol" aria-roledescription="bar" d="M237.5,398.6666666666667h5v1.3333333333333144h-5Z" fill="#4c78a8"/><path aria-label="calls_per_hour: 23; frequency: 2" role="graphics-symbol" aria-roledescription="bar" d="M246.38888888888889,397.3333333333333h5v2.6666666666666856h-5Z" fill="#4c78a8"/><path aria-label="calls_per_hour: 24; frequency: 2" role="graphics-symbol" aria-roledescription="bar" d="M255.27777777777777,397.3333333333333h5v2.6666666666666856h-5Z" fill="#4c78a8"/><path aria-label="calls_per_hour: 25; frequency: 3" role="graphics-symbol" aria-roledescription="bar" d="M264.16666666666663,396h5v4h-5Z" fill="#4c78a8"/><path aria-label="calls_per_hour: 39; frequency: 1" role="graphics-symbol" aria-roledescription="bar" d="M388.6111111111111,398.6666666666667h5v1.3333333333333144h-5Z" fill="#4c78a8"/></g></g><path class="foreground" aria-hidden="true" d="" display="none"/></g></g></g></svg>