<svg xmlns="http://www.w3.org/2000/svg" xmlns:xlink="http://www.w3.org/1999/xlink" version="1.1" class="marks" width="311" height="447" viewBox="0 0 311 447"><rect width="311" height="447" fill="white"/><g fill="none" stroke-miterlimit="10" transform="translate(41,10)"><g class="mark-group role-frame root" role="graphics-object" aria-roledescription="group mark container"><g transform="translate(0,0)"><path class="background" aria-hidden="true" d="M0.5,0.5h200v400h-200Z" stroke="#ddd"/><g><g class="mark-group role-axis" aria-hidden="true"><g transform="translate(0.5,400.5)"><path class="background" aria-hidden="true" d="M0,0h0v0h0Z" pointer-events="none"/><g><g class="mark-rule role-axis-grid" pointer-events="none"><line transform="translate(13,-400)" x2="0" y2="400" stroke="#ddd" stroke-width="1" opacity="1"/><line transform="translate(75,-400)" x2="0" y2="400" stroke="#ddd" stroke-width="1" opacity="1"/><line transform="translate(138,-400)" x2="0" y2="400" stroke="#ddd" stroke-width="1" opacity="1"/><line transform="translate(200,-400)" x2="0" y2="400" stroke="#ddd" stroke-width="1" opacity="1"/></g></g><path class="foreground" aria-hidden="true" d="" pointer-events="none" display="none"/></g></g><g class="mark-group role-axis" aria-hidden="true"><g transform="translate(0.5,0.5)"><path class="background" aria-hidden="true" d="M0,0h0v0h0Z" pointer-events="none"/><g><g class="mark-rule role-axis-grid" pointer-events="none"><line transform="translate(0,400)" x2="200" y2="0" stroke="#ddd" stroke-width="1" opacity="1"/><line transform="translate(0,371)" x2="200" y2="0" stroke="#ddd" stroke-width="1" opacity="1"/><line transform="translate(0,343)" x2="200" y2="0" stroke="#ddd" stroke-width="1" opacity="1"/><line transform="translate(0,314)" x2="200" y2="0" stroke="#ddd" stroke-width="1" opacity="1"/><line transform="translate(0,286)" x2="200" y2="0" stroke="#ddd" stroke-width="1" opacity="1"/><line transform="translate(0,257)" x2="200" y2="0" stroke="#ddd" stroke-width="1" opacity="1"/><line transform="translate(0,229)" x2="200" y2="0" stroke="#ddd" stroke-width="1" opacity="1"/><line transform="translate(0,200)" x2="200" y2="0" stroke="#ddd" stroke-width="1" opacity="1"/><line transform="translate(0,171)" x2="200" y2="0" stroke="#ddd" stroke-width="1" opacity="1"/><line transform="translate(0,143)" x2="200" y2="0" stroke="#ddd" stroke-width="1" opacity="1"/><line transform="translate(0,114)" x2="200" y2="0" stroke="#ddd" stroke-width="1" opacity="1"/><line transform="translate(0,86)" x2="200" y2="0" stroke="#ddd" stroke-width="1" opacity="1"/><line transform="translate(0,57)" x2="200" y2="0" stroke="#ddd" stroke-width="1" opacity="1"/><line transform="translate(0,29)" x2="200" y2="0" stroke="#ddd" stroke-width="1" opacity="1"/><line transform="translate(0,0)" x2="200" y2="0" stroke="#ddd" stroke-width="1" opacity="1"/></g></g><path class="foreground" aria-hidden="true" d="" pointer-events="none" display="none"/></g></g><g class="mark-group role-axis" role="graphics-symbol" aria-roledescription="axis" aria-label="X-axis titled 'hour_bucket' for a linear scale with values from 4 to 20"><g transform="translate(0.5,400.5)"><path class="background" aria-hidden="true" d="M0,0h0v0h0Z" pointer-events="none"/><g><g class="mark-rule role-axis-tick" pointer-events="none"><line transform="translate(13,0)" x2="0" y2="5" stroke="#888" stroke-width="1" opacity="1"/><line transform="translate(75,0)" x2="0" y2="5" stroke="#888" stroke-width="1" opacity="1"/><line transform="translate(138,0)" x2="0" y2="5" stroke="#888" stroke-width="1" opacity="1"/><line transform="translate(200,0)" x2="0" y2="5" stroke="#888" stroke-width="1" opacity="1"/></g><g class="mark-text role-axis-label" pointer-events="none"><text text-anchor="middle" transform="translate(12.5,15)" font-family="sans-serif" font-size="10px" fill="#000" opacity="1">5</text><text text-anchor="middle" transform="translate(75,15)" font-family="sans-serif" font-size="10px" fill="#000" opacity="1">10</text><text text-anchor="middle" transform="translate(137.5,15)" font-family="sans-serif" font-size="10px" fill="#000" opacity="1">15</text><text text-anchor="end" transform="translate(200,15)" font-family="sans-serif" font-size="10px" fill="#000" opacity="1">20</text></g><g class="mark-rule role-axis-domain" pointer-events="none"><line transform="translate(0,0)" x2="200" y2="0" stroke="#888" stroke-width="1" opacity="1"/></g><g class="mark-text role-axis-title" pointer-events="none"><text text-anchor="middle" transform="translate(100,30)" font-family="sans-serif" font-size="11px" font-weight="bold" fill="#000" opacity="1">hour_bucket</text></g></g><path class="foreground" aria-hidden="true" d="" pointer-events="none" display="none"/></g></g><g class="mark-group role-axis" role="graphics-symbol" aria-roledescription="axis" aria-label="Y-axis titled 'mean' for a linear scale with values from 0 to 7"><g transform="translate(0.5,0.5)"><path class="background" aria-hidden="true" d="M0,0h0v0h0Z" pointer-events="none"/><g><g class="mark-rule role-axis-tick" pointer-events="none"><line transform="translate(0,400)" x2="-5" y2="0" stroke="#888" stroke-width="1" opacity="1"/><line transform="translate(0,371)" x2="-5" y2="0" stroke="#888" stroke-width="1" opacity="1"/><line transform="translate(0,343)" x2="-5" y2="0" stroke="#888" stroke-width="1" opacity="1"/><line transform="translate(0,314)" x2="-5" y2="0" stroke="#888" stroke-width="1" opacity="1"/><line transform="translate(0,286)" x2="-5" y2="0" stroke="#888" stroke-width="1" opacity="1"/><line transform="translate(0,257)" x2="-5" y2="0" stroke="#888" stroke-width="1" opacity="1"/><line transform="translate(0,229)" x2="-5" y2="0" stroke="#888" stroke-width="1" opacity="1"/><line transform="translate(0,200)" x2="-5" y2="0" stroke="#888" stroke-width="1" opacity="1"/><line transform="translate(0,171)" x2="-5" y2="0" stroke="#888" stroke-width="1" opacity="1"/><line transform="translate(0,143)" x2="-5" y2="0" stroke="#888" stroke-width="1" opacity="1"/><line transform="translate(0,114)" x2="-5" y2="0" stroke="#888" stroke-width="1" opacity="1"/><line transform="translate(0,86)" x2="-5" y2="0" stroke="#888" stroke-width="1" opacity="1"/><line transform="translate(0,57)" x2="-5" y2="0" stroke="#888" stroke-width="1" opacity="1"/><line transform="translate(0,29)" x2="-5" y2="0" stroke="#888" stroke-width="1" opacity="1"/><line transform="translate(0,0)" x2="-5" y2="0" stroke="#888" stroke-width="1" opacity="1"/></g><g class="mark-text role-axis-label" pointer-events="none"><text text-anchor="end" transform="translate(-7,403)" font-family="sans-serif" font-size="10px" fill="#000" opacity="1">0.0</text><text text-anchor="end" transform="translate(-7,374.42857142857144)" font-family="sans-serif" font-size="10px" fill="#000" opacity="1">0.5</text><text text-anchor="end" transform="translate(-7,345.8571428571429)" font-family="sans-serif" font-size="10px" fill="#000" opacity="1">1.0</text><text text-anchor="end" transform="translate(-7,317.2857142857143)" font-family="sans-serif" font-size="10px" fill="#000" opacity="1">1.5</text><text text-anchor="end" transform="translate(-7,288.7142857142857)" font-family="sans-serif" font-size="10px" fill="#000" opacity="1">2.0</text><text text-anchor="end" transform="translate(-7,260.1428571428571)" font-family="sans-serif" font-size="10px" fill="#000" opacity="1">2.5</text><text text-anchor="end" transform="translate(-7,231.57142857142856)" font-family="sans-serif" font-size="10px" fill="#000" opacity="1">3.0</text><text text-anchor="end" transform="translate(-7,203)" font-family="sans-serif" font-size="10px" fill="#000" opacity="1">3.5</text><text text-anchor="end" transform="translate(-7,174.42857142857144)" font-family="sans-serif" font-size="10px" fill="#000" opacity="1">4.0</text><text text-anchor="end" transform="translate(-7,145.85714285714283)" font-family="sans-serif" font-size="10px" fill="#000" opacity="1">4.5</text><text text-anchor="end" transform="translate(-7,117.28571428571428)" font-family="sans-serif" font-size="10px" fill="#000" opacity="1">5.0</text><text text-anchor="end" transform="translate(-7,88.71428571428572)" font-family="sans-serif" font-size="10px" fill="#000" opacity="1">5.5</text><text text-anchor="end" transform="translate(-7,60.14285714285716)" font-family="sans-serif" font-size="10px" fill="#000" opacity="1">6.0</text><text text-anchor="end" transform="translate(-7,31.57142857142856)" font-family="sans-serif" font-size="10px" fill="#000" opacity="1">6.5</text><text text-anchor="end" transform="translate(-7,3)" font-family="sans-serif" font-size="10px" fill="#000" opacity="1">7.0</text></g><g class="mark-rule role-axis-domain" pointer-events="none"><line transform="translate(0,400)" x2="0" y2="-400" stroke="#888" stroke-width="1" opacity="1"/></g><g class="mark-text role-axis-title" pointer-events="none"><text text-anchor="middle" transform="translate(-24.9013671875,200) rotate(-90) translate(0,-2)" font-family="sans-serif" font-size="11px" font-weight="bold" fill="#000" opacity="1">mean</text></g></g><path class="foreground" aria-hidden="true" d="" pointer-events="none" display="none"/></g></g><g class="mark-rect role-mark marks" role="graphics-object" aria-roledescription="rect mark container"><path aria-label="hour_bucket: 5; mean: 0.732558139535; type: male" role="graphics-symbol" aria-roledescription="bar" d="M10,358.13953488372096h5v41.860465116279045h-5Z" fill="#f58518"/><path aria-label="hour_bucket: 6; mean: 4.75675675676; type: male" role="graphics-symbol" aria-roledescription="bar" d="M22.5,128.18532818532816h5v271.81467181467184h-5Z" fill="#f58518"/><path aria-label="hour_bucket: 7; mean: 4.18018018018; type: male" role="graphics-symbol" aria-roledescription="bar" d="M35,161.13256113256114h5v238.86743886743886h-5Z" fill="#f58518"/><path aria-label="hour_bucket: 8; mean: 3.02702702703; type: male" role="graphics-symbol" aria-roledescription="bar" d="M47.5,227.02702702702703h5v172.97297297297297h-5Z" fill="#f58518"/><path aria-label="hour_bucket: 9; mean: 3.2972972973; type: male" role="graphics-symbol" aria-roledescription="bar" d="M60,211.5830115830116h5v188.4169884169884h-5Z" fill="#f58518"/><path aria-label="hour_bucket: 10; mean: 2.84545454545; type: male" role="graphics-symbol" aria-roledescription="bar" d="M72.5,237.40259740259742h5v162.59740259740258h-5Z" fill="#f58518"/><path aria-label="hour_bucket: 11; mean: 2.65137614679; type: male" role="graphics-symbol" aria-roledescription="bar" d="M85,248.49279161205766h5v151.50720838794234h-5Z" fill="#f58518"/><path aria-label="hour_bucket: 12; mean: 2.7962962963; type: male" role="graphics-symbol" aria-roledescription="bar" d="M97.5,240.2116402116402h5v159.7883597883598h-5Z" fill="#f58518"/><path aria-label="hour_bucket: 13; mean: 2.49074074074; type: male" role="graphics-symbol" aria-roledescription="bar" d="M110,257.67195767195767h5v142.32804232804233h-5Z" fill="#f58518"/><path aria-label="hour_bucket: 14; mean: 2.57407407407; type: male" role="graphics-symbol" aria-roledescription="bar" d="M122.5,252.91005291005294h5v147.08994708994706h-5Z" fill="#f58518"/><path aria-label="hour_bucket: 15; mean: 3.24074074074; type: male" role="graphics-symbol" aria-roledescription="bar" d="M135,214.81481481481478h5v185.18518518518522h-5Z" fill="#f58518"/><path aria-label="hour_bucket: 16; mean: 3.02777777778; type: male" role="graphics-symbol" aria-roledescription="bar" d="M147.5,226.984126984127h5v173.015873015873h-5Z" fill="#f58518"/><path aria-label="hour_bucket: 17; mean: 3.62962962963; type: male" role="graphics-symbol" aria-roledescription="bar" d="M160,192.5925925925926h5v207.4074074074074h-5Z" fill="#f58518"/><path aria-label="hour_bucket: 18; mean: 3.10843373494; type: male" role="graphics-symbol" aria-roledescription="bar" d="M172.5,222.37521514629947h5v177.62478485370053h-5Z" fill="#f58518"/><path aria-label="hour_bucket: 19; mean: 0.792682926829; type: male" role="graphics-symbol" aria-roledescription="bar" d="M185,354.70383275261327h5v45.296167247386734h-5Z" fill="#f58518"/><path aria-label="hour_bucket: 5; mean: 0.697674418605; type: female" role="graphics-symbol" aria-roledescription="bar" d="M10,318.27242524916943h5v39.867109634551525h-5Z" fill="#4c78a8"/><path aria-label="hour_bucket: 6; mean: 2.15315315315; type: female" role="graphics-symbol" aria-roledescription="bar" d="M22.5,5.1480051480051525h5v123.037323037323h-5Z" fill="#4c78a8"/><path aria-label="hour_bucket: 7; mean: 1.54054054054; type: female" role="graphics-symbol" aria-roledescription="bar" d="M35,73.1016731016731h5v88.03088803088804h-5Z" fill="#4c78a8"/><path aria-label="hour_bucket: 8; mean: 1.10810810811; type: female" role="graphics-symbol" aria-roledescription="bar" d="M47.5,163.70656370656368h5v63.32046332046335h-5Z" fill="#4c78a8"/><path aria-label="hour_bucket: 9; mean: 1.12612612613; type: female" role="graphics-symbol" aria-roledescription="bar" d="M60,147.23294723294723h5v64.35006435006437h-5Z" fill="#4c78a8"/><path aria-label="hour_bucket: 10; mean: 1.05454545455; type: female" role="graphics-symbol" aria-roledescription="bar" d="M72.5,177.14285714285717h5v60.259740259740255h-5Z" fill="#4c78a8"/><path aria-label="hour_bucket: 11; mean: 1.44036697248; type: female" role="graphics-symbol" aria-roledescription="bar" d="M85,166.18610747051116h5v82.3066841415465h-5Z" fill="#4c78a8"/><path aria-label="hour_bucket: 12; mean: 1.55555555556; type: female" role="graphics-symbol" aria-roledescription="bar" d="M97.5,151.32275132275132h5v88.88888888888889h-5Z" fill="#4c78a8"/><path aria-label="hour_bucket: 13; mean: 1.71296296296; type: female" role="graphics-symbol" aria-roledescription="bar" d="M110,159.78835978835977h5v97.8835978835979h-5Z" fill="#4c78a8"/><path aria-label="hour_bucket: 14; mean: 1.71296296296; type: female" role="graphics-symbol" aria-roledescription="bar" d="M122.5,155.026455026455h5v97.88359788359793h-5Z" fill="#4c78a8"/><path aria-label="hour_bucket: 15; mean: 1.90740740741; type: female" role="graphics-symbol" aria-roledescription="bar" d="M135,105.82010582010577h5v108.99470899470901h-5Z" fill="#4c78a8"/><path aria-label="hour_bucket: 16; mean: 2.05555555556; type: female" role="graphics-symbol" aria-roledescription="bar" d="M147.5,109.52380952380953h5v117.46031746031746h-5Z" fill="#4c78a8"/><path aria-label="hour_bucket: 17; mean: 2.28703703704; type: female" role="graphics-symbol" aria-roledescription="bar" d="M160,61.904761904761905h5v130.6878306878307h-5Z" fill="#4c78a8"/><path aria-label="hour_bucket: 18; mean: 2.13253012048; type: female" role="graphics-symbol" aria-roledescription="bar" d="M172.5,100.51635111876078h5v121.85886402753869h-5Z" fill="#4c78a8"/><path aria-label="hour_bucket: 19; mean: 0.40243902439; type: female" role="graphics-symbol" aria-roledescription="bar" d="M185,331.7073170731707h5v22.996515679442552h-5Z" fill="#4c78a8"/></g><g class="mark-group role-legend" role="graphics-symbol" aria-roledescription="legend" aria-label="Symbol legend titled 'type' for fill color with 2 values: female, male"><g transform="translate(218,0)"><path class="background" aria-hidden="true" d="M0,0h47v40h-47Z" pointer-events="none"/><g><g class="mark-group role-legend-entry"><g transform="translate(0,16)"><path class="background" aria-hidden="true" d="M0,0h0v0h0Z" pointer-events="none"/><g><g class="mark-group role-scope" role="graphics-object" aria-roledescription="group mark container"><g transform="translate(0,0)"><path class="background" aria-hidden="true" d="M0,0h46.0146484375v11h-46.0146484375Z" pointer-events="none" opacity="1"/><g><g class="mark-symbol role-legend-symbol" pointer-events="none"><path transform="translate(6,6)" d="M-5,-5h10v10h-10Z" fill="#4c78a8" stroke-width="1.5" opacity="1"/></g><g class="mark-text role-legend-label" pointer-events="none"><text text-anchor="start" transform="translate(16,9)" font-family="sans-serif" font-size="10px" fill="#000" opacity="1">female</text></g></g><path class="foreground" aria-hidden="true" d="" pointer-events="none" display="none"/></g><g transform="translate(0,13)"><path class="background" aria-hidden="true" d="M0,0h46.0146484375v11h-46.0146484375Z" pointer-events="none" opacity="1"/><g><g class="mark-symbol role-legend-symbol" pointer-events="none"><path transform="translate(6,6)" d="M-5,-5h10v10h-10Z" fill="#f58518" stroke-width="1.5" opacity="1"/></g><g class="mark-text role-legend-label" pointer-events="none"><text text-anchor="start" transform="translate(16,9)" font-family="sans-serif" font-size="10px" fill="#000" opacity="1">male</text></g></g><path class="foreground" aria-hidden="true" d="" pointer-events="none" display="none"/></g></g></g><path class="foreground" aria-hidden="true" d="" pointer-events="none" display="none"/></g></g><g class="mark-text role-legend-title" pointer-events="none"><text text-anchor="start" transform="translate(0,9)" font-family="sans-serif" font-size="11px" font-weight="bold" fill="#000" opacity="1">type</text></g></g><path class="foreground" aria-hidden="true" d="" pointer-events="none" display="none"/></g></g></g><path class="foreground" aria-hidden="true" d="" display="none"/></g></g></g></svg>