<svg xmlns="http://www.w3.org/2000/svg" xmlns:xlink="http://www.w3.org/1999/xlink" version="1.1" class="marks" width="509" height="447" viewBox="0 0 509 447"><rect width="509" height="447" fill="white"/><g fill="none" stroke-miterlimit="10" transform="translate(39,10)"><g class="mark-group role-frame root" role="graphics-object" aria-roledescription="group mark container"><g transform="translate(0,0)"><path class="background" aria-hidden="true" d="M0.5,0.5h400v400h-400Z" stroke="#ddd"/><g><g class="mark-group role-axis" aria-hidden="true"><g transform="translate(0.5,400.5)"><path class="background" aria-hidden="true" d="M0,0h0v0h0Z" pointer-events="none"/><g><g class="mark-rule role-axis-grid" pointer-events="none"><line transform="translate(0,-400)" x2="0" y2="400" stroke="#ddd" stroke-width="1" opacity="1"/><line transform="translate(44,-400)" x2="0" y2="400" stroke="#ddd" stroke-width="1" opacity="1"/><line transform="translate(89,-400)" x2="0" y2="400" stroke="#ddd" stroke-width="1" opacity="1"/><line transform="translate(133,-400)" x2="0" y2="400" stroke="#ddd" stroke-width="1" opacity="1"/><line transform="translate(178,-400)" x2="0" y2="400" stroke="#ddd" stroke-width="1" opacity="1"/><line transform="translate(222,-400)" x2="0" y2="400" stroke="#ddd" stroke-width="1" opacity="1"/><line transform="translate(267,-400)" x2="0" y2="400" stroke="#ddd" stroke-width="1" opacity="1"/><line transform="translate(311,-400)" x2="0" y2="400" stroke="#ddd" stroke-width="1" opacity="1"/><line transform="translate(356,-400)" x2="0" y2="400" stroke="#ddd" stroke-width="1" opacity="1"/><line transform="translate(400,-400)" x2="0" y2="400" stroke="#ddd" stroke-width="1" opacity="1"/></g></g><path class="foreground" aria-hidden="true" d="" pointer-events="none" display="none"/></g></g><g class="mark-group role-axis" aria-hidden="true"><g transform="translate(0.5,0.5)"><path class="background" aria-hidden="true" d="M0,0h0v0h0Z" pointer-events="none"/><g><g class="mark-rule role-axis-grid" pointer-events="none"><line transform="translate(0,400)" x2="400" y2="0" stroke="#ddd" stroke-width="1" opacity="1"/><line transform="translate(0,350)" x2="400" y2="0" stroke="#ddd" stroke-width="1" opacity="1"/><line transform="translate(0,300)" x2="400" y2="0" stroke="#ddd" stroke-width="1" opacity="1"/><line transform="translate(0,250)" x2="400" y2="0" stroke="#ddd" stroke-width="1" opacity="1"/><line transform="translate(0,200)" x2="400" y2="0" stroke="#ddd" stroke-width="1" opacity="1"/><line transform="translate(0,150)" x2="400" y2="0" stroke="#ddd" stroke-width="1" opacity="1"/><line transform="translate(0,100)" x2="400" y2="0" stroke="#ddd" stroke-width="1" opacity="1"/><line transform="translate(0,50)" x2="400" y2="0" stroke="#ddd" stroke-width="1" opacity="1"/><line transform="translate(0,0)" x2="400" y2="0" stroke="#ddd" stroke-width="1" opacity="1"/></g></g><path class="foreground" aria-hidden="true" d="" pointer-events="none" display="none"/></g></g><g class="mark-group role-axis" role="graphics-symbol" aria-roledescription="axis" aria-label="X-axis titled 'calls_per_hour' for a linear scale with values from −5 to 40"><g transform="translate(0.5,400.5)"><path class="background" aria-hidden="true" d="M0,0h0v0h0Z" pointer-events="none"/><g><g class="mark-rule role-axis-tick" pointer-events="none"><line transform="translate(0,0)" x2="0" y2="5" stroke="#888" stroke-width="1" opacity="1"/><line transform="translate(44,0)" x2="0" y2="5" stroke="#888" stroke-width="1" opacity="1"/><line transform="translate(89,0)" x2="0" y2="5" stroke="#888" stroke-width="1" opacity="1"/><line transform="translate(133,0)" x2="0" y2="5" stroke="#888" stroke-width="1" opacity="1"/><line transform="translate(178,0)" x2="0" y2="5" stroke="#888" stroke-width="1" opacity="1"/><line transform="translate(222,0)" x2="0" y2="5" stroke="#888" stroke-width="1" opacity="1"/><line transform="translate(267,0)" x2="0" y2="5" stroke="#888" stroke-width="1" opacity="1"/><line transform="translate(311,0)" x2="0" y2="5" stroke="#888" stroke-width="1" opacity="1"/><line transform="translate(356,0)" x2="0" y2="5" stroke="#888" stroke-width="1" opacity="1"/><line transform="translate(400,0)" x2="0" y2="5" stroke="#888" stroke-width="1" opacity="1"/></g><g class="mark-text role-axis-label" pointer-events="none"><text text-anchor="start" transform="translate(0,15)" font-family="sans-serif" font-size="10px" fill="#000" opacity="1">−5</text><text text-anchor="middle" transform="translate(44.44444444444444,15)" font-family="sans-serif" font-size="10px" fill="#000" opacity="1">0</text><text text-anchor="middle" transform="translate(88.88888888888889,15)" font-family="sans-serif" font-size="10px" fill="#000" opacity="1">5</text><text text-anchor="middle" transform="translate(133.33333333333331,15)" font-family="sans-serif" font-size="10px" fill="#000" opacity="1">10</text><text text-anchor="middle" transform="translate(177.77777777777777,15)" font-family="sans-serif" font-size="10px" fill="#000" opacity="1">15</text><text text-anchor="middle" transform="translate(222.22222222222223,15)" font-family="sans-serif" font-size="10px" fill="#000" opacity="1">20</text><text text-anchor="middle" transform="translate(266.66666666666663,15)" font-family="sans-serif" font-size="10px" fill="#000" opacity="1">25</text><text text-anchor="middle" transform="translate(311.11111111111114,15)" font-family="sans-serif" font-size="10px" fill="#000" opacity="1">30</text><text text-anchor="middle" transform="translate(355.55555555555554,15)" font-family="sans-serif" font-size="10px" fill="#000" opacity="1">35</text><text text-anchor="end" transform="translate(400,15)" font-family="sans-serif" font-size="10px" fill="#000" opacity="1">40</text></g><g class="mark-rule role-axis-domain" pointer-events="none"><line transform="translate(0,0)" x2="400" y2="0" stroke="#888" stroke-width="1" opacity="1"/></g><g class="mark-text role-axis-title" pointer-events="none"><text text-anchor="middle" transform="translate(200,30)" font-family="sans-serif" font-size="11px" font-weight="bold" fill="#000" opacity="1">calls_per_hour</text></g></g><path class="foreground" aria-hidden="true" d="" pointer-events="none" display="none"/></g></g><g class="mark-group role-axis" role="graphics-symbol" aria-roledescription="axis" aria-label="Y-axis titled 'median_calls' for a linear scale with values from 0 to 40"><g transform="translate(0.5,0.5)"><path class="background" aria-hidden="true" d="M0,0h0v0h0Z" pointer-events="none"/><g><g class="mark-rule role-axis-tick" pointer-events="none"><line transform="translate(0,400)" x2="-5" y2="0" stroke="#888" stroke-width="1" opacity="1"/><line transform="translate(0,350)" x2="-5" y2="0" stroke="#888" stroke-width="1" opacity="1"/><line transform="translate(0,300)" x2="-5" y2="0" stroke="#888" stroke-width="1" opacity="1"/><line transform="translate(0,250)" x2="-5" y2="0" stroke="#888" stroke-width="1" opacity="1"/><line transform="translate(0,200)" x2="-5" y2="0" stroke="#888" stroke-width="1" opacity="1"/><line transform="translate(0,150)" x2="-5" y2="0" stroke="#888" stroke-width="1" opacity="1"/><line transform="translate(0,100)" x2="-5" y2="0" stroke="#888" stroke-width="1" opacity="1"/><line transform="translate(0,50)" x2="-5" y2="0" stroke="#888" stroke-width="1" opacity="1"/><line transform="translate(0,0)" x2="-5" y2="0" stroke="#888" stroke-width="1" opacity="1"/></g><g class="mark-text role-axis-label" pointer-events="none"><text text-anchor="end" transform="translate(-7,403)" font-family="sans-serif" font-size="10px" fill="#000" opacity="1">0</text><text text-anchor="end" transform="translate(-7,353)" font-family="sans-serif" font-size="10px" fill="#000" opacity="1">5</text><text text-anchor="end" transform="translate(-7,303)" font-family="sans-serif" font-size="10px" fill="#000" opacity="1">10</text><text text-anchor="end" transform="translate(-7,253)" font-family="sans-serif" font-size="10px" fill="#000" opacity="1">15</text><text text-anchor="end" transform="translate(-7,203)" font-family="sans-serif" font-size="10px" fill="#000" opacity="1">20</text><text text-anchor="end" transform="translate(-7,153)" font-family="sans-serif" font-size="10px" fill="#000" opacity="1">25</text><text text-anchor="end" transform="translate(-7,103)" font-family="sans-serif" font-size="10px" fill="#000" opacity="1">30</text><text text-anchor="end" transform="translate(-7,53)" font-family="sans-serif" font-size="10px" fill="#000" opacity="1">35</text><text text-anchor="end" transform="translate(-7,3)" font-family="sans-serif" font-size="10px" fill="#000" opacity="1">40</text></g><g class="mark-rule role-axis-domain" pointer-events="none"><line transform="translate(0,400)" x2="0" y2="-400" stroke="#888" stroke-width="1" opacity="1"/></g><g class="mark-text role-axis-title" pointer-events="none"><text text-anchor="middle" transform="translate(-22.123046875,200) rotate(-90) translate(0,-2)" font-family="sans-serif" font-size="11px" font-weight="bold" fill="#000" opacity="1">median_calls</text></g></g><path class="foreground" aria-hidden="true" d="" pointer-events="none" display="none"/></g></g><g class="mark-rect role-mark marks" role="graphics-object" aria-roledescription="rect mark container"><path aria-label="calls_per_hour: 0; median_calls: 0; type: male" role="graphics-symbol" aria-roledescription="bar" d="M41.94444444444444,400h5v0h-5Z" fill="#f58518"/><path aria-label="calls_per_hour: 1; median_calls: 1; type: male" role="graphics-symbol" aria-roledescription="bar" d="M50.833333333333336,390h5v10h-5Z" fill="#f58518"/><path aria-label="calls_per_hour: 2; median_calls: 2; type: male" role="graphics-symbol" aria-roledescription="bar" d="M59.72222222222222,380h5v20h-5Z" fill="#f58518"/><path aria-label="calls_per_hour: 3; median_calls: 2; type: male" role="graphics-symbol" aria-roledescription="bar" d="M68.61111111111111,380h5v20h-5Z" fill="#f58518"/><path aria-label="calls_per_hour: 4; median_calls: 2.5; type: male" role="graphics-symbol" aria-roledescription="bar" d="M77.5,375h5v25h-5Z" fill="#f58518"/><path aria-label="calls_per_hour: 5; median_calls: 3; type: male" role="graphics-symbol" aria-roledescription="bar" d="M86.38888888888889,370h5v30h-5Z" fill="#f58518"/><path aria-label="calls_per_hour: 6; median_calls: 4; type: male" role="graphics-symbol" aria-roledescription="bar" d="M95.27777777777777,360h5v40h-5Z" fill="#f58518"/><path aria-label="calls_per_hour: 7; median_calls: 5; type: male" role="graphics-symbol" aria-roledescription="bar" d="M104.16666666666667,350h5v50h-5Z" fill="#f58518"/><path aria-label="calls_per_hour: 8; median_calls: 6; type: male" role="graphics-symbol" aria-roledescription="bar" d="M113.05555555555554,340h5v60h-5Z" fill="#f58518"/><path aria-label="calls_per_hour: 9; median_calls: 6; type: male" role="graphics-symbol" aria-roledescription="bar" d="M121.94444444444444,340h5v60h-5Z" fill="#f58518"/><path aria-label="calls_per_hour: 10; median_calls: 6; type: male" role="graphics-symbol" aria-roledescription="bar" d="M130.83333333333331,340h5v60h-5Z" fill="#f58518"/><path aria-label="calls_per_hour: 11; median_calls: 7; type: male" role="graphics-symbol" aria-roledescription="bar" d="M139.72222222222223,330h5v70h-5Z" fill="#f58518"/><path aria-label="calls_per_hour: 12; median_calls: 7; type: male" role="graphics-symbol" aria-roledescription="bar" d="M148.61111111111111,330h5v70h-5Z" fill="#f58518"/><path aria-label="calls_per_hour: 13; median_calls: 8.5; type: male" role="graphics-symbol" aria-roledescription="bar" d="M157.5,315h5v85h-5Z" fill="#f58518"/><path aria-label="calls_per_hour: 14; median_calls: 9; type: male" role="graphics-symbol" aria-roledescription="bar" d="M166.38888888888889,310h5v90h-5Z" fill="#f58518"/><path aria-label="calls_per_hour: 15; median_calls: 10; type: male" role="graphics-symbol" aria-roledescription="bar" d="M175.27777777777777,300h5v100h-5Z" fill="#f58518"/><path aria-label="calls_per_hour: 16; median_calls: 10; type: male" role="graphics-symbol" aria-roledescription="bar" d="M184.16666666666666,300h5v100h-5Z" fill="#f58518"/><path aria-label="calls_per_hour: 17; median_calls: 10.5; type: male" role="graphics-symbol" aria-roledescription="bar" d="M193.05555555555554,295h5v105h-5Z" fill="#f58518"/><path aria-label="calls_per_hour: 18; median_calls: 10; type: male" role="graphics-symbol" aria-roledescription="bar" d="M201.94444444444443,300h5v100h-5Z" fill="#f58518"/><path aria-label="calls_per_hour: 19; median_calls: 13; type: male" role="graphics-symbol" aria-roledescription="bar" d="M210.83333333333334,270h5v130h-5Z" fill="#f58518"/><path aria-label="calls_per_hour: 20; median_calls: 10; type: male" role="graphics-symbol" aria-roledescription="bar" d="M219.72222222222223,300h5v100h-5Z" fill="#f58518"/><path aria-label="calls_per_hour: 21; median_calls: 14; type: male" role="graphics-symbol" aria-roledescription="bar" d="M228.6111111111111,260h5v140h-5Z" fill="#f58518"/><path aria-label="calls_per_hour: 22; median_calls: 14; type: male" role="graphics-symbol" aria-roledescription="bar" d="M237.5,260h5v140h-5Z" fill="#f58518"/><path aria-label="calls_per_hour: 23; median_calls: 12.5; type: male" role="graphics-symbol" aria-roledescription="bar" d="M246.38888888888889,275h5v125h-5Z" fill="#f58518"/><path aria-label="calls_per_hour: 24; median_calls: 14.5; type: male" role="graphics-symbol" aria-roledescription="bar" d="M255.27777777777777,254.99999999999997h5v145.00000000000003h-5Z" fill="#f58518"/><path aria-label="calls_per_hour: 25; median_calls: 14; type: male" role="graphics-symbol" aria-roledescription="bar" d="M264.16666666666663,260h5v140h-5Z" fill="#f58518"/><path aria-label="calls_per_hour: 39; median_calls: 26; type: male" role="graphics-symbol" aria-roledescription="bar" d="M388.6111111111111,140h5v260h-5Z" fill="#f58518"/><path aria-label="calls_per_hour: 0; median_calls: 0; type: female" role="graphics-symbol" aria-roledescription="bar" d="M41.94444444444444,400h5v0h-5Z" fill="#4c78a8"/><path aria-label="calls_per_hour: 1; median_calls: 0; type: female" role="graphics-symbol" aria-roledescription="bar" d="M50.833333333333336,390h5v0h-5Z" fill="#4c78a8"/><path aria-label="calls_per_hour: 2; median_calls: 0; type: female" role="graphics-symbol" aria-roledescription="bar" d="M59.72222222222222,380h5v0h-5Z" fill="#4c78a8"/><path aria-label="calls_per_hour: 3; median_calls: 1; type: female" role="graphics-symbol" aria-roledescription="bar" d="M68.61111111111111,370h5v10h-5Z" fill="#4c78a8"/><path aria-label="calls_per_hour: 4; median_calls: 1.5; type: female" role="graphics-symbol" aria-roledescription="bar" d="M77.5,360h5v15h-5Z" fill="#4c78a8"/><path aria-label="calls_per_hour: 5; median_calls: 2; type: female" role="graphics-symbol" aria-roledescription="bar" d="M86.38888888888889,350h5v20h-5Z" fill="#4c78a8"/><path aria-label="calls_per_hour: 6; median_calls: 2; type: female" role="graphics-symbol" aria-roledescription="bar" d="M95.27777777777777,340h5v20h-5Z" fill="#4c78a8"/><path aria-label="calls_per_hour: 7; median_calls: 2; type: female" role="graphics-symbol" aria-roledescription="bar" d="M104.16666666666667,330h5v20h-5Z" fill="#4c78a8"/><path aria-label="calls_per_hour: 8; median_calls: 2; type: female" role="graphics-symbol" aria-roledescription="bar" d="M113.05555555555554,320h5v20h-5Z" fill="#4c78a8"/><path aria-label="calls_per_hour: 9; median_calls: 3; type: female" role="graphics-symbol" aria-roledescription="bar" d="M121.94444444444444,310h5v30h-5Z" fill="#4c78a8"/><path aria-label="calls_per_hour: 10; median_calls: 4; type: female" role="graphics-symbol" aria-roledescription="bar" d="M130.83333333333331,300h5v40h-5Z" fill="#4c78a8"/><path aria-label="calls_per_hour: 11; median_calls: 4; type: female" role="graphics-symbol" aria-roledescription="bar" d="M139.72222222222223,290h5v40h-5Z" fill="#4c78a8"/><path aria-label="calls_per_hour: 12; median_calls: 5; type: female" role="graphics-symbol" aria-roledescription="bar" d="M148.61111111111111,280h5v50h-5Z" fill="#4c78a8"/><path aria-label="calls_per_hour: 13; median_calls: 4.5; type: female" role="graphics-symbol" aria-roledescription="bar" d="M157.5,270h5v45h-5Z" fill="#4c78a8"/><path aria-label="calls_per_hour: 14; median_calls: 5; type: female" role="graphics-symbol" aria-roledescription="bar" d="M166.38888888888889,260h5v50h-5Z" fill="#4c78a8"/><path aria-label="calls_per_hour: 15; median_calls: 5; type: female" role="graphics-symbol" aria-roledescription="bar" d="M175.27777777777777,250h5v50h-5Z" fill="#4c78a8"/><path aria-label="calls_per_hour: 16; median_calls: 6; type: female" role="graphics-symbol" aria-roledescription="bar" d="M184.16666666666666,240h5v60h-5Z" fill="#4c78a8"/><path aria-label="calls_per_hour: 17; median_calls: 6.5; type: female" role="graphics-symbol" aria-roledescription="bar" d="M193.05555555555554,229.99999999999997h5v65.00000000000003h-5Z" fill="#4c78a8"/><path aria-label="calls_per_hour: 18; median_calls: 8; type: female" role="graphics-symbol" aria-roledescription="bar" d="M201.94444444444443,220.00000000000003h5v79.99999999999997h-5Z" fill="#4c78a8"/><path aria-label="calls_per_hour: 19; median_calls: 6; type: female" role="graphics-symbol" aria-roledescription="bar" d="M210.83333333333334,210h5v60h-5Z" fill="#4c78a8"/><path aria-label="calls_per_hour: 20; median_calls: 10; type: female" role="graphics-symbol" aria-roledescription="bar" d="M219.72222222222223,200h5v100h-5Z" fill="#4c78a8"/><path aria-label="calls_per_hour: 21; median_calls: 7; type: female" role="graphics-symbol" aria-roledescription="bar" d="M228.6111111111111,190h5v70h-5Z" fill="#4c78a8"/><path aria-label="calls_per_hour: 22; median_calls: 8; type: female" role="graphics-symbol" aria-roledescription="bar" d="M237.5,179.99999999999997h5v80.00000000000003h-5Z" fill="#4c78a8"/><path aria-label="calls_per_hour: 23; median_calls: 10.5; type: female" role="graphics-symbol" aria-roledescription="bar" d="M246.38888888888889,170.00000000000003h5v104.99999999999997h-5Z" fill="#4c78a8"/><path aria-label="calls_per_hour: 24; median_calls: 9.5; type: female" role="graphics-symbol" aria-roledescription="bar" d="M255.27777777777777,160h5v94.99999999999997h-5Z" fill="#4c78a8"/><path aria-label="calls_per_hour: 25; median_calls: 11; type: female" role="graphics-symbol" aria-roledescription="bar" d="M264.16666666666663,150h5v110h-5Z" fill="#4c78a8"/><path aria-label="calls_per_hour: 39; median_calls: 13; type: female" role="graphics-symbol" aria-roledescription="bar" d="M388.6111111111111,10.000000000000009h5v130h-5Z" fill="#4c78a8"/></g><g class="mark-group role-legend" role="graphics-symbol" aria-roledescription="legend" aria-label="Symbol legend titled 'type' for fill color with 2 values: female, male"><g transform="translate(418,0)"><path class="background" aria-hidden="true" d="M0,0h47v40h-47Z" pointer-events="none"/><g><g class="mark-group role-legend-entry"><g transform="translate(0,16)"><path class="background" aria-hidden="true" d="M0,0h0v0h0Z" pointer-events="none"/><g><g class="mark-group role-scope" role="graphics-object" aria-roledescription="group mark container"><g transform="translate(0,0)"><path class="background" aria-hidden="true" d="M0,0h46.0146484375v11h-46.0146484375Z" pointer-events="none" opacity="1"/><g><g class="mark-symbol role-legend-symbol" pointer-events="none"><path transform="translate(6,6)" d="M-5,-5h10v10h-10Z" fill="#4c78a8" stroke-width="1.5" opacity="1"/></g><g class="mark-text role-legend-label" pointer-events="none"><text text-anchor="start" transform="translate(16,9)" font-family="sans-serif" font-size="10px" fill="#000" opacity="1">female</text></g></g><path class="foreground" aria-hidden="true" d="" pointer-events="none" display="none"/></g><g transform="translate(0,13)"><path class="background" aria-hidden="true" d="M0,0h46.0146484375v11h-46.0146484375Z" pointer-events="none" opacity="1"/><g><g class="mark-symbol role-legend-symbol" pointer-events="none"><path transform="translate(6,6)" d="M-5,-5h10v10h-10Z" fill="#f58518" stroke-width="1.5" opacity="1"/></g><g class="mark-text role-legend-label" pointer-events="none"><text text-anchor="start" transform="translate(16,9)" font-family="sans-serif" font-size="10px" fill="#000" opacity="1">male</text></g></g><path class="foreground" aria-hidden="true" d="" pointer-events="none" display="none"/></g></g></g><path class="foreground" aria-hidden="true" d="" pointer-events="none" display="none"/></g></g><g class="mark-text role-legend-title" pointer-events="none"><text text-anchor="start" transform="translate(0,9)" font-family="sans-serif" font-size="11px" font-weight="bold" fill="#000" opacity="1">type</text></g></g><path class="foreground" aria-hidden="true" d="" pointer-events="none" display="none"/></g></g></g><path class="foreground" aria-hidden="true" d="" display="none"/></g></g></g></svg>