<svg xmlns="http://www.w3.org/2000/svg" xmlns:xlink="http://www.w3.org/1999/xlink" version="1.1" class="marks" width="517" height="447" viewBox="0 0 517 447"><rect width="517" height="447" fill="white"/><g fill="none" stroke-miterlimit="10" transform="translate(47,10)"><g class="mark-group role-frame root" role="graphics-object" aria-roledescription="group mark container"><g transform="translate(0,0)"><path class="background" aria-hidden="true" d="M0.5,0.5h400v400h-400Z" stroke="#ddd"/><g><g class="mark-group role-axis" aria-hidden="true"><g transform="translate(0.5,400.5)"><path class="background" aria-hidden="true" d="M0,0h0v0h0Z" pointer-events="none"/><g><g class="mark-rule role-axis-grid" pointer-events="none"><line transform="translate(0,-400)" x2="0" y2="400" stroke="#ddd" stroke-width="1" opacity="1"/><line transform="translate(50,-400)" x2="0" y2="400" stroke="#ddd" stroke-width="1" opacity="1"/><line transform="translate(100,-400)" x2="0" y2="400" stroke="#ddd" stroke-width="1" opacity="1"/><line transform="translate(150,-400)" x2="0" y2="400" stroke="#ddd" stroke-width="1" opacity="1"/><line transform="translate(200,-400)" x2="0" y2="400" stroke="#ddd" stroke-width="1" opacity="1"/><line transform="translate(250,-400)" x2="0" y2="400" stroke="#ddd" stroke-width="1" opacity="1"/><line transform="translate(300,-400)" x2="0" y2="400" stroke="#ddd" stroke-width="1" opacity="1"/><line transform="translate(350,-400)" x2="0" y2="400" stroke="#ddd" stroke-width="1" opacity="1"/><line transform="translate(400,-400)" x2="0" y2="400" stroke="#ddd" stroke-width="1" opacity="1"/></g></g><path class="foreground" aria-hidden="true" d="" pointer-events="none" display="none"/></g></g><g class="mark-group role-axis" aria-hidden="true"><g transform="translate(0.5,0.5)"><path class="background" aria-hidden="true" d="M0,0h0v0h0Z" pointer-events="none"/><g><g class="mark-rule role-axis-grid" pointer-events="none"><line transform="translate(0,400)" x2="400" y2="0" stroke="#ddd" stroke-width="1" opacity="1"/><line transform="translate(0,364)" x2="400" y2="0" stroke="#ddd" stroke-width="1" opacity="1"/><line transform="translate(0,327)" x2="400" y2="0" stroke="#ddd" stroke-width="1" opacity="1"/><line transform="translate(0,291)" x2="400" y2="0" stroke="#ddd" stroke-width="1" opacity="1"/><line transform="translate(0,255)" x2="400" y2="0" stroke="#ddd" stroke-width="1" opacity="1"/><line transform="translate(0,218)" x2="400" y2="0" stroke="#ddd" stroke-width="1" opacity="1"/><line transform="translate(0,182)" x2="400" y2="0" stroke="#ddd" stroke-width="1" opacity="1"/><line transform="translate(0,145)" x2="400" y2="0" stroke="#ddd" stroke-width="1" opacity="1"/><line transform="translate(0,109)" x2="400" y2="0" stroke="#ddd" stroke-width="1" opacity="1"/><line transform="translate(0,73)" x2="400" y2="0" stroke="#ddd" stroke-width="1" opacity="1"/><line transform="translate(0,36)" x2="400" y2="0" stroke="#ddd" stroke-width="1" opacity="1"/><line transform="translate(0,0)" x2="400" y2="0" stroke="#ddd" stroke-width="1" opacity="1"/></g></g><path class="foreground" aria-hidden="true" d="" pointer-events="none" display="none"/></g></g><g class="mark-group role-axis" role="graphics-symbol" aria-roledescription="axis" aria-label="X-axis titled 'hour' for a linear scale with values from 4 to 20"><g transform="translate(0.5,400.5)"><path class="background" aria-hidden="true" d="M0,0h0v0h0Z" pointer-events="none"/><g><g class="mark-rule role-axis-tick" pointer-events="none"><line transform="translate(0,0)" x2="0" y2="5" stroke="#888" stroke-width="1" opacity="1"/><line transform="translate(50,0)" x2="0" y2="5" stroke="#888" stroke-width="1" opacity="1"/><line transform="translate(100,0)" x2="0" y2="5" stroke="#888" stroke-width="1" opacity="1"/><line transform="translate(150,0)" x2="0" y2="5" stroke="#888" stroke-width="1" opacity="1"/><line transform="translate(200,0)" x2="0" y2="5" stroke="#888" stroke-width="1" opacity="1"/><line transform="translate(250,0)" x2="0" y2="5" stroke="#888" stroke-width="1" opacity="1"/><line transform="translate(300,0)" x2="0" y2="5" stroke="#888" stroke-width="1" opacity="1"/><line transform="translate(350,0)" x2="0" y2="5" stroke="#888" stroke-width="1" opacity="1"/><line transform="translate(400,0)" x2="0" y2="5" stroke="#888" stroke-width="1" opacity="1"/></g><g class="mark-text role-axis-label" pointer-events="none"><text text-anchor="start" transform="translate(0,15)" font-family="sans-serif" font-size="10px" fill="#000" opacity="1">4</text><text text-anchor="middle" transform="translate(50,15)" font-family="sans-serif" font-size="10px" fill="#000" opacity="1">6</text><text text-anchor="middle" transform="translate(100,15)" font-family="sans-serif" font-size="10px" fill="#000" opacity="1">8</text><text text-anchor="middle" transform="translate(150,15)" font-family="sans-serif" font-size="10px" fill="#000" opacity="1">10</text><text text-anchor="middle" transform="translate(200,15)" font-family="sans-serif" font-size="10px" fill="#000" opacity="1">12</text><text text-anchor="middle" transform="translate(250,15)" font-family="sans-serif" font-size="10px" fill="#000" opacity="1">14</text><text text-anchor="middle" transform="translate(300,15)" font-family="sans-serif" font-size="10px" fill="#000" opacity="1">16</text><text text-anchor="middle" transform="translate(350,15)" font-family="sans-serif" font-size="10px" fill="#000" opacity="1">18</text><text text-anchor="end" transform="translate(400,15)" font-family="sans-serif" font-size="10px" fill="#000" opacity="1">20</text></g><g class="mark-rule role-axis-domain" pointer-events="none"><line transform="translate(0,0)" x2="400" y2="0" stroke="#888" stroke-width="1" opacity="1"/></g><g class="mark-text role-axis-title" pointer-events="none"><text text-anchor="middle" transform="translate(200,30)" font-family="sans-serif" font-size="11px" font-weight="bold" fill="#000" opacity="1">hour</text></g></g><path class="foreground" aria-hidden="true" d="" pointer-events="none" display="none"/></g></g><g class="mark-group role-axis" role="graphics-symbol" aria-roledescription="axis" aria-label="Y-axis titled 'mean' for a linear scale with values from 0.0 to 0.6"><g transform="translate(0.5,0.5)"><path class="background" aria-hidden="true" d="M0,0h0v0h0Z" pointer-events="none"/><g><g class="mark-rule role-axis-tick" pointer-events="none"><line transform="translate(0,400)" x2="-5" y2="0" stroke="#888" stroke-width="1" opacity="1"/><line transform="translate(0,364)" x2="-5" y2="0" stroke="#888" stroke-width="1" opacity="1"/><line transform="translate(0,327)" x2="-5" y2="0" stroke="#888" stroke-width="1" opacity="1"/><line transform="translate(0,291)" x2="-5" y2="0" stroke="#888" stroke-width="1" opacity="1"/><line transform="translate(0,255)" x2="-5" y2="0" stroke="#888" stroke-width="1" opacity="1"/><line transform="translate(0,218)" x2="-5" y2="0" stroke="#888" stroke-width="1" opacity="1"/><line transform="translate(0,182)" x2="-5" y2="0" stroke="#888" stroke-width="1" opacity="1"/><line transform="translate(0,145)" x2="-5" y2="0" stroke="#888" stroke-width="1" opacity="1"/><line transform="translate(0,109)" x2="-5" y2="0" stroke="#888" stroke-width="1" opacity="1"/><line transform="translate(0,73)" x2="-5" y2="0" stroke="#888" stroke-width="1" opacity="1"/><line transform="translate(0,36)" x2="-5" y2="0" stroke="#888" stroke-width="1" opacity="1"/><line transform="translate(0,0)" x2="-5" y2="0" stroke="#888" stroke-width="1" opacity="1"/></g><g class="mark-text role-axis-label" pointer-events="none"><text text-anchor="end" transform="translate(-7,403)" font-family="sans-serif" font-size="10px" fill="#000" opacity="1">0.00</text><text text-anchor="end" transform="translate(-7,366.6363636363636)" font-family="sans-serif" font-size="10px" fill="#000" opacity="1">0.05</text><text text-anchor="end" transform="translate(-7,330.27272727272725)" font-family="sans-serif" font-size="10px" fill="#000" opacity="1">0.10</text><text text-anchor="end" transform="translate(-7,293.90909090909093)" font-family="sans-serif" font-size="10px" fill="#000" opacity="1">0.15</text><text text-anchor="end" transform="translate(-7,257.5454545454545)" font-family="sans-serif" font-size="10px" fill="#000" opacity="1">0.20</text><text text-anchor="end" transform="translate(-7,221.18181818181816)" font-family="sans-serif" font-size="10px" fill="#000" opacity="1">0.25</text><text text-anchor="end" transform="translate(-7,184.81818181818184)" font-family="sans-serif" font-size="10px" fill="#000" opacity="1">0.30</text><text text-anchor="end" transform="translate(-7,148.4545454545455)" font-family="sans-serif" font-size="10px" fill="#000" opacity="1">0.35</text><text text-anchor="end" transform="translate(-7,112.09090909090908)" font-family="sans-serif" font-size="10px" fill="#000" opacity="1">0.40</text><text text-anchor="end" transform="translate(-7,75.72727272727275)" font-family="sans-serif" font-size="10px" fill="#000" opacity="1">0.45</text><text text-anchor="end" transform="translate(-7,39.363636363636374)" font-family="sans-serif" font-size="10px" fill="#000" opacity="1">0.50</text><text text-anchor="end" transform="translate(-7,3)" font-family="sans-serif" font-size="10px" fill="#000" opacity="1">0.55</text></g><g class="mark-rule role-axis-domain" pointer-events="none"><line transform="translate(0,400)" x2="0" y2="-400" stroke="#888" stroke-width="1" opacity="1"/></g><g class="mark-text role-axis-title" pointer-events="none"><text text-anchor="middle" transform="translate(-30.462890625,200) rotate(-90) translate(0,-2)" font-family="sans-serif" font-size="11px" font-weight="bold" fill="#000" opacity="1">mean</text></g></g><path class="foreground" aria-hidden="true" d="" pointer-events="none" display="none"/></g></g><g class="mark-rect role-mark marks" role="graphics-object" aria-roledescription="rect mark container"><path aria-label="hour: 5; mean: 0.0788606924476; type: male" role="graphics-symbol" aria-roledescription="bar" d="M22.5,342.64676912898244h5v57.35323087101756h-5Z" fill="#f58518"/><path aria-label="hour: 6; mean: 0.22034677896; type: male" role="graphics-symbol" aria-roledescription="bar" d="M47.5,239.74779711983666h5v160.25220288016334h-5Z" fill="#f58518"/><path aria-label="hour: 7; mean: 0.29757339577; type: male" role="graphics-symbol" aria-roledescription="bar" d="M72.5,183.58298489478236h5v216.41701510521764h-5Z" fill="#f58518"/><path aria-label="hour: 8; mean: 0.375387914875; type: male" role="graphics-symbol" aria-roledescription="bar" d="M97.5,126.99060736398064h5v273.00939263601936h-5Z" fill="#f58518"/><path aria-label="hour: 9; mean: 0.409804018502; type: male" role="graphics-symbol" aria-roledescription="bar" d="M122.5,101.96071381677534h5v298.03928618322465h-5Z" fill="#f58518"/><path aria-label="hour: 10; mean: 0.387911080329; type: male" role="graphics-symbol" aria-roledescription="bar" d="M147.5,117.88285066990073h5v282.11714933009927h-5Z" fill="#f58518"/><path aria-label="hour: 11; mean: 0.3815936032; type: male" role="graphics-symbol" aria-roledescription="bar" d="M172.5,122.47737949104511h5v277.5226205089549h-5Z" fill="#f58518"/><path aria-label="hour: 12; mean: 0.379694256865; type: male" role="graphics-symbol" aria-roledescription="bar" d="M197.5,123.85872227971362h5v276.1412777202864h-5Z" fill="#f58518"/><path aria-label="hour: 13; mean: 0.363141744183; type: male" role="graphics-symbol" aria-roledescription="bar" d="M222.5,135.8969133217982h5v264.1030866782018h-5Z" fill="#f58518"/><path aria-label="hour: 14; mean: 0.352373944595; type: male" role="graphics-symbol" aria-roledescription="bar" d="M247.5,143.72804029449844h5v256.27195970550156h-5Z" fill="#f58518"/><path aria-label="hour: 15; mean: 0.360001171923; type: male" role="graphics-symbol" aria-roledescription="bar" d="M272.5,138.18096587399342h5v261.8190341260066h-5Z" fill="#f58518"/><path aria-label="hour: 16; mean: 0.338008293817; type: male" role="graphics-symbol" aria-roledescription="bar" d="M297.5,154.1757863149833h5v245.8242136850167h-5Z" fill="#f58518"/><path aria-label="hour: 17; mean: 0.265081353605; type: male" role="graphics-symbol" aria-roledescription="bar" d="M322.5,207.2135610148088h5v192.7864389851912h-5Z" fill="#f58518"/><path aria-label="hour: 18; mean: 0.112787091608; type: male" role="graphics-symbol" aria-roledescription="bar" d="M347.5,317.97302428541263h5v82.02697571458737h-5Z" fill="#f58518"/><path aria-label="hour: 5; mean: 0.0194235829086; type: female" role="graphics-symbol" aria-roledescription="bar" d="M22.5,328.5205270136099h5v14.12624211537252h-5Z" fill="#4c78a8"/><path aria-label="hour: 6; mean: 0.0693142592812; type: female" role="graphics-symbol" aria-roledescription="bar" d="M47.5,189.33742673347584h5v50.410370386360825h-5Z" fill="#4c78a8"/><path aria-label="hour: 7; mean: 0.0842672727877; type: female" role="graphics-symbol" aria-roledescription="bar" d="M72.5,122.2976955946506h5v61.28528930013175h-5Z" fill="#4c78a8"/><path aria-label="hour: 8; mean: 0.0884824378399; type: female" role="graphics-symbol" aria-roledescription="bar" d="M97.5,62.639743480451h5v64.35086388352964h-5Z" fill="#4c78a8"/><path aria-label="hour: 9; mean: 0.100128262479; type: female" role="graphics-symbol" aria-roledescription="bar" d="M122.5,29.14015928661979h5v72.82055453015555h-5Z" fill="#4c78a8"/><path aria-label="hour: 10; mean: 0.0877936673112; type: female" role="graphics-symbol" aria-roledescription="bar" d="M147.5,54.03291080717998h5v63.84993986272075h-5Z" fill="#4c78a8"/><path aria-label="hour: 11; mean: 0.0880691544156; type: female" role="graphics-symbol" aria-roledescription="bar" d="M172.5,58.42708537058141h5v64.0502941204637h-5Z" fill="#4c78a8"/><path aria-label="hour: 12; mean: 0.0903115974572; type: female" role="graphics-symbol" aria-roledescription="bar" d="M197.5,58.177560492630455h5v65.68116178708317h-5Z" fill="#4c78a8"/><path aria-label="hour: 13; mean: 0.0884723442618; type: female" role="graphics-symbol" aria-roledescription="bar" d="M222.5,71.55339022230578h5v64.34352309949242h-5Z" fill="#4c78a8"/><path aria-label="hour: 14; mean: 0.0887950861032; type: female" role="graphics-symbol" aria-roledescription="bar" d="M247.5,79.14979585583657h5v64.57824443866187h-5Z" fill="#4c78a8"/><path aria-label="hour: 15; mean: 0.0995131310725; type: female" role="graphics-symbol" aria-roledescription="bar" d="M272.5,65.80777963947222h5v72.3731862345212h-5Z" fill="#4c78a8"/><path aria-label="hour: 16; mean: 0.0868410674369; type: female" role="graphics-symbol" aria-roledescription="bar" d="M297.5,91.01864636085146h5v63.157139954131836h-5Z" fill="#4c78a8"/><path aria-label="hour: 17; mean: 0.0842565952339; type: female" role="graphics-symbol" aria-roledescription="bar" d="M322.5,145.93603720831877h5v61.277523806490024h-5Z" fill="#4c78a8"/><path aria-label="hour: 18; mean: 0.0321048267954; type: female" role="graphics-symbol" aria-roledescription="bar" d="M347.5,294.6240593433105h5v23.348964942102157h-5Z" fill="#4c78a8"/></g><g class="mark-group role-legend" role="graphics-symbol" aria-roledescription="legend" aria-label="Symbol legend titled 'type' for fill color with 2 values: female, male"><g transform="translate(418,0)"><path class="background" aria-hidden="true" d="M0,0h47v40h-47Z" pointer-events="none"/><g><g class="mark-group role-legend-entry"><g transform="translate(0,16)"><path class="background" aria-hidden="true" d="M0,0h0v0h0Z" pointer-events="none"/><g><g class="mark-group role-scope" role="graphics-object" aria-roledescription="group mark container"><g transform="translate(0,0)"><path class="background" aria-hidden="true" d="M0,0h46.0146484375v11h-46.0146484375Z" pointer-events="none" opacity="1"/><g><g class="mark-symbol role-legend-symbol" pointer-events="none"><path transform="translate(6,6)" d="M-5,-5h10v10h-10Z" fill="#4c78a8" stroke-width="1.5" opacity="1"/></g><g class="mark-text role-legend-label" pointer-events="none"><text text-anchor="start" transform="translate(16,9)" font-family="sans-serif" font-size="10px" fill="#000" opacity="1">female</text></g></g><path class="foreground" aria-hidden="true" d="" pointer-events="none" display="none"/></g><g transform="translate(0,13)"><path class="background" aria-hidden="true" d="M0,0h46.0146484375v11h-46.0146484375Z" pointer-events="none" opacity="1"/><g><g class="mark-symbol role-legend-symbol" pointer-events="none"><path transform="translate(6,6)" d="M-5,-5h10v10h-10Z" fill="#f58518" stroke-width="1.5" opacity="1"/></g><g class="mark-text role-legend-label" pointer-events="none"><text text-anchor="start" transform="translate(16,9)" font-family="sans-serif" font-size="10px" fill="#000" opacity="1">male</text></g></g><path class="foreground" aria-hidden="true" d="" pointer-events="none" display="none"/></g></g></g><path class="foreground" aria-hidden="true" d="" pointer-events="none" display="none"/></g></g><g class="mark-text role-legend-title" pointer-events="none"><text text-anchor="start" transform="translate(0,9)" font-family="sans-serif" font-size="11px" font-weight="bold" fill="#000" opacity="1">type</text></g></g><path class="foreground" aria-hidden="true" d="" pointer-events="none" display="none"/></g></g></g><path class="foreground" aria-hidden="true" d="" display="none"/></g></g></g></svg>