<svg xmlns="http://www.w3.org/2000/svg" xmlns:xlink="http://www.w3.org/1999/xlink" version="1.1" class="marks" width="517" height="447" viewBox="0 0 517 447"><rect width="517" height="447" fill="white"/><g fill="none" stroke-miterlimit="10" transform="translate(47,10)"><g class="mark-group role-frame root" role="graphics-object" aria-roledescription="group mark container"><g transform="translate(0,0)"><path class="background" aria-hidden="true" d="M0.5,0.5h400v400h-400Z" stroke="#ddd"/><g><g class="mark-group role-axis" aria-hidden="true"><g transform="translate(0.5,400.5)"><path class="background" aria-hidden="true" d="M0,0h0v0h0Z" pointer-events="none"/><g><g class="mark-rule role-axis-grid" pointer-events="none"><line transform="translate(0,-400)" x2="0" y2="400" stroke="#ddd" stroke-width="1" opacity="1"/><line transform="translate(50,-400)" x2="0" y2="400" stroke="#ddd" stroke-width="1" opacity="1"/><line transform="translate(100,-400)" x2="0" y2="400" stroke="#ddd" stroke-width="1" opacity="1"/><line transform="translate(150,-400)" x2="0" y2="400" stroke="#ddd" stroke-width="1" opacity="1"/><line transform="translate(200,-400)" x2="0" y2="400" stroke="#ddd" stroke-width="1" opacity="1"/><line transform="translate(250,-400)" x2="0" y2="400" stroke="#ddd" stroke-width="1" opacity="1"/><line transform="translate(300,-400)" x2="0" y2="400" stroke="#ddd" stroke-width="1" opacity="1"/><line transform="translate(350,-400)" x2="0" y2="400" stroke="#ddd" stroke-width="1" opacity="1"/><line transform="translate(400,-400)" x2="0" y2="400" stroke="#ddd" stroke-width="1" opacity="1"/></g></g><path class="foreground" aria-hidden="true" d="" pointer-events="none" display="none"/></g></g><g class="mark-group role-axis" aria-hidden="true"><g transform="translate(0.5,0.5)"><path class="background" aria-hidden="true" d="M0,0h0v0h0Z" pointer-events="none"/><g><g class="mark-rule role-axis-grid" pointer-events="none"><line transform="translate(0,400)" x2="400" y2="0" stroke="#ddd" stroke-width="1" opacity="1"/><line transform="translate(0,364)" x2="400" y2="0" stroke="#ddd" stroke-width="1" opacity="1"/><line transform="translate(0,327)" x2="400" y2="0" stroke="#ddd" stroke-width="1" opacity="1"/><line transform="translate(0,291)" x2="400" y2="0" stroke="#ddd" stroke-width="1" opacity="1"/><line transform="translate(0,255)" x2="400" y2="0" stroke="#ddd" stroke-width="1" opacity="1"/><line transform="translate(0,218)" x2="400" y2="0" stroke="#ddd" stroke-width="1" opacity="1"/><line transform="translate(0,182)" x2="400" y2="0" stroke="#ddd" stroke-width="1" opacity="1"/><line transform="translate(0,145)" x2="400" y2="0" stroke="#ddd" stroke-width="1" opacity="1"/><line transform="translate(0,109)" x2="400" y2="0" stroke="#ddd" stroke-width="1" opacity="1"/><line transform="translate(0,73)" x2="400" y2="0" stroke="#ddd" stroke-width="1" opacity="1"/><line transform="translate(0,36)" x2="400" y2="0" stroke="#ddd" stroke-width="1" opacity="1"/><line transform="translate(0,0)" x2="400" y2="0" stroke="#ddd" stroke-width="1" opacity="1"/></g></g><path class="foreground" aria-hidden="true" d="" pointer-events="none" display="none"/></g></g><g class="mark-group role-axis" role="graphics-symbol" aria-roledescription="axis" aria-label="X-axis titled 'hour' for a linear scale with values from 4 to 20"><g transform="translate(0.5,400.5)"><path class="background" aria-hidden="true" d="M0,0h0v0h0Z" pointer-events="none"/><g><g class="mark-rule role-axis-tick" pointer-events="none"><line transform="translate(0,0)" x2="0" y2="5" stroke="#888" stroke-width="1" opacity="1"/><line transform="translate(50,0)" x2="0" y2="5" stroke="#888" stroke-width="1" opacity="1"/><line transform="translate(100,0)" x2="0" y2="5" stroke="#888" stroke-width="1" opacity="1"/><line transform="translate(150,0)" x2="0" y2="5" stroke="#888" stroke-width="1" opacity="1"/><line transform="translate(200,0)" x2="0" y2="5" stroke="#888" stroke-width="1" opacity="1"/><line transform="translate(250,0)" x2="0" y2="5" stroke="#888" stroke-width="1" opacity="1"/><line transform="translate(300,0)" x2="0" y2="5" stroke="#888" stroke-width="1" opacity="1"/><line transform="translate(350,0)" x2="0" y2="5" stroke="#888" stroke-width="1" opacity="1"/><line transform="translate(400,0)" x2="0" y2="5" stroke="#888" stroke-width="1" opacity="1"/></g><g class="mark-text role-axis-label" pointer-events="none"><text text-anchor="start" transform="translate(0,15)" font-family="sans-serif" font-size="10px" fill="#000" opacity="1">4</text><text text-anchor="middle" transform="translate(50,15)" font-family="sans-serif" font-size="10px" fill="#000" opacity="1">6</text><text text-anchor="middle" transform="translate(100,15)" font-family="sans-serif" font-size="10px" fill="#000" opacity="1">8</text><text text-anchor="middle" transform="translate(150,15)" font-family="sans-serif" font-size="10px" fill="#000" opacity="1">10</text><text text-anchor="middle" transform="translate(200,15)" font-family="sans-serif" font-size="10px" fill="#000" opacity="1">12</text><text text-anchor="middle" transform="translate(250,15)" font-family="sans-serif" font-size="10px" fill="#000" opacity="1">14</text><text text-anchor="middle" transform="translate(300,15)" font-family="sans-serif" font-size="10px" fill="#000" opacity="1">16</text><text text-anchor="middle" transform="translate(350,15)" font-family="sans-serif" font-size="10px" fill="#000" opacity="1">18</text><text text-anchor="end" transform="translate(400,15)" font-family="sans-serif" font-size="10px" fill="#000" opacity="1">20</text></g><g class="mark-rule role-axis-domain" pointer-events="none"><line transform="translate(0,0)" x2="400" y2="0" stroke="#888" stroke-width="1" opacity="1"/></g><g class="mark-text role-axis-title" pointer-events="none"><text text-anchor="middle" transform="translate(200,30)" font-family="sans-serif" font-size="11px" font-weight="bold" fill="#000" opacity="1">hour</text></g></g><path class="foreground" aria-hidden="true" d="" pointer-events="none" display="none"/></g></g><g class="mark-group role-axis" role="graphics-symbol" aria-roledescription="axis" aria-label="Y-axis titled 'mean' for a linear scale with values from 0.0 to 0.6"><g transform="translate(0.5,0.5)"><path class="background" aria-hidden="true" d="M0,0h0v0h0Z" pointer-events="none"/><g><g class="mark-rule role-axis-tick" pointer-events="none"><line transform="translate(0,400)" x2="-5" y2="0" stroke="#888" stroke-width="1" opacity="1"/><line transform="translate(0,364)" x2="-5" y2="0" stroke="#888" stroke-width="1" opacity="1"/><line transform="translate(0,327)" x2="-5" y2="0" stroke="#888" stroke-width="1" opacity="1"/><line transform="translate(0,291)" x2="-5" y2="0" stroke="#888" stroke-width="1" opacity="1"/><line transform="translate(0,255)" x2="-5" y2="0" stroke="#888" stroke-width="1" opacity="1"/><line transform="translate(0,218)" x2="-5" y2="0" stroke="#888" stroke-width="1" opacity="1"/><line transform="translate(0,182)" x2="-5" y2="0" stroke="#888" stroke-width="1" opacity="1"/><line transform="translate(0,145)" x2="-5" y2="0" stroke="#888" stroke-width="1" opacity="1"/><line transform="translate(0,109)" x2="-5" y2="0" stroke="#888" stroke-width="1" opacity="1"/><line transform="translate(0,73)" x2="-5" y2="0" stroke="#888" stroke-width="1" opacity="1"/><line transform="translate(0,36)" x2="-5" y2="0" stroke="#888" stroke-width="1" opacity="1"/><line transform="translate(0,0)" x2="-5" y2="0" stroke="#888" stroke-width="1" opacity="1"/></g><g class="mark-text role-axis-label" pointer-events="none"><text text-anchor="end" transform="translate(-7,403)" font-family="sans-serif" font-size="10px" fill="#000" opacity="1">0.00</text><text text-anchor="end" transform="translate(-7,366.6363636363636)" font-family="sans-serif" font-size="10px" fill="#000" opacity="1">0.05</text><text text-anchor="end" transform="translate(-7,330.27272727272725)" font-family="sans-serif" font-size="10px" fill="#000" opacity="1">0.10</text><text text-anchor="end" transform="translate(-7,293.90909090909093)" font-family="sans-serif" font-size="10px" fill="#000" opacity="1">0.15</text><text text-anchor="end" transform="translate(-7,257.5454545454545)" font-family="sans-serif" font-size="10px" fill="#000" opacity="1">0.20</text><text text-anchor="end" transform="translate(-7,221.18181818181816)" font-family="sans-serif" font-size="10px" fill="#000" opacity="1">0.25</text><text text-anchor="end" transform="translate(-7,184.81818181818184)" font-family="sans-serif" font-size="10px" fill="#000" opacity="1">0.30</text><text text-anchor="end" transform="translate(-7,148.4545454545455)" font-family="sans-serif" font-size="10px" fill="#000" opacity="1">0.35</text><text text-anchor="end" transform="translate(-7,112.09090909090908)" font-family="sans-serif" font-size="10px" fill="#000" opacity="1">0.40</text><text text-anchor="end" transform="translate(-7,75.72727272727275)" font-family="sans-serif" font-size="10px" fill="#000" opacity="1">0.45</text><text text-anchor="end" transform="translate(-7,39.363636363636374)" font-family="sans-serif" font-size="10px" fill="#000" opacity="1">0.50</text><text text-anchor="end" transform="translate(-7,3)" font-family="sans-serif" font-size="10px" fill="#000" opacity="1">0.55</text></g><g class="mark-rule role-axis-domain" pointer-events="none"><line transform="translate(0,400)" x2="0" y2="-400" stroke="#888" stroke-width="1" opacity="1"/></g><g class="mark-text role-axis-title" pointer-events="none"><text text-anchor="middle" transform="translate(-30.462890625,200) rotate(-90) translate(0,-2)" font-family="sans-serif" font-size="11px" font-weight="bold" fill="#000" opacity="1">mean</text></g></g><path class="foreground" aria-hidden="true" d="" pointer-events="none" display="none"/></g></g><g class="mark-rect role-mark marks" role="graphics-object" aria-roledescription="rect mark container"><path aria-label="hour: 5; mean: 0.0624333199292; type: male" role="graphics-symbol" aria-roledescription="bar" d="M22.5,354.593949142399h5v45.406050857600974h-5Z" fill="#f58518"/><path aria-label="hour: 6; mean: 0.17873009586; type: male" role="graphics-symbol" aria-roledescription="bar" d="M47.5,270.0144757379892h5v129.9855242620108h-5Z" fill="#f58518"/><path aria-label="hour: 7; mean: 0.296836819402; type: male" role="graphics-symbol" aria-roledescription="bar" d="M72.5,184.1186767988273h5v215.8813232011727h-5Z" fill="#f58518"/><path aria-label="hour: 8; mean: 0.372020162353; type: male" role="graphics-symbol" aria-roledescription="bar" d="M97.5,129.439881925266h5v270.56011807473396h-5Z" fill="#f58518"/><path aria-label="hour: 9; mean: 0.395498111041; type: male" role="graphics-symbol" aria-roledescription="bar" d="M122.5,112.36501015208735h5v287.63498984791266h-5Z" fill="#f58518"/><path aria-label="hour: 10; mean: 0.377523782862; type: male" role="graphics-symbol" aria-roledescription="bar" d="M147.5,125.43724882762261h5v274.5627511723774h-5Z" fill="#f58518"/><path aria-label="hour: 11; mean: 0.376331020625; type: male" role="graphics-symbol" aria-roledescription="bar" d="M172.5,126.30471227285173h5v273.6952877271483h-5Z" fill="#f58518"/><path aria-label="hour: 12; mean: 0.368280167556; type: male" role="graphics-symbol" aria-roledescription="bar" d="M197.5,132.15987814085173h5v267.84012185914827h-5Z" fill="#f58518"/><path aria-label="hour: 13; mean: 0.352459465784; type: male" role="graphics-symbol" aria-roledescription="bar" d="M222.5,143.66584306646172h5v256.3341569335383h-5Z" fill="#f58518"/><path aria-label="hour: 14; mean: 0.345381843661; type: male" role="graphics-symbol" aria-roledescription="bar" d="M247.5,148.81320461054068h5v251.18679538945932h-5Z" fill="#f58518"/><path aria-label="hour: 15; mean: 0.350499276277; type: male" role="graphics-symbol" aria-roledescription="bar" d="M272.5,145.09143543491928h5v254.90856456508072h-5Z" fill="#f58518"/><path aria-label="hour: 16; mean: 0.335312080461; type: male" role="graphics-symbol" aria-roledescription="bar" d="M297.5,156.13666875542384h5v243.86333124457616h-5Z" fill="#f58518"/><path aria-label="hour: 17; mean: 0.261752183195; type: male" role="graphics-symbol" aria-roledescription="bar" d="M322.5,209.63477585851055h5v190.36522414148945h-5Z" fill="#f58518"/><path aria-label="hour: 18; mean: 0.105548139472; type: male" role="graphics-symbol" aria-roledescription="bar" d="M347.5,323.2377167476826h5v76.76228325231739h-5Z" fill="#f58518"/><path aria-label="hour: 5; mean: 0.0208789700141; type: female" role="graphics-symbol" aria-roledescription="bar" d="M22.5,339.4092436776276h5v15.184705464771412h-5Z" fill="#4c78a8"/><path aria-label="hour: 6; mean: 0.0582900302797; type: female" role="graphics-symbol" aria-roledescription="bar" d="M47.5,227.62172644366743h5v42.39274929432176h-5Z" fill="#4c78a8"/><path aria-label="hour: 7; mean: 0.0870971781244; type: female" role="graphics-symbol" aria-roledescription="bar" d="M72.5,120.77527452653212h5v63.34340227229518h-5Z" fill="#4c78a8"/><path aria-label="hour: 8; mean: 0.094372407287; type: female" role="graphics-symbol" aria-roledescription="bar" d="M97.5,60.80540389832261h5v68.6344780269434h-5Z" fill="#4c78a8"/><path aria-label="hour: 9; mean: 0.10464868363; type: female" role="graphics-symbol" aria-roledescription="bar" d="M122.5,36.256876602820974h5v76.10813354926637h-5Z" fill="#4c78a8"/><path aria-label="hour: 10; mean: 0.0921847618612; type: female" role="graphics-symbol" aria-roledescription="bar" d="M147.5,58.393785655816984h5v67.04346317180563h-5Z" fill="#4c78a8"/><path aria-label="hour: 11; mean: 0.0916777587795; type: female" role="graphics-symbol" aria-roledescription="bar" d="M172.5,59.62997861506132h5v66.67473365779041h-5Z" fill="#4c78a8"/><path aria-label="hour: 12; mean: 0.0943339848375; type: female" role="graphics-symbol" aria-roledescription="bar" d="M197.5,63.55334371354595h5v68.60653442730577h-5Z" fill="#4c78a8"/><path aria-label="hour: 13; mean: 0.094019230122; type: female" role="graphics-symbol" aria-roledescription="bar" d="M222.5,75.2882211595404h5v68.37762190692132h-5Z" fill="#4c78a8"/><path aria-label="hour: 14; mean: 0.095926105035; type: female" role="graphics-symbol" aria-roledescription="bar" d="M247.5,79.0487645851143h5v69.76444002542638h-5Z" fill="#4c78a8"/><path aria-label="hour: 15; mean: 0.107147827302; type: female" role="graphics-symbol" aria-roledescription="bar" d="M272.5,67.16574285186651h5v77.92569258305276h-5Z" fill="#4c78a8"/><path aria-label="hour: 16; mean: 0.0937991059632; type: female" role="graphics-symbol" aria-roledescription="bar" d="M297.5,87.9191371458322h5v68.21753160959165h-5Z" fill="#4c78a8"/><path aria-label="hour: 17; mean: 0.090513044728; type: female" role="graphics-symbol" aria-roledescription="bar" d="M322.5,143.80710696542815h5v65.8276688930824h-5Z" fill="#4c78a8"/><path aria-label="hour: 18; mean: 0.0303290829843; type: female" role="graphics-symbol" aria-roledescription="bar" d="M347.5,301.18020185000137h5v22.057514897681244h-5Z" fill="#4c78a8"/></g><g class="mark-group role-legend" role="graphics-symbol" aria-roledescription="legend" aria-label="Symbol legend titled 'type' for fill color with 2 values: female, male"><g transform="translate(418,0)"><path class="background" aria-hidden="true" d="M0,0h47v40h-47Z" pointer-events="none"/><g><g class="mark-group role-legend-entry"><g transform="translate(0,16)"><path class="background" aria-hidden="true" d="M0,0h0v0h0Z" pointer-events="none"/><g><g class="mark-group role-scope" role="graphics-object" aria-roledescription="group mark container"><g transform="translate(0,0)"><path class="background" aria-hidden="true" d="M0,0h46.0146484375v11h-46.0146484375Z" pointer-events="none" opacity="1"/><g><g class="mark-symbol role-legend-symbol" pointer-events="none"><path transform="translate(6,6)" d="M-5,-5h10v10h-10Z" fill="#4c78a8" stroke-width="1.5" opacity="1"/></g><g class="mark-text role-legend-label" pointer-events="none"><text text-anchor="start" transform="translate(16,9)" font-family="sans-serif" font-size="10px" fill="#000" opacity="1">female</text></g></g><path class="foreground" aria-hidden="true" d="" pointer-events="none" display="none"/></g><g transform="translate(0,13)"><path class="background" aria-hidden="true" d="M0,0h46.0146484375v11h-46.0146484375Z" pointer-events="none" opacity="1"/><g><g class="mark-symbol role-legend-symbol" pointer-events="none"><path transform="translate(6,6)" d="M-5,-5h10v10h-10Z" fill="#f58518" stroke-width="1.5" opacity="1"/></g><g class="mark-text role-legend-label" pointer-events="none"><text text-anchor="start" transform="translate(16,9)" font-family="sans-serif" font-size="10px" fill="#000" opacity="1">male</text></g></g><path class="foreground" aria-hidden="true" d="" pointer-events="none" display="none"/></g></g></g><path class="foreground" aria-hidden="true" d="" pointer-events="none" display="none"/></g></g><g class="mark-text role-legend-title" pointer-events="none"><text text-anchor="start" transform="translate(0,9)" font-family="sans-serif" font-size="11px" font-weight="bold" fill="#000" opacity="1">type</text></g></g><path class="foreground" aria-hidden="true" d="" pointer-events="none" display="none"/></g></g></g><path class="foreground" aria-hidden="true" d="" display="none"/></g></g></g></svg>