<svg xmlns="http://www.w3.org/2000/svg" xmlns:xlink="http://www.w3.org/1999/xlink" version="1.1" class="marks" width="509" height="447" viewBox="0 0 509 447"><rect width="509" height="447" fill="white"/><g fill="none" stroke-miterlimit="10" transform="translate(39,10)"><g class="mark-group role-frame root" role="graphics-object" aria-roledescription="group mark container"><g transform="translate(0,0)"><path class="background" aria-hidden="true" d="M0.5,0.5h400v400h-400Z" stroke="#ddd"/><g><g class="mark-group role-axis" aria-hidden="true"><g transform="translate(0.5,400.5)"><path class="background" aria-hidden="true" d="M0,0h0v0h0Z" pointer-events="none"/><g><g class="mark-rule role-axis-grid" pointer-events="none"><line transform="translate(0,-400)" x2="0" y2="400" stroke="#ddd" stroke-width="1" opacity="1"/><line transform="translate(29,-400)" x2="0" y2="400" stroke="#ddd" stroke-width="1" opacity="1"/><line transform="translate(57,-400)" x2="0" y2="400" stroke="#ddd" stroke-width="1" opacity="1"/><line transform="translate(86,-400)" x2="0" y2="400" stroke="#ddd" stroke-width="1" opacity="1"/><line transform="translate(114,-400)" x2="0" y2="400" stroke="#ddd" stroke-width="1" opacity="1"/><line transform="translate(143,-400)" x2="0" y2="400" stroke="#ddd" stroke-width="1" opacity="1"/><line transform="translate(171,-400)" x2="0" y2="400" stroke="#ddd" stroke-width="1" opacity="1"/><line transform="translate(200,-400)" x2="0" y2="400" stroke="#ddd" stroke-width="1" opacity="1"/><line transform="translate(229,-400)" x2="0" y2="400" stroke="#ddd" stroke-width="1" opacity="1"/><line transform="translate(257,-400)" x2="0" y2="400" stroke="#ddd" stroke-width="1" opacity="1"/><line transform="translate(286,-400)" x2="0" y2="400" stroke="#ddd" stroke-width="1" opacity="1"/><line transform="translate(314,-400)" x2="0" y2="400" stroke="#ddd" stroke-width="1" opacity="1"/><line transform="translate(343,-400)" x2="0" y2="400" stroke="#ddd" stroke-width="1" opacity="1"/><line transform="translate(371,-400)" x2="0" y2="400" stroke="#ddd" stroke-width="1" opacity="1"/><line transform="translate(400,-400)" x2="0" y2="400" stroke="#ddd" stroke-width="1" opacity="1"/></g></g><path class="foreground" aria-hidden="true" d="" pointer-events="none" display="none"/></g></g><g class="mark-group role-axis" aria-hidden="true"><g transform="translate(0.5,0.5)"><path class="background" aria-hidden="true" d="M0,0h0v0h0Z" pointer-events="none"/><g><g class="mark-rule role-axis-grid" pointer-events="none"><line transform="translate(0,400)" x2="400" y2="0" stroke="#ddd" stroke-width="1" opacity="1"/><line transform="translate(0,367)" x2="400" y2="0" stroke="#ddd" stroke-width="1" opacity="1"/><line transform="translate(0,333)" x2="400" y2="0" stroke="#ddd" stroke-width="1" opacity="1"/><line transform="translate(0,300)" x2="400" y2="0" stroke="#ddd" stroke-width="1" opacity="1"/><line transform="translate(0,267)" x2="400" y2="0" stroke="#ddd" stroke-width="1" opacity="1"/><line transform="translate(0,233)" x2="400" y2="0" stroke="#ddd" stroke-width="1" opacity="1"/><line transform="translate(0,200)" x2="400" y2="0" stroke="#ddd" stroke-width="1" opacity="1"/><line transform="translate(0,167)" x2="400" y2="0" stroke="#ddd" stroke-width="1" opacity="1"/><line transform="translate(0,133)" x2="400" y2="0" stroke="#ddd" stroke-width="1" opacity="1"/><line transform="translate(0,100)" x2="400" y2="0" stroke="#ddd" stroke-width="1" opacity="1"/><line transform="translate(0,67)" x2="400" y2="0" stroke="#ddd" stroke-width="1" opacity="1"/><line transform="translate(0,33)" x2="400" y2="0" stroke="#ddd" stroke-width="1" opacity="1"/><line transform="translate(0,0)" x2="400" y2="0" stroke="#ddd" stroke-width="1" opacity="1"/></g></g><path class="foreground" aria-hidden="true" d="" pointer-events="none" display="none"/></g></g><g class="mark-group role-axis" role="graphics-symbol" aria-roledescription="axis" aria-label="X-axis titled 'calls_per_hour' for a linear scale with values from −2 to 26"><g transform="translate(0.5,400.5)"><path class="background" aria-hidden="true" d="M0,0h0v0h0Z" pointer-events="none"/><g><g class="mark-rule role-axis-tick" pointer-events="none"><line transform="translate(0,0)" x2="0" y2="5" stroke="#888" stroke-width="1" opacity="1"/><line transform="translate(29,0)" x2="0" y2="5" stroke="#888" stroke-width="1" opacity="1"/><line transform="translate(57,0)" x2="0" y2="5" stroke="#888" stroke-width="1" opacity="1"/><line transform="translate(86,0)" x2="0" y2="5" stroke="#888" stroke-width="1" opacity="1"/><line transform="translate(114,0)" x2="0" y2="5" stroke="#888" stroke-width="1" opacity="1"/><line transform="translate(143,0)" x2="0" y2="5" stroke="#888" stroke-width="1" opacity="1"/><line transform="translate(171,0)" x2="0" y2="5" stroke="#888" stroke-width="1" opacity="1"/><line transform="translate(200,0)" x2="0" y2="5" stroke="#888" stroke-width="1" opacity="1"/><line transform="translate(229,0)" x2="0" y2="5" stroke="#888" stroke-width="1" opacity="1"/><line transform="translate(257,0)" x2="0" y2="5" stroke="#888" stroke-width="1" opacity="1"/><line transform="translate(286,0)" x2="0" y2="5" stroke="#888" stroke-width="1" opacity="1"/><line transform="translate(314,0)" x2="0" y2="5" stroke="#888" stroke-width="1" opacity="1"/><line transform="translate(343,0)" x2="0" y2="5" stroke="#888" stroke-width="1" opacity="1"/><line transform="translate(371,0)" x2="0" y2="5" stroke="#888" stroke-width="1" opacity="1"/><line transform="translate(400,0)" x2="0" y2="5" stroke="#888" stroke-width="1" opacity="1"/></g><g class="mark-text role-axis-label" pointer-events="none"><text text-anchor="start" transform="translate(0,15)" font-family="sans-serif" font-size="10px" fill="#000" opacity="1">−2</text><text text-anchor="middle" transform="translate(28.57142857142857,15)" font-family="sans-serif" font-size="10px" fill="#000" opacity="1">0</text><text text-anchor="middle" transform="translate(57.14285714285714,15)" font-family="sans-serif" font-size="10px" fill="#000" opacity="1">2</text><text text-anchor="middle" transform="translate(85.71428571428571,15)" font-family="sans-serif" font-size="10px" fill="#000" opacity="1">4</text><text text-anchor="middle" transform="translate(114.28571428571428,15)" font-family="sans-serif" font-size="10px" fill="#000" opacity="1">6</text><text text-anchor="middle" transform="translate(142.85714285714286,15)" font-family="sans-serif" font-size="10px" fill="#000" opacity="1">8</text><text text-anchor="middle" transform="translate(171.42857142857142,15)" font-family="sans-serif" font-size="10px" fill="#000" opacity="1">10</text><text text-anchor="middle" transform="translate(200,15)" font-family="sans-serif" font-size="10px" fill="#000" opacity="1">12</text><text text-anchor="middle" transform="translate(228.57142857142856,15)" font-family="sans-serif" font-size="10px" fill="#000" opacity="1">14</text><text text-anchor="middle" transform="translate(257.14285714285717,15)" font-family="sans-serif" font-size="10px" fill="#000" opacity="1">16</text><text text-anchor="middle" transform="translate(285.7142857142857,15)" font-family="sans-serif" font-size="10px" fill="#000" opacity="1">18</text><text text-anchor="middle" transform="translate(314.2857142857143,15)" font-family="sans-serif" font-size="10px" fill="#000" opacity="1">20</text><text text-anchor="middle" transform="translate(342.85714285714283,15)" font-family="sans-serif" font-size="10px" fill="#000" opacity="1">22</text><text text-anchor="middle" transform="translate(371.42857142857144,15)" font-family="sans-serif" font-size="10px" fill="#000" opacity="1">24</text><text text-anchor="end" transform="translate(400,15)" font-family="sans-serif" font-size="10px" fill="#000" opacity="1">26</text></g><g class="mark-rule role-axis-domain" pointer-events="none"><line transform="translate(0,0)" x2="400" y2="0" stroke="#888" stroke-width="1" opacity="1"/></g><g class="mark-text role-axis-title" pointer-events="none"><text text-anchor="middle" transform="translate(200,30)" font-family="sans-serif" font-size="11px" font-weight="bold" fill="#000" opacity="1">calls_per_hour</text></g></g><path class="foreground" aria-hidden="true" d="" pointer-events="none" display="none"/></g></g><g class="mark-group role-axis" role="graphics-symbol" aria-roledescription="axis" aria-label="Y-axis titled 'median_calls' for a linear scale with values from 0 to 24"><g transform="translate(0.5,0.5)"><path class="background" aria-hidden="true" d="M0,0h0v0h0Z" pointer-events="none"/><g><g class="mark-rule role-axis-tick" pointer-events="none"><line transform="translate(0,400)" x2="-5" y2="0" stroke="#888" stroke-width="1" opacity="1"/><line transform="translate(0,367)" x2="-5" y2="0" stroke="#888" stroke-width="1" opacity="1"/><line transform="translate(0,333)" x2="-5" y2="0" stroke="#888" stroke-width="1" opacity="1"/><line transform="translate(0,300)" x2="-5" y2="0" stroke="#888" stroke-width="1" opacity="1"/><line transform="translate(0,267)" x2="-5" y2="0" stroke="#888" stroke-width="1" opacity="1"/><line transform="translate(0,233)" x2="-5" y2="0" stroke="#888" stroke-width="1" opacity="1"/><line transform="translate(0,200)" x2="-5" y2="0" stroke="#888" stroke-width="1" opacity="1"/><line transform="translate(0,167)" x2="-5" y2="0" stroke="#888" stroke-width="1" opacity="1"/><line transform="translate(0,133)" x2="-5" y2="0" stroke="#888" stroke-width="1" opacity="1"/><line transform="translate(0,100)" x2="-5" y2="0" stroke="#888" stroke-width="1" opacity="1"/><line transform="translate(0,67)" x2="-5" y2="0" stroke="#888" stroke-width="1" opacity="1"/><line transform="translate(0,33)" x2="-5" y2="0" stroke="#888" stroke-width="1" opacity="1"/><line transform="translate(0,0)" x2="-5" y2="0" stroke="#888" stroke-width="1" opacity="1"/></g><g class="mark-text role-axis-label" pointer-events="none"><text text-anchor="end" transform="translate(-7,403)" font-family="sans-serif" font-size="10px" fill="#000" opacity="1">0</text><text text-anchor="end" transform="translate(-7,369.66666666666663)" font-family="sans-serif" font-size="10px" fill="#000" opacity="1">2</text><text text-anchor="end" transform="translate(-7,336.33333333333337)" font-family="sans-serif" font-size="10px" fill="#000" opacity="1">4</text><text text-anchor="end" transform="translate(-7,303)" font-family="sans-serif" font-size="10px" fill="#000" opacity="1">6</text><text text-anchor="end" transform="translate(-7,269.6666666666667)" font-family="sans-serif" font-size="10px" fill="#000" opacity="1">8</text><text text-anchor="end" transform="translate(-7,236.33333333333331)" font-family="sans-serif" font-size="10px" fill="#000" opacity="1">10</text><text text-anchor="end" transform="translate(-7,203)" font-family="sans-serif" font-size="10px" fill="#000" opacity="1">12</text><text text-anchor="end" transform="translate(-7,169.66666666666666)" font-family="sans-serif" font-size="10px" fill="#000" opacity="1">14</text><text text-anchor="end" transform="translate(-7,136.33333333333334)" font-family="sans-serif" font-size="10px" fill="#000" opacity="1">16</text><text text-anchor="end" transform="translate(-7,103)" font-family="sans-serif" font-size="10px" fill="#000" opacity="1">18</text><text text-anchor="end" transform="translate(-7,69.66666666666666)" font-family="sans-serif" font-size="10px" fill="#000" opacity="1">20</text><text text-anchor="end" transform="translate(-7,36.33333333333335)" font-family="sans-serif" font-size="10px" fill="#000" opacity="1">22</text><text text-anchor="end" transform="translate(-7,3)" font-family="sans-serif" font-size="10px" fill="#000" opacity="1">24</text></g><g class="mark-rule role-axis-domain" pointer-events="none"><line transform="translate(0,400)" x2="0" y2="-400" stroke="#888" stroke-width="1" opacity="1"/></g><g class="mark-text role-axis-title" pointer-events="none"><text text-anchor="middle" transform="translate(-22.123046875,200) rotate(-90) translate(0,-2)" font-family="sans-serif" font-size="11px" font-weight="bold" fill="#000" opacity="1">median_calls</text></g></g><path class="foreground" aria-hidden="true" d="" pointer-events="none" display="none"/></g></g><g class="mark-rect role-mark marks" role="graphics-object" aria-roledescription="rect mark container"><path aria-label="calls_per_hour: 0; median_calls: 0; type: male" role="graphics-symbol" aria-roledescription="bar" d="M26.07142857142857,400h5v0h-5Z" fill="#f58518"/><path aria-label="calls_per_hour: 1; median_calls: 1; type: male" role="graphics-symbol" aria-roledescription="bar" d="M40.357142857142854,383.33333333333337h5v16.66666666666663h-5Z" fill="#f58518"/><path aria-label="calls_per_hour: 2; median_calls: 2; type: male" role="graphics-symbol" aria-roledescription="bar" d="M54.64285714285714,366.66666666666663h5v33.33333333333337h-5Z" fill="#f58518"/><path aria-label="calls_per_hour: 3; median_calls: 3; type: male" role="graphics-symbol" aria-roledescription="bar" d="M68.92857142857143,350h5v50h-5Z" fill="#f58518"/><path aria-label="calls_per_hour: 4; median_calls: 3; type: male" role="graphics-symbol" aria-roledescription="bar" d="M83.21428571428571,350h5v50h-5Z" fill="#f58518"/><path aria-label="calls_per_hour: 5; median_calls: 4; type: male" role="graphics-symbol" aria-roledescription="bar" d="M97.5,333.33333333333337h5v66.66666666666663h-5Z" fill="#f58518"/><path aria-label="calls_per_hour: 6; median_calls: 6; type: male" role="graphics-symbol" aria-roledescription="bar" d="M111.78571428571428,300h5v100h-5Z" fill="#f58518"/><path aria-label="calls_per_hour: 7; median_calls: 6; type: male" role="graphics-symbol" aria-roledescription="bar" d="M126.07142857142858,300h5v100h-5Z" fill="#f58518"/><path aria-label="calls_per_hour: 8; median_calls: 7; type: male" role="graphics-symbol" aria-roledescription="bar" d="M140.35714285714286,283.3333333333333h5v116.66666666666669h-5Z" fill="#f58518"/><path aria-label="calls_per_hour: 9; median_calls: 7.5; type: male" role="graphics-symbol" aria-roledescription="bar" d="M154.64285714285714,275h5v125h-5Z" fill="#f58518"/><path aria-label="calls_per_hour: 10; median_calls: 8; type: male" role="graphics-symbol" aria-roledescription="bar" d="M168.92857142857142,266.6666666666667h5v133.33333333333331h-5Z" fill="#f58518"/><path aria-label="calls_per_hour: 11; median_calls: 10; type: male" role="graphics-symbol" aria-roledescription="bar" d="M183.21428571428572,233.33333333333331h5v166.66666666666669h-5Z" fill="#f58518"/><path aria-label="calls_per_hour: 12; median_calls: 11; type: male" role="graphics-symbol" aria-roledescription="bar" d="M197.5,216.66666666666669h5v183.33333333333331h-5Z" fill="#f58518"/><path aria-label="calls_per_hour: 13; median_calls: 10; type: male" role="graphics-symbol" aria-roledescription="bar" d="M211.78571428571428,233.33333333333331h5v166.66666666666669h-5Z" fill="#f58518"/><path aria-label="calls_per_hour: 14; median_calls: 11; type: male" role="graphics-symbol" aria-roledescription="bar" d="M226.07142857142856,216.66666666666669h5v183.33333333333331h-5Z" fill="#f58518"/><path aria-label="calls_per_hour: 15; median_calls: 11; type: male" role="graphics-symbol" aria-roledescription="bar" d="M240.35714285714283,216.66666666666669h5v183.33333333333331h-5Z" fill="#f58518"/><path aria-label="calls_per_hour: 16; median_calls: 14; type: male" role="graphics-symbol" aria-roledescription="bar" d="M254.64285714285717,166.66666666666666h5v233.33333333333334h-5Z" fill="#f58518"/><path aria-label="calls_per_hour: 17; median_calls: 14; type: male" role="graphics-symbol" aria-roledescription="bar" d="M268.92857142857144,166.66666666666666h5v233.33333333333334h-5Z" fill="#f58518"/><path aria-label="calls_per_hour: 18; median_calls: 14; type: male" role="graphics-symbol" aria-roledescription="bar" d="M283.2142857142857,166.66666666666666h5v233.33333333333334h-5Z" fill="#f58518"/><path aria-label="calls_per_hour: 19; median_calls: 15; type: male" role="graphics-symbol" aria-roledescription="bar" d="M297.5,150h5v250h-5Z" fill="#f58518"/><path aria-label="calls_per_hour: 20; median_calls: 18; type: male" role="graphics-symbol" aria-roledescription="bar" d="M311.7857142857143,100h5v300h-5Z" fill="#f58518"/><path aria-label="calls_per_hour: 22; median_calls: 17; type: male" role="graphics-symbol" aria-roledescription="bar" d="M340.35714285714283,116.66666666666666h5v283.33333333333337h-5Z" fill="#f58518"/><path aria-label="calls_per_hour: 24; median_calls: 18; type: male" role="graphics-symbol" aria-roledescription="bar" d="M368.92857142857144,100h5v300h-5Z" fill="#f58518"/><path aria-label="calls_per_hour: 0; median_calls: 0; type: female" role="graphics-symbol" aria-roledescription="bar" d="M26.07142857142857,400h5v0h-5Z" fill="#4c78a8"/><path aria-label="calls_per_hour: 1; median_calls: 0; type: female" role="graphics-symbol" aria-roledescription="bar" d="M40.357142857142854,383.33333333333337h5v0h-5Z" fill="#4c78a8"/><path aria-label="calls_per_hour: 2; median_calls: 0; type: female" role="graphics-symbol" aria-roledescription="bar" d="M54.64285714285714,366.66666666666663h5v0h-5Z" fill="#4c78a8"/><path aria-label="calls_per_hour: 3; median_calls: 0; type: female" role="graphics-symbol" aria-roledescription="bar" d="M68.92857142857143,350h5v0h-5Z" fill="#4c78a8"/><path aria-label="calls_per_hour: 4; median_calls: 1; type: female" role="graphics-symbol" aria-roledescription="bar" d="M83.21428571428571,333.33333333333337h5v16.66666666666663h-5Z" fill="#4c78a8"/><path aria-label="calls_per_hour: 5; median_calls: 1; type: female" role="graphics-symbol" aria-roledescription="bar" d="M97.5,316.66666666666663h5v16.666666666666742h-5Z" fill="#4c78a8"/><path aria-label="calls_per_hour: 6; median_calls: 0; type: female" role="graphics-symbol" aria-roledescription="bar" d="M111.78571428571428,300h5v0h-5Z" fill="#4c78a8"/><path aria-label="calls_per_hour: 7; median_calls: 1; type: female" role="graphics-symbol" aria-roledescription="bar" d="M126.07142857142858,283.3333333333333h5v16.666666666666686h-5Z" fill="#4c78a8"/><path aria-label="calls_per_hour: 8; median_calls: 1; type: female" role="graphics-symbol" aria-roledescription="bar" d="M140.35714285714286,266.6666666666667h5v16.66666666666663h-5Z" fill="#4c78a8"/><path aria-label="calls_per_hour: 9; median_calls: 1.5; type: female" role="graphics-symbol" aria-roledescription="bar" d="M154.64285714285714,250h5v25h-5Z" fill="#4c78a8"/><path aria-label="calls_per_hour: 10; median_calls: 2; type: female" role="graphics-symbol" aria-roledescription="bar" d="M168.92857142857142,233.33333333333331h5v33.33333333333337h-5Z" fill="#4c78a8"/><path aria-label="calls_per_hour: 11; median_calls: 1; type: female" role="graphics-symbol" aria-roledescription="bar" d="M183.21428571428572,216.66666666666669h5v16.66666666666663h-5Z" fill="#4c78a8"/><path aria-label="calls_per_hour: 12; median_calls: 1; type: female" role="graphics-symbol" aria-roledescription="bar" d="M197.5,200h5v16.666666666666686h-5Z" fill="#4c78a8"/><path aria-label="calls_per_hour: 13; median_calls: 3; type: female" role="graphics-symbol" aria-roledescription="bar" d="M211.78571428571428,183.33333333333334h5v49.99999999999997h-5Z" fill="#4c78a8"/><path aria-label="calls_per_hour: 14; median_calls: 3; type: female" role="graphics-symbol" aria-roledescription="bar" d="M226.07142857142856,166.66666666666666h5v50.00000000000003h-5Z" fill="#4c78a8"/><path aria-label="calls_per_hour: 15; median_calls: 4; type: female" role="graphics-symbol" aria-roledescription="bar" d="M240.35714285714283,150h5v66.66666666666669h-5Z" fill="#4c78a8"/><path aria-label="calls_per_hour: 16; median_calls: 2; type: female" role="graphics-symbol" aria-roledescription="bar" d="M254.64285714285717,133.33333333333334h5v33.333333333333314h-5Z" fill="#4c78a8"/><path aria-label="calls_per_hour: 17; median_calls: 3; type: female" role="graphics-symbol" aria-roledescription="bar" d="M268.92857142857144,116.66666666666666h5v50h-5Z" fill="#4c78a8"/><path aria-label="calls_per_hour: 18; median_calls: 4; type: female" role="graphics-symbol" aria-roledescription="bar" d="M283.2142857142857,100h5v66.66666666666666h-5Z" fill="#4c78a8"/><path aria-label="calls_per_hour: 19; median_calls: 4; type: female" role="graphics-symbol" aria-roledescription="bar" d="M297.5,83.33333333333334h5v66.66666666666666h-5Z" fill="#4c78a8"/><path aria-label="calls_per_hour: 20; median_calls: 2; type: female" role="graphics-symbol" aria-roledescription="bar" d="M311.7857142857143,66.66666666666666h5v33.33333333333334h-5Z" fill="#4c78a8"/><path aria-label="calls_per_hour: 22; median_calls: 5; type: female" role="graphics-symbol" aria-roledescription="bar" d="M340.35714285714283,33.33333333333335h5v83.33333333333331h-5Z" fill="#4c78a8"/><path aria-label="calls_per_hour: 24; median_calls: 6; type: female" role="graphics-symbol" aria-roledescription="bar" d="M368.92857142857144,0h5v100h-5Z" fill="#4c78a8"/></g><g class="mark-group role-legend" role="graphics-symbol" aria-roledescription="legend" aria-label="Symbol legend titled 'type' for fill color with 2 values: female, male"><g transform="translate(418,0)"><path class="background" aria-hidden="true" d="M0,0h47v40h-47Z" pointer-events="none"/><g><g class="mark-group role-legend-entry"><g transform="translate(0,16)"><path class="background" aria-hidden="true" d="M0,0h0v0h0Z" pointer-events="none"/><g><g class="mark-group role-scope" role="graphics-object" aria-roledescription="group mark container"><g transform="translate(0,0)"><path class="background" aria-hidden="true" d="M0,0h46.0146484375v11h-46.0146484375Z" pointer-events="none" opacity="1"/><g><g class="mark-symbol role-legend-symbol" pointer-events="none"><path transform="translate(6,6)" d="M-5,-5h10v10h-10Z" fill="#4c78a8" stroke-width="1.5" opacity="1"/></g><g class="mark-text role-legend-label" pointer-events="none"><text text-anchor="start" transform="translate(16,9)" font-family="sans-serif" font-size="10px" fill="#000" opacity="1">female</text></g></g><path class="foreground" aria-hidden="true" d="" pointer-events="none" display="none"/></g><g transform="translate(0,13)"><path class="background" aria-hidden="true" d="M0,0h46.0146484375v11h-46.0146484375Z" pointer-events="none" opacity="1"/><g><g class="mark-symbol role-legend-symbol" pointer-events="none"><path transform="translate(6,6)" d="M-5,-5h10v10h-10Z" fill="#f58518" stroke-width="1.5" opacity="1"/></g><g class="mark-text role-legend-label" pointer-events="none"><text text-anchor="start" transform="translate(16,9)" font-family="sans-serif" font-size="10px" fill="#000" opacity="1">male</text></g></g><path class="foreground" aria-hidden="true" d="" pointer-events="none" display="none"/></g></g></g><path class="foreground" aria-hidden="true" d="" pointer-events="none" display="none"/></g></g><g class="mark-text role-legend-title" pointer-events="none"><text text-anchor="start" transform="translate(0,9)" font-family="sans-serif" font-size="11px" font-weight="bold" fill="#000" opacity="1">type</text></g></g><path class="foreground" aria-hidden="true" d="" pointer-events="none" display="none"/></g></g></g><path class="foreground" aria-hidden="true" d="" display="none"/></g></g></g></svg>