<svg xmlns="http://www.w3.org/2000/svg" xmlns:xlink="http://www.w3.org/1999/xlink" version="1.1" class="marks" width="467" height="513" viewBox="0 0 467 513"><rect width="467" height="513" fill="white"/><g fill="none" stroke-miterlimit="10" transform="translate(6,6)"><g class="mark-group role-frame root" role="graphics-object" aria-roledescription="group mark container"><g transform="translate(0,0)"><path class="background" aria-hidden="true" d="M0,0h455v500h-455Z"/><g><g class="mark-shape role-mark layer_0_marks" role="graphics-symbol" aria-roledescription="shape mark container"><path transform="translate(0,0)" d="M188.194,493.712L179.556,485.994L178.726,484.687L175.651,479.534L174.701,476.723L171.228,466.391L167.116,460.474L165.959,459.019L161.795,456.553L158.443,454.605L156.128,452.361L154.4,448.071L153.674,446.32L152.275,438.578L149.891,434.855L149.269,433.844L147.196,427.335L145.451,423.858L140.699,414.538L134.756,405.242L130.333,399.793L127.914,398.141L126.584,397.919L125.91,397.895L123.491,397.574L121.47,392.248L120.951,388.797L120.52,385.912L116.649,378.515L111.38,368.357L109.583,362.045L109.825,355.24L110.741,350.136L111.259,349.2L112.14,347.375L114.438,342.937L115.164,335.54L114.766,331.152L112.883,324.594L113.764,312.71L113.315,307.533L111.414,301.763L111.207,295.575L110.343,292.469L109.894,292.05L106.162,288.203L102.569,284.505L100.271,282.212L92.859,272.08L83.27,258.988L83.132,258.767L80.644,255.389L78.484,253.072L72.748,246.883L71.521,245.7L65.699,246.316L61.38,242.347L56.248,237.589L50.512,226.84L48.785,223.586L46.107,222.329L41.874,220.356L38.505,217.793L38.142,217.571L32.302,213.182L28.639,210.446L24.683,207.488L20.277,205.688L17.34,204.455L7.751,195.999L3.276,194.545L2.309,193.51L0.996,184.289L1.808,174.009L2.793,169.72L4.348,166.86L4.624,166.417L5.419,164.888L6.093,162.201L7.146,158.109L8.235,153.696L10.135,150.837L14.109,144.821L20.122,135.7L23.111,131.189L27.482,124.583L31.438,110.285L32.198,107.647L33.373,97.737L34.548,94.04L37.053,90.293L39.351,86.792L43.29,80.876L44.949,79.2L45.243,78.954L48.076,76.045L49.769,72.816L50.478,64.311L46.107,66.406L43.964,62.586L44.31,61.748L45.675,58.247L48.802,50.384L52.084,47.13L58.114,41.066L55.626,37.221L55.108,35.027L56.11,27.065L63.056,19.793L69.154,13.385L75.685,8.282L79.642,7.05L94.12,7.592L100.495,6.36L107.216,3.278L108.477,1.75L108.546,1.627L109.859,0L112.935,0L117.461,0.518L123.18,3.278L126.446,4.831L130.212,4.757L131.335,4.141L132.959,3.204L135.361,6.631L139.697,10.032L146.28,10.476L148.215,9.712L153.104,7.74L159.203,7.173L161.242,7.493L163.091,10.451L165.63,11.758L183.115,13.36L187.019,15.085L190.596,14.888L192.531,14.814L194.501,19.424L195.693,26.966L196.487,28.667L199.304,31.009L201.705,36.605L207.441,41.288L210.119,42.348L212.935,43.408L215.942,44.542L221.557,46.686L224.045,53.687L225.582,56.251L227.604,56.965L229.366,57.064L230.333,57.187L239.629,58.025L253.105,57.853L261.139,57.779L274.511,54.698L282.632,54.476L286.64,52.701L290.389,52.06L295.486,51.74L301.464,51.37L308.858,51.542L314.266,51.666L319.397,51.789L321.574,52.38L325.496,53.465L328.762,53.588L332.615,48.905L337.055,43.506L339.975,43.58L340.856,43.654L343.154,43.679L343.81,42.299L344.899,39.957L349.857,37.615L353.071,37.245L354.038,37.319L354.315,38.133L357.2,37.196L358.634,38.601L359.101,41.14L359.722,44.468L361.156,44.566L380.645,46.021L382.891,45.824L387.971,43.433L391.858,43.408L398.043,43.359L400.22,43.359L430.818,45.503L434.187,46.243L438.42,47.229L439.198,48.19L439.284,50.384L439.353,51.173L442.999,59.529L444.882,60.638L451.534,61.723L452.847,62.61L454.004,64.927L452.242,74.369L449.132,78.584L446.679,81.912L445.556,84.081L444.795,88.444L445.055,98.033L446.091,99.956L450.998,100.794L453.037,110.408L452.76,113.465L451.534,119.011L449.201,121.526L447.404,123.424L446.765,125.1L444.467,157.345L440.407,166.737L438.144,171.988L438.109,176.82L441.081,178.126L445.867,180.271L446.195,182.416L445.21,186.705L442.014,189.072L437.263,192.573L434.982,194.274L433.064,196.32L431.838,199.697L431.302,201.25L428.365,203.223L427.95,203.519L422.301,210.692L421.281,210.914L420.953,222.205L416.772,225.78L415.079,227.21L411.364,230.366L410.5,231.475L406.976,236.036L396.506,243.826L394.933,244.96L391.91,246.563L389.733,247.722L385.984,252.258L384.913,255.241L382.304,257.632L379.108,258.89L378.658,259.038L376.827,259.777L369.311,265.497L366.893,267.371L358.444,270.674L354.194,270.896L353.572,271.513L347.473,277.282L342.255,289.116L338.541,297.547L330.835,301.468L323.354,303.933L323.509,305.19L323.838,307.779L322.214,312.365L319.397,314.978L318.326,316.556L318.292,316.679L314.042,323.139L311.381,325.259L309.204,326.172L307.614,326.837L306.561,329.525L306.595,331.596L306.647,335.91L305.662,341.852L304.556,343.159L301.066,347.4L298.371,352.602L297.231,354.796L292.704,358.667L290.216,360.812L290.234,363.672L291.287,364.806L292.428,366.064L293.171,370.995L292.791,371.537L289.681,375.606L287.089,379.033L281.871,385.986L282.079,406.179L281.319,414.119L277.068,420.998L266.356,432.365L264.162,435.94L262.728,439.959L262.331,441.093L258.737,446.69L257.476,446.863L255.264,447.159L252.725,449.378L247.611,453.915L245.572,464L245.192,465.898L239.214,472.186L237.02,477.981L235.672,481.482L228.64,491.493L223.855,495.34L223.319,495.783L223.094,495.981L221.781,497.066L211.294,500L202.172,499.704Z" fill="gray" stroke="white"/></g><g class="mark-symbol role-mark layer_1_marks" role="graphics-object" aria-roledescription="symbol mark container"><path aria-label="longitude: 167.47822; latitude: −45.50608" role="graphics-symbol" aria-roledescription="circle" transform="translate(318.89643580652773,179.87669251207262)" d="M5,0A5,5,0,1,1,-5,0A5,5,0,1,1,5,0" fill="brown" stroke-width="2" opacity="0.7"/><path aria-label="longitude: 167.47839; latitude: −45.50368" role="graphics-symbol" aria-roledescription="circle" transform="translate(321.83356101764366,120.71226376108825)" d="M5,0A5,5,0,1,1,-5,0A5,5,0,1,1,5,0" fill="brown" stroke-width="2" opacity="0.7"/><path aria-label="longitude: 167.46985; latitude: −45.50471" role="graphics-symbol" aria-roledescription="circle" transform="translate(174.28619554825127,146.1033559961943)" d="M5,0A5,5,0,1,1,-5,0A5,5,0,1,1,5,0" fill="brown" stroke-width="2" opacity="0.7"/><path aria-label="longitude: 167.47371; latitude: −45.50603" role="graphics-symbol" aria-roledescription="circle" transform="translate(240.97622385900468,178.64407530147582)" d="M5,0A5,5,0,1,1,-5,0A5,5,0,1,1,5,0" fill="brown" stroke-width="2" opacity="0.7"/><path aria-label="longitude: 167.468935472; latitude: −45.5086564779" role="graphics-symbol" aria-roledescription="circle" transform="translate(158.48569751810282,243.39443565486)" d="M5,0A5,5,0,1,1,-5,0A5,5,0,1,1,5,0" fill="brown" stroke-width="2" opacity="0.7"/><path aria-label="longitude: 167.46526; latitude: −45.50827" role="graphics-symbol" aria-roledescription="circle" transform="translate(94.98380493465811,233.86643592675682)" d="M5,0A5,5,0,1,1,-5,0A5,5,0,1,1,5,0" fill="brown" stroke-width="2" opacity="0.7"/><path aria-label="longitude: 167.46574; latitude: −45.50211" role="graphics-symbol" aria-roledescription="circle" transform="translate(103.27686448581517,82.01023133203853)" d="M5,0A5,5,0,1,1,-5,0A5,5,0,1,1,5,0" fill="brown" stroke-width="2" opacity="0.7"/><path aria-label="longitude: 167.47632; latitude: −45.50121" role="graphics-symbol" aria-roledescription="circle" transform="translate(286.0697381342761,59.82483959803358)" d="M5,0A5,5,0,1,1,-5,0A5,5,0,1,1,5,0" fill="brown" stroke-width="2" opacity="0.7"/><path aria-label="longitude: 167.47079; latitude: −45.49971" role="graphics-symbol" aria-roledescription="circle" transform="translate(190.52677315706387,22.849974275799468)" d="M5,0A5,5,0,1,1,-5,0A5,5,0,1,1,5,0" fill="brown" stroke-width="2" opacity="0.7"/><path aria-label="longitude: 167.46855; latitude: −45.50359" role="graphics-symbol" aria-roledescription="circle" transform="translate(151.82582382531837,118.49364663660526)" d="M5,0A5,5,0,1,1,-5,0A5,5,0,1,1,5,0" fill="brown" stroke-width="2" opacity="0.7"/></g></g><path class="foreground" aria-hidden="true" d="" display="none"/></g></g></g></svg>